<?xml version="1.0" encoding="UTF-8"?>
<!DOCTYPE svg PUBLIC "-//W3C//DTD SVG 1.1//EN" "http://www.w3.org/Graphics/SVG/1.1/DTD/svg11.dtd">
<!-- Creator: CorelDRAW X6 -->
<svg xmlns="http://www.w3.org/2000/svg" xml:space="preserve" width="900px" height="506px" version="1.1" style="shape-rendering:geometricPrecision; text-rendering:geometricPrecision; image-rendering:optimizeQuality; fill-rule:evenodd; clip-rule:evenodd"
viewBox="0 0 900 506"
 xmlns:xlink="http://www.w3.org/1999/xlink">
 <defs>
  <style type="text/css">
   <![CDATA[
    .str1 {stroke:#2D3B60;stroke-width:2.42384}
    .str0 {stroke:#2D3B60;stroke-width:2.8961}
    .fil1 {fill:none}
    .fil2 {fill:#425CA4}
    .fil0 {fill:#E62F57}
    .fil4 {fill:#FFD552}
    .fil5 {fill:#2E3D67;fill-rule:nonzero}
    .fil3 {fill:#FFFAEF;fill-rule:nonzero}
   ]]>
  </style>
 </defs>
 <g id="Layer_x0020_1" visibility="hidden">
  <metadata id="CorelCorpID_0Corel-Layer"/>
  <path class="fil0" d="M237 412c-22,-5 -40,-21 -49,-41 0,-1 -2,-2 -3,-1 -10,8 9,35 51,46 2,1 3,-3 1,-4z"/>
  <path class="fil0" d="M233 425c-17,1 -34,-4 -50,-12 -5,-3 -6,2 -3,5 13,10 34,11 52,10 2,0 2,-4 0,-4z"/>
  <path class="fil0" d="M658 412c22,-5 40,-21 49,-41 0,-1 2,-2 3,-1 10,8 -9,35 -51,46 -2,1 -3,-3 -1,-4z"/>
  <path class="fil0" d="M662 425c17,1 34,-4 50,-12 5,-3 6,2 3,5 -13,10 -34,11 -52,10 -2,0 -2,-4 0,-4z"/>
  <path class="fil0" d="M299 456c0,2 0,3 0,5 0,5 -3,8 -8,10 -5,1 -11,2 -19,2 -13,0 -20,-2 -22,-5 -2,-3 -2,-11 -2,-25l0 -10c0,-20 1,-31 2,-34 1,-2 2,-3 3,-4 1,0 2,-1 4,-1 4,-1 8,-1 14,-1 8,0 15,1 20,2 5,1 8,5 8,10 0,7 -1,10 -4,10 -1,0 -2,0 -4,-1 -2,0 -3,-1 -4,-1 -3,0 -5,0 -6,1 -1,1 -2,3 -2,5 0,3 1,5 4,6 3,0 5,1 8,1 2,0 3,2 3,7 0,3 -1,5 -2,6 -1,1 -3,1 -6,1 -3,0 -6,1 -7,2 -1,1 -1,2 -1,4 0,2 1,4 2,5 1,1 3,1 6,1 2,0 5,0 8,-1 2,0 3,1 4,5z"/>
  <path class="fil0" d="M361 442c0,12 0,20 -1,23 -1,4 -3,7 -7,7l-6 0c-4,0 -7,-2 -10,-5 -7,-9 -12,-16 -14,-19 0,0 0,0 -1,0 -1,0 -1,2 -1,5 0,4 0,8 0,11 0,6 -2,8 -6,8l-3 0c-3,0 -5,-3 -5,-10 0,-12 -1,-22 -1,-32 0,-21 1,-33 3,-35 2,-3 5,-4 8,-4l6 0c3,0 6,2 9,7 5,9 9,14 10,16 1,1 1,1 1,1 0,0 0,0 0,-1 0,-1 0,-6 0,-15 0,-5 2,-8 6,-8l3 0c3,0 5,3 5,9 0,11 1,25 1,42z"/>
  <path class="fil0" d="M427 444c0,2 0,5 0,10 0,4 0,7 0,9l0 3c0,4 -2,6 -6,6 -4,0 -7,-2 -7,-5l0 -2c-3,5 -9,8 -17,8 -9,0 -16,-4 -21,-11 -5,-8 -8,-18 -8,-30 0,-13 3,-23 8,-31 5,-7 13,-11 22,-11 15,0 25,9 28,26 0,1 0,2 0,3 0,3 -1,5 -3,6 -1,1 -3,1 -6,1 -3,0 -4,-1 -5,-4 -1,-7 -4,-11 -7,-10 -3,1 -5,5 -5,14 0,2 0,4 0,5 0,14 3,20 8,20 3,0 5,-3 5,-8 0,-4 1,-6 3,-7 1,0 3,-1 6,0 3,0 5,3 5,8z"/>
  <path class="fil0" d="M483 454c1,2 1,4 1,7 0,3 -1,5 -3,7 -1,1 -3,2 -5,3 -5,2 -11,2 -18,2 -2,0 -6,0 -11,0 -4,0 -7,-2 -9,-5 -2,-2 -3,-14 -3,-36 0,-9 0,-17 0,-24 0,-7 2,-11 6,-13 2,-1 8,-2 17,-2 3,0 5,1 6,4 1,2 1,5 1,10 0,6 0,16 0,31l0 5c0,1 0,4 1,9 1,1 3,2 6,2 1,0 2,0 4,0 2,0 3,0 4,0 1,0 2,1 3,3z"/>
  <path class="fil0" d="M520 458c0,6 -1,10 -3,12 -1,1 -4,2 -9,3 -1,0 -1,0 -3,0 -6,0 -10,-2 -12,-5 -1,-1 -2,-7 -2,-18l0 -19c0,-7 0,-14 0,-21 0,-6 1,-11 3,-13 2,-3 6,-5 13,-5 1,0 2,0 5,0 6,0 8,4 8,11l0 56z"/>
  <path class="fil0" d="M539 470c-3,-2 -6,-4 -9,-7 -1,-1 -1,-3 -1,-5 0,-1 0,-2 0,-4 1,-5 3,-8 5,-8 1,0 3,1 4,2 3,3 4,4 6,4 2,0 2,-1 2,-3 0,-2 -1,-4 -4,-6 -8,-6 -12,-14 -13,-23 -1,-19 8,-29 26,-30 6,0 12,1 18,4 3,2 6,4 9,7 1,1 1,3 1,5 0,1 0,2 0,4 -1,5 -3,8 -5,8 -1,0 -3,-1 -4,-2 -3,-3 -4,-4 -6,-4 -2,0 -2,1 -2,3 0,2 1,4 4,6 8,6 12,14 13,23 1,19 -8,29 -26,30 -6,0 -12,-1 -18,-4z"/>
  <path class="fil0" d="M651 412c0,12 1,22 1,30 0,13 0,21 -1,23 0,2 -1,3 -1,4 -1,2 -6,3 -14,3 -4,0 -6,-2 -6,-6 0,-2 0,-4 0,-5l0 -12c0,-2 0,-3 0,-5 0,-2 -1,-3 -2,-4 -1,0 -2,0 -3,0 -2,0 -3,1 -4,1 -1,1 -2,3 -2,5 0,1 0,2 0,4l0 7c0,4 0,7 -1,8 -1,2 -2,4 -5,5 -1,0 -3,1 -5,1 -1,0 -3,0 -3,0 -6,0 -9,-2 -11,-4 -1,-1 -2,-13 -2,-36 0,-22 1,-35 2,-37 1,-2 6,-3 13,-3 5,0 7,0 8,1 3,1 4,5 4,10 0,2 0,5 0,10 0,1 0,2 0,3 0,3 0,6 1,7 1,1 2,2 5,2 3,0 4,-1 5,-2 0,-1 0,-3 0,-7l-1 -16c0,-1 0,-3 0,-4 1,-3 2,-4 6,-4 7,0 12,1 13,2 2,1 3,4 3,6 0,1 0,5 1,12z"/>
  <path class="fil1 str0" d="M295 451c0,2 0,3 0,5 0,5 -3,8 -8,10 -5,1 -11,2 -19,2 -13,0 -20,-2 -22,-5 -2,-3 -2,-11 -2,-25l0 -10c0,-20 1,-31 2,-34 1,-2 2,-3 3,-4 1,0 2,-1 4,-1 4,-1 8,-1 14,-1 8,0 15,1 20,2 5,1 8,5 8,10 0,7 -1,10 -4,10 -1,0 -2,0 -4,-1 -2,0 -3,-1 -4,-1 -3,0 -5,0 -6,1 -1,1 -2,3 -2,5 0,3 1,5 4,6 3,0 5,1 8,1 2,0 3,2 3,7 0,3 -1,5 -2,6 -1,1 -3,1 -6,1 -3,0 -6,1 -7,2 -1,1 -1,2 -1,4 0,2 1,4 2,5 1,1 3,1 6,1 2,0 5,0 8,-1 2,0 3,1 4,5z"/>
  <path class="fil1 str0" d="M358 438c0,12 0,20 -1,23 -1,4 -3,7 -7,7l-6 0c-4,0 -7,-2 -10,-5 -7,-9 -12,-16 -14,-19 0,0 0,0 -1,0 -1,0 -1,2 -1,5 0,4 0,8 0,11 0,6 -2,8 -6,8l-3 0c-3,0 -5,-3 -5,-10 0,-12 -1,-22 -1,-32 0,-21 1,-33 3,-35 2,-3 5,-4 8,-4l6 0c3,0 6,2 9,7 5,9 9,14 10,16 1,1 1,1 1,1 0,0 0,0 0,-1 0,-1 0,-6 0,-15 0,-5 2,-8 6,-8l3 0c3,0 5,3 5,9 0,11 1,25 1,42z"/>
  <path class="fil1 str0" d="M424 439c0,2 0,5 0,10 0,4 0,7 0,9l0 3c0,4 -2,6 -6,6 -4,0 -7,-2 -7,-5l0 -2c-3,5 -9,8 -17,8 -9,0 -16,-4 -21,-11 -5,-8 -8,-18 -8,-30 0,-13 3,-23 8,-31 5,-7 13,-11 22,-11 15,0 25,9 28,26 0,1 0,2 0,3 0,3 -1,5 -3,6 -1,1 -3,1 -6,1 -3,0 -4,-1 -5,-4 -1,-7 -4,-11 -7,-10 -3,1 -5,5 -5,14 0,2 0,4 0,5 0,14 3,20 8,20 3,0 5,-3 5,-8 0,-4 1,-6 3,-7 1,0 3,-1 6,0 3,0 5,3 5,8z"/>
  <path class="fil1 str0" d="M480 449c1,2 1,4 1,7 0,3 -1,5 -3,7 -1,1 -3,2 -5,3 -5,2 -11,2 -18,2 -2,0 -6,0 -11,0 -4,0 -7,-2 -9,-5 -2,-2 -3,-14 -3,-36 0,-9 0,-17 0,-24 0,-7 2,-11 6,-13 2,-1 8,-2 17,-2 3,0 5,1 6,4 1,2 1,5 1,10 0,6 0,16 0,31l0 5c0,1 0,4 1,9 1,1 3,2 6,2 1,0 2,0 4,0 2,0 3,0 4,0 1,0 2,1 3,3z"/>
  <path class="fil1 str0" d="M517 453c0,6 -1,10 -3,12 -1,1 -4,2 -9,3 -1,0 -1,0 -3,0 -6,0 -10,-2 -12,-5 -1,-1 -2,-7 -2,-18l0 -19c0,-7 0,-14 0,-21 0,-6 1,-11 3,-13 2,-3 6,-5 13,-5 1,0 2,0 5,0 6,0 8,4 8,11l0 56z"/>
  <path class="fil1 str0" d="M535 465c-3,-2 -6,-4 -9,-7 -1,-1 -1,-3 -1,-5 0,-1 0,-2 0,-4 1,-5 3,-8 5,-8 1,0 3,1 4,2 3,3 4,4 6,4 2,0 2,-1 2,-3 0,-2 -1,-4 -4,-6 -8,-6 -12,-14 -13,-23 -1,-19 8,-29 26,-30 6,0 12,1 18,4 3,2 6,4 9,7 1,1 1,3 1,5 0,1 0,2 0,4 -1,5 -3,8 -5,8 -1,0 -3,-1 -4,-2 -3,-3 -4,-4 -6,-4 -2,0 -2,1 -2,3 0,2 1,4 4,6 8,6 12,14 13,23 1,19 -8,29 -26,30 -6,0 -12,-1 -18,-4z"/>
  <path class="fil1 str0" d="M647 407c0,12 1,22 1,30 0,13 0,21 -1,23 0,2 -1,3 -1,4 -1,2 -6,3 -14,3 -4,0 -6,-2 -6,-6 0,-2 0,-4 0,-5l0 -12c0,-2 0,-3 0,-5 0,-2 -1,-3 -2,-4 -1,0 -2,0 -3,0 -2,0 -3,1 -4,1 -1,1 -2,3 -2,5 0,1 0,2 0,4l0 7c0,4 0,7 -1,8 -1,2 -2,4 -5,5 -1,0 -3,1 -5,1 -1,0 -3,0 -3,0 -6,0 -9,-2 -11,-4 -1,-1 -2,-13 -2,-36 0,-22 1,-35 2,-37 1,-2 6,-3 13,-3 5,0 7,0 8,1 3,1 4,5 4,10 0,2 0,5 0,10 0,1 0,2 0,3 0,3 0,6 1,7 1,1 2,2 5,2 3,0 4,-1 5,-2 0,-1 0,-3 0,-7l-1 -16c0,-1 0,-3 0,-4 1,-3 2,-4 6,-4 7,0 12,1 13,2 2,1 3,4 3,6 0,1 0,5 1,12z"/>
 </g>
 <g id="Layer_x0020_2" visibility="hidden">
  <metadata id="CorelCorpID_1Corel-Layer"/>
  <path class="fil2" d="M783 266c-16,-21 -48,-23 -71,-16 -17,5 -33,17 -38,34 -3,10 -5,35 17,48 -2,7 -4,15 -6,22 0,1 1,2 2,2 8,-4 15,-11 20,-19 20,3 43,0 61,-10 23,-12 31,-40 14,-61z"/>
  <path class="fil1 str1" d="M780 263c-16,-21 -48,-23 -71,-16 -17,5 -33,17 -38,34 -3,10 -5,35 17,48 -2,7 -4,15 -6,22 0,1 1,2 2,2 8,-4 15,-11 20,-19 20,3 43,0 61,-10 23,-12 31,-40 14,-61z"/>
  <path class="fil3" d="M691 300c-1,-3 0,-5 1,-7 1,-1 3,-2 5,-3 2,0 4,0 6,1 2,1 3,3 3,5 0,2 0,4 0,5 0,1 -1,2 -2,3 -1,1 -2,1 -4,2 -2,0 -4,0 -6,-1 -2,-1 -3,-3 -3,-6zm3 0c0,2 1,3 2,4 1,1 2,1 4,1 1,0 2,-1 3,-2 1,-1 1,-3 0,-5 0,-2 -1,-3 -2,-4 -1,-1 -2,-1 -4,-1 -1,0 -2,1 -3,2 -1,1 -1,3 0,5z"/>
  <path id="1" class="fil3" d="M710 305l-3 -15 2 0 0 2c0,-1 1,-2 1,-2 0,0 1,-1 2,-1 1,0 2,0 3,0l0 3c-1,0 -1,0 -2,0 -1,0 -1,0 -1,1 0,0 -1,1 -1,2 0,1 0,2 0,3l1 8 -3 0z"/>
  <path id="2" class="fil3" d="M728 301l-3 -15 2 0 0 2c1,-2 2,-3 4,-3 1,0 2,0 3,0 1,0 2,1 2,1 0,0 1,1 1,2 0,0 0,1 1,3l2 10 -3 0 -2 -9c0,-1 0,-2 -1,-2 0,0 -1,-1 -1,-1 -1,0 -1,0 -2,0 -1,0 -2,1 -3,2 -1,1 -1,2 0,4l2 8 -3 0z"/>
  <path id="3" class="fil3" d="M742 291c-1,-3 0,-5 1,-7 1,-1 3,-2 5,-3 2,0 4,0 6,1 2,1 3,3 3,5 0,2 0,4 0,5 0,1 -1,2 -2,3 -1,1 -2,1 -4,2 -2,0 -4,0 -6,-1 -2,-1 -3,-3 -3,-6zm3 0c0,2 1,3 2,4 1,1 2,1 4,1 1,0 2,-1 3,-2 1,-1 1,-3 0,-5 0,-2 -1,-3 -2,-4 -1,-1 -2,-1 -4,-1 -1,0 -2,1 -3,2 -1,1 -1,3 0,5z"/>
  <path id="4" class="fil3" d="M766 292l1 2c-1,0 -1,0 -2,1 -1,0 -2,0 -2,0 -1,0 -1,-1 -1,-1 0,0 -1,-1 -1,-3l-2 -9 -2 0 0 -2 2 0 -1 -4 2 -2 1 5 3 0 0 2 -3 0 2 9c0,1 0,1 0,1 0,0 0,0 1,0 0,0 1,0 1,0 0,0 1,0 1,0z"/>
  <path id="5" class="fil3" d="M770 288l-3 -11 -1 -5 3 -1 1 5 1 11 -2 0zm0 5l-1 -3 3 -1 1 3 -3 1z"/>
 </g>
 <g id="Layer_x0020_3" visibility="hidden">
  <metadata id="CorelCorpID_2Corel-Layer"/>
  <path class="fil4" d="M642 149c5,-3 11,-2 15,0 2,-8 10,-14 18,-13 7,1 14,6 16,13 6,-3 13,-4 19,-1 7,3 12,10 13,18 0,1 0,2 0,4 15,4 21,25 10,36 -2,2 -4,4 -7,5 0,3 -1,7 -4,10 -4,4 -9,5 -15,4 -3,-1 -6,-3 -9,-5 -2,2 -5,4 -8,5 -7,2 -15,-2 -18,-9 -4,4 -11,6 -16,4 -6,-2 -11,-6 -12,-12 0,-1 -1,-3 -1,-4 -2,3 -5,5 -8,7 -1,0 -2,0 -1,-1 1,-4 2,-8 3,-12 0,0 -1,0 -1,-1 -5,-3 -7,-9 -7,-15 0,-5 3,-10 6,-13 -3,-7 -1,-16 6,-20z"/>
  <path class="fil1 str1" d="M638 145c5,-3 11,-2 15,0 2,-8 10,-14 18,-13 7,1 14,6 16,13 6,-3 13,-4 19,-1 7,3 12,10 13,18 0,1 0,2 0,4 15,4 21,25 10,36 -2,2 -4,4 -7,5 0,3 -1,7 -4,10 -4,4 -9,5 -15,4 -3,-1 -6,-3 -9,-5 -2,2 -5,4 -8,5 -7,2 -15,-2 -18,-9 -4,4 -11,6 -16,4 -6,-2 -11,-6 -12,-12 0,-1 -1,-3 -1,-4 -2,3 -5,5 -8,7 -1,0 -2,0 -1,-1 1,-4 2,-8 3,-12 0,0 -1,0 -1,-1 -5,-3 -7,-9 -7,-15 0,-5 3,-10 6,-13 -3,-7 -1,-16 6,-20z"/>
  <path class="fil3" d="M645 178l2 -22 3 1 -2 14c0,2 0,3 -1,4 1,-2 2,-3 2,-3l9 -12 3 1 -1 11c0,3 -1,5 -1,8 1,-1 2,-3 3,-4l8 -12 3 1 -13 18 -3 -1 1 -17c0,-1 0,-2 0,-3 -1,1 -1,2 -1,2l-10 14 -3 -1z"/>
  <polygon id="1" class="fil3" points="669,187 677,167 691,172 690,174 678,170 676,176 687,180 687,183 675,179 673,186 685,190 684,193 "/>
  <polygon id="2" class="fil3" points="689,194 696,174 699,175 693,193 703,196 702,199 "/>
  <polygon id="3" class="fil3" points="706,200 713,180 716,181 710,199 720,202 719,205 "/>
 </g>
 <g id="Layer_x0020_4" visibility="hidden">
  <metadata id="CorelCorpID_3Corel-Layer"/>
  <path class="fil2" d="M619 78c-16,-22 -49,-23 -73,-16 -17,5 -34,17 -39,35 -3,10 -6,35 18,49 -2,8 -4,15 -6,23 0,1 1,2 2,2 9,-5 16,-11 21,-19 21,3 44,0 63,-10 23,-13 31,-40 15,-62z"/>
  <path class="fil1 str1" d="M615 75c-16,-22 -49,-23 -73,-16 -17,5 -34,17 -39,35 -3,10 -6,35 18,49 -2,8 -4,15 -6,23 0,1 1,2 2,2 9,-5 16,-11 21,-19 21,3 44,0 63,-10 23,-13 31,-40 15,-62z"/>
  <path class="fil3" d="M524 124l0 -14 -13 -19 5 0 7 10c1,2 2,4 3,6 1,-2 2,-4 4,-6l6 -10 5 0 -13 19 0 14 -4 0z"/>
  <path id="1" class="fil3" d="M557 116l4 1c-1,2 -2,4 -4,6 -2,1 -4,2 -7,2 -3,0 -6,-1 -8,-3 -2,-2 -3,-5 -3,-9 0,-4 1,-7 3,-9 2,-2 5,-3 8,-3 3,0 6,1 8,3 2,2 3,5 3,9 0,0 0,1 0,1l-18 0c0,3 1,5 2,6 1,1 3,2 5,2 1,0 3,0 4,-1 1,-1 2,-2 3,-4zm-13 -7l13 0c0,-2 -1,-4 -2,-5 -1,-2 -3,-2 -5,-2 -2,0 -3,1 -5,2 -1,1 -2,3 -2,5z"/>
  <path id="2" class="fil3" d="M565 117l4 -1c0,2 1,3 2,4 1,1 2,1 4,1 2,0 3,0 4,-1 1,-1 1,-2 1,-3 0,-1 0,-2 -1,-2 -1,0 -2,-1 -4,-1 -3,-1 -5,-1 -6,-2 -1,-1 -2,-1 -3,-2 -1,-1 -1,-2 -1,-3 0,-1 0,-2 1,-3 0,-1 1,-2 2,-2 1,0 1,-1 3,-1 1,0 2,0 4,0 2,0 4,0 5,1 1,1 2,1 3,2 1,1 1,2 1,4l-4 1c0,-1 -1,-2 -2,-3 -1,-1 -2,-1 -4,-1 -2,0 -3,0 -4,1 -1,1 -1,1 -1,2 0,1 0,1 0,1 0,0 1,1 2,1 0,0 2,1 4,1 3,1 5,1 6,2 1,0 2,1 3,2 1,1 1,2 1,3 0,1 0,3 -1,4 -1,1 -2,2 -3,3 -1,1 -3,1 -5,1 -3,0 -5,-1 -7,-2 -2,-1 -3,-3 -3,-6z"/>
  <polygon id="3" class="fil3" points="591,124 591,119 595,119 595,124 "/>
  <polygon id="4" class="fil3" points="604,124 604,119 608,119 608,124 "/>
 </g>
 <g id="Layer_x0020_5">
  <metadata id="CorelCorpID_4Corel-Layer"/>
  <path class="fil0" d="M330 124c5,6 12,11 20,15 16,7 49,4 66,0 3,10 -4,23 -15,32 -1,1 1,2 2,1 21,-10 43,-29 49,-52 3,-11 2,-22 -2,-32 -14,-34 -58,-35 -88,-25 -16,5 -34,18 -38,35 -2,10 1,19 7,27z"/>
  <polygon class="fil3" points="330,119 327,94 331,93 334,118 "/>
  <path id="1" class="fil3" d="M355 113l1 3c-1,0 -2,0 -2,1 -1,0 -2,0 -3,0 -1,0 -1,-1 -1,-1 0,-1 -1,-2 -1,-4l-1 -10 -2 0 0 -2 2 0 -1 -4 3 -2 1 6 3 0 0 2 -3 0 1 11c0,1 0,1 0,2 0,0 0,0 1,1 0,0 1,0 1,0 0,0 1,0 1,0z"/>
  <path id="2" class="fil3" d="M358 115l-3 -25 3 0 1 9c1,-2 3,-3 5,-3 1,0 3,0 4,0 1,0 2,1 2,2 1,1 1,2 1,4l1 11 -3 0 -1 -11c0,-2 -1,-3 -1,-3 -1,-1 -2,-1 -3,-1 -1,0 -2,0 -2,1 -1,1 -1,1 -1,2 0,1 0,2 0,3l1 10 -3 0z"/>
  <path id="3" class="fil3" d="M375 91l0 -4 3 0 0 4 -3 0zm3 21l-2 -18 3 0 2 18 -3 0z"/>
  <path id="4" class="fil3" d="M386 112l-2 -18 3 0 0 3c1,-2 3,-3 5,-4 1,0 2,0 3,0 1,0 2,1 2,1 1,1 1,1 1,2 0,1 0,2 1,3l1 11 -3 0 -1 -11c0,-1 0,-2 -1,-3 0,-1 -1,-1 -1,-1 -1,0 -1,0 -2,0 -1,0 -2,1 -3,2 -1,1 -1,3 -1,5l1 10 -3 0z"/>
  <polygon id="5" class="fil3" points="405,109 402,84 405,84 407,98 413,90 417,90 411,97 420,107 416,108 409,99 407,102 408,109 "/>
  <polygon id="6" class="fil3" points="423,107 423,104 426,103 427,107 "/>
  <polygon id="7" class="fil3" points="433,106 433,102 436,102 437,105 "/>
  <polygon id="8" class="fil3" points="443,105 442,101 446,101 446,104 "/>
  <path class="fil1 str1" d="M326 122c5,6 12,11 20,15 16,7 49,4 66,0 3,10 -4,23 -15,32 -1,1 1,2 2,1 21,-10 43,-29 49,-52 3,-11 2,-22 -2,-32 -14,-34 -58,-35 -88,-25 -16,5 -34,18 -38,35 -2,10 1,19 7,27z"/>
 </g>
 <g id="Layer_x0020_6" visibility="hidden">
  <metadata id="CorelCorpID_5Corel-Layer"/>
  <path class="fil4" d="M276 136c-5,-3 -11,-2 -15,0 -2,-8 -10,-14 -18,-13 -7,1 -14,6 -16,13 -6,-3 -13,-4 -19,-1 -7,3 -12,10 -13,18 0,1 0,2 0,4 -15,4 -21,25 -10,36 2,2 4,4 7,5 0,3 1,7 4,10 4,4 9,5 15,4 3,-1 6,-3 9,-5 2,2 5,4 8,5 7,2 15,-2 18,-9 4,4 11,6 16,4 6,-2 11,-6 12,-12 0,-1 1,-3 1,-4 2,3 5,5 8,7 1,0 2,0 1,-1 -1,-4 -2,-8 -3,-12 0,0 1,0 1,-1 5,-3 7,-9 7,-15 0,-5 -3,-10 -6,-13 3,-7 1,-16 -6,-20z"/>
  <path class="fil3" d="M197 188l-3 -13 2 -1 0 2c0,-1 1,-1 1,-2 1,-1 1,-1 2,-1 1,0 2,0 2,0 1,0 1,1 2,1 1,-2 2,-3 3,-3 1,0 2,0 3,0 1,1 1,1 2,3l2 9 -2 1 -2 -8c0,-1 0,-1 -1,-2 0,0 -1,-1 -1,-1 0,0 -1,0 -1,0 -1,0 -2,1 -2,1 0,1 0,2 0,3l2 7 -2 1 -2 -8c0,-1 -1,-2 -1,-2 0,0 -1,0 -2,0 -1,0 -1,0 -2,1 0,0 -1,1 -1,2 0,1 0,2 0,3l2 6 -2 1z"/>
  <path id="1" class="fil3" d="M217 183l-3 -13 2 -1 0 2c0,-1 1,-1 1,-2 1,-1 1,-1 2,-1 1,0 2,0 2,0 1,0 1,1 2,1 1,-2 2,-3 3,-3 1,0 2,0 3,0 1,1 1,1 2,3l2 9 -2 1 -2 -8c0,-1 0,-1 -1,-2 0,0 -1,-1 -1,-1 0,0 -1,0 -1,0 -1,0 -2,1 -2,1 0,1 0,2 0,3l2 7 -2 1 -2 -8c0,-1 -1,-2 -1,-2 0,0 -1,0 -2,0 -1,0 -1,0 -2,1 0,0 -1,1 -1,2 0,1 0,2 0,3l2 6 -2 1z"/>
  <path id="2" class="fil3" d="M237 178l-3 -13 2 -1 0 2c0,-1 1,-1 1,-2 1,-1 1,-1 2,-1 1,0 2,0 2,0 1,0 1,1 2,1 1,-2 2,-3 3,-3 1,0 2,0 3,0 1,1 1,1 2,3l2 9 -2 1 -2 -8c0,-1 0,-1 -1,-2 0,0 -1,-1 -1,-1 0,0 -1,0 -1,0 -1,0 -2,1 -2,1 0,1 0,2 0,3l2 7 -2 1 -2 -8c0,-1 -1,-2 -1,-2 0,0 -1,0 -2,0 -1,0 -1,0 -2,1 0,0 -1,1 -1,2 0,1 0,2 0,3l2 6 -2 1z"/>
  <polygon id="3" class="fil3" points="258,172 257,170 260,169 260,171 "/>
  <polygon id="4" class="fil3" points="264,170 264,168 266,167 267,169 "/>
  <polygon id="5" class="fil3" points="271,168 271,166 273,165 274,168 "/>
  <path class="fil1 str1" d="M271 132c-5,-3 -11,-2 -15,0 -2,-8 -10,-14 -18,-13 -7,1 -14,6 -16,13 -6,-3 -13,-4 -19,-1 -7,3 -12,10 -13,18 0,1 0,2 0,4 -15,4 -21,25 -10,36 2,2 4,4 7,5 0,3 1,7 4,10 4,4 9,5 15,4 3,-1 6,-3 9,-5 2,2 5,4 8,5 7,2 15,-2 18,-9 4,4 11,6 16,4 6,-2 11,-6 12,-12 0,-1 1,-3 1,-4 2,3 5,5 8,7 1,0 2,0 1,-1 -1,-4 -2,-8 -3,-12 0,0 1,0 1,-1 5,-3 7,-9 7,-15 0,-5 -3,-10 -6,-13 3,-7 1,-16 -6,-20z"/>
 </g>
 <g id="Layer_x0020_7" visibility="hidden">
  <metadata id="CorelCorpID_6Corel-Layer"/>
  <path class="fil2" d="M154 270c13,-17 39,-18 57,-13 13,4 27,13 31,27 2,8 4,28 -14,38 2,6 3,12 5,18 0,1 -1,2 -2,1 -7,-4 -12,-9 -16,-15 -16,2 -35,0 -49,-8 -18,-10 -25,-32 -12,-49z"/>
  <polygon class="fil3" points="152,292 160,268 163,269 160,279 173,283 176,273 179,274 171,298 168,297 172,286 159,282 155,293 "/>
  <path id="1" class="fil3" d="M190 298l3 1c-1,2 -2,3 -4,3 -2,1 -3,1 -6,0 -3,-1 -4,-2 -5,-4 -1,-2 -1,-5 0,-7 1,-3 2,-5 4,-6 2,-1 4,-1 7,-1 2,1 4,2 5,4 1,2 1,5 0,7 0,0 0,0 0,1l-13 -4c-1,2 0,4 0,5 1,1 2,2 3,3 1,0 2,0 3,0 1,0 2,-1 3,-2zm-8 -8l10 3c0,-2 0,-3 0,-4 -1,-1 -2,-2 -3,-3 -1,0 -3,0 -4,0 -1,1 -2,2 -3,3z"/>
  <polygon id="2" class="fil3" points="195,306 203,282 206,283 198,307 "/>
  <polygon id="3" class="fil3" points="203,309 210,284 213,285 205,310 "/>
  <path id="4" class="fil3" d="M212 302c1,-3 3,-5 5,-6 2,-1 4,-1 6,0 2,1 4,2 5,4 1,2 1,4 0,7 -1,2 -2,4 -3,5 -1,1 -2,2 -4,2 -2,0 -3,0 -5,0 -2,-1 -4,-2 -5,-4 -1,-2 -1,-5 0,-8zm3 1c-1,2 -1,4 0,6 1,1 2,2 3,3 1,0 3,0 4,-1 1,-1 2,-2 3,-5 1,-2 1,-4 0,-5 -1,-1 -2,-2 -3,-3 -1,0 -3,0 -4,0 -1,1 -2,2 -3,5z"/>
  <path class="fil1 str1" d="M150 267c13,-17 39,-18 57,-13 13,4 27,13 31,27 2,8 4,28 -14,38 2,6 3,12 5,18 0,1 -1,2 -2,1 -7,-4 -12,-9 -16,-15 -16,2 -35,0 -49,-8 -18,-10 -25,-32 -12,-49z"/>
 </g>
 <g id="Layer_x0020_8" visibility="hidden">
  <metadata id="CorelCorpID_7Corel-Layer"/>
  <path class="fil5" d="M329 251l0 -61 21 0c5,0 8,0 11,1 4,1 7,2 9,4 3,3 6,6 7,11 2,4 2,9 2,15 0,5 -1,9 -2,12 -1,4 -2,7 -4,9 -2,2 -4,4 -6,6 -2,1 -4,2 -7,3 -3,1 -6,1 -10,1l-22 0zm8 -7l13 0c4,0 7,0 10,-1 2,-1 4,-2 6,-3 2,-2 3,-5 4,-8 1,-3 2,-7 2,-12 0,-6 -1,-11 -3,-15 -2,-3 -5,-6 -8,-7 -2,-1 -6,-1 -11,-1l-13 0 0 47zm50 -15c0,-8 2,-14 7,-18 4,-3 8,-5 14,-5 6,0 11,2 15,6 4,4 6,10 6,17 0,6 -1,10 -3,13 -2,3 -4,6 -8,8 -3,2 -7,3 -11,3 -6,0 -11,-2 -15,-6 -4,-4 -6,-10 -6,-17zm8 0c0,6 1,10 4,13 3,3 6,4 9,4 4,0 7,-1 9,-4 2,-3 4,-7 4,-13 0,-5 -1,-10 -4,-12 -3,-3 -6,-4 -9,-4 -4,0 -7,1 -9,4 -2,3 -4,7 -4,13zm66 39l-1 -7c2,0 3,1 4,1 2,0 3,0 4,-1 1,-1 2,-1 2,-2 0,-1 1,-3 2,-6 0,0 0,-1 1,-2l-17 -45 8 0 9 26c1,3 2,7 3,10 1,-3 2,-7 3,-10l10 -26 8 0 -17 45c-2,5 -3,8 -4,10 -1,2 -3,4 -5,5 -2,1 -4,2 -6,2 -1,0 -3,0 -5,-1zm40 -39c0,-8 2,-14 7,-18 4,-3 8,-5 14,-5 6,0 11,2 15,6 4,4 6,10 6,17 0,6 -1,10 -3,13 -2,3 -4,6 -8,8 -3,2 -7,3 -11,3 -6,0 -11,-2 -15,-6 -4,-4 -6,-10 -6,-17zm8 0c0,6 1,10 4,13 3,3 6,4 9,4 4,0 7,-1 9,-4 2,-3 4,-7 4,-13 0,-5 -1,-10 -4,-12 -3,-3 -6,-4 -9,-4 -4,0 -7,1 -9,4 -2,3 -4,7 -4,13zm72 22l0 -7c-3,5 -8,8 -14,8 -3,0 -5,-1 -7,-2 -2,-1 -4,-2 -5,-4 -1,-2 -2,-3 -2,-6 0,-1 0,-4 0,-7l0 -28 8 0 0 25c0,4 0,7 0,8 0,2 1,4 3,5 2,1 3,2 6,2 2,0 4,-1 6,-2 2,-1 3,-3 4,-5 1,-2 1,-5 1,-9l0 -24 8 0 0 45 -7 0z"/>
  <path class="fil5" d="M326 322l9 -1c0,4 2,6 4,8 2,2 5,3 9,3 4,0 7,-1 9,-2 2,-2 3,-4 3,-6 0,-2 -1,-4 -3,-5 -1,-1 -4,-2 -9,-3 -6,-2 -11,-3 -14,-4 -3,-1 -4,-3 -6,-5 -1,-2 -2,-4 -2,-7 0,-2 1,-4 2,-6 1,-2 3,-4 4,-5 1,-1 3,-2 6,-3 2,-1 5,-1 8,-1 4,0 8,1 11,2 3,1 5,3 7,5 1,2 2,5 3,8l-9 1c0,-3 -2,-5 -3,-6 -2,-2 -5,-2 -8,-2 -4,0 -7,1 -9,2 -2,1 -3,3 -3,5 0,1 0,2 1,3 1,1 2,2 3,2 1,0 3,1 8,2 6,2 11,3 13,4 2,1 4,3 6,5 1,2 2,5 2,8 0,3 -1,6 -3,8 -2,3 -4,5 -7,6 -3,1 -7,2 -11,2 -7,0 -12,-1 -16,-4 -4,-3 -6,-7 -7,-13zm54 36l0 -72 8 0 0 7c2,-3 4,-5 6,-6 2,-1 5,-2 9,-2 4,0 8,1 12,3 3,2 6,6 8,10 2,4 3,9 3,14 0,5 -1,10 -3,14 -2,4 -5,8 -8,10 -4,2 -8,3 -12,3 -3,0 -6,-1 -8,-2 -2,-1 -4,-3 -6,-5l0 26 -9 0zm8 -46c0,7 1,12 4,15 3,3 6,5 10,5 4,0 7,-2 10,-5 3,-3 4,-8 4,-15 0,-7 -1,-12 -4,-15 -3,-3 -6,-5 -10,-5 -4,0 -7,2 -10,5 -3,4 -4,9 -4,15zm84 9l9 1c-1,5 -4,9 -8,12 -4,3 -9,4 -15,4 -8,0 -14,-2 -18,-7 -4,-5 -7,-11 -7,-20 0,-9 2,-16 7,-20 5,-5 10,-7 18,-7 7,0 13,2 17,7 4,5 7,11 7,20 0,1 0,1 0,2l-39 0c0,6 2,10 5,13 3,3 7,5 11,5 3,0 6,-1 8,-3 2,-2 4,-4 5,-8zm-29 -14l29 0c0,-4 -2,-8 -3,-10 -3,-3 -6,-5 -11,-5 -4,0 -7,1 -10,4 -3,3 -4,6 -5,11zm84 25c-3,3 -6,5 -10,6 -3,1 -6,2 -10,2 -6,0 -10,-1 -13,-4 -3,-3 -5,-6 -5,-11 0,-3 1,-5 2,-7 1,-2 3,-4 5,-5 2,-1 4,-2 6,-3 2,0 4,-1 8,-1 7,-1 12,-2 16,-3 0,-1 0,-2 0,-2 0,-4 -1,-6 -3,-8 -2,-2 -6,-3 -10,-3 -4,0 -7,1 -9,2 -2,1 -3,4 -4,8l-9 -1c1,-4 2,-7 4,-9 2,-2 4,-4 8,-5 3,-1 7,-2 12,-2 4,0 8,1 11,2 3,1 5,2 6,4 1,2 2,4 3,6 0,2 0,4 0,8l0 12c0,8 0,13 1,16 0,2 1,4 2,6l-9 0c-1,-2 -1,-4 -2,-7zm-1 -20c-3,1 -8,2 -15,3 -4,1 -6,1 -8,2 -2,1 -3,2 -3,3 -1,1 -1,3 -1,4 0,2 1,4 3,6 2,2 4,2 8,2 3,0 6,-1 9,-2 3,-1 5,-4 6,-6 1,-2 1,-5 1,-9l0 -3zm23 26l0 -72 9 0 0 41 21 -21 11 0 -20 19 22 33 -11 0 -17 -27 -6 6 0 21 -9 0z"/>
 </g>
</svg>
