<?xml version="1.0" encoding="UTF-8"?>
<!DOCTYPE svg PUBLIC "-//W3C//DTD SVG 1.1//EN" "http://www.w3.org/Graphics/SVG/1.1/DTD/svg11.dtd">
<!-- Creator: CorelDRAW X8 -->
<svg xmlns="http://www.w3.org/2000/svg" xml:space="preserve" width="900px" height="573px" version="1.1" style="shape-rendering:geometricPrecision; text-rendering:geometricPrecision; image-rendering:optimizeQuality; fill-rule:evenodd; clip-rule:evenodd"
viewBox="0 0 900 573"
 xmlns:xlink="http://www.w3.org/1999/xlink">
 <defs>
  <style type="text/css">
   <![CDATA[
    .fil3 {fill:black;fill-rule:nonzero}
    .fil7 {fill:#50659C;fill-rule:nonzero}
    .fil29 {fill:#514A62;fill-rule:nonzero}
    .fil10 {fill:#53516E;fill-rule:nonzero}
    .fil15 {fill:#544F77;fill-rule:nonzero}
    .fil34 {fill:#58567A;fill-rule:nonzero}
    .fil11 {fill:#6A6380;fill-rule:nonzero}
    .fil9 {fill:#6EB990;fill-rule:nonzero}
    .fil18 {fill:#735846;fill-rule:nonzero}
    .fil33 {fill:#7370A0;fill-rule:nonzero}
    .fil0 {fill:#7C5186;fill-rule:nonzero}
    .fil36 {fill:#807DA8;fill-rule:nonzero}
    .fil22 {fill:#A16695;fill-rule:nonzero}
    .fil1 {fill:#A37CB2;fill-rule:nonzero}
    .fil35 {fill:#A6A8CC;fill-rule:nonzero}
    .fil8 {fill:#A8AAB9;fill-rule:nonzero}
    .fil24 {fill:#ABB1D1;fill-rule:nonzero}
    .fil16 {fill:#C4C8E2;fill-rule:nonzero}
    .fil30 {fill:#C7CBE6;fill-rule:nonzero}
    .fil37 {fill:#D17667;fill-rule:nonzero}
    .fil25 {fill:#E1E7EF;fill-rule:nonzero}
    .fil39 {fill:#E8AEE5;fill-rule:nonzero}
    .fil20 {fill:#E8E7E5;fill-rule:nonzero}
    .fil17 {fill:#EC7580;fill-rule:nonzero}
    .fil32 {fill:#EEC9C8;fill-rule:nonzero}
    .fil2 {fill:#EFEFEF;fill-rule:nonzero}
    .fil4 {fill:#FA5240;fill-rule:nonzero}
    .fil27 {fill:#FBE5E4;fill-rule:nonzero}
    .fil28 {fill:#FF8480;fill-rule:nonzero}
    .fil38 {fill:#FF907D;fill-rule:nonzero}
    .fil5 {fill:#FFE208;fill-rule:nonzero}
    .fil6 {fill:white;fill-rule:nonzero}
    .fil14 {fill:url(#id0)}
    .fil26 {fill:url(#id1)}
    .fil23 {fill:url(#id2)}
    .fil12 {fill:url(#id3)}
    .fil31 {fill:url(#id4)}
    .fil13 {fill:url(#id5)}
    .fil19 {fill:url(#id6)}
    .fil21 {fill:url(#id7)}
   ]]>
  </style>
  <linearGradient id="id0" gradientUnits="userSpaceOnUse" x1="519.292" y1="381.127" x2="514.754" y2="388.501">
   <stop offset="0" style="stop-opacity:1; stop-color:#534E64"/>
   <stop offset="1" style="stop-opacity:1; stop-color:#3F3C4D"/>
  </linearGradient>
  <linearGradient id="id1" gradientUnits="userSpaceOnUse" x1="484.347" y1="94.3373" x2="447.789" y2="72.7136">
   <stop offset="0" style="stop-opacity:1; stop-color:#EEC9C8"/>
   <stop offset="0.678431" style="stop-opacity:1; stop-color:#EBAFAD"/>
   <stop offset="1" style="stop-opacity:1; stop-color:#E89492"/>
  </linearGradient>
  <linearGradient id="id2" gradientUnits="userSpaceOnUse" x1="465.246" y1="88.6148" x2="463.541" y2="122.332">
   <stop offset="0" style="stop-opacity:1; stop-color:#D45851"/>
   <stop offset="1" style="stop-opacity:1; stop-color:#D9B7B4"/>
  </linearGradient>
  <linearGradient id="id3" gradientUnits="userSpaceOnUse" xlink:href="#id0" x1="455.603" y1="406.505" x2="449.583" y2="415.786">
  </linearGradient>
  <linearGradient id="id4" gradientUnits="userSpaceOnUse" x1="480.824" y1="166.2" x2="498.216" y2="168.11">
   <stop offset="0" style="stop-opacity:1; stop-color:#E85F5A"/>
   <stop offset="1" style="stop-opacity:1; stop-color:#EEC9C8"/>
  </linearGradient>
  <linearGradient id="id5" gradientUnits="userSpaceOnUse" xlink:href="#id0" x1="495.058" y1="364.571" x2="486.403" y2="381.029">
  </linearGradient>
  <linearGradient id="id6" gradientUnits="userSpaceOnUse" xlink:href="#id4" x1="465.239" y1="88.616" x2="463.525" y2="122.332">
  </linearGradient>
  <linearGradient id="id7" gradientUnits="userSpaceOnUse" xlink:href="#id2" x1="465.371" y1="88.616" x2="463.716" y2="122.332">
  </linearGradient>
 </defs>
 <g id="Слой_x0020_1" visibility="hidden">
  <metadata id="CorelCorpID_0Corel-Layer"/>
  <path class="fil0" d="M500 323l-6 -3c0,0 0,0 0,0 1,0 1,0 1,-1 0,0 1,0 1,0 0,0 0,0 0,0 1,0 2,1 3,2 0,0 2,0 2,1 0,0 -1,0 -1,1zm-6 -4l-1 0c0,0 0,-1 0,-1 1,0 1,0 1,1 1,0 0,0 0,0 0,0 0,0 0,0zm-3 -1l-3 -2 0 0c0,0 0,0 0,0 0,0 0,-1 1,-1 0,0 0,0 0,0 0,0 1,1 2,1 0,0 0,0 0,0 0,0 0,0 0,0 1,0 1,-1 1,-1 0,0 1,1 1,1 2,0 -2,1 -2,1 0,1 0,1 0,1z"/>
  <path class="fil1" d="M501 323l-1 0c0,-1 1,-1 1,-1 0,-1 -2,-1 -2,-1 -1,-1 -2,-2 -3,-2 0,0 0,0 0,0 0,0 -1,0 -1,0 0,1 0,1 -1,1 0,0 0,0 0,0l0 -1c0,0 0,0 0,0 0,0 1,0 0,0 0,-1 0,-1 -1,-1 0,0 0,1 0,1l-2 -1c0,0 0,0 0,-1 0,0 4,-1 2,-1 0,0 -1,-1 -1,-1 0,0 0,1 -1,1 0,0 0,0 0,0 0,0 0,0 0,0 -1,0 -2,-1 -2,-1 0,0 0,0 0,0 -1,0 -1,1 -1,1 -2,-1 -1,-3 0,-4l41 -23c1,-1 2,-1 3,-1 1,0 2,0 3,1l1 0 12 7 -47 27z"/>
  <polygon class="fil1" points="517,333 501,323 548,296 564,305 "/>
  <path class="fil0" d="M525 337l-5 -3c1,0 1,-1 2,-1 1,-1 2,-1 3,-2 0,0 0,0 0,0 1,0 1,1 2,1 0,0 0,0 0,0 3,0 2,-1 4,-2 2,-1 4,0 5,-1 5,-1 7,-4 9,-6 1,1 2,1 3,1 2,0 3,-1 5,-1 1,0 2,0 3,0 0,0 1,0 1,0 -2,1 -1,2 0,2 3,0 8,-2 6,-4 0,1 1,1 2,2l-24 14c0,0 0,-1 0,-1 0,-1 1,-2 -2,-3 0,0 -1,0 -2,0 0,0 -1,0 -2,0 0,0 -1,0 -2,0 0,0 0,0 0,0 -1,0 -3,0 -4,0 0,0 -1,0 -1,0 -1,1 0,2 -1,3 0,1 -1,1 -2,1z"/>
  <path class="fil1" d="M532 341c-1,0 -2,-1 -2,-1l-1 0 -4 -3c1,0 2,0 2,-1 1,-1 0,-2 1,-3 0,0 1,0 1,0 1,0 3,0 4,0 0,0 0,0 0,0 1,0 2,0 2,0 1,0 2,0 2,0 1,0 2,0 2,0 3,1 2,2 2,3 0,0 0,1 0,1l-5 3c-1,0 -2,1 -4,1zm-12 -7l-3 -1 47 -28 13 7 0 1c1,1 1,2 0,3l-12 7c-1,-1 -2,-1 -2,-2 2,2 -3,4 -6,4 -1,0 -2,-1 0,-2 0,0 -1,0 -1,0 -1,0 -2,0 -3,0 -2,0 -3,1 -5,1 -1,0 -2,0 -3,-1 -2,2 -4,5 -9,6 -1,1 -3,0 -5,1 -2,1 -1,2 -4,2 0,0 0,0 0,0 -1,0 -1,-1 -2,-1 0,0 0,0 0,0 -1,1 -2,1 -3,2 -1,0 -1,1 -2,1z"/>
  <path class="fil2" d="M536 286l-1 0c-1,-1 -4,-1 -6,0l-41 24c-1,1 -2,2 0,3l0 0 13 8 47 -28 -12 -7z"/>
  <polygon class="fil2" points="548,293 501,321 517,330 564,303 "/>
  <path class="fil2" d="M577 310l0 0 -13 -7 -47 27 12 7 1 0c1,1 4,1 6,0l41 -24c1,0 1,-2 0,-3z"/>
  <polygon class="fil2" points="569,312 578,312 578,305 569,305 "/>
  <polygon class="fil2" points="487,312 496,312 496,305 487,305 "/>
  <path class="fil3" d="M536 280l12 7 -47 27 -13 -7 0 0c-2,-1 -1,-3 0,-4l41 -23c2,-1 5,-1 6,-1l1 1z"/>
  <polygon class="fil4" points="548,287 564,296 517,323 501,314 "/>
  <path class="fil5" d="M564 296l13 7 0 0c1,1 1,3 0,4l-41 24c-2,1 -5,1 -6,0l-1 0 -12 -8 47 -27z"/>
  <path class="fil0" d="M669 421l-12 -7 -1 -1c-1,-1 -1,-2 1,-3l41 -24c1,0 2,0 3,0 1,0 2,0 3,0l0 0 13 8 -48 27z"/>
  <path class="fil0" d="M685 430l-16 -9 48 -27 16 9 -32 18c-1,0 -2,1 -3,1 0,0 0,0 0,1l-13 7z"/>
  <path class="fil1" d="M698 423c0,-1 0,-1 0,-1 1,0 2,-1 3,-1l-3 2z"/>
  <path class="fil0" d="M689 432l-4 -2 13 -7c0,1 4,0 4,1 -1,3 -7,4 -10,6 -2,1 -3,2 -3,2zm23 -5c-1,-1 -5,-6 -7,-6 0,0 -1,0 -1,0 -1,0 -2,0 -3,0l32 -18 8 5c-1,0 -2,0 -3,1 -6,1 -9,3 -14,6 -4,2 -10,2 -14,5 3,2 7,5 2,7z"/>
  <path class="fil1" d="M701 438c-1,0 -2,0 -3,0l0 -1 -9 -5c0,0 1,-1 3,-2 3,-2 9,-3 10,-6 0,-1 -4,0 -4,-1l3 -2c1,0 2,0 3,0 0,0 1,0 1,0 2,0 6,5 7,6 5,-2 1,-5 -2,-7 4,-3 10,-3 14,-5 5,-3 8,-5 14,-6 1,-1 2,-1 3,-1l4 2 1 0c1,1 1,3 -1,4l-41 23c-1,1 -2,1 -3,1z"/>
  <path class="fil2" d="M704 384l0 -1c-2,0 -4,0 -6,1l-41 23c-2,1 -2,3 -1,4l1 0 12 7 48 -27 -13 -7z"/>
  <polygon class="fil2" points="717,391 669,418 685,427 733,400 "/>
  <path class="fil2" d="M746 408l-1 -1 -12 -7 -48 27 13 8 0 0c2,1 5,1 6,0l41 -24c2,-1 2,-2 1,-3z"/>
  <polygon class="fil2" points="738,409 747,409 747,403 738,403 "/>
  <polygon class="fil2" points="656,409 664,409 664,403 656,403 "/>
  <path class="fil4" d="M704 376l41 24 1 0c1,1 1,3 -1,4l-41 24c-1,0 -4,1 -6,0l0 0 -41 -24 -1 0c-1,-1 -1,-3 1,-4l41 -24c2,-1 4,-1 6,0l0 0z"/>
  <polygon class="fil6" points="673,391 720,418 713,423 665,395 "/>
  <polygon class="fil6" points="721,386 729,390 681,418 674,414 "/>
  <path class="fil0" d="M192 405l-2 -2c0,0 0,0 0,0 0,0 -1,0 -1,0l0 0c1,-1 4,-1 1,-2 0,-1 0,-1 1,-1 0,0 0,0 0,0 0,0 0,0 0,0 1,0 2,0 2,0 0,0 1,0 2,0 0,0 0,0 0,0 1,0 1,0 1,0 1,0 1,-1 2,-1 1,0 1,1 2,1 0,0 -1,0 -1,1l-7 4zm-11 -6l-1 -1c0,0 0,0 0,-1 -1,0 -1,0 -1,0 -1,0 -1,-1 -1,-1 0,0 0,0 0,0 0,0 0,0 0,0 1,0 2,0 2,0 0,0 1,0 1,0 1,0 4,-3 4,-3 0,0 0,-1 -1,-1 -1,0 -2,1 -3,1l37 -21c2,0 3,1 5,2 1,1 1,1 4,1 2,1 3,1 4,2 1,0 3,1 4,1 1,0 1,0 1,0 1,0 2,-1 2,-1l2 0 -27 16c0,0 0,-1 0,-1 0,0 1,0 2,-1 0,0 0,-1 -1,-1 0,0 -1,1 -2,1 -1,0 -1,1 -2,1 0,0 0,0 0,0 0,-1 1,-2 0,-2 0,0 0,0 0,0 -2,1 -1,2 -2,2 -1,0 -1,0 -1,0 1,-2 0,-2 -2,-2 0,0 0,0 0,0 -2,0 -3,0 -4,1 0,0 0,2 -1,2 0,0 -1,0 -1,0 0,0 1,-1 1,-2 -1,0 -1,0 -1,0 -1,0 -1,0 -2,0 0,0 0,0 0,0 -1,0 -1,1 -2,2 0,0 -1,0 -1,0 0,0 -1,0 -1,0 -1,0 -3,0 -4,0 -1,0 -2,0 -3,0 -2,1 -1,2 -2,3 -1,1 -2,1 -2,1 -1,1 -1,1 -1,2z"/>
  <path class="fil1" d="M190 403l-1 0c0,0 1,0 1,0 0,0 0,0 0,0zm-1 0l-8 -4c0,-1 0,-1 1,-2 0,0 1,0 2,-1 1,-1 0,-2 2,-3 1,0 2,0 3,0 1,0 3,0 4,0 0,0 1,0 1,0 0,0 1,0 1,0 1,-1 1,-2 2,-2 0,0 0,0 0,0 1,0 1,0 2,0 0,0 0,0 1,0 0,1 -1,2 -1,2 0,0 1,0 1,0 1,0 1,-2 1,-2 1,-1 2,-1 4,-1 0,0 0,0 0,0 2,0 3,0 2,2 0,0 0,0 1,0 1,0 0,-1 2,-2 0,0 0,0 0,0 1,0 0,1 0,2 0,0 0,0 0,0 1,0 1,-1 2,-1 1,0 2,-1 2,-1 1,0 1,1 1,1 -1,1 -2,1 -2,1 0,0 0,1 0,1l-14 8c0,-1 1,-1 1,-1 -1,0 -1,-1 -2,-1 -1,0 -1,1 -2,1 0,0 0,0 -1,0 0,0 0,0 0,0 -1,0 -2,0 -2,0 0,0 -1,0 -2,0 0,0 0,0 0,0 0,0 0,0 0,0 -1,0 -1,0 -1,1 3,1 0,1 -1,2zm-9 -5l-1 0 0 -1c0,0 0,0 0,0 0,0 0,0 1,0 0,1 0,1 0,1zm0 -2c0,0 -1,0 -2,0 0,0 0,0 0,0 0,0 0,0 0,0 0,-1 0,-2 1,-2l2 -1c1,0 2,-1 3,-1 1,0 1,1 1,1 0,0 -3,3 -4,3 0,0 -1,0 -1,0zm55 -18c-1,0 -3,-1 -4,-1 -1,-1 -2,-1 -4,-2 -3,0 -3,0 -4,-1 -2,-1 -3,-2 -5,-2l3 -2c0,0 2,-1 3,-1 1,0 2,1 3,1l0 0 11 7c0,0 -1,1 -2,1 0,0 0,0 -1,0z"/>
  <path class="fil0" d="M208 414c0,0 0,0 -1,-1 0,1 0,1 0,1l-15 -9 7 -4c0,0 0,1 1,1 0,0 0,-1 0,-1 1,0 1,-1 2,-1 0,0 1,0 1,0 0,0 0,0 0,0 1,0 2,0 3,0 1,-1 2,-1 3,-1 0,0 0,0 0,0 1,0 2,1 3,1 0,1 -1,1 0,2 -1,1 -1,2 0,2 1,0 1,0 1,0 0,0 1,0 1,0 0,0 0,0 0,0 1,0 1,0 0,1 -1,1 -5,2 -5,3 -1,1 0,2 1,2 0,0 0,0 0,0 1,0 2,-1 3,-2 0,0 2,-2 4,-2 0,0 0,0 0,0 1,0 2,0 2,0 0,0 0,0 0,0 1,0 1,0 1,0 1,0 1,0 1,0 0,0 0,0 0,0 0,0 1,0 1,0l-14 8zm-5 -13c-1,0 -1,0 -1,0 -3,1 -2,4 1,4 0,0 1,-1 2,-1 3,-1 0,-3 -2,-3zm5 -1c-1,0 -3,0 -3,1 0,0 1,0 1,0 1,0 3,0 3,-1 0,0 0,0 -1,0zm19 -1c0,0 -1,-1 -1,-1 -1,0 -1,1 -1,1 -1,0 -1,0 -1,0 -1,0 -1,0 -1,0 -1,-1 1,-1 1,-1 1,-1 -1,-1 -1,-1 -1,-2 5,-1 5,-3 1,1 1,2 2,2 1,0 1,0 1,0 1,0 3,0 2,-1 0,0 -1,0 -1,-1 0,-1 0,0 1,-1 1,-1 0,-1 -1,-1 0,-1 0,-2 -2,-2 0,0 0,0 0,0 -2,0 -2,1 -3,2 0,-1 0,-1 -1,-1 0,0 0,0 0,0 -1,0 -1,0 -2,0 -1,1 -1,1 -1,1 0,0 -1,-1 -1,-1 0,0 -1,0 -1,0 0,0 -1,0 -1,0 -2,1 -4,2 -6,2 1,0 0,0 -1,0l27 -16 1 1c-1,1 -1,2 0,2 0,1 1,1 2,1 0,1 0,1 0,1 2,2 6,2 9,3l3 2 -20 11c0,0 0,0 0,0 -1,0 -1,0 -1,0 0,0 -1,0 -1,0 -1,0 -1,0 -1,0 0,0 0,0 0,0 -1,0 -1,0 -2,0 0,0 0,0 -1,0 -1,0 -1,0 -2,1z"/>
  <path class="fil1" d="M208 414l-1 0c0,0 0,0 0,-1 1,1 1,1 1,1l0 0zm2 -4c0,0 0,0 0,0 -1,0 -2,-1 -1,-2 0,-1 4,-2 5,-3 1,-1 1,-1 0,-1 0,0 0,0 0,0 0,0 -1,0 -1,0 0,0 0,0 -1,0 -1,0 -1,-1 0,-2 -1,-1 0,-1 0,-2 -1,0 -2,-1 -3,-1 0,0 0,0 0,0 -1,0 -2,0 -3,1 -1,0 -2,0 -3,0 0,0 0,0 0,0 0,0 -1,0 -1,0 -1,0 -1,1 -2,1 0,0 0,1 0,1 -1,0 -1,-1 -1,-1l14 -8c1,0 2,0 1,0 2,0 4,-1 6,-2 0,0 1,0 1,0 0,0 1,0 1,0 0,0 1,1 1,1 0,0 0,0 1,-1 1,0 1,0 2,0 0,0 0,0 0,0 1,0 1,0 1,1 1,-1 1,-2 3,-2 0,0 0,0 0,0 2,0 2,1 2,2 1,0 2,0 1,1 -1,1 -1,0 -1,1 0,1 1,1 1,1 1,1 -1,1 -2,1 0,0 0,0 -1,0 -1,0 -1,-1 -2,-2 0,2 -6,1 -5,3 0,0 2,0 1,1 0,0 -2,0 -1,1 0,0 0,0 1,0 0,0 0,0 1,0 0,0 0,-1 1,-1 0,0 1,1 1,1 1,-1 1,-1 2,-1 1,0 1,0 1,0 1,0 1,0 2,0 0,0 0,0 0,0 0,0 0,0 1,0 0,0 1,0 1,0 0,0 0,0 1,0 0,0 0,0 0,0l-13 8c0,0 -1,0 -1,0 0,0 0,0 0,0 0,0 0,0 -1,0 0,0 0,0 -1,0 0,0 0,0 0,0 0,0 -1,0 -2,0 0,0 0,0 0,0 -2,0 -4,2 -4,2 -1,1 -2,2 -3,2zm-7 -5c-3,0 -4,-3 -1,-4 0,0 0,0 1,0 2,0 5,2 2,3 -1,0 -2,1 -2,1zm3 -4c0,0 -1,0 -1,0 0,-1 2,-1 3,-1 1,0 1,0 1,0 0,1 -2,1 -3,1zm46 -16c-3,-1 -7,-1 -9,-3 0,0 0,0 0,-1 -1,0 -2,0 -2,-1 -1,0 -1,-1 0,-2l11 7z"/>
  <path class="fil0" d="M224 422c-1,0 -2,0 -3,-1l0 0 -12 -7c0,0 0,0 0,0 0,0 0,0 -1,0l14 -8c0,0 1,0 1,0 1,0 1,0 0,1 0,0 0,0 0,0 1,0 1,0 2,-1 0,0 1,0 1,0 0,0 1,0 1,0 0,0 0,0 0,0 1,0 1,0 2,-1 1,0 2,0 3,0 1,0 2,0 3,-1 1,0 3,0 3,0 1,-1 1,-1 0,-1 -1,0 -3,0 -4,0 -1,0 -2,0 -3,0 -1,0 -2,0 -2,0 1,0 2,-1 1,-1 2,-1 7,0 8,-1 -1,-1 -2,-1 -3,-2 1,0 1,0 2,0 -1,0 -1,-1 -2,-1l20 -11 13 7 0 0c2,1 2,3 0,4l-14 7c-1,0 -2,0 -3,0 0,0 -1,0 -1,0 -1,0 -2,0 -4,0 0,0 0,-1 -1,-1 0,0 0,0 0,0 -1,1 0,1 1,2 0,0 1,1 1,1 0,1 -1,1 -1,1 0,1 0,1 0,2 -1,0 -2,0 -3,0 0,0 -1,0 -2,1 0,0 0,0 -1,1 0,-1 0,-1 0,-1 0,-1 -1,-1 -1,-1 -1,0 -2,0 -2,0 -1,0 -1,-1 -1,-1 0,-1 -1,-1 -1,-1 -1,0 -2,0 -3,1 0,0 0,0 -1,0 0,0 0,0 -1,0 0,0 0,0 0,0 -1,0 -1,0 -2,0 0,0 0,0 0,0 -1,0 -1,0 -2,0 0,0 0,0 -1,0 0,0 -1,0 -1,1 -1,0 -1,1 -2,1 0,0 -1,1 -2,1 -1,0 -4,1 -3,2 1,0 2,1 2,1 1,0 1,1 1,1 1,1 3,1 4,2 1,0 1,0 1,1 -1,1 0,1 1,1 1,0 1,0 2,0 0,0 1,0 1,0l-2 1c-1,1 -2,1 -3,1zm-10 -7c0,0 -1,0 -1,0 1,1 1,2 2,2 1,0 1,0 1,0 1,-1 -1,-2 -2,-2z"/>
  <path class="fil1" d="M226 420c-1,0 -2,0 -1,-1 0,-1 0,-1 -1,-1 -1,-1 -3,-1 -4,-2 0,0 0,-1 -1,-1 0,0 -1,-1 -2,-1 -1,-1 2,-2 3,-2 1,0 2,-1 2,-1 1,0 1,-1 2,-1 0,-1 1,-1 1,-1 1,0 1,0 1,0 1,0 1,0 2,0 0,0 0,0 0,0 1,0 1,0 2,0 0,0 0,0 0,0 1,0 1,0 1,0 1,0 1,0 1,0 1,-1 2,-1 3,-1 0,0 1,0 1,1 0,0 0,1 1,1 0,0 1,0 2,0 0,0 1,0 1,1 0,0 0,0 0,1 1,-1 1,-1 1,-1 1,-1 2,-1 2,-1 1,0 2,0 3,0 0,-1 0,-1 0,-2 0,0 1,0 1,-1 0,0 -1,-1 -1,-1 -1,-1 -2,-1 -1,-2 0,0 0,0 0,0 1,0 1,1 1,1 2,0 3,0 4,0 0,0 1,0 1,0 1,0 2,0 3,0l-25 15c0,0 -1,0 -1,0 -1,0 -1,0 -2,0zm-11 -3c-1,0 -1,-1 -2,-2 0,0 1,0 1,0 1,0 3,1 2,2 0,0 0,0 -1,0zm-6 -3l-1 0 0 0c1,0 1,0 1,0 0,0 0,0 0,0zm14 -7c0,0 0,0 0,0 1,-1 1,-1 0,-1 0,0 -1,0 -1,0l13 -8c1,0 1,1 2,1 -1,0 -1,0 -2,0 1,1 2,1 3,2 -1,1 -6,0 -8,1 1,0 0,1 -1,1 0,0 1,0 2,0 1,0 2,0 3,0 1,0 3,0 4,0 1,0 1,0 0,1 0,0 -2,0 -3,0 -1,1 -2,1 -3,1 -1,0 -2,0 -3,0 -1,1 -1,1 -2,1 0,0 0,0 0,0 0,0 -1,0 -1,0 0,0 -1,0 -1,0 -1,1 -1,1 -2,1z"/>
  <path class="fil2" d="M227 368l0 -1c-2,0 -5,0 -6,1l-42 23c-1,1 -1,3 0,4l0 0 13 7 48 -27 -13 -7z"/>
  <polygon class="fil2" points="240,375 192,402 208,411 255,384 "/>
  <path class="fil2" d="M268 391l0 0 -13 -7 -47 27 13 8 0 0c2,1 4,1 6,0l41 -24c2,-1 2,-3 0,-4z"/>
  <polygon class="fil2" points="260,393 269,393 269,387 260,387 "/>
  <polygon class="fil2" points="178,393 187,393 187,387 178,387 "/>
  <path class="fil4" d="M247 373l21 12 0 0c2,1 2,2 0,3l-41 24c-2,1 -4,1 -6,0l0 0 -4 -2 8 -24 22 -13z"/>
  <path class="fil6" d="M227 361l20 12 -22 13 -42 4 -4 -2 0 0c-1,-1 -1,-2 0,-3l42 -24c1,-1 4,-1 6,0l0 0z"/>
  <polygon class="fil7" points="225,386 217,410 183,390 "/>
  <polygon class="fil2" points="654,360 663,360 663,354 654,354 "/>
  <path class="fil0" d="M585 372l-12 -7 -1 0c-1,-1 -1,-3 1,-4l41 -23c1,-1 2,-1 3,-1 1,0 2,0 3,0l0 1 13 7 -48 27z"/>
  <polygon class="fil0" points="601,381 585,372 633,345 649,354 "/>
  <path class="fil0" d="M617 389c-1,0 -2,0 -3,0l0 0 -13 -8 48 -27 5 3 0 3 6 0 1 1 1 0c1,2 1,3 -1,4l-41 24c-1,0 -2,0 -3,0z"/>
  <polygon class="fil8" points="660,360 654,360 654,357 "/>
  <path class="fil2" d="M620 335l0 0c-2,-1 -5,-1 -6,0l-41 24c-2,1 -2,2 -1,3l1 0 12 8 48 -28 -13 -7z"/>
  <polygon class="fil2" points="633,342 585,370 601,379 649,351 "/>
  <path class="fil2" d="M662 359l-1 0 -12 -8 -48 28 13 7 0 0c2,1 4,1 6,0l41 -24c2,-1 2,-2 1,-3z"/>
  <polygon class="fil2" points="571,360 580,360 580,354 571,354 "/>
  <path class="fil9" d="M631 373l-47 -27 0 0 -11 6c-2,1 -2,2 -1,3l1 1 41 23 0 1c2,0 4,0 6,-1l11 -6 0 0z"/>
  <polygon class="fil6" points="650,362 631,373 631,373 584,346 584,346 603,335 603,335 650,362 "/>
  <path class="fil4" d="M650 362l11 -6c2,-1 2,-3 1,-4l-1 0 -41 -24 0 0c-2,-1 -5,-1 -6,0l-11 7 0 0 47 27 0 0z"/>
  <polygon class="fil2" points="345,443 353,443 353,436 345,436 "/>
  <path class="fil0" d="M284 450c1,-2 -3,-2 -5,-3 1,0 1,0 1,0 1,-2 -1,-4 -2,-5 0,-2 3,-4 2,-6 0,-1 0,-1 -1,-2l26 -14c1,-1 2,-1 3,-1 1,0 2,0 3,0l0 1 13 7 -40 23zm-21 -3c-1,-1 -1,-2 -1,-2 1,0 1,-1 1,-1 0,0 0,0 0,0 0,0 0,-1 1,-1l0 0c0,0 0,0 0,0 1,1 0,1 0,2 0,0 -1,1 -1,2z"/>
  <path class="fil1" d="M276 454l-12 -7 -1 0c0,0 0,0 0,0 0,-1 1,-2 1,-2 0,-1 1,-1 0,-2 0,0 0,0 0,0l15 -9c1,1 1,1 1,2 1,2 -2,4 -2,6 1,1 3,3 2,5 0,0 0,0 -1,0 2,1 6,1 5,3l-8 4zm-14 -9c0,-1 1,-1 1,-1 0,0 0,0 0,0 0,0 0,1 -1,1z"/>
  <path class="fil0" d="M293 463c-1,0 -2,0 -2,0l-7 -5c0,0 0,0 0,0 -1,-1 -1,-3 0,-4 0,-1 2,-3 0,-4 0,0 0,0 0,0l40 -23 16 9 -47 27z"/>
  <path class="fil1" d="M292 463l-1 0c0,0 1,0 2,0l-1 0zm-8 -5l-8 -4 8 -4c0,0 0,0 0,0 2,1 0,3 0,4 -1,1 -1,3 0,4 0,0 0,0 0,0z"/>
  <path class="fil0" d="M308 471c-1,0 -2,0 -3,0l0 0 -1 -1c0,0 0,0 1,0 1,-1 2,-1 4,-1 0,0 0,0 0,0 0,0 0,0 0,0 2,0 2,-1 3,-1 0,0 1,0 1,0 0,0 1,0 1,1 0,0 0,0 0,0l-3 2c-1,0 -2,0 -3,0zm-6 -2l-5 -3c1,0 1,-1 0,-2 -1,0 -3,-1 -4,-1l47 -27 5 3 0 4 6 0 1 0 0 1c2,1 2,2 0,3l-28 17c-1,0 -3,0 -3,1 0,0 0,0 0,0l-4 2c1,-1 3,-2 2,-2l-1 0c0,1 -1,1 -2,1 -1,0 -2,0 -3,1 -1,0 -2,0 -3,0 -1,0 -2,0 -3,1 -1,0 -4,0 -5,1z"/>
  <path class="fil1" d="M304 470l-2 -1c1,-1 4,-1 5,-1 1,-1 2,-1 3,-1 1,0 2,0 3,0 1,-1 2,-1 3,-1 1,0 2,0 2,-1l1 0c1,0 -1,1 -2,2l-3 2c0,0 0,0 0,0 0,-1 -1,-1 -1,-1 0,0 -1,0 -1,0 -1,0 -1,1 -3,1 0,0 0,0 0,0 0,0 0,0 0,0 -2,0 -3,0 -4,1 -1,0 -1,0 -1,0zm-7 -4l-5 -3 1 0c1,0 3,1 4,1 1,1 1,2 0,2zm24 -1c0,0 0,0 0,0 0,-1 2,-1 3,-1l-3 1z"/>
  <polygon class="fil8" points="351,443 345,443 345,439 "/>
  <path class="fil2" d="M311 417l0 0c-2,-1 -5,-1 -6,0l-41 24c-2,1 -2,2 -1,3l1 0 12 8 48 -28 -13 -7z"/>
  <polygon class="fil2" points="324,424 276,452 292,461 340,433 "/>
  <path class="fil2" d="M352 441l0 0 -12 -8 -48 28 13 7 0 0c2,1 4,1 6,0l41 -24c2,-1 2,-2 0,-3z"/>
  <polygon class="fil2" points="262,443 271,443 271,436 262,436 "/>
  <path class="fil6" d="M311 410l41 24 0 0c2,1 2,3 0,4l-41 24c-2,0 -4,1 -6,0l0 0 -41 -24 -1 0c-1,-1 -1,-3 1,-4l41 -24c1,-1 4,-1 6,0l0 0z"/>
  <path class="fil6" d="M287 421l26 15 -26 15 -23 -13 -1 0c-1,-1 -1,-3 1,-4l23 -13z"/>
  <path class="fil7" d="M287 421l26 15 -26 15 -23 -13 -1 0c-1,-1 -1,-3 1,-4l23 -13z"/>
  <path class="fil7" d="M311 410l2 2 -20 12 -6 -3 18 -11c1,-1 4,-1 6,0l0 0z"/>
  <polygon class="fil6" points="297,427 303,430 277,445 271,442 "/>
  <polygon class="fil6" points="297,445 271,430 276,427 303,442 "/>
  <polygon class="fil7" points="318,415 324,418 303,430 297,427 "/>
  <polygon class="fil7" points="329,421 334,424 313,436 308,433 "/>
  <polygon class="fil7" points="339,427 345,430 297,457 292,454 "/>
  <path class="fil7" d="M350 433l2 1 0 0c2,1 2,3 0,4l-41 24c-2,0 -4,1 -6,0l0 0 -3 -2 48 -27z"/>
  <polygon class="fil2" points="513,538 522,538 522,532 513,532 "/>
  <path class="fil0" d="M445 550l-13 -7 0 0c-2,-1 -2,-3 0,-4l6 -3c1,1 3,2 4,3 2,1 5,3 8,5l0 0 0 0 0 0 0 0c1,0 1,1 2,2l-7 4zm5 -6l0 0 0 0 0 0zm18 -7c-1,-2 -1,-3 -5,-3 0,0 0,0 0,0 -1,0 -1,0 -1,0 0,0 -1,0 -1,0 -1,0 -1,0 -1,-1 0,-1 0,-2 0,-3 0,-1 -2,-2 -3,-3 -1,0 -2,0 -3,-1l19 -11c1,0 2,0 3,0 1,0 2,0 3,0l0 0 13 8 -24 14z"/>
  <path class="fil1" d="M452 546c-1,-1 -1,-2 -2,-2l0 0 0 0 0 0 0 0c-3,-2 -6,-4 -8,-5 -1,-1 -3,-2 -4,-3l16 -10c1,1 2,1 3,1 1,1 3,2 3,3 0,1 0,2 0,3 0,1 0,1 1,1 0,0 1,0 1,0 0,0 0,0 1,0 0,0 0,0 0,0 4,0 4,1 5,3l-16 9zm-2 -2l0 0 0 0 0 0z"/>
  <path class="fil0" d="M460 559l-15 -9 7 -4c1,0 1,0 2,0 5,4 10,5 17,5 1,0 1,0 2,0 1,0 2,0 3,-1l-16 9zm27 -15c0,0 0,0 0,-1 -1,0 -1,0 -2,0 -1,0 -3,1 -4,1 -1,0 -2,0 -4,0 -1,0 -2,0 -3,0 -4,-1 -5,-3 -6,-5 0,-1 0,-2 0,-2l24 -14 16 9 -21 12z"/>
  <path class="fil1" d="M471 551c-7,0 -12,-1 -17,-5 -1,0 -1,0 -2,0l16 -9c0,0 0,1 0,2 1,2 2,4 6,5 1,0 2,0 3,0 2,0 3,0 4,0 1,0 3,-1 4,-1 1,0 1,0 2,0 0,1 0,1 0,1l-11 6c-1,1 -2,1 -3,1 -1,0 -1,0 -2,0z"/>
  <path class="fil0" d="M476 567c-1,0 -2,0 -3,0l0 0 -13 -8 16 -9c2,0 5,0 7,-1 3,-1 3,-3 4,-5l21 -12 5 3 0 3 6 0 2 1 0 0c1,1 1,3 0,4l-3 1c0,0 0,0 0,0 -4,0 -6,1 -9,1 -1,0 -3,0 -4,-1 -3,0 -5,-1 -6,-1 -1,0 -1,0 0,3 0,0 1,3 1,3 2,1 2,1 3,1 0,0 0,0 1,0 0,0 0,0 1,0 0,0 0,0 1,0 0,0 1,0 2,0l-29 17c0,0 -2,0 -3,0z"/>
  <path class="fil1" d="M476 550l11 -6c-1,2 -1,4 -4,5 -2,1 -5,1 -7,1zm32 0c-1,0 -2,0 -2,0 -1,0 -1,0 -1,0 -1,0 -1,0 -1,0 -1,0 -1,0 -1,0 -1,0 -1,0 -3,-1 0,0 -1,-3 -1,-3 -1,-3 -1,-3 0,-3 1,0 3,1 6,1 1,1 3,1 4,1 3,0 5,-1 9,-1 0,0 0,0 0,0l-10 6z"/>
  <polygon class="fil8" points="519,538 513,538 513,535 "/>
  <path class="fil2" d="M479 513l0 0c-2,-1 -4,-1 -6,0l-41 24c-2,1 -2,2 0,3l0 0 13 8 47 -28 -13 -7z"/>
  <polygon class="fil2" points="492,520 445,548 460,557 508,529 "/>
  <path class="fil2" d="M521 537l0 0 -13 -8 -48 28 13 7 0 0c2,1 5,1 6,0l42 -24c1,-1 1,-2 0,-3z"/>
  <polygon class="fil2" points="431,538 440,538 440,532 431,532 "/>
  <path class="fil6" d="M479 506l42 24 0 0c1,1 1,3 0,4l-42 23c-1,1 -4,1 -6,1l0 -1 -41 -23 0 -1c-2,-1 -2,-2 0,-3l41 -24c2,-1 4,-1 6,0l0 0z"/>
  <path class="fil4" d="M487 526c6,3 6,9 0,12 -6,3 -15,3 -21,0 -6,-3 -6,-9 0,-12 6,-4 15,-4 21,0z"/>
  <path class="fil0" d="M360 502l-1 -1c1,0 1,0 2,0l-1 1z"/>
  <path class="fil1" d="M361 501c-1,0 -1,0 -2,0l-11 -7 0 0c-2,-1 -2,-2 0,-3l41 -24c1,-1 2,-1 3,-1 1,0 2,0 3,1l0 0 13 7 -47 27z"/>
  <path class="fil0" d="M376 511l-16 -9 1 -1c1,1 2,1 4,1 3,1 7,1 10,1 2,1 3,1 5,1 2,0 3,0 5,0 0,1 1,1 1,1l-10 6z"/>
  <path class="fil1" d="M386 505c0,0 -1,0 -1,-1 -2,0 -3,0 -5,0 -2,0 -3,0 -5,-1 -3,0 -7,0 -10,-1 -2,0 -3,0 -4,-1l47 -27 16 9 -38 22z"/>
  <path class="fil0" d="M392 519c-1,0 -2,0 -3,-1l0 0 -13 -7 10 -6c1,0 1,0 2,0 0,0 0,0 0,0 2,0 3,0 6,-1 0,0 0,0 0,0 4,0 6,2 9,4 2,1 3,2 5,3l-13 7c-1,1 -2,1 -3,1z"/>
  <path class="fil1" d="M408 511c-2,-1 -3,-2 -5,-3 -3,-2 -5,-4 -9,-4 0,0 0,0 0,0 -3,1 -4,1 -6,1 0,0 0,0 0,0 -1,0 -1,0 -2,0l38 -22 12 8 1 0c1,1 1,2 -1,3l-28 17z"/>
  <path class="fil2" d="M395 464l0 0c-2,-1 -4,-1 -6,0l-41 24c-2,1 -2,2 0,3l0 1 12 7 48 -27 -13 -8z"/>
  <polygon class="fil2" points="408,472 360,499 376,508 424,481 "/>
  <path class="fil2" d="M437 488l-1 0 -12 -7 -48 27 13 7 0 1c2,0 5,0 6,-1l41 -23c2,-1 2,-3 1,-4z"/>
  <polygon class="fil2" points="429,490 438,490 438,483 429,483 "/>
  <polygon class="fil2" points="347,490 355,490 355,483 347,483 "/>
  <path class="fil4" d="M395 458l41 24 1 0c1,1 1,2 -1,3l-41 24c-1,1 -4,1 -6,0l0 0 -41 -24 0 0c-2,-1 -2,-2 0,-3l41 -24c2,-1 4,-1 6,0l0 0z"/>
  <polygon class="fil5" points="360,481 367,483 372,480 371,485 378,487 370,487 369,492 366,488 358,488 364,485 "/>
  <polygon class="fil5" points="372,471 373,473 376,472 374,473 376,475 373,474 372,475 372,474 369,473 372,473 "/>
  <polygon class="fil5" points="391,482 392,484 395,483 393,484 395,485 392,485 391,486 391,485 388,484 391,484 "/>
  <polygon class="fil5" points="384,471 385,473 387,473 385,474 386,475 384,474 382,475 383,473 381,473 383,473 "/>
  <polygon class="fil5" points="389,477 392,477 393,476 393,478 395,478 393,478 392,480 391,479 389,479 390,478 "/>
 </g>
 <g id="flag_eng" visibility="hidden">
  <metadata id="CorelCorpID_1Corel-Layer"/>
  <path class="fil2" d="M573 63l0 0c0,2 -1,4 -3,5l-41 24c-2,1 -3,0 -3,-1l0 -1 0 -14 47 -28 0 15z"/>
  <polygon class="fil2" points="573,48 526,76 526,57 573,30 "/>
  <path class="fil2" d="M573 15l0 1 0 14 -47 27 0 -14c0,0 0,0 0,-1 0,-1 1,-4 3,-5l41 -23c2,-1 3,-1 3,1z"/>
  <polygon class="fil2" points="568,21 572,13 578,17 574,24 "/>
  <polygon class="fil2" points="527,92 531,85 537,88 532,96 "/>
  <path class="fil7" d="M579 66l0 -47 0 -1c0,-1 -2,-2 -3,-1l-41 24c-2,1 -3,3 -3,5 0,0 0,0 0,0l0 48 0 0c0,2 1,2 3,1l41 -23c1,-1 3,-3 3,-5l0 -1z"/>
  <polygon class="fil6" points="560,81 560,26 550,32 550,86 "/>
  <polygon class="fil6" points="579,48 579,37 532,64 532,75 "/>
  <polygon class="fil4" points="558,82 558,27 553,30 553,85 "/>
  <polygon class="fil4" points="579,45 579,40 532,67 532,73 "/>
  <polygon class="fil6" points="550,66 550,65 537,72 532,80 532,94 532,94 "/>
  <polygon class="fil4" points="545,68 540,70 532,83 532,87 "/>
  <polygon class="fil6" points="579,32 579,19 579,18 560,46 560,48 574,40 "/>
  <polygon class="fil4" points="579,29 579,25 566,45 570,42 "/>
  <path class="fil6" d="M550 53l0 -1 -18 -6c0,0 0,0 0,0l0 14 5 1 13 -8z"/>
  <polygon class="fil4" points="549,54 532,49 532,53 544,57 "/>
  <polygon class="fil6" points="579,67 560,60 560,59 562,58 566,55 574,51 574,51 579,53 579,63 "/>
  <polygon class="fil4" points="579,63 579,59 566,55 566,55 562,58 562,58 "/>
 </g>
 <g id="flag_fr">
  <metadata id="CorelCorpID_2Corel-Layer"/>
  <path class="fil2" d="M385 171l0 0c0,2 -1,4 -3,5l-41 24c-2,1 -3,0 -3,-2l0 0 0 -15 47 -27 0 15z"/>
  <polygon class="fil2" points="385,156 338,183 338,165 385,138 "/>
  <path class="fil2" d="M385 123l0 0 0 15 -47 27 0 -15c0,0 0,0 0,0 0,-2 1,-4 3,-5l41 -24c2,-1 3,0 3,2z"/>
  <polygon class="fil2" points="380,129 384,121 390,124 386,132 "/>
  <polygon class="fil2" points="339,200 343,192 349,196 345,203 "/>
  <path class="fil7" d="M358 142l-11 7c-1,1 -3,3 -3,5 0,0 0,0 0,0l0 48 0 0c0,2 2,2 3,1l11 -6 1 0 0 -55 -1 0z"/>
  <polygon class="fil6" points="377,131 377,186 377,186 359,197 358,197 358,142 359,142 377,131 "/>
  <path class="fil4" d="M377 131l0 55 0 0 11 -6c2,-1 3,-4 4,-6l0 0 0 -47 0 -1c-1,-1 -2,-2 -4,-1l-11 6 0 0z"/>
 </g>
 <g id="man" visibility="hidden">
  <metadata id="CorelCorpID_3Corel-Layer"/>
  <path class="fil10" d="M450 375c-5,-1 -6,6 -7,9 0,4 -3,10 -2,15 0,6 3,17 9,19 4,2 10,1 10,-2 1,-2 -1,-12 -3,-14 -1,-3 -1,-7 -2,-12 -2,-7 -1,-15 -5,-15z"/>
  <path class="fil11" d="M450 373c-5,0 -6,6 -7,10 0,4 -3,9 -2,15 0,5 3,16 9,19 4,2 10,0 10,-2 1,-3 -1,-12 -3,-15 -1,-3 -1,-6 -2,-12 -2,-6 -1,-14 -5,-15z"/>
  <path class="fil12" d="M444 410c6,-3 12,-3 16,-2 0,3 1,6 0,7 0,2 -6,4 -10,2 -3,-1 -5,-4 -6,-7z"/>
  <path class="fil13" d="M494 364l2 0c-2,-2 -4,-3 -7,-2 -4,0 -4,6 -5,8 -1,1 -5,9 0,12 4,2 7,1 10,1l0 -19z"/>
  <path class="fil10" d="M514 379c-1,0 -3,-1 -4,-3l-28 0c0,2 0,4 2,5 4,2 9,0 11,0 3,1 11,6 17,7 6,1 12,1 12,-3 0,-2 -6,-4 -10,-6z"/>
  <path class="fil11" d="M489 360c-4,0 -4,6 -5,8 -1,1 -5,9 0,12 4,2 9,0 11,1 3,0 11,5 17,6 6,1 12,1 12,-2 0,-3 -6,-5 -10,-6 -2,-1 -6,-4 -9,-7 -4,-2 -7,-5 -8,-6 -3,-3 -3,-7 -8,-6z"/>
  <path class="fil10" d="M470 223l10 91c1,6 6,10 12,10 5,-1 9,-5 10,-10l6 -91c0,-11 -7,-20 -18,-20 -10,-1 -19,7 -20,17 0,1 0,2 0,3z"/>
  <path class="fil10" d="M495 304c-8,-3 -18,14 -16,27 2,13 2,34 3,40 1,5 16,4 16,-2 1,-20 8,-60 -3,-65z"/>
  <path class="fil10" d="M445 219l-3 100c0,6 4,11 10,11 6,0 10,-3 11,-9l19 -98c2,-11 -5,-20 -15,-22 -10,-2 -20,4 -22,15 0,1 0,2 0,3z"/>
  <path class="fil10" d="M444 317c-5,6 -6,13 -6,21 -1,8 0,28 4,47 1,7 12,6 13,1 0,-4 9,-60 7,-66 -4,-9 -13,-9 -18,-3z"/>
  <path class="fil14" d="M509 386c2,-3 5,-5 7,-7 4,2 8,4 8,6 0,3 -6,3 -12,2 -1,0 -2,0 -3,-1z"/>
  <path class="fil11" d="M444 389c-8,-51 0,-67 0,-68 0,-1 1,-22 2,-45 1,-26 2,-34 2,-34l1 0c0,1 -2,8 -3,34 0,24 -1,45 -1,45l0 0c0,1 -9,16 -1,67l0 1z"/>
  <path class="fil15" d="M481 66c0,0 4,5 4,8 1,4 -6,7 -6,7l-4 -14 6 -1z"/>
  <path class="fil16" d="M482 133l27 50c2,5 8,7 13,4 4,-2 6,-8 4,-12l-23 -52c-2,-6 -9,-9 -15,-6 -6,2 -9,9 -6,15 0,0 0,1 0,1z"/>
  <path class="fil10" d="M447 217c-1,17 0,33 17,34 17,0 43,-15 44,-32 0,-17 -13,-31 -30,-31 -17,-1 -31,13 -31,29z"/>
  <path class="fil6" d="M446 231c-4,-5 3,-22 1,-27 -2,-5 -18,-51 -17,-63 0,-13 13,-21 31,-27 22,-6 35,2 39,7 8,11 1,72 1,72 0,0 7,19 7,27 0,7 -4,11 -24,14 -19,3 -33,4 -38,-3z"/>
  <path class="fil17" d="M490 222c1,0 1,-2 1,-3 0,-2 0,-3 0,-5l0 -1c0,-2 0,-4 0,-6 0,-2 0,-5 0,-7 0,-2 0,-3 0,-4l-1 -4 0 -5c0,-1 -1,-3 -1,-4l-1 -5 0 -4c-1,-3 -1,-6 -2,-9 -1,-3 -1,-5 -2,-7l0 -2c-1,-1 -1,-2 -1,-3 -1,-2 -1,-3 -2,-5 0,-2 -1,-5 -2,-7 -1,-4 -3,-8 -4,-10l-1 -3 -3 1 -2 1 1 2c0,3 1,7 2,11 1,2 2,4 2,7 0,2 1,3 1,5 0,1 1,2 1,3 0,1 0,2 0,3 1,2 1,4 1,5 1,1 1,3 1,4 0,1 1,3 1,5l0 4 1 5 0 4 1 4 0 4c0,2 0,3 0,4 1,3 1,5 1,8l0 6c0,1 0,3 0,4 0,2 0,3 0,4l4 5 4 -5z"/>
  <path class="fil18" d="M482 232c13,0 21,-5 26,-11 -3,7 -12,14 -27,15 -6,0 -11,0 -16,0l0 0c-10,-2 -16,-5 -19,-9 0,-1 0,-2 0,-3 5,6 18,9 36,8z"/>
  <path class="fil19" d="M467 127c0,-2 1,-5 3,-7 -12,-3 -16,-10 -16,-10 0,0 0,7 1,12 -1,-1 -1,-3 -1,-5 0,0 0,0 0,0 0,0 0,0 0,0l0 0c1,-13 1,-13 -2,-25l0 0c0,-1 0,-3 0,-4 0,-6 5,-11 11,-11 1,0 1,0 1,0 7,1 12,6 11,13 0,0 0,0 0,0l0 0c-1,11 -1,13 1,21 0,2 -2,7 -6,9 0,0 2,2 4,5 -2,1 -4,2 -7,2z"/>
  <path class="fil20" d="M464 132c-3,0 -8,-5 -9,-9 0,0 0,0 0,-1 2,3 6,5 10,5 0,0 1,0 2,0 0,0 0,0 0,0 -1,3 -2,5 -3,5 0,0 0,0 0,0z"/>
  <path class="fil21" d="M467 127c-1,0 -2,0 -2,0 -4,0 -8,-2 -10,-5 -1,-5 -1,-12 -1,-12 0,0 4,7 16,10 -2,2 -3,5 -3,7 0,0 0,0 0,0z"/>
  <path class="fil22" d="M477 112c0,0 0,0 -1,0 0,0 0,0 0,0 0,0 0,0 0,-1 0,0 0,0 0,0 0,0 0,0 1,1z"/>
  <path class="fil20" d="M478 129c0,0 0,0 0,0 -1,-1 -2,-2 -4,-4 2,-1 3,-3 3,-6 0,-1 0,-3 0,-4l0 0c0,-1 -1,-2 -1,-3 0,0 0,0 0,0 1,0 1,0 1,0 1,2 3,4 3,7 1,6 -1,10 -2,10z"/>
  <path class="fil23" d="M474 125c-2,-3 -4,-5 -4,-5 4,-2 6,-7 6,-9 0,1 0,1 0,1 0,1 1,2 1,3l0 0c0,1 0,3 0,4 0,3 -1,5 -3,6z"/>
  <path class="fil17" d="M475 119c1,0 0,6 -1,10 0,3 -4,3 -5,2 -3,-3 -7,-10 -6,-11 1,-1 11,-2 12,-1z"/>
  <path class="fil6" d="M454 109c0,0 4,7 16,9 -4,6 -4,13 -6,13 -3,1 -8,-5 -9,-9 -1,-6 -1,-13 -1,-13z"/>
  <path class="fil6" d="M470 118c0,0 6,9 8,10 1,0 3,-4 2,-10 0,-5 -4,-8 -4,-8 0,0 -1,7 -6,8z"/>
  <path class="fil16" d="M454 113c0,0 32,74 32,88 1,22 -12,49 -14,50 -6,2 -37,-9 -35,-16 2,-7 9,-27 9,-33 0,-6 -23,-64 -17,-70 7,-7 25,-19 25,-19z"/>
  <path class="fil24" d="M446 200c0,1 0,1 0,2 0,6 -7,26 -9,33 0,2 1,3 4,5 2,-7 8,-26 9,-32 0,-1 -1,-4 -2,-8l-2 0z"/>
  <path class="fil16" d="M476 110c0,0 17,27 10,91 -1,14 9,43 13,42 10,-3 15,-10 14,-16 -2,-7 -10,-24 -10,-32 0,-8 8,-70 -4,-77 -10,-6 -23,-8 -23,-8z"/>
  <path class="fil25" d="M479 158l0 0 5 -1c0,0 1,-1 0,-1 0,0 0,0 0,0l-5 1c0,0 -1,0 -1,1 1,0 1,0 1,0z"/>
  <path class="fil24" d="M457 120c4,6 21,37 29,81 0,0 -28,-59 -34,-65l6 -6 -9 -2c0,0 0,-10 1,-12l5 -11c0,0 -2,9 2,15z"/>
  <path class="fil24" d="M486 201c10,-39 6,-73 6,-73l-9 -2 7 -3 -16 -19c0,0 8,22 12,51 2,14 1,35 0,46z"/>
  <path class="fil26" d="M457 97c0,0 1,5 4,7 2,2 11,7 14,7 3,0 5,0 6,-2 1,-1 1,-6 2,-7 0,-2 2,-5 2,-8 0,-3 -1,-7 -1,-8 1,-2 1,-2 1,-5 0,-2 -2,-10 -3,-12 -1,-3 -10,-11 -20,-8 -10,2 -14,12 -14,15 0,4 2,9 2,9 0,0 -2,1 -2,2 0,2 1,5 2,7 1,1 3,3 5,4 1,0 2,-1 2,-1z"/>
  <path class="fil27" d="M455 97c0,0 0,0 -1,0l1 1 0 0c0,-1 0,-1 0,-1z"/>
  <path class="fil27" d="M484 86c1,-2 1,-2 1,-5 0,-2 -2,-10 -3,-12 -1,-2 -9,-9 -18,-9 8,1 15,7 16,9 1,2 3,10 3,12 0,3 0,3 -1,5 0,1 1,5 1,8 0,3 -2,6 -2,8 -1,1 -1,6 -2,7 -1,1 -2,2 -4,2l0 0c3,0 5,0 6,-2 1,-1 1,-6 2,-7 0,-2 2,-5 2,-8 0,-3 -1,-7 -1,-8z"/>
  <path class="fil15" d="M457 92l0 -6c0,0 2,-1 2,-3 1,-1 -1,-5 0,-6 0,-1 1,-4 3,-5 2,0 10,3 14,2 4,-1 8,-4 9,-6 2,-3 3,-8 -2,-10 -4,-2 -8,2 -9,2 0,0 -9,-3 -17,1 -8,4 -11,11 -10,16 1,6 2,8 2,8 0,0 4,1 5,3 1,2 1,4 1,4l2 0z"/>
  <path class="fil28" d="M477 84c0,0 6,10 4,11 -1,1 -3,1 -3,1l-1 -12z"/>
  <path class="fil29" d="M471 87c0,1 1,1 1,1 1,0 2,0 2,-1 0,0 -1,-1 -1,-1 -1,0 -2,0 -2,1z"/>
  <path class="fil29" d="M481 86c0,1 0,1 1,1 1,0 1,0 1,-1 0,-1 0,-1 -1,-1 -1,0 -1,0 -1,1z"/>
  <path class="fil15" d="M469 85c0,0 0,0 0,0 2,-2 5,-1 5,-1 1,0 1,0 1,-1 0,0 0,0 0,0 0,-1 -4,-2 -6,1 -1,0 -1,1 0,1 0,0 0,0 0,0z"/>
  <path class="fil15" d="M480 83c0,0 0,0 0,0 0,0 3,-1 5,0 0,0 0,0 0,0 1,0 1,-1 0,-1 -2,-2 -5,0 -5,0 -1,0 -1,1 -1,1 1,0 1,0 1,0z"/>
  <path class="fil28" d="M480 99c1,0 1,0 1,1 0,1 -1,2 -3,3 -1,0 -3,-1 -3,-2 -1,-1 0,-1 0,-1l5 -1z"/>
  <path class="fil16" d="M513 187c-6,-5 -2,-15 5,-20 4,-3 28,-23 31,-25 2,-2 10,4 7,8 -2,4 -29,48 -43,37z"/>
  <path class="fil25" d="M550 148c1,1 3,2 4,2l0 0 0 0c1,1 2,0 2,0 1,-1 1,-1 1,-2 0,0 0,-1 0,-1l0 0c-1,-1 -1,-2 -2,-3 -2,-1 -3,-2 -5,-2 0,0 0,0 -1,0 0,0 0,0 0,0 -1,1 -1,2 -1,3l0 0c0,1 1,2 2,3z"/>
  <path class="fil16" d="M425 142l6 59c1,5 6,9 11,9 5,-1 9,-5 8,-10l-2 -59c0,-7 -6,-12 -12,-11 -7,0 -12,5 -11,12 0,0 0,0 0,0z"/>
  <path class="fil30" d="M434 207c-5,-7 2,-16 9,-18 5,-2 34,-15 37,-17 3,-1 8,6 5,9 -3,3 -40,40 -51,26z"/>
  <path class="fil25" d="M486 179c0,1 0,2 -1,2 -1,1 -2,1 -3,0l0 0 0 0c0,0 -1,0 -2,-1 0,0 0,-1 -1,-1 -1,-2 -1,-3 -1,-4l0 0c0,-1 0,-1 0,-2l0 0 0 0c0,0 1,0 1,0 0,-1 0,-1 1,-1 0,0 0,0 1,0 1,1 2,2 3,3l1 0c0,1 1,3 1,4l0 0c0,0 0,0 0,0z"/>
  <path class="fil31" d="M491 155l-1 4c1,0 4,-1 5,-1 1,0 4,-1 6,0 1,0 1,1 0,1 -2,1 -5,1 -5,1l-6 3 1 2 3 -4 4 -1c0,0 -6,11 -7,13 -1,2 -10,6 -10,6l-1 -6 6 -18 5 0z"/>
  <path class="fil32" d="M497 157l-3 -1c0,0 0,1 -1,1 0,0 -3,0 -3,0l-3 0 -1 0c0,0 2,0 3,0 1,1 2,2 3,2 0,0 -1,2 -2,1 -1,-1 -2,-1 -2,-1l-3 2c0,0 0,12 0,14 0,0 0,0 0,0 -1,2 -3,4 -5,5 0,0 0,-1 -1,-1 -1,-2 -1,-3 -1,-4l0 0c0,-1 0,-1 0,-2l0 0 0 0c1,-1 4,-11 4,-13 1,-1 1,-1 1,-1 0,0 1,-4 1,-4 1,-1 7,-2 8,-2 1,0 4,1 6,2 1,1 0,3 -1,2z"/>
  <path class="fil2" d="M522 165l32 -15c2,0 3,-2 3,-3l12 -37c0,-1 -1,-2 -2,-2l-33 15c-1,1 -3,2 -3,4l-12 36c0,1 1,3 3,2z"/>
  <path class="fil32" d="M558 145c0,0 1,0 3,-1 2,-1 2,-2 2,-2 0,0 1,0 2,-1 0,-1 0,-2 0,-2 0,0 2,-1 2,-1 0,-1 -1,-2 -1,-2 0,0 1,-2 1,-2 0,-1 -1,-2 -2,-2 0,0 1,-2 1,-3 -1,-1 -3,0 -5,1 -1,0 -3,1 -3,2 -1,0 0,1 0,1 0,0 4,-1 5,-1l0 0c-2,0 -9,2 -9,2 -1,1 -1,2 0,2 0,0 0,0 0,1 0,0 0,0 0,0 0,0 0,1 1,2 2,1 5,1 5,1l-2 5z"/>
  <path class="fil6" d="M485 232c-1,1 -1,1 -1,2l0 0c0,1 1,1 1,1l3 0c1,-1 2,-1 1,-2l0 0c0,-1 0,-1 -1,-1l-3 0zm4 3l-3 1c-2,0 -3,-1 -3,-2l0 0c0,-1 1,-2 2,-2l3 -1c1,0 2,1 2,2l0 0c1,1 0,2 -1,2z"/>
 </g>
 <g id="phone" visibility="hidden">
  <metadata id="CorelCorpID_4Corel-Layer"/>
  <path class="fil33" d="M666 445l-116 67c-6,4 -16,4 -22,0l-263 -152c-3,-2 -5,-4 -5,-6 0,-3 0,-12 0,-12l121 -61c6,-4 16,-4 22,0l268 146c0,0 0,10 0,12 0,2 -2,4 -5,6z"/>
  <path class="fil2" d="M666 434l-116 67c-6,3 -16,3 -22,0l-263 -152c-6,-4 -6,-9 0,-13l116 -67c6,-4 16,-4 22,0l263 152c6,3 6,9 0,13z"/>
  <polygon class="fil33" points="637,413 515,484 296,357 418,287 "/>
  <path class="fil34" d="M349 304c-1,0 -1,1 -1,1l-21 12c-1,0 -1,0 -1,1 0,0 0,0 1,0 0,1 2,1 2,0l21 -12c1,0 1,0 1,-1 0,0 0,0 -1,0 0,0 -1,-1 -1,-1z"/>
  <path class="fil33" d="M297 373l16 9c1,1 2,2 2,3l0 0c0,1 -1,1 -2,1l-16 -9c0,-1 -1,-2 -1,-3l0 0c0,-1 1,-2 1,-1z"/>
  <path class="fil34" d="M619 463l-14 8c-2,1 -3,3 -3,5l0 0c0,2 1,3 3,2l14 -8c2,-1 3,-3 3,-5l0 0c0,-2 -1,-3 -3,-2z"/>
  <path class="fil35" d="M296 373c1,0 1,0 1,0l16 9c1,1 2,2 2,3l0 0c0,0 0,1 -1,1l3 -1 0 0c0,0 0,-1 0,-1l0 0c0,-1 -1,-3 -1,-3l-16 -9c-1,-1 -1,-1 -2,0l0 0 -2 1z"/>
  <path class="fil33" d="M325 389l15 9c1,1 2,2 2,3l0 0c0,1 -1,1 -2,1l-15 -9c-1,-1 -2,-2 -2,-3l0 0c0,-1 1,-2 2,-1z"/>
  <path class="fil35" d="M327 388c-1,-1 -1,-1 -1,0l0 0 -3 1c1,0 1,0 2,0l15 9c1,1 2,2 2,3l0 0c0,0 0,1 0,1l2 -1 0 0c0,-1 0,-1 0,-1l0 0c0,-1 0,-3 -1,-3l-16 -9z"/>
  <polygon class="fil36" points="515,484 459,452 459,311 637,413 "/>
  <path class="fil37" d="M596 404c-8,-4 -20,-4 -28,1l-69 40 -7 0 0 10 0 0c0,3 2,5 6,8l0 0c9,5 22,5 31,0l69 -40c4,-3 6,-6 7,-9l0 0 0 -10 -9 0z"/>
  <path class="fil38" d="M598 413l-69 41c-9,4 -22,4 -31,0l0 -1c-8,-4 -8,-12 0,-17l70 -40c8,-5 22,-5 30,0l0 0c9,5 9,13 0,17z"/>
  <polygon class="fil6" points="513,439 515,440 512,442 520,447 518,448 510,443 507,445 505,444 "/>
  <path class="fil6" d="M521 440l1 0c0,-1 0,-1 1,-1 0,0 0,0 0,0 0,-1 0,-1 0,-1 -1,0 -1,0 -1,0 0,-1 -1,-1 -1,-1 -1,0 -1,0 -2,1l-1 0 3 2zm2 1l3 2 -2 1 -10 -5 3 -2c1,-1 2,-1 2,-1 1,0 2,0 2,0 1,0 1,0 2,0 0,0 1,0 1,0 0,0 1,1 1,1 0,0 0,0 0,1 0,0 0,0 0,0 0,1 0,1 0,1 0,0 0,0 1,0 0,0 0,0 0,0l6 1 -2 1c0,0 -1,0 -1,0l-5 -1c0,0 0,0 0,0 -1,0 -1,1 -1,1l0 0z"/>
  <path class="fil6" d="M532 435l3 -1 -4 -1c0,0 0,0 -1,0 0,-1 0,-1 -1,-1 0,0 1,1 1,1 0,0 0,0 0,0l2 2zm10 -1l-2 1c0,0 0,0 0,0 0,0 -1,0 -1,0l-2 -1 -4 3 1 1c0,0 0,0 0,0 0,0 0,1 0,1l-2 1 -6 -8 2 -2 14 4z"/>
  <path class="fil6" d="M535 427l0 0 0 0c0,0 0,0 0,0l11 0c0,0 0,0 -1,0 0,0 0,0 0,0l-5 -3 2 -1 10 5 -2 1c0,0 0,0 0,0 0,0 0,0 -1,0l-10 0c0,0 0,0 0,0 0,0 1,0 1,0l5 3 -2 1 -10 -5 1 -1 1 0z"/>
  <path class="fil6" d="M551 420l0 0 0 0c0,0 -1,0 -1,0 0,0 0,0 0,0 -1,0 -1,1 -1,1 0,0 -1,0 -1,0 0,0 -1,0 -1,1 0,0 1,0 1,0 0,0 0,0 1,0 0,0 0,0 0,0 1,0 1,0 1,0 1,0 1,0 1,0 1,0 1,0 2,0 0,-1 0,-1 1,-1 0,0 1,0 1,1 1,0 1,0 1,0 1,0 1,1 1,1 1,0 1,1 1,1 0,0 0,1 -1,1 0,0 0,1 -1,1 0,0 -1,0 -1,0 0,1 -1,1 -1,1 -1,0 -1,0 -1,0 -1,0 -1,0 -2,0l0 -1 0 0 0 0c0,0 1,0 1,0 0,0 0,0 0,-1 1,0 1,0 1,0 1,0 1,0 1,0 1,0 1,-1 1,-1 0,0 0,0 -1,-1 0,0 0,0 0,0 -1,0 -1,0 -1,0 0,0 -1,0 -1,1 0,0 -1,0 -1,0 -1,0 -1,0 -1,0 -1,0 -1,0 -1,0 -1,0 -1,0 -2,0 0,0 -1,0 -1,0 -1,-1 -1,-1 -1,-1 0,0 0,-1 0,-1 0,0 0,-1 0,-1 0,0 1,-1 1,-1 1,0 1,0 1,-1 1,0 1,0 1,0 1,0 1,0 1,0 1,0 1,0 1,0l1 1z"/>
  <polygon class="fil6" points="561,421 565,419 567,420 561,423 551,417 553,416 "/>
  <path class="fil6" d="M567 415l3 -1 -4 -1c0,0 -1,0 -1,-1 0,0 -1,0 -1,0 0,0 0,1 1,1 0,0 0,0 0,0l2 2zm10 -1l-2 1c0,0 0,0 0,0 -1,0 -1,0 -1,0l-2 -1 -4 2 1 2c0,0 0,0 0,0 0,0 0,0 0,1l-2 1 -6 -8 2 -2 14 4z"/>
  <polygon class="fil6" points="574,404 576,405 573,407 581,411 579,413 571,408 568,410 566,409 "/>
  <polygon class="fil6" points="581,400 583,401 579,403 581,405 584,403 586,404 583,406 585,407 589,405 591,406 585,409 575,404 "/>
 </g>
 <g id="map" visibility="hidden">
  <metadata id="CorelCorpID_5Corel-Layer"/>
  <path class="fil39" d="M782 393c-2,1 -6,1 -9,2 -2,0 -5,2 -7,3 -3,-5 -4,1 -6,1 -3,2 -5,0 -7,3 -3,2 -1,2 -5,4 0,0 -2,-1 -2,-1 -1,1 -1,1 -2,2 -2,0 -4,1 -6,2 -6,1 -9,3 -14,6 -4,2 -10,2 -14,5 3,2 7,5 2,7 -1,-1 -5,-6 -7,-6 -2,-1 -6,0 -7,1 -1,2 4,1 4,2 -1,3 -7,4 -10,6 -4,2 -2,3 -4,6 -1,2 0,4 -1,6 -1,1 -4,1 -4,2 -2,1 0,1 -2,2 0,0 -1,0 -1,0 -4,1 -4,1 -8,1 -3,0 -4,-2 -7,1 -6,3 -8,3 -15,4 -9,2 -10,9 -12,13 -1,4 -2,4 -7,5 -1,0 -1,0 -2,0 -1,0 -3,0 -4,1 0,2 4,2 3,3 0,1 -4,2 -4,3 -1,1 -1,2 -3,3 -2,2 -9,3 -9,5 0,3 8,2 3,5 -5,3 -7,0 -7,-3 -4,0 -8,5 -11,7 -4,2 -11,2 -9,6 -5,5 -4,11 -4,17l212 -122c-1,0 -1,0 -2,-1 -2,-1 -5,-1 -7,-1 -1,1 -3,1 -5,0zm-264 151c-5,0 -9,2 -13,0 -6,-1 -9,-3 -6,2 0,0 1,3 1,3 2,1 3,1 4,1 0,0 1,0 2,0 3,0 9,1 10,3 -3,0 -5,2 -7,3 1,1 2,2 3,3l27 -15c-7,-1 -14,0 -21,0zm145 -263c-1,0 0,0 1,0 0,0 1,1 2,1 1,-1 0,-1 -1,-1 0,0 0,0 -1,0 0,-1 1,-1 1,-1 1,0 -1,0 -1,0 0,0 0,0 0,0l0 0c0,0 -1,0 -1,1zm-3 2c0,1 -2,1 0,1 1,0 1,1 2,1 1,0 1,-1 0,-1 -1,-1 -1,-1 -2,-1zm-481 111c0,0 -4,1 -4,2 1,1 2,0 2,0 1,0 1,0 1,0 2,0 2,0 3,0 1,0 4,-3 4,-3 0,-1 -5,0 -6,1zm-37 0c1,0 2,0 3,0 0,-1 -1,-1 -1,-1 0,0 1,0 1,-1 -1,0 -3,0 -2,-1 0,0 1,0 1,1 2,-1 1,-1 1,-2 1,-1 2,-2 2,-3 -1,0 -1,1 -2,1 -1,-1 -2,1 -3,1 1,-1 -1,-1 -2,-1 0,0 -1,0 -1,0 -1,0 -2,-1 -3,0 0,0 1,1 2,1 -3,0 -5,0 -8,1 -2,0 -8,1 -7,2 1,0 1,-1 3,-1 0,1 -3,1 -4,2 0,1 1,1 2,0 1,0 1,0 2,0 -1,0 -2,1 -2,1 0,0 0,0 0,0 0,0 0,1 0,1 0,0 0,0 0,0 -1,0 -1,1 -1,1 1,1 3,-1 5,-1 0,1 -4,1 -4,2 0,0 1,0 3,0 0,0 1,-1 2,-1 -1,1 -1,1 -1,1 1,1 4,-1 4,-1 1,-1 1,-3 3,-3 0,1 -1,1 -1,2 1,0 2,-1 2,-1 0,1 -3,2 -4,3 1,0 2,0 3,-1 -1,1 -1,1 -1,1 1,0 3,0 4,-1 -1,0 -1,1 -1,1 2,1 4,-1 5,-2 0,0 -1,0 -1,0 1,0 1,0 2,0 0,0 1,0 1,0 0,0 -1,-1 -2,-1 0,0 0,0 0,0 0,0 0,0 0,0zm-11 20c-1,1 -2,2 0,2 1,-1 1,-2 0,-2zm-6 -8c-1,1 -2,2 0,2 2,0 1,-3 0,-2zm3 6c0,-1 -2,-1 -3,0 -1,1 2,1 3,1 -1,0 -1,0 -1,1 2,0 4,-3 1,-2zm6 -5l-2 1c0,1 0,2 2,1 -1,0 -1,0 -1,1 0,0 0,0 1,0 -1,0 -1,0 -2,0 0,0 -1,0 -2,0 -1,0 0,1 1,1 0,0 0,0 0,0 1,0 1,0 1,0 0,1 -3,1 -1,2 0,0 0,0 1,-1 0,1 0,1 0,1 2,0 3,-3 5,-3 0,0 -1,1 -1,1l0 0c1,0 1,0 2,0 -1,0 0,0 0,1 1,-1 0,-1 1,-1 1,-1 2,-1 2,-1 3,-2 0,-1 -1,-1 -1,-1 1,-1 1,-1 0,-1 -2,-1 -2,-1 -1,-1 -4,-2 -5,0zm11 -2c-1,1 -2,2 -1,3 1,1 4,0 5,-1 6,-2 -5,-4 -4,-2zm6 -6c0,0 -1,0 -2,0 0,0 -1,0 -2,0 -1,0 -2,1 -3,2 -2,0 -9,1 -7,3 1,2 6,-1 8,-2 4,-1 4,2 7,2 2,1 2,0 3,-1 1,0 3,0 3,-1 1,0 0,-1 0,-1 1,0 1,0 1,0 0,0 1,0 1,0 1,0 2,0 2,-1 1,0 2,0 2,-1 0,-1 3,-1 3,-2 1,0 1,-1 0,-1 0,-1 1,0 2,0 1,0 1,0 3,-1 1,-1 3,-3 0,-3 1,-1 1,-2 -2,-1 -1,0 -3,1 -5,1 -1,1 -7,5 -4,5 -2,1 -3,1 -5,2 -1,1 -3,1 -5,1 1,-1 1,-1 2,-1 0,0 -1,0 -1,0 0,0 -1,0 -1,0zm-7 -2c0,1 2,1 3,0 0,0 0,-1 0,-1 -1,0 -3,1 -3,1zm-5 2c-1,0 -6,3 -4,3 1,0 7,-3 4,-3zm-5 0c-1,1 -10,1 -7,3 0,0 1,0 1,0 0,0 0,0 0,1 1,-1 2,-1 3,-2 1,1 0,1 0,2 2,-1 6,-4 3,-4zm-14 0c-1,0 -3,1 0,2 1,0 1,-1 2,-1 0,-1 0,-2 -2,-1zm-1 8c0,0 -4,1 -2,2 1,1 3,-1 4,-2 1,0 2,-1 4,-1 2,-1 5,-1 4,-2 -1,0 -3,0 -3,0 -1,0 -1,-1 -2,-1 0,0 -1,0 -2,1 -1,-1 -2,0 -3,0 -1,1 0,1 -2,1 -2,0 -6,1 -4,3 1,0 1,-1 2,-1 0,0 0,0 0,1 1,-1 1,-2 2,-2 0,1 0,1 0,1 1,-1 2,-1 2,0zm83 -6c-3,1 -1,5 3,3 4,-2 -3,-5 -3,-3zm3 0c0,1 3,0 4,-1 1,-1 -4,0 -4,1zm7 1c-1,1 -1,2 0,2 1,0 1,0 2,0 0,0 1,0 0,1 -1,1 -5,2 -5,3 -1,1 0,2 1,2 1,0 2,-1 3,-2 0,0 3,-3 4,-2 1,0 2,0 2,0 1,0 1,0 1,0 1,0 1,0 1,0 2,0 3,-1 2,1 1,0 1,0 2,-1 0,0 1,0 2,0 1,0 1,0 2,-1 1,0 2,0 3,0 1,0 2,0 3,-1 1,0 3,0 3,0 3,-2 -3,-1 -4,-1 -1,0 -4,1 -5,0 1,0 2,-1 1,-1 2,-1 7,0 8,-1 -1,-1 -2,-1 -3,-2 1,0 1,0 2,0 -1,-1 -2,-1 -2,-1 -1,0 -2,0 -2,0 -1,0 -1,0 -1,0 -2,0 -1,-1 -3,0 -1,0 -1,0 -2,1 -1,-1 -2,-1 -2,0 -1,0 -2,0 -2,0 -1,-1 1,-1 1,-1 1,-1 -1,-1 -1,-1 -1,-2 5,-1 5,-3 1,1 1,2 2,2 2,0 4,0 3,-1 0,0 -1,0 -1,-1 0,-1 0,0 1,-1 1,-1 0,-1 -1,-1 0,-1 0,-2 -2,-2 -2,0 -2,1 -3,2 0,-1 0,-1 -1,-1 -1,0 -1,0 -2,0 -1,1 -1,1 -2,0 -1,0 -1,0 -2,0 -2,1 -4,2 -6,3 1,-1 -1,-1 -1,-2 0,0 1,0 2,-1 0,-1 -2,0 -3,0 -1,0 -1,1 -2,1 0,-1 2,-2 0,-2 -2,1 -1,2 -3,2 1,-2 0,-2 -2,-2 -2,0 -3,0 -4,1 0,0 -1,3 -2,2 0,0 1,-1 1,-2 -1,0 -2,0 -3,0 -1,0 -1,1 -2,2 -1,1 -1,0 -2,0 -2,0 -5,0 -7,0 -2,1 -1,2 -2,3 -1,1 -2,1 -2,1 -1,1 0,1 -1,2 -1,-1 -1,-1 -1,-2 -1,0 -1,0 -2,0 0,0 0,0 -1,0 -2,0 -3,-1 -5,0 -1,0 -1,2 -2,3 0,0 -1,0 -1,0 -1,0 -1,0 -2,0 0,0 -1,1 -1,1 -3,0 -3,6 -1,7 1,2 3,1 5,0 1,0 3,-1 4,0 -1,0 -2,1 -3,1 1,2 7,-1 7,-2 4,2 6,-2 10,-3 0,0 0,0 0,0 1,0 1,0 2,-1 0,0 -1,0 -1,0 0,-1 4,-1 1,-2 0,-1 1,-1 1,-1 1,0 2,0 2,0 0,0 1,0 2,0 1,1 0,0 1,0 1,-1 3,-1 4,0 -1,0 -2,2 0,1 2,0 0,-2 3,-1 0,0 1,0 3,0 1,-1 2,-1 3,-1 1,0 2,1 3,1 0,1 -1,1 0,2zm1 13c1,1 2,3 3,2 1,-1 -2,-3 -3,-2zm-6 2c0,1 -2,4 1,2 1,0 1,-1 1,-1 0,-1 -1,-2 -2,-1zm67 2c-2,0 -1,1 1,1 1,0 3,-1 4,-1 2,-2 -4,-1 -5,0zm-78 -3c-2,0 0,-2 -1,-2 -2,0 -1,2 -1,2 0,1 1,1 2,2 0,1 0,1 0,2 1,1 1,1 2,0 1,0 0,0 1,-1 1,0 1,0 1,1 0,0 1,0 1,0 3,0 1,-3 2,-4 1,0 2,0 3,0 1,0 2,-1 3,-2 0,0 -1,0 -2,-1 -1,1 -1,2 -2,2 -2,-1 -2,-1 -4,-1 -2,1 -4,1 -5,2 0,0 0,-1 0,0zm-35 4c-2,0 -1,1 -1,2 1,0 0,1 0,2 1,0 1,-1 2,-1 1,0 2,0 2,-1 1,0 3,-1 4,-2 1,-2 -5,-1 -7,0zm-2 -7c1,-1 0,-2 0,-2 -1,-1 -2,-1 0,-2 1,-1 3,-3 0,-4 -1,-1 -4,1 -5,2 -2,0 -6,2 -2,2 -3,1 3,4 4,5 1,0 0,0 1,1 0,0 0,0 1,0 0,0 1,0 1,0 1,1 -3,0 -1,2 1,0 2,0 2,0 1,1 1,1 2,1 1,1 3,0 4,0 2,-1 5,-4 4,-5 -1,-1 -2,0 -3,0 -1,0 -2,0 -2,0 -3,-1 -4,-2 -6,0zm-17 2c0,0 -1,1 0,2 1,-1 3,-1 4,0 0,0 -3,0 -4,0 -1,1 -1,2 1,2 1,0 1,0 2,-1 1,0 1,0 2,0 2,0 6,1 7,0 0,-1 -1,-1 -1,-1 0,-1 1,-1 1,-1 1,-1 1,-2 0,-2 1,-1 -1,-1 -2,-1 -1,0 -3,1 -3,1 0,-1 2,-2 -1,-2 2,-2 -1,-2 -2,-1 -1,1 -1,2 -2,2 -1,1 -2,1 -2,2zm-23 -4c0,0 0,0 -1,0 0,1 2,1 4,1 0,0 2,-1 1,-1 -1,0 -1,0 -2,0 -1,0 -2,0 -2,0zm-17 8c-1,1 0,1 2,1 1,-1 1,0 1,-1 -1,-1 -2,-1 -3,0zm2 -4c-1,1 -1,1 -1,2 1,0 1,-1 2,-1 0,-1 1,-1 1,-1 1,0 3,-1 4,-2 0,-1 -2,-1 -3,-1 -2,1 -2,3 -3,3zm6 -1c-2,1 -6,4 -4,5 3,0 7,-3 6,-4 0,0 -1,0 -1,0 -1,0 -1,1 -1,0 0,0 1,-1 0,-1zm-2 7c-2,0 -1,1 1,1 3,-1 1,-2 -1,-1zm-4 5c0,1 -2,3 0,3 1,-1 2,-2 0,-3zm22 -7c1,-1 3,-2 1,-3 0,-1 -1,-1 -3,-1 -1,1 1,2 -1,2 0,0 -1,0 -2,0 0,0 -1,0 -1,0 -1,0 -3,-1 -3,-1 -2,0 -2,2 -1,2 0,1 -1,1 0,1 0,0 2,0 2,-1 0,1 0,1 0,2 2,-1 5,-1 3,0 -1,1 -4,2 -5,1 -1,0 -1,0 -2,0 0,0 0,0 -1,0 -1,0 -2,1 -3,1 -1,0 -2,0 -3,1 -1,0 0,1 1,1 -1,0 -3,3 0,2 -1,0 -1,1 -1,1 1,0 2,-1 3,-1 0,0 -3,1 -2,2 1,1 2,-1 3,-1 0,0 1,0 1,0 1,0 0,-1 1,-1 0,0 1,0 1,0 1,-1 0,-1 0,-2 2,0 3,-1 5,-1 0,1 -3,2 -3,3 0,2 3,-1 4,-1 1,-1 1,-3 2,-4 1,0 2,0 3,-1 1,0 0,0 1,-1zm-26 9c0,0 1,0 1,0 1,0 1,0 1,0 1,-1 0,-1 -1,-1 0,0 0,-2 1,-2 0,1 2,1 3,0 1,-1 0,-3 -1,-3 1,-2 -5,0 -3,1 -2,1 -3,2 -3,4 0,0 0,1 -1,2 0,0 -1,1 -1,2 0,1 2,0 3,0 1,-1 -1,-2 1,-2 0,0 0,0 1,0 0,1 1,1 1,0 0,-1 -2,-1 -1,-2l-1 1zm33 -8c0,1 5,2 6,0 1,-2 -5,-1 -6,0zm1 12c1,2 -3,3 -6,4 -3,3 1,2 4,2 2,0 2,-1 3,-1 1,0 1,0 1,0 1,0 1,0 2,0 1,-1 3,-3 4,-3 1,-1 3,-2 3,-3 2,-2 2,-1 4,-2 2,0 4,-1 5,-2 1,-1 2,-1 2,-2 -1,0 -1,0 -1,0 -1,0 -1,0 -1,0 0,0 0,1 -1,1 0,0 -1,0 -1,-1 0,0 1,-1 2,-1 1,-1 4,-1 0,-2 -1,0 -3,1 -4,2 -2,0 -5,1 -6,0 -3,-2 -6,-3 -11,-2 1,0 0,0 1,0 -1,1 -2,1 -2,1 0,1 6,1 5,3 -2,0 -3,-1 -5,-1 -2,-1 -3,0 -4,1 1,0 2,0 3,1 -1,0 -1,0 -2,0 0,1 0,1 0,1 -1,-1 -3,-1 -4,0 -2,1 -1,2 -2,3 -2,-4 -9,3 -6,4l1 0c0,0 -1,1 0,2 1,1 2,-1 2,-1 1,1 2,0 3,-1 1,1 -2,2 0,3 2,-2 6,-6 11,-6zm-18 7c0,0 -1,-1 -2,-2 1,0 1,0 2,-1 -4,-2 2,-3 1,-6 -1,-1 -3,0 -5,0 -1,1 -1,1 -2,2 0,0 -1,0 -1,0 -1,0 -1,0 -2,0 -1,1 -3,2 -5,2 -1,1 -3,2 -2,3 1,1 2,0 3,1 0,0 0,1 0,1 0,1 1,1 1,2 1,0 0,1 0,1 2,2 3,0 5,0 1,0 1,0 2,0 1,0 3,0 3,-1 0,-1 1,-1 2,-2zm34 -42c-3,0 1,1 1,1 1,0 0,-1 1,-1 0,0 0,0 1,0 0,0 0,0 1,0 1,-1 2,-2 4,-3 1,0 1,-1 2,-2 1,0 4,-1 4,-2 0,0 0,0 1,0 1,1 2,2 2,0 1,-1 1,-1 2,-2 0,0 1,-1 1,-1 -1,-2 -3,0 -4,0 -1,0 1,-3 -2,-3 -1,0 3,-2 3,-2 1,-2 -1,-2 -2,-1 0,-1 1,-2 2,-3 -1,0 -3,1 -4,1 0,0 2,-1 2,-1 -1,-1 -2,0 -3,0 0,0 5,-3 3,-3 1,-1 2,-1 3,-2 0,0 1,-1 0,-2 -1,1 -2,2 -2,1 0,-1 2,-1 3,-2 0,-1 0,-2 0,-3 1,-1 5,-4 2,-5 -2,1 -2,4 -5,5 0,-1 2,-2 1,-2 -1,0 -1,0 -1,0 1,-1 4,-2 5,-4 2,-1 2,-2 3,-4 -7,-1 -9,3 -12,5 -1,0 0,-1 0,-2 -1,0 -2,0 -3,1 -1,0 -3,1 -4,2 -1,1 -2,1 -3,2 -1,1 0,1 0,2 -1,0 -4,1 -6,1 -2,1 -3,3 0,2 0,1 -3,1 -4,2 -2,1 -2,2 -3,3 -1,0 -3,2 -1,2 1,1 2,0 3,0 1,0 2,-1 3,-1 0,1 -5,2 -7,3 -1,0 -3,0 -4,0 -1,1 -2,2 0,2 -1,0 -1,0 -2,1 1,0 1,0 2,0 0,1 -3,1 -3,2 -1,0 -1,1 -1,1 -1,1 -1,1 -2,1 -1,1 -2,3 0,2 2,0 3,-1 4,-2 1,0 -1,1 0,1 1,1 1,0 2,0 1,-1 2,-2 4,-3 0,0 0,0 1,-1 0,1 -5,4 -3,5 3,0 3,-4 5,-5 0,1 -1,2 0,2 1,0 4,-1 4,-1 0,-1 -2,-3 1,-2 0,-1 0,-1 0,-1 0,0 1,1 1,1 1,-1 3,-2 4,-3 0,-1 -1,-3 1,-3 1,0 0,1 2,1 0,2 -6,3 -6,5 -1,1 0,1 1,1 1,0 1,-1 2,0 1,0 -1,0 -2,0 0,0 -1,0 -1,0 -2,0 -7,2 -6,3 0,2 6,1 8,1 1,-1 2,-1 3,0 -1,1 -3,1 -4,2 -1,0 -1,1 -1,2 0,3 4,-1 5,-2 0,1 0,3 3,2 1,-1 2,-2 2,-1 1,0 0,1 -1,2 -1,0 -2,0 -3,0 -1,0 -2,0 -3,0 -1,1 -3,1 -2,2 0,1 2,0 3,0 0,0 -1,2 -1,3zm-45 97c0,0 1,-1 0,-1 0,0 -1,1 -2,1 -2,0 -1,0 -1,1 0,1 -1,1 0,2 1,0 1,0 2,0 0,-1 0,-1 0,-2 1,0 2,0 1,-1zm-2 -1c1,0 0,0 1,-1 0,-1 -2,0 -2,1 -1,1 -1,1 1,0zm-28 9c-1,0 -3,2 -2,3l3 -1c0,-1 -1,-1 0,-1 0,0 0,0 0,-1 0,0 0,0 -1,0zm136 -53c1,0 -1,0 0,0 0,-1 1,0 2,0 0,0 0,0 0,0 1,0 1,0 1,0l1 0c0,1 0,1 1,2 1,-1 0,-1 0,-1 0,-1 1,-1 0,-1 0,0 -2,-1 -3,-1 -1,0 -3,0 -4,-1 -1,0 -2,0 -3,-1 0,0 -1,0 -1,0 0,0 0,-1 -1,0 0,0 1,1 1,1 -1,0 -1,1 0,2 1,0 1,0 2,0 1,-1 0,0 0,0 1,0 1,0 2,0 0,0 0,0 0,0 1,0 1,0 2,0zm-49 -6c-2,1 -2,2 -2,2 -1,1 0,3 -2,4 -1,0 -1,0 -1,0 -1,0 -1,0 -1,0 -1,0 -1,0 -1,0 -1,0 -1,0 -2,0 0,0 -2,1 -1,1 0,0 1,0 1,0 1,0 1,0 1,0 1,0 1,0 1,0 1,0 1,0 1,0 1,1 0,1 -1,1 0,1 1,1 1,1 0,1 -2,1 -1,1 0,1 -2,1 -1,1 0,0 1,0 2,0 0,-1 2,-1 2,-1 1,-1 2,-1 2,-2 0,-1 -1,-1 0,-1 0,0 1,-1 1,-1 0,-1 0,-1 1,-2 -2,0 -1,-1 -1,-1 1,0 2,-1 2,-1 -1,0 -1,0 -1,0l-1 0c-1,0 0,1 -1,1 -1,-1 2,-3 3,-2 1,-1 -1,-1 -1,-1zm-24 3c0,-1 -1,-1 -1,0 -1,0 -1,1 -1,1 0,0 -1,1 -1,1 -2,0 0,-2 -1,-2 -1,0 -2,0 -3,1 0,1 -1,2 -1,2 -1,1 -2,1 -2,2 -1,1 -2,1 -2,2 0,0 1,0 2,0 0,0 0,0 0,-1 0,0 1,0 2,-1 0,0 0,0 0,-1 0,0 1,0 1,0 1,-1 3,-1 1,0 0,0 -1,1 -1,1 0,0 1,0 1,0 0,1 0,1 0,1 0,0 1,0 1,0 0,1 -2,1 -1,1 1,0 1,0 2,-1 1,0 1,0 1,-1 0,-1 1,-2 1,-1 1,0 0,1 0,2 1,0 1,-1 1,-2 0,0 2,-1 1,-1 -1,0 -1,0 -1,0 0,0 -1,0 -1,0 0,-1 1,-1 1,-1 1,0 3,-1 2,-1 0,0 0,0 0,-1 -1,0 -1,-1 -1,0zm95 4c1,1 1,-1 2,-1 0,1 1,0 2,0 0,-1 0,-1 0,-2 0,0 1,-2 2,-1 0,0 -1,1 0,1 0,0 1,0 1,0 0,0 1,0 1,0 0,0 0,0 1,0 0,-1 1,-1 2,-2 0,0 0,-1 1,-1 0,0 1,0 1,0 1,0 1,0 1,0 1,0 3,-1 3,-1 1,0 2,-1 3,-1 1,0 -2,1 -2,1 -1,0 -2,1 -3,1 0,1 -2,0 -2,1 -1,0 -1,1 -1,1 0,0 0,0 0,1 0,0 0,0 0,0l-1 0c-1,0 0,2 1,3 1,-1 0,-2 0,-2 1,0 1,0 1,1 1,1 1,2 2,2 1,1 4,2 5,2 0,0 -1,-2 -1,-3 -1,0 -3,0 -3,-1 -1,-1 -2,-2 -1,-2 0,0 0,0 1,0 -1,0 -1,-1 -1,-1 0,0 0,0 0,0l0 0c0,-1 -1,-1 -1,-1 1,0 3,-1 4,-1 1,0 0,0 1,1 0,0 0,0 1,0 0,0 0,0 0,1 0,0 0,1 0,1 1,0 1,-1 1,-1 1,-1 2,0 3,0 1,0 1,0 1,-1 0,0 -1,-1 -1,-1 -1,0 -1,-1 -1,-1 -1,0 -2,0 -2,0 0,-1 0,-1 1,-1 0,0 0,0 1,0 0,1 0,1 1,1 0,-1 0,-1 1,-1 0,0 0,0 0,0 0,0 1,-1 0,-1 0,0 0,0 0,0 -1,0 -1,0 -1,0 0,0 0,0 -1,0 -1,0 -2,0 -3,0 -1,1 -2,1 -2,1 -1,0 -1,1 -2,1 -1,0 -1,1 -2,1 -2,0 -1,-1 -2,-1 0,0 -1,0 -1,0 0,0 -1,0 -1,0 0,0 0,-1 -1,-1 0,1 -2,1 -3,1 0,0 -1,-1 -1,-1 -1,1 -1,1 -1,1 -1,0 -1,0 -2,0l-1 1c0,0 0,0 1,0 0,0 0,0 0,0 0,0 0,0 0,0 0,0 0,0 0,0 0,0 0,0 0,0 -1,1 -1,1 0,1 0,0 0,0 -1,0 0,0 0,0 0,0 0,1 0,1 0,1 0,1 0,2 -1,2 0,1 -1,2 0,2zm30 -6c0,0 0,1 -1,1 0,1 -1,1 -2,1 0,1 1,2 0,2 -1,0 -1,-1 -1,-1 -1,0 0,2 0,2 1,0 1,0 1,-1 1,1 1,1 2,0 0,0 0,0 1,-1 0,-1 0,-1 1,-2 0,-1 1,-1 0,-2 0,0 -1,1 -1,1zm-1 -1c1,0 1,-1 2,-1 1,-1 3,-1 3,-2 0,-1 -1,0 -1,-1 0,0 0,-1 0,-1 -1,-1 -1,0 -1,0 0,1 0,2 -1,2 -1,1 -3,1 -2,2 -1,0 -1,1 0,1zm176 16c0,2 0,4 1,6 0,1 1,2 2,3 1,1 2,2 4,3 2,2 5,3 6,6 1,1 2,4 2,5 0,2 -3,4 -3,6 0,1 -1,2 1,4 1,1 2,2 2,3 0,2 1,3 1,4 1,3 2,6 3,8 -2,1 -6,2 -9,3 0,0 1,1 1,1 2,0 6,0 8,1 2,1 1,3 0,5 -1,0 -1,1 -2,2 -1,2 -1,1 0,2 1,1 1,2 1,3 -1,1 -2,1 -3,1 0,2 3,1 4,2 1,1 3,2 3,3 0,1 0,2 0,3 0,1 1,1 2,1 0,0 1,0 1,0 5,0 5,2 5,5 1,2 2,4 6,5 3,0 5,0 7,0 2,0 4,-1 6,-1 -1,2 -1,5 -4,6 -2,1 -7,2 -10,2 -8,0 -14,-1 -19,-5 -2,0 -3,-1 -4,-2l0 0 0 0 0 0 0 0c-3,-2 -6,-4 -8,-5 -2,-2 -5,-4 -8,-6 -2,-2 -5,-4 -7,-6 -4,-2 -7,-5 -10,-8 -2,-2 -5,-4 -6,-5 -2,-3 -5,-5 -8,-6 -3,-2 -5,-4 -9,-4 -3,1 -4,1 -6,1 -1,0 -2,0 -3,-1 -2,0 -3,0 -5,0 -2,0 -3,0 -5,-1 -3,0 -7,0 -10,-1 -2,0 -4,-1 -6,-1 -2,-1 -4,-1 -5,-1 -3,-1 -6,-4 -7,-6 -2,-1 -1,-3 -2,-5 -1,-2 -4,-4 -7,-5 -1,0 -5,-2 -6,-1 -2,1 1,2 -1,4 -2,1 -9,1 -11,1 -2,0 -3,-1 -5,-1 -2,0 -3,0 -5,0 -4,0 -6,2 -11,3 -1,0 -1,0 -2,0 -1,0 -2,0 -2,0 -3,0 -3,0 -5,2 -1,1 -4,1 -6,1 -2,1 -3,2 -5,2 -2,1 -3,1 -5,1 -4,1 -7,1 -11,-1 -2,-1 -2,-1 -5,-1 -1,0 -3,0 -5,0 -2,0 -4,0 -5,-1 -2,0 -3,-1 -5,-1 -2,0 -3,1 -5,1 -2,0 -3,-2 -4,-2 -4,-1 -8,1 -3,2 6,1 14,1 19,3 1,-1 3,0 4,1 -1,0 -4,1 -5,1 -3,0 -4,-2 -7,-2 -1,0 -1,0 -2,0 -1,0 -2,1 -4,0 -2,-1 -3,-1 -4,-1 0,0 -1,1 -2,1 -3,-1 -5,-2 -6,-2 -4,-1 -8,-1 -11,0 -4,0 -7,-1 -10,-2 -2,0 -4,0 -6,0 -2,-1 -4,-2 -5,-2 -5,-2 -9,-4 -12,-7 -2,-1 -6,-2 -4,-3 0,-1 2,-1 2,-2 0,-1 -2,-1 -4,-1 -2,0 -4,0 -6,1 -3,1 -7,2 -10,1 -1,0 -2,0 -3,0 -1,0 -2,0 -3,0 -2,0 -3,-3 -5,-2 -4,0 1,3 -5,2 -2,0 -1,0 -2,0 -1,-1 -2,-1 -3,-1 0,0 -1,0 -1,0 -3,0 -6,0 -9,0 -4,0 -8,0 -11,1 -2,1 -3,2 -5,3 -2,1 -5,1 -8,2 -1,0 -1,0 0,1 0,1 0,1 0,2 0,1 1,3 -2,4 -1,0 -3,-2 -3,-3 0,-1 2,-1 2,-2 0,0 -1,-1 -1,-1 -1,0 -2,1 -2,1 -2,2 0,3 0,5 0,0 -1,1 0,2 1,0 1,0 2,0 0,0 1,0 1,0 1,1 0,1 0,2 -2,1 -2,2 -2,3 0,1 -1,3 -1,4 0,1 0,2 0,3 -1,1 -2,2 -3,3 0,1 -2,4 -3,2 -1,-1 1,-2 2,-3 1,-1 0,-2 1,-3 0,-2 1,-2 1,-4 0,0 -1,-1 -1,-2 0,0 1,-2 -1,-2 -1,1 -1,2 -2,3 -1,1 -3,1 -4,0 -1,1 -1,2 -3,1 -1,0 -2,-1 -3,-1 0,2 -3,2 -6,2 -3,0 -5,-1 -6,-3 0,-2 0,-1 1,-2 2,-1 2,-2 2,-2 1,-2 1,-1 0,-2 0,0 -2,0 -2,-1 -1,0 0,-1 -1,-1 -1,1 0,1 -1,2 0,1 -2,1 -2,2 -1,0 -2,1 -3,1 -1,0 -4,1 -3,0 -1,0 -1,0 -2,0 -1,1 -2,1 -3,0 0,-1 2,-1 3,-2 0,0 -1,-1 0,-1 0,-1 0,-1 1,-1 1,-1 2,-1 4,-1 0,0 3,-1 2,-2 0,0 0,0 -1,0 0,0 0,0 -1,0 0,0 0,0 0,0 -1,-1 -1,-1 -1,-1 0,1 -2,1 -3,1 -1,0 -2,1 -3,0 -1,0 -2,1 -3,1 -1,0 -3,0 -4,0 -3,-1 2,-2 2,-3 2,-1 0,-2 0,-4 0,-2 2,-3 4,-5 1,0 1,-1 1,-2 0,-1 1,-1 3,-2 1,0 2,-1 3,-1 1,-1 1,-1 2,-1 1,0 1,0 2,0 0,0 1,0 1,-1 1,1 1,0 2,0 0,0 2,0 2,-1 2,-1 4,-2 6,-2 2,-1 4,-2 6,-3 2,-1 4,-2 6,-2 1,-1 3,-1 5,-2 1,0 3,0 4,-1 1,-1 0,-1 1,-2 0,-1 0,-2 2,-2 2,-1 2,-2 2,-3 1,0 2,-3 3,-2 1,0 -1,2 -2,3 0,0 0,1 0,1 1,0 2,-1 2,-1 0,-1 0,-1 0,-2 1,0 1,0 2,-1 0,0 0,0 0,-1 0,0 0,0 -1,-1 0,-1 3,0 4,0 1,0 4,0 4,-1 1,0 -1,-1 0,-2 1,0 1,1 2,1 0,0 1,0 2,-1 0,0 -1,0 -1,-1 0,0 3,-1 4,-1 2,-1 3,-1 5,-1 1,-1 3,-1 4,-2 1,0 1,0 2,0 0,-1 0,-1 1,-1 1,-1 3,-1 4,-1 0,1 -2,2 -1,3 1,0 2,-1 3,-1 1,-1 2,-3 4,-4 1,0 3,-1 4,-1 1,0 3,1 4,0 3,0 -1,-1 -1,-1 -2,-1 -1,-2 0,-3 0,0 0,-1 -1,-1 0,0 -1,1 -1,2 0,0 -2,2 -3,1 0,-1 2,-2 3,-3 1,-1 1,-1 2,-1 1,0 1,0 1,0 1,0 1,0 1,0 1,0 1,1 1,0 1,0 2,0 2,0 2,-1 3,-1 5,-2 1,-1 3,-1 4,-2 0,0 0,0 0,-1 -1,0 -1,-1 0,-1l0 0c1,0 3,-2 4,-2 1,1 0,1 1,1 0,1 1,1 2,1 3,0 -1,-1 -1,-2 0,0 0,-1 0,-1 1,-1 1,-1 0,-2 0,-1 -1,0 -2,0 0,0 -1,1 -1,0 0,0 1,-1 1,-1 0,0 0,0 -1,0 0,-1 0,-1 0,-1 1,-1 1,-1 2,-1 1,0 1,0 2,-1 0,0 0,-1 1,-1 2,0 1,1 1,1 0,1 0,1 0,0 1,0 1,0 1,0 1,1 2,1 2,1 3,1 0,-1 0,-2 0,0 0,0 1,-1 1,0 1,0 2,0 3,0 0,2 3,3 1,0 3,-1 4,-1 0,-1 -1,-1 -1,-1 0,-1 1,-1 0,-2 0,0 -1,0 -1,-1 0,0 1,0 0,-1 -1,0 -4,0 -3,-2 1,0 3,-1 5,-1 1,0 3,-1 4,0 1,0 0,1 0,1 0,1 0,1 1,1 2,0 5,0 5,1 0,1 0,2 -1,3 0,0 -1,0 -1,0 -1,1 -2,0 -2,1 0,0 1,0 2,0 0,0 -1,0 -1,1 0,0 -2,1 -3,0 0,0 -1,1 -1,1 0,1 0,0 1,0 0,0 0,0 0,0 2,0 1,2 1,3 -1,1 -3,0 -5,1 0,0 -4,1 -2,2 0,0 1,-1 2,-1 1,0 1,0 2,0 1,-1 1,-1 2,-1 0,-1 1,-1 2,-1 1,-1 2,1 1,2 0,1 -1,2 -2,3 0,0 0,0 -1,1 -1,0 -1,1 -2,1 -1,0 -2,0 -2,1 0,0 0,0 1,0 1,0 1,-1 1,0l0 0c1,-1 3,-2 4,-1 1,1 -2,2 -2,3 0,1 0,1 1,2 1,1 1,2 2,3 1,1 1,3 3,3 2,0 3,-1 4,-1 2,-1 3,0 4,1 2,0 3,0 4,-1 2,-1 3,-1 5,-2 0,0 3,0 4,0 1,-1 3,-1 5,-1 1,0 2,-1 3,-2 1,0 2,-1 3,-1 2,0 2,1 3,2 0,0 1,1 2,1 1,0 3,1 5,1 1,0 4,0 4,-1 1,-1 0,-2 -2,-3 -1,0 -3,-1 -5,-1 -2,-1 -1,-1 -1,-3 1,-1 1,-2 0,-3 -2,-1 -3,-2 -5,-2 -1,0 -1,0 -2,0 -2,0 -4,0 -3,-1 0,-1 0,-1 -1,-1 -1,-1 -3,-1 -4,-2 0,0 0,-1 -1,-1 0,0 -1,-1 -2,-1 -1,-1 2,-2 3,-2 1,0 2,-1 2,-1 1,0 1,-1 2,-1 1,-1 1,-1 2,-1 1,0 1,0 2,0 1,0 1,0 2,0 1,0 2,0 2,0 2,-1 3,-1 4,0 0,0 0,1 1,1 0,0 1,0 2,0 0,0 1,0 1,1 0,0 0,0 0,1 1,-1 1,-1 1,-1 1,-1 2,-1 2,-1 1,0 2,0 3,0 0,-1 0,-1 0,-2 0,0 1,0 1,-1 0,0 -1,-1 -1,-1 -1,-1 -2,-1 -1,-2 0,0 1,1 1,1 2,0 3,-1 5,0 2,0 3,0 5,1 1,0 1,0 2,0 1,0 1,1 2,1 0,1 1,0 2,0 1,0 2,0 2,0 1,0 1,0 2,1 0,0 1,-1 1,-1 1,0 2,0 3,-1 4,0 -1,3 0,3 0,0 1,0 1,0 0,0 0,1 0,1 0,1 1,1 1,1 1,-1 1,-2 0,-2 0,-1 1,-2 2,-2 2,-1 4,-1 5,0 3,1 6,4 9,4 1,0 2,0 3,-1 0,0 1,0 2,0 1,0 3,1 4,1 3,1 1,4 -2,3 -1,0 0,1 -2,2 -1,-2 -3,0 -4,1 -5,2 -5,-1 -7,-3 0,-1 -1,-3 -3,-3 -1,1 -1,3 -1,3 -1,2 -2,3 -3,3 -2,1 -4,2 -5,3 -1,1 -3,5 0,6 2,-2 3,-6 8,-3 2,1 3,1 5,0 2,-1 2,-2 4,-3 2,1 0,3 0,4 -1,1 -2,4 -3,5 -2,-1 -2,-3 -4,-4 -1,2 -1,4 -1,6 0,1 0,2 0,3 0,1 1,1 1,2 1,2 -2,4 -2,6 1,1 3,3 2,5 0,0 0,0 -1,0 2,1 6,2 5,3 2,1 0,3 0,4 -1,1 -1,3 0,4 0,2 3,3 6,4 2,1 5,1 7,2 1,1 1,2 -1,2 -2,0 -4,-1 -5,-1 -3,-1 -7,-2 -10,-1 -1,1 -1,2 -2,2 0,0 -1,0 -1,0 0,0 -1,0 -1,0 -2,1 -3,2 -3,3 -1,1 -1,1 -4,2 -1,0 -3,1 -4,2 -3,1 -3,4 -2,6 0,0 1,1 1,1 1,1 2,1 3,1 1,1 1,2 3,3 2,1 5,3 9,3 5,2 8,1 11,-2 2,-1 1,-2 1,-3 0,-1 -1,-6 3,-5 2,1 2,3 2,3 1,1 2,3 4,3 4,2 5,-2 9,-3 3,0 8,3 11,4 2,1 3,1 5,1 2,-1 3,-2 5,-3 1,-1 5,-1 4,-2 0,-1 -1,-3 -1,-5 1,-2 5,-4 7,-5 4,-1 7,-2 10,-3 2,0 8,-2 7,-2 2,-1 4,-1 6,-1 4,1 7,1 10,0 3,-1 7,-3 10,-3 3,1 7,1 10,2 2,0 4,0 5,0 2,0 2,-1 4,-2 1,0 2,0 3,-1 2,-1 5,-1 8,-1 3,-1 6,-2 10,-2 2,0 6,-1 8,-1 1,0 2,1 2,1 1,0 1,0 2,0 0,0 0,0 1,0 1,1 1,1 1,2zm12 85l0 0 0 0 0 0zm-208 -169c1,1 -1,2 -1,3 0,1 -1,2 0,2 0,1 1,1 2,1 0,1 0,1 0,1 2,2 7,2 10,3 1,0 2,1 4,1 2,0 3,0 5,0 3,1 5,1 9,1 1,0 3,0 4,-1 2,0 2,-1 4,-1 1,0 3,0 3,-1 0,-1 -2,-2 -3,-3 -5,-4 -8,-8 -4,-13 1,-1 2,-2 3,-4 0,-1 -1,-2 -1,-3 0,-1 1,-2 2,-4 1,-2 4,-4 6,-7 1,-1 2,-3 1,-4 0,-2 -1,-2 -3,-3 -2,0 -3,-1 -4,-2 -1,-1 -2,-2 -2,-3 0,-1 0,-2 0,-3 0,-2 -1,-2 -3,-2 -1,-1 -2,-2 -4,-2 -1,0 -1,0 -2,1 -1,0 -1,0 -2,0 -3,-1 2,-4 -1,-5 -1,0 -2,0 -3,0 -1,1 -2,1 -3,0 -2,-1 -2,-3 -2,-5 0,-1 1,-2 1,-3 0,0 1,-1 0,-1 0,-1 -1,-1 -1,-1 0,1 -1,1 -1,0 0,0 2,-1 2,-2 1,-1 1,-2 2,-3 0,-2 -5,0 -7,0 -1,1 -3,2 -3,3 0,1 0,1 -1,2 -2,2 -5,2 -5,5 -3,0 -2,-1 -3,-2 -1,-1 -3,1 -4,1 0,0 0,0 0,0 0,0 0,0 0,0 0,-1 2,-2 2,-3 0,-2 -4,0 -5,0 -2,1 -2,1 -4,2 -1,0 -2,1 -4,1 -2,1 -5,2 -8,3 -3,2 -6,3 -9,5 -1,0 -2,1 -2,2 0,2 0,2 -2,4 -2,1 -5,2 -7,3 -1,1 -2,2 -2,4 1,1 2,1 3,0 1,0 2,0 3,0 0,0 0,1 -1,1 1,1 -5,2 -7,2 -2,1 -5,2 -7,4 -2,1 -3,3 -5,4 -3,2 -4,4 -5,6 -1,1 -2,3 -2,4 -1,2 -3,4 -2,6 2,0 3,-2 4,-3 2,1 1,1 2,2 0,1 0,1 1,1 -1,1 -3,2 -4,2 0,1 -1,2 -1,3 -1,1 -5,4 -2,5 1,0 4,0 7,0 0,0 1,0 1,0 3,0 7,0 9,-2 1,0 2,-1 3,-2 1,-1 2,-1 4,-2 1,-1 2,-1 4,-2 1,0 2,-1 4,-1 3,-1 6,1 9,1 3,1 6,1 9,3 1,1 1,1 4,1 2,1 3,1 4,2 2,1 3,2 5,1 2,0 3,-5 6,-3zm67 -19c4,-1 4,-2 5,-3 1,-1 2,-2 2,-2 0,-1 1,-2 1,-3 -1,0 2,-1 -1,-2 -1,0 -1,0 -2,1 0,0 0,0 -1,0 0,0 -1,-1 -1,-1 -2,0 -3,1 -4,2 0,0 -1,1 -1,1 -1,0 0,1 0,1 -2,-1 -4,1 -3,2 0,-1 -1,0 -2,0 1,1 1,1 1,2 -1,0 -1,0 -2,-1 0,0 1,0 -1,0 -1,0 -4,0 -4,1 1,0 2,0 2,-1 1,1 -3,2 0,2 0,1 -2,1 -1,2 2,-1 2,-3 5,-3 -1,1 -1,1 -1,1 1,0 2,0 2,0 0,0 -4,2 -2,3 1,-1 1,-2 2,-2 0,0 1,0 1,0 1,0 1,1 2,0 0,1 -2,1 -1,2 2,0 1,-2 4,-2zm244 -185c0,0 0,0 0,0 -1,0 -2,0 -2,0 0,1 0,1 1,1 0,0 1,0 2,0 1,0 2,0 2,0 2,-1 3,-2 4,-3 0,0 1,0 0,-1 0,0 -1,0 -2,0 -1,0 -1,1 -2,2 -1,-1 -1,-1 -2,0 -1,0 0,1 -1,1zm-5 11c1,0 1,-1 1,-1 1,0 1,0 2,0 1,-1 4,-1 3,-2 -1,-1 -3,0 -4,0 -1,0 -1,0 -2,0 -1,0 -2,0 -3,0 -1,1 2,2 3,1 0,1 -2,3 0,2zm-3 -5c1,0 5,-1 3,-2 0,0 0,0 0,0 -1,0 -1,0 -1,0 1,-1 2,-1 2,-1 1,-2 -2,-1 -3,-1 -1,1 -3,1 -4,1 -1,0 -2,1 -2,1 0,1 1,1 0,1 -1,1 -3,1 -4,1 -1,0 -1,0 -2,1 0,1 1,1 1,1 0,1 0,2 2,2 2,0 3,0 5,-1 0,0 0,0 0,-1 0,0 0,0 1,0 1,-1 2,-2 2,-2zm-81 28c-1,0 -1,0 -1,-1 -4,0 -2,5 -2,7 0,0 -1,1 1,1 1,0 1,-1 2,-2 0,0 0,-1 1,-2 1,0 2,0 2,-1 1,0 5,-3 2,-3 -1,0 -1,0 -2,0 -1,0 -1,0 -1,0 -2,0 -2,1 -2,1zm-13 8c1,0 2,-1 2,-1 2,-1 4,-1 6,-2 1,-1 1,-1 -1,-2 -1,0 -1,0 -2,-1 -2,-1 -2,1 -3,2 0,0 0,0 0,0 0,0 0,0 0,0 0,-1 -1,-1 -2,-1 0,0 -1,0 -2,0 -2,0 -1,-1 -1,-1 -2,-1 -3,-1 -5,0 -1,0 -1,0 -1,1 0,0 -1,1 -1,2 -1,1 -1,2 -1,3 -1,1 1,2 3,1 2,0 3,-2 5,-1 1,0 1,0 2,0 0,0 0,0 1,0zm-64 32c0,0 -2,1 0,1 1,0 2,-2 0,-1zm-3 1c-1,0 1,-1 0,-1 -1,0 -2,0 -3,1 0,0 -1,1 -1,2 1,1 5,-2 4,-2zm7 -8c0,1 -2,1 -2,2 0,1 1,0 1,0 1,0 1,-1 1,-1 1,-1 3,-2 2,-2 -2,-1 -3,0 -2,1zm-5 3c-2,0 -3,2 -3,3 1,0 1,0 2,0 2,-1 2,-1 3,-1 1,-1 1,-2 1,-2 -1,0 -3,0 -3,0zm-11 5c2,-1 5,-2 4,-3 0,0 -1,0 -1,0 0,0 1,-1 0,-1 0,-1 -1,0 -2,0 -1,1 0,2 -1,3 1,0 0,1 0,1zm1 0c-1,1 -3,1 -2,2 0,1 1,0 2,0 1,0 2,0 2,-1 1,0 3,-1 2,-2 0,-1 -1,0 -2,0 0,1 -1,1 -2,1zm-1 4c-1,1 -1,1 -1,2 1,0 3,-1 3,-2 1,-1 0,0 -2,0zm-6 5c-1,0 -2,0 -2,-1 0,0 1,-1 2,-1 0,0 3,-1 1,-2 -2,1 -3,2 -4,2 -1,1 -2,2 -4,3 0,0 -1,1 -1,1 0,1 0,1 1,0 1,0 2,-2 3,-2 -3,3 5,2 4,0zm101 87c0,1 -1,1 -1,2 -1,0 -3,2 0,1 0,0 1,0 1,-1 0,0 1,0 1,-1 0,0 0,0 0,0 -1,-1 0,-1 -1,-1 0,0 0,0 0,0zm-16 10c0,0 -1,0 -1,0 -1,1 0,1 0,1 1,0 2,-1 3,-1 1,-1 1,-1 2,-1 0,0 0,-1 -1,-1 -1,1 -2,2 -3,2zm-22 6c-1,1 -3,1 -3,2 -1,1 2,0 3,0 1,0 4,0 3,-1 0,0 -1,0 -1,0 -1,0 -1,0 -1,0 0,0 0,0 0,0 -1,0 0,-1 -1,-1zm-20 -1c1,1 0,1 1,2 0,1 1,1 2,0 1,0 -1,-1 -1,-1 -1,0 -1,-1 -1,-1 -1,0 -2,0 -1,0zm9 6c0,0 -1,0 -1,-1 0,0 1,0 1,0 0,-1 -1,-1 -2,-1 0,-1 -2,-2 -3,-1 0,0 0,0 0,1 0,0 -1,0 -1,0 0,0 1,0 1,0 0,0 1,0 1,1 0,0 0,0 0,0 0,0 1,0 1,0 1,1 1,1 2,1 0,0 1,0 1,0zm-11 5c1,-1 -1,-1 -2,0 -1,1 1,0 2,0zm211 -221c-1,1 -2,3 1,3 2,0 1,-1 2,-2 0,0 1,-1 2,-1 0,-1 2,-3 -1,-2 -1,0 -4,1 -4,2l0 0zm43 6c1,0 4,-1 3,-2 0,0 -4,1 -4,1 -1,0 -4,1 -3,2 2,1 3,-1 4,-1zm-21 95c0,0 0,-2 -2,-1 -1,1 -2,2 -2,2 1,2 3,2 3,0 0,0 -1,0 -1,0 1,-1 1,-1 1,0 0,0 0,0 0,0 1,-1 2,0 1,-1l0 0zm-3 -16c0,0 -1,-1 -2,-1 -1,0 0,1 0,1 -1,0 -1,0 -1,1 -1,1 2,2 3,2 1,2 2,3 1,4 0,0 0,2 -1,2 0,0 0,0 0,-1 -1,0 -1,0 -2,0 0,1 1,2 2,2 0,1 -1,2 1,2 -1,0 -4,2 -4,2 -1,1 -1,2 -1,3 0,0 -1,1 -1,1 0,1 1,1 1,1 0,1 -1,3 1,3 0,-1 -1,-1 0,-2 0,0 1,0 1,1 1,0 1,2 3,2 2,-1 0,-3 0,-3 0,-1 -1,-1 -2,-2 0,0 -1,1 -1,1 0,0 -1,0 -1,0 0,-1 1,-2 1,-3 1,-1 2,-2 3,-2 1,-1 2,0 2,0 1,1 1,1 2,1 1,0 0,-2 1,-3 -1,0 -2,0 -2,0 0,-1 1,-1 1,-1 1,0 1,-1 2,-1 2,1 1,-1 1,-2 0,0 1,0 1,1 0,-1 0,-1 0,-2 0,0 0,0 -1,-1 -1,0 -2,-1 -3,-2 0,0 -1,0 -1,0 0,0 0,-1 0,-1 0,0 1,0 1,0 -1,0 -1,0 -1,-1 -1,0 -1,-1 -2,-2 -1,0 -1,0 -1,0 0,0 0,0 -1,0zm-2 -8c-1,1 -1,1 -2,1 -1,0 -2,0 -3,0 -1,0 -5,0 -4,1 1,0 1,0 2,1 0,0 0,0 0,0 1,1 2,1 2,2 0,0 -1,0 -1,0 -1,1 0,1 0,1 0,0 1,0 1,1 0,0 -1,0 0,0 0,1 2,1 3,2 0,-1 0,-1 0,-2 0,0 1,0 0,0 0,-1 -1,0 -1,0 -1,0 -2,0 -1,-1 1,0 2,0 2,-1 0,0 1,0 1,0 1,0 2,0 2,0 2,0 0,-1 0,-2 0,0 1,-1 1,-1 1,-1 1,-1 1,-1 -1,-1 -1,0 -1,0 -1,0 -1,-1 -2,-2 0,1 0,1 0,1zm-26 -9c2,1 2,2 4,2 1,0 1,0 1,1 1,0 1,0 1,0 1,1 1,1 2,2 1,0 1,1 2,1 0,0 1,0 1,1 1,0 0,0 1,0 0,1 1,1 2,2 0,0 1,1 2,0 1,0 -1,-1 0,-1 1,0 1,0 2,0 0,0 0,0 1,0 -1,-1 -5,-1 -6,-2 -2,-1 -2,-3 1,-2l0 -1c0,0 0,0 -1,0 -2,-1 -4,-1 -6,-2 -1,0 -1,0 -3,0 0,-1 -1,-1 -1,-2 -1,0 -1,-1 -2,-1 -1,0 -1,-1 -2,-1 -1,0 -3,0 -2,1 1,0 3,0 2,1 -3,0 0,1 1,1zm242 79c-1,0 -1,0 -2,0 0,0 0,-1 -1,-1 -2,1 -1,2 0,2 0,1 0,1 1,2 0,1 1,1 1,2 0,1 -2,3 -1,4 0,1 0,1 1,2 0,1 -1,2 0,2 1,0 2,-1 3,-1 1,0 1,1 1,1 2,0 0,-1 1,-1 0,-1 2,-1 2,-2 1,-2 -2,-3 -2,-4 0,-1 -1,-1 0,-1 0,-1 1,-1 1,-1 1,-1 0,-1 -2,-1 0,-1 0,-2 0,-2 -1,-1 -1,-2 -2,-2 -1,0 -1,1 -1,1zm-2 -8c0,1 -1,1 -2,0 0,0 -1,0 -1,0 -2,0 -1,1 -3,1 -4,-1 -4,-2 -8,-1 1,1 2,1 2,1 1,0 1,0 1,0 1,0 1,0 1,0 0,0 0,0 0,0 1,0 3,0 4,0 2,1 3,1 3,2 1,1 1,2 2,2 1,0 1,0 2,0 0,0 1,-1 2,0 1,1 2,2 3,1 1,-1 0,-2 -1,-3 -1,-1 0,-1 0,-2 0,-1 -2,-2 -3,-3 -1,1 -1,1 -2,2zm-43 33c-1,1 -7,2 -3,3 1,2 4,1 6,1 3,-1 3,-2 1,-4 -1,-2 -5,-2 -4,0zm-106 -10c-1,-1 -3,0 -4,1 1,1 2,-1 4,-1zm19 -10c-1,1 -4,4 0,3 1,-1 3,-3 0,-3zm28 -2c0,1 -2,1 -4,1 -2,0 -3,1 -5,1 -2,1 -5,0 -6,-1 -1,-1 1,-3 -2,-3 -2,0 -4,1 -5,2 0,0 -2,1 -2,1 -1,1 0,1 1,1 0,2 -2,1 -3,3 -1,1 2,2 1,3 0,1 -3,1 -5,2 -5,2 1,7 1,10 1,2 -1,2 -2,3 -3,3 -3,5 -3,8 -5,0 0,3 2,4 2,0 2,0 4,1 1,1 1,2 3,2 3,1 6,1 9,3 2,0 3,1 4,2 3,1 4,3 8,1 2,-2 2,-4 4,-6 2,0 3,-1 4,-2 0,-1 -1,-2 0,-3 1,-1 3,-1 3,-2 1,-1 -1,-2 1,-3 3,-2 6,-3 12,-3 2,0 6,2 7,0 0,-1 -2,-3 -2,-4 3,0 2,3 4,4 2,-1 1,-2 0,-3 2,1 4,1 5,2 2,0 4,1 6,1 4,0 7,-2 10,-4 1,0 2,0 3,0 2,-2 3,-5 1,-8 -2,-2 -3,-4 -4,-7 -2,-3 -5,-4 -9,-6 -1,-1 -3,-2 -5,-2 -1,0 -2,0 -3,0 -1,0 -2,0 -3,0 -1,0 -2,-1 -2,-1 -2,0 -2,1 -2,1 -2,0 -4,-2 -5,-2 -3,0 -3,0 -5,1 -4,0 -5,-1 -7,-2 -2,0 -4,-1 -5,-1 -1,0 -2,0 -3,0 0,0 -1,0 -2,0 -2,0 -3,-1 -4,-2 -7,-1 -2,2 0,4 2,1 6,2 5,4zm1 -26c0,0 7,2 7,0 -1,-1 -7,-1 -7,0zm-5 2c1,0 0,-1 -1,-1 -2,0 0,2 -1,3 0,0 -3,2 -2,2 2,2 6,-3 6,-4 -1,0 -2,0 -2,0zm-31 14c-2,1 -3,0 -5,0 -1,-1 -2,-1 -4,-1 -3,1 -3,5 0,3 2,1 2,-1 3,-1 2,0 0,2 -1,2 1,1 2,1 3,1 2,-1 1,-1 3,-2 1,-1 6,-1 8,-1 1,0 2,0 4,0 2,0 1,1 2,2 2,1 2,0 3,-1 1,0 1,-1 3,-1 0,1 4,-1 5,-2 1,-1 -1,-3 3,-3 1,-1 3,-1 4,-1 1,1 2,1 3,1 2,-1 5,-2 7,-2 -1,-1 -4,0 -6,-1 -1,0 -3,1 -4,1 -2,0 -5,0 -5,-1 2,-1 1,-1 -1,-1 -2,0 -3,1 -5,1 -2,0 -3,-1 -5,-1 -1,0 -3,1 -4,2 -4,0 -6,0 -9,2 -2,1 -5,3 -2,4 0,0 1,0 1,-1l-1 1zm-9 6c1,0 3,0 2,-1 0,-1 -2,0 -3,0 -2,1 -4,2 -2,3 -2,0 -6,1 -3,2 1,0 3,-1 4,-2 1,-1 0,-2 2,-2zm-1 10c0,1 -3,3 -4,4 0,0 -3,1 -3,1 1,1 4,0 4,-1 2,-1 5,-3 4,-4 -1,0 -1,0 -1,0zm3 1c-3,1 1,2 1,3 2,0 1,-2 1,-3 0,-1 1,-2 1,-3 -2,0 -4,3 -3,3zm-14 6c0,1 -4,2 -1,2 1,1 3,-1 4,-2 0,0 2,-2 -1,-1 -2,0 0,1 -2,1zm-13 4c-1,1 -2,1 -1,2 -3,0 -3,0 -5,1 -1,1 -5,2 -4,3 1,1 8,-2 10,-3 1,0 10,-3 10,-3 0,-2 -5,0 -5,0 -1,0 -2,0 -2,0 -1,0 -2,0 -3,0 0,1 0,0 0,0 0,0 0,0 0,0zm14 -24c0,-1 0,-1 0,-2 -1,0 -1,0 -1,0 -1,0 -2,0 -2,-1 0,1 0,1 0,1 1,1 2,5 7,4 0,-1 -3,-1 -1,-2 0,-1 -1,0 -2,0 0,0 0,0 -1,0zm-7 2c1,1 0,2 -2,3 -1,1 -1,1 -2,1 -2,1 -2,1 -2,2 -1,1 0,1 1,2 1,1 1,1 1,2 1,1 4,3 6,2 1,0 3,2 4,2 2,-1 -1,-3 -2,-3 0,0 -4,-1 -2,-2 1,-1 3,1 5,1 0,0 0,-1 1,-1 -1,-1 -4,0 -5,-1 -2,-1 1,-3 -1,-4 -2,1 -1,2 -4,3 -3,1 -3,-1 -1,-2 1,0 4,-1 5,-2 0,-1 -1,-4 -2,-3zm-28 -5c1,1 1,3 1,4 0,1 1,3 3,1 0,0 0,-2 0,-3 0,-1 -1,-2 -4,-2zm15 11c-1,-1 -3,-1 -4,-1 1,-1 2,-2 0,-2 2,-1 -4,0 -5,0 -1,0 -1,0 -1,0 -1,0 -1,0 -1,1 0,1 1,1 1,2 0,1 -1,1 -1,2 0,1 1,1 1,2 0,2 -3,3 1,4 -1,2 -7,0 -4,3 2,1 3,0 4,1 2,0 2,2 4,0 1,1 2,2 4,2 1,0 1,-2 2,-2 1,-1 3,-2 4,-2 2,0 2,0 3,-1 1,-1 1,-1 -1,-2 -1,-1 -1,-1 -1,-2 -1,-1 0,-1 -1,-1 0,-1 -2,-1 -2,-1 0,-1 2,-2 1,-3 0,0 -1,0 -2,1 -1,0 -2,0 -2,-1zm4 -13c1,0 1,1 2,1 2,-1 -2,-3 -4,-2 0,-1 -1,-2 -2,-1 1,2 -3,4 -2,6 2,0 2,-1 3,-2 2,1 4,2 5,0 0,0 -1,-1 -2,-1 0,-1 0,-1 0,-1zm-10 -2c0,1 -1,1 -2,1 -1,0 -2,-1 -3,0 -1,2 3,2 5,1 0,1 3,3 3,1 1,-1 -2,-3 -3,-3zm0 -3c-1,0 -3,1 -1,2 0,0 4,0 4,0 1,-1 -1,-2 -3,-2zm-10 2c0,0 -1,-1 -2,-1 0,-1 0,-1 0,-2 -1,0 -3,-1 -4,-1 0,-1 0,-1 -1,-1 -1,0 -2,0 -2,1 0,1 1,2 2,3 -2,1 0,1 2,2 0,0 1,0 1,-1 1,0 2,0 2,1 2,1 2,0 3,0 2,-1 2,-1 4,-1 0,0 -1,-1 -1,-1 1,0 2,-1 0,-1 -1,0 -3,1 -4,2 0,-1 1,0 0,0zm-28 4c-3,0 -5,5 -1,4 2,-1 4,-5 1,-4zm8 -16c-3,0 -1,4 2,4 6,0 -2,-3 -2,-4zm27 43c1,1 4,3 4,1 0,-1 -1,-1 -2,-1 -1,0 -2,1 -2,0zm-25 2c-1,0 -2,0 -3,0 -3,0 -5,0 -7,2 1,1 2,1 4,1 0,0 1,-1 1,-1 2,1 4,1 5,1 3,0 3,0 6,0 1,1 2,1 3,1 1,0 1,0 2,0 2,0 4,1 6,1 1,0 2,0 3,0 1,0 2,0 3,0 1,0 1,1 2,1 3,-1 1,-1 2,-1 0,0 0,-1 0,-1 0,-1 1,-1 1,-1 0,-1 -1,-1 -2,-2 -1,0 -3,0 -4,0 -1,0 -5,0 -5,-1 -1,0 -2,0 -2,0 -1,0 -1,0 -2,-1 -2,0 -3,1 -5,1 -2,1 -3,0 -5,0 -1,0 -2,0 -3,0zm-40 12c-3,2 3,7 6,4 0,0 1,-2 0,-3 -1,0 -1,0 -2,0 0,0 -1,0 -1,0 -1,0 -2,0 -3,-1zm-2 71c2,2 3,3 6,1 2,-2 2,-2 0,-4 -1,-2 -2,-4 -3,-5 -2,-1 -3,-2 -5,-3 -2,-1 -2,-2 -3,-3 -1,-1 -2,-2 -4,-3 -2,0 -4,0 -3,2 0,1 2,2 2,3 -1,2 -3,3 -3,4 0,3 8,2 8,5 0,2 2,2 5,3zm-279 72c-2,0 -7,1 -4,2 1,0 2,0 3,-1 1,0 1,0 1,0 0,-1 0,-1 0,-1 0,-1 0,0 0,0zm16 -11c-1,0 -4,2 -2,2 2,1 2,0 3,-1 0,0 1,-1 1,-1 -1,0 -1,0 -1,0 0,0 0,0 -1,0zm-5 2c-1,0 -1,1 -2,1 -1,0 -1,0 -1,0 -1,0 -1,0 -2,0 -1,1 -2,1 -2,1 -1,1 -3,1 -3,2 0,0 1,0 2,0 1,0 2,0 1,1 -1,1 -2,1 -2,2 0,0 1,0 2,-1 1,0 1,-1 3,-1 1,0 1,0 2,0 0,-1 -1,-1 -1,-1 0,-1 1,-1 1,-1 1,-1 1,-1 1,-1 1,0 4,-1 1,-2zm-13 4c0,1 -1,1 -2,1 -1,0 -2,0 -3,1 -1,0 -2,0 -3,0 -1,0 -2,0 -3,1 -3,0 -9,1 -9,4 -1,1 -1,2 0,2 2,0 0,-3 2,-3 0,-1 1,0 1,0 0,0 0,0 1,0 1,-1 2,-1 3,-1 1,-1 2,-1 4,-1 2,0 2,-1 3,-1 1,0 2,0 2,1 1,1 3,-1 3,-2 0,0 3,-2 2,-2l-1 0zm175 -149c-1,-1 -1,0 -2,0 0,0 0,0 0,0 -1,0 -2,-1 -2,-1 -2,0 -1,2 -1,3 -2,-1 -2,-1 -2,-2l-1 0c0,0 -1,0 -1,0 -1,0 -1,0 -2,0 0,0 -1,0 -1,0 -1,0 -1,-1 -2,-1 0,0 0,0 0,0 0,1 -1,1 -1,1 -1,0 0,-1 0,-1 0,0 1,0 1,0 0,-1 1,-1 0,-1 0,0 0,0 0,0 0,0 0,0 -1,0 0,0 -1,0 0,0 0,-1 0,-1 1,-1 0,-1 1,-1 1,-1 0,0 1,0 1,0 0,0 0,0 1,-1 0,0 0,0 0,0 1,1 0,1 0,2 1,0 1,-1 1,-1 1,-1 0,-2 -1,-2 -1,1 -2,2 -2,2 -1,0 -2,-1 -2,-2 -1,0 -2,0 -3,0 0,0 0,1 -1,1 0,0 -1,0 -1,0 -1,1 -1,2 -1,2 -1,1 -1,1 -1,2 0,0 0,1 -1,1 0,1 1,1 1,2 0,1 -1,1 1,1 1,0 1,0 2,0 2,1 3,2 5,2 1,0 1,0 2,0 0,0 1,0 2,0 1,0 1,0 3,0 0,0 0,0 0,0 0,0 1,0 1,0 0,1 0,1 0,1 -1,1 0,1 1,2 1,1 1,2 4,1 1,0 3,0 5,-1 1,0 1,0 2,-1 0,0 2,-1 2,-1 0,-1 -2,-1 -2,-1 -1,-1 -2,-2 -3,-2 0,0 -1,0 -1,0 0,1 -1,1 -1,0 0,0 1,0 0,0 -1,-1 -1,0 -2,0 -1,0 -2,-1 -1,-2 0,0 4,-1 2,-1zm-28 11c-1,0 -1,0 -3,0 -1,0 -2,0 -3,0 0,0 -5,2 -4,1 0,0 -1,0 -1,0 -1,-1 0,-1 1,-1 -2,-1 0,-1 -1,-2 0,0 0,0 -1,0 0,0 -1,0 -1,0 0,0 1,0 1,-1 0,0 0,0 0,0 0,0 1,-1 0,-1 -2,0 -2,2 -2,2 -1,1 -2,1 -2,2 0,0 0,0 0,0 -1,1 -1,0 -1,1 0,1 1,1 2,1 1,-1 2,-1 2,-1 2,0 0,1 0,1 -1,1 -1,1 -2,2 0,0 0,0 0,0 -1,1 -1,0 -1,0 -1,0 -2,1 -3,1 0,0 0,0 0,0 0,0 0,0 0,0 0,-1 2,-2 0,-2 -2,0 -2,1 -4,1 0,0 1,-1 2,-1 -1,0 -1,0 -1,0l0 0c-2,0 -3,2 -3,3 0,1 1,1 1,2 1,0 1,0 1,1 0,1 1,1 1,2 1,0 1,1 1,1 0,1 0,2 1,2 1,0 2,0 2,0 1,-1 2,-1 3,-1 1,-1 2,-1 3,-2 0,-1 0,-1 1,-2 0,-1 1,-1 2,-1 0,-1 1,-2 2,-2 0,0 0,0 1,0 0,0 0,1 0,1 1,-1 1,-1 2,-1 2,0 4,-1 6,-2 1,0 2,-2 3,-3 0,-1 -3,-2 -5,-1zm190 -177c-1,2 0,1 1,3 1,1 -1,1 -3,2 -2,0 -3,1 -5,-1 -2,1 -5,4 -7,2 -2,1 0,2 0,3 0,1 -2,2 -1,3 0,0 5,0 6,1 0,0 1,0 2,1 1,0 2,-1 2,0 0,1 -4,2 -5,3 -1,1 -1,2 -2,4 0,1 -1,2 -2,4 0,1 0,2 -2,3 -2,0 -5,1 -5,2 0,2 -3,3 -3,4 -1,2 -1,4 1,5 0,-1 2,-1 3,-1 1,0 1,1 2,1 0,0 2,0 2,1 1,0 0,1 0,1 0,2 2,2 2,3 0,1 -1,1 -1,2 1,1 2,1 2,1 0,1 -1,1 -1,2 0,2 3,4 -2,4 -2,-1 -5,-2 -7,-3 -3,-2 -6,-4 -7,-6 0,-2 1,-3 1,-4 0,-1 -1,-3 0,-4 0,-1 1,-2 1,-4 0,-1 -2,-2 -2,-3 -1,0 -1,-2 -3,-1 0,0 0,3 0,3 0,1 1,2 1,3 -2,2 -4,1 -3,-1 -1,-1 -3,1 -4,2 -1,1 -1,1 -1,3 0,1 -3,3 0,4 0,1 1,0 1,0 1,0 1,0 1,1 0,1 -2,2 -3,2 0,1 -1,2 -2,3 -1,0 -1,-2 -1,-2 -1,0 -3,1 -4,2 -1,1 -1,1 -2,2 -3,2 -8,3 -8,5 0,4 -2,7 -2,10 0,1 -1,3 0,4 1,1 1,-1 3,-2 2,2 3,1 4,0 1,-1 1,-1 4,-2 5,0 7,2 10,4 2,3 4,6 5,8 1,3 3,7 1,10 -1,1 -3,2 -4,1 -4,2 1,4 1,6 0,2 -1,3 1,4 0,0 0,0 1,0 1,0 1,0 2,0 0,0 1,0 2,0 3,1 8,4 5,6 -3,2 -8,-2 -8,-3 -1,0 -4,1 -5,1 -2,0 -1,-2 -3,-3 -3,0 -4,5 -5,6 -2,-1 -1,-3 -3,-3 -2,0 -3,3 -3,3 -1,3 4,4 7,2 1,-1 2,-2 4,-3 3,0 1,2 1,3 -1,4 3,3 7,4 2,1 2,1 0,2 1,1 1,1 2,1 1,0 1,0 2,0 2,0 1,0 2,1 6,-2 7,5 7,7 1,4 -4,8 -7,11 0,1 -1,3 -2,3 -2,1 -3,1 -4,2 0,1 0,2 0,2l1 0c-1,0 -1,0 -1,1 1,1 4,2 7,2l-1 0c1,1 3,1 4,1 4,0 10,0 10,4 1,1 0,7 -4,6 -2,-1 -1,-2 -5,-1 -1,0 -2,0 -3,0 0,0 -2,1 -3,1 0,0 -1,0 -1,-1 -3,1 3,5 4,6 2,-1 4,0 7,0 1,1 3,1 4,1 2,0 4,-1 6,0 2,0 3,1 5,2 1,0 5,0 3,2 -1,0 -5,0 -6,0 -5,0 -7,-2 -11,-2 -3,0 -7,0 -9,-1 -3,-1 -4,-3 -6,-4 -2,-1 -9,-4 -11,-4 0,1 0,2 -1,3 -2,1 -4,0 -4,-1 -2,-2 -4,-2 -8,-2 0,0 -1,0 -1,0 -2,0 -4,0 -5,-1 0,1 -2,3 -3,4 0,0 -2,1 -2,1 -1,1 0,1 0,2 1,2 1,4 1,7 0,2 -2,4 0,6 2,2 6,3 8,6 1,0 3,3 3,3 -2,2 -11,-1 -13,-1 -3,-1 -6,-2 -9,-2 -7,-2 -11,-4 -15,-7 3,3 -10,6 -6,2 -1,-1 -2,0 -4,0 -3,1 -6,1 -8,0 -2,2 -4,5 -9,6 -1,1 -3,0 -5,1 -2,1 -1,2 -4,2 -2,0 -1,-1 -2,-1 -1,1 -2,1 -3,2 -1,1 -2,2 -4,2 -2,0 -3,0 -5,-1 -3,0 -6,0 -8,1 -1,2 4,3 6,3 4,0 6,0 9,1 0,-1 -3,-1 -2,-2 1,0 3,1 4,1 2,0 4,-1 5,-2 1,-1 0,-2 1,-3 1,-1 3,0 5,0 1,0 2,0 2,0 2,0 3,0 4,0 3,1 2,2 2,3 0,1 1,3 2,4 0,1 -2,2 -1,3 0,2 0,1 -2,3 -3,2 -2,5 -3,8 -1,1 -4,2 -5,3 0,1 -2,4 -5,2 -2,-2 -6,-3 -10,-4 -2,0 -4,0 -5,0 -2,0 -4,0 -6,-1 -4,-1 -6,-2 -11,-2 -4,0 -7,-1 -11,-2 4,2 -1,2 -3,1 -2,0 -3,0 -5,0 -1,0 -2,0 -3,0 -2,-1 1,-2 2,-3 2,0 3,-1 3,-3 0,-2 -5,-4 -8,-6 -2,1 -2,3 -4,4 -1,0 -2,0 -3,1 -1,0 -1,0 -2,1 -1,2 -2,2 -6,2 -3,0 -4,-1 -6,-2 -1,1 -2,1 -3,0 0,0 1,-1 2,-1 1,-1 2,-2 3,-3 -2,-1 -4,2 -4,3 -2,1 -4,1 -6,2 1,0 1,1 1,1 -1,0 -1,0 -2,0 0,1 2,2 4,2 0,0 0,0 0,1 1,-1 2,-1 4,-1 -1,1 0,2 1,3 -1,1 -2,0 -3,1 0,0 -1,0 -1,1 -1,-1 -1,-2 -2,-2 0,-1 -1,-1 -2,-1 -1,0 -2,0 -2,0 -1,0 -4,0 -5,0 -1,-1 -1,-2 -3,-2 -3,0 -7,1 -9,1 -2,0 -3,0 -4,0 -2,0 -4,-1 -3,0 -3,0 -4,0 -3,1 1,2 3,1 5,1 1,0 1,0 2,1 1,0 2,0 3,0 1,0 3,0 5,-1 0,0 1,0 1,1 1,-1 4,-1 6,-1 0,2 -2,1 -4,1 1,1 3,1 4,2 0,1 0,3 -1,3 -1,-1 -1,-2 -2,-3 -1,0 -2,0 -2,0 -1,0 -2,0 -3,0 -3,1 -6,1 -9,1 -4,0 -5,-1 -9,1 0,1 -2,5 -6,5 -1,1 1,2 2,4 -1,1 -2,2 -2,3 1,2 3,3 4,4 1,1 1,2 0,3 0,1 0,1 -1,2 0,0 -2,0 -2,1 0,1 -3,2 -5,1 -1,1 -3,2 -4,2 -2,0 -3,-2 -5,-1 -1,-1 -1,-2 -3,-3 0,-2 -2,-1 -4,-2 0,0 -1,0 -1,-1 0,0 1,-1 1,-1 0,-1 0,-1 1,-2 0,0 2,0 3,0 2,-1 2,-2 4,-3 1,-1 3,-1 2,-3 0,0 -4,-2 -5,-2 0,0 -1,0 -1,0 0,0 0,0 -1,0 0,0 -2,-1 -3,-1 -1,0 -3,1 -4,1 -1,0 -1,0 -2,0 0,-1 1,-2 2,-2 0,0 4,-2 0,-2 0,-1 2,-1 3,-2 0,-1 1,-1 1,-2 0,-1 -1,-1 -1,-2 0,-1 1,-2 1,-2 1,-1 0,-2 0,-3 -1,-1 1,-3 2,-4 0,-1 2,-2 2,-2 0,-1 -2,-1 -3,-1 -1,0 -2,-1 -3,-1 -1,0 -2,0 -3,-1 0,-1 0,-4 1,-4 2,0 2,1 4,1 2,1 0,2 1,3 1,1 3,1 4,1 1,-1 1,-1 2,-1 0,0 0,-2 1,-2 1,-1 3,0 5,-1 2,-1 1,-1 2,-2 0,-1 2,-2 3,-3 2,1 2,-2 2,-2 0,-2 0,-2 -2,-3 -4,-2 -1,-4 3,-4 1,-2 -2,-2 -4,-2 -3,0 -5,0 -3,-2 1,0 2,-1 2,-1 1,-1 2,-1 3,-2 1,-1 1,-2 3,-3 -2,-1 -3,1 -4,1 0,0 0,0 0,0 -2,1 -3,3 -5,4 0,0 -1,1 -1,1 -1,0 -1,0 -1,0 -1,0 -1,0 -1,0 -2,0 -3,1 -4,2 -2,-1 -2,-2 -3,-3 -1,-1 -3,-1 -3,-2 0,-1 1,-2 1,-3 0,-1 -1,-2 0,-3 -1,-2 -6,0 -8,1 -2,2 1,4 3,5 2,1 -1,4 0,6 0,1 0,3 3,3 1,0 1,0 2,-1 1,0 1,-1 3,0 2,1 0,2 0,3 -1,2 1,2 3,4 1,1 1,2 0,3 0,1 1,3 -2,2 -1,0 -1,-1 -2,-1 -1,-1 -2,-1 -2,-1 0,0 -1,0 -1,0 -3,0 -3,0 -5,-1 -6,-1 -3,3 -4,4 -1,1 -3,2 -5,2 -2,0 -3,-1 -5,-2 -4,-2 -6,-3 -4,-6 1,-2 2,-3 2,-6 0,-2 -1,-4 -2,-6 -1,-2 -2,-4 -3,-6 0,-2 1,-3 2,-5 1,-2 2,-3 3,-5 1,-2 1,-3 2,-5 2,0 2,2 3,2 1,0 1,0 0,-1 0,0 0,-2 0,-2 1,-1 2,-1 4,-1 2,0 0,-2 3,-2 4,-1 2,1 0,2 2,1 4,-1 5,-2 1,0 5,-1 3,1l1 0c-3,-2 6,-4 8,-4 3,-1 7,-2 11,-1 9,3 -10,7 -12,9 2,0 2,-1 5,-1 1,0 3,1 4,2 2,0 8,1 8,-1 0,0 -1,0 -1,0 -3,0 -5,0 -3,-2 2,-1 5,0 7,-2l0 0c-1,0 -3,0 -3,-1 -1,-1 0,-2 0,-3 1,-1 1,-1 3,-2 2,0 0,-1 -2,-1 0,-1 -1,-1 -1,-1 -1,-1 -1,-1 -1,-1 -1,-1 -4,0 -3,-2 1,0 2,0 2,-1 1,0 1,0 2,0 1,-1 4,-1 4,0 0,1 -1,1 -1,2 0,0 2,0 2,0 1,0 2,-1 1,-1 0,0 0,-1 0,-1 0,0 0,-1 0,-1 2,-2 3,-4 4,-6 1,-1 1,-2 3,-1 2,0 2,0 3,-2 0,-1 1,-1 2,-2 1,0 1,-1 1,-1 1,-1 1,-1 2,-1 1,1 1,1 2,0 1,0 2,0 2,-1 -1,-1 -3,-1 -4,-1 0,0 0,0 0,0 -1,-1 5,-3 6,-4 2,0 3,-1 5,-1 1,0 4,0 4,-1 2,-1 -2,-1 -3,-1 -2,1 -3,1 -4,-1 0,0 -1,0 -2,0 -1,0 -2,0 -2,0 -1,-1 -1,-1 -1,-2 1,0 1,-1 1,-1 0,-1 -1,-3 -1,-4 0,0 1,0 1,-1 0,0 -1,0 -1,0 0,0 -1,-1 -1,-1 1,-1 3,-2 4,-2 2,0 0,1 0,2 2,0 3,-2 5,-1 1,0 1,1 1,2 1,1 3,1 5,1 1,1 2,2 3,3 0,0 1,1 2,1 0,0 1,0 1,0 0,0 1,0 1,0 2,0 3,1 3,2 0,1 0,2 -1,3 0,1 -3,2 -2,3 1,-1 4,-1 6,-2 2,-1 3,-3 1,-5 0,0 -1,-1 -2,-2 0,0 -1,0 -1,-1 0,0 1,-1 1,-1 1,-1 1,0 2,0 1,0 2,0 2,-1 1,0 -1,0 -1,-1 -2,0 -4,1 -6,2 -1,0 -2,2 -3,1 -1,-1 -1,-1 -1,-2 -1,0 -1,-1 -1,-1 -2,-1 -4,0 -5,-1 -1,0 0,-1 0,-1 0,-1 -1,-1 -1,-2 -1,0 -3,-1 -1,-1 2,-1 3,1 4,2 1,1 2,0 4,0 1,-1 2,-1 3,-2 0,0 -1,0 -2,0 -2,0 -3,1 -3,0 0,-1 2,-2 3,-2 1,-1 1,-1 2,-1 2,0 3,-1 4,-2 1,0 2,-1 2,-1 -2,-2 -6,1 -7,1 -1,1 -3,1 -3,0 -1,-1 -1,-2 0,-2 2,-1 3,-2 4,-3 2,-2 4,-3 5,-4 0,-2 -3,-1 -3,-2 0,-2 1,-3 2,-4 3,-2 6,-5 9,-8 2,-2 3,-5 4,-8 0,-1 6,-7 7,-4 0,1 -2,1 -1,2 2,-1 3,-2 5,-2 1,1 -1,2 0,2 4,-1 3,-4 7,-5 4,-1 8,-1 8,2 0,3 -4,6 -4,9 0,1 2,2 4,0 2,-1 1,-2 1,-3 0,0 0,-1 0,-2 1,-1 2,0 3,-1 2,0 3,-2 5,-3 1,-1 2,-2 4,-3 2,0 3,0 4,0 0,0 1,0 2,0 1,0 5,-2 6,-3 0,0 -1,-1 -1,-1 0,-1 1,-2 2,-3 1,-1 3,-1 5,-2 2,-1 4,-1 6,0 3,1 4,4 9,3 5,-1 1,-4 4,-5 1,-1 3,-1 5,-2 0,-1 1,-1 1,-2 1,0 2,0 2,-1 0,-1 -3,-1 -3,-2 0,-2 3,-2 4,-2 2,0 2,-2 4,-2 1,-1 4,-2 6,-3 2,0 3,-2 5,-2 3,0 5,0 8,0 4,-1 5,-4 8,-5 1,-1 3,-2 5,-2 1,0 2,0 2,1 1,0 2,0 4,0 2,-1 3,-1 5,-2 1,-1 2,-2 3,-3 3,-2 9,0 11,-3 1,-1 -2,-1 -2,-2 0,-1 3,-3 4,-4 6,-3 15,-4 24,-5 0,0 1,0 2,0 1,0 2,0 3,0 1,0 1,-1 3,-2 1,0 5,-1 6,-1 3,1 1,2 0,3zm-270 187c0,0 0,0 0,0 0,0 -1,0 -1,0l1 1c0,0 0,0 0,0 0,0 0,0 0,0 1,1 1,0 2,0 0,0 0,0 0,0 1,1 1,0 1,0 0,0 0,0 0,-1 0,0 0,0 -1,0 -1,0 -1,1 -2,0zm10 -14c0,0 0,0 1,0 0,0 0,0 0,0 0,0 0,0 0,0 0,0 0,1 1,1 0,0 0,-1 1,-1 0,-1 0,-1 0,-1 0,0 -1,0 -1,0 0,0 -1,1 -2,1zm-3 4c0,0 -1,0 -1,0 0,1 1,1 1,2 0,0 0,0 1,0 0,0 0,0 0,-1 0,0 0,0 0,0 0,0 -1,0 -1,-1 1,0 1,0 0,0zm-42 25c0,0 0,0 0,0 0,0 0,0 0,0 0,1 0,0 0,0 1,0 1,0 1,0 0,0 0,1 0,0 0,0 0,0 0,0 0,0 0,0 -1,0zm-1 1c-1,0 -1,0 -1,0 0,0 0,0 0,0l1 0c0,0 1,1 1,0 0,0 -1,0 -1,0l0 0c0,0 0,0 0,0 0,0 0,0 0,0zm-1 -2c0,-1 0,-1 0,-1 0,1 0,1 0,1 -1,0 -1,1 -1,1 0,0 1,0 1,0 0,0 0,0 0,0 0,0 1,1 1,0 0,0 0,0 0,0l0 -1c0,0 0,0 0,0l0 0c0,0 0,0 -1,0zm8 5c-1,0 -1,0 -1,0 -2,0 -3,2 -1,3 0,0 1,-1 1,-1 1,1 -3,2 -2,3 1,0 1,0 1,0 0,0 0,1 0,1 1,0 2,-1 3,-1 0,1 -1,1 0,2 1,-1 1,-1 1,-1 1,0 0,1 0,1 0,0 0,1 0,1 1,0 1,1 2,1 1,0 1,-1 1,-1 1,-1 1,-2 1,-3 1,-1 2,-1 1,-2 0,-1 -1,-1 -2,-1 -1,-1 -1,0 -1,-1 0,0 0,-1 0,-1 -1,0 -1,0 -1,0 -1,0 -1,0 -1,0 -1,0 -1,-1 -2,-1 -1,1 0,1 0,1zm-2 -6c0,0 0,-1 -1,-1 0,0 1,-2 0,-2 -1,0 -2,2 -2,2 -1,0 -1,0 -1,0 0,0 0,0 0,0l0 1 0 0c0,0 0,1 1,0 0,1 0,1 1,1 -1,1 -1,1 0,1 1,-1 1,1 1,1 0,0 0,1 0,1l0 0c1,0 1,0 1,0 -1,0 0,0 1,0 0,0 -1,-1 -1,-1 0,0 0,-1 0,-1 1,0 1,1 1,1 0,1 1,1 2,2 1,0 1,0 0,-1 0,0 -2,-1 -1,-1 0,0 1,0 1,0l0 0c1,0 0,0 1,0 0,0 0,1 1,1 0,0 0,1 2,1 -1,0 -1,0 -1,0 0,-1 1,-1 1,-1 1,-1 1,-1 2,-1 0,0 -1,1 0,1 1,0 1,0 1,0 1,0 1,0 2,0 0,1 0,1 1,1 0,0 -1,0 -1,0 0,1 0,1 -1,1 -1,0 -1,1 0,1 0,0 0,0 0,1 1,0 1,0 1,-1 0,0 1,0 1,0 1,1 -1,2 0,3 0,0 1,0 1,0 1,-1 0,-1 1,-1 0,-1 1,0 2,-1 0,0 0,0 1,-1 1,1 -2,2 -2,3 0,0 1,1 1,1 0,1 -1,1 0,1 1,0 1,0 1,-1 0,0 1,-1 2,-1 -1,0 -1,-1 0,-1 0,0 1,-1 1,-1 0,0 1,-1 1,-1 1,0 1,-1 2,-1 0,0 2,-2 0,-2 0,0 0,0 0,0 -1,0 -1,0 -1,0 0,-1 0,-1 0,-2 -1,0 -1,0 -2,0 0,0 -1,0 -1,0 -1,0 -1,0 -2,0 -1,0 -1,0 -2,0 -1,0 1,0 1,-1 0,0 -1,0 -2,0 -1,0 -1,0 -2,0 0,0 -1,0 -1,0 -1,0 -2,0 -3,0 -1,0 -3,0 -3,0 0,0 0,0 0,-1 0,0 0,0 -1,0 0,-1 0,-1 0,-2 -1,-1 -2,0 -3,0 -1,1 -2,1 -2,2zm-192 130c2,3 10,0 12,-1 -2,-1 -10,0 -12,1zm-14 -1c-5,1 1,3 4,3 4,-1 -2,-3 -4,-3zm287 -112c0,0 0,0 -1,0 0,0 -1,0 -1,0 -2,-1 0,-1 -1,-1 -1,-1 -1,-1 -2,-2 0,0 -1,0 -1,0 0,0 0,-1 -1,-1 -3,-1 -7,3 -8,4 -3,2 -7,4 -8,6 -2,3 -2,5 -7,6 -6,2 -2,3 -3,6 0,2 -1,3 0,4 0,1 2,2 3,3 2,3 0,7 1,10 1,3 3,6 6,8 2,1 5,1 7,2 2,1 3,2 5,3 4,2 9,3 14,4 7,0 15,0 22,0 5,0 3,-4 7,-5 2,-1 3,-2 4,-3 1,-1 0,-3 1,-4 2,-3 7,-1 11,-2 2,-1 3,-2 5,-3 2,0 4,1 5,2 2,3 3,5 9,4 4,0 8,1 13,2 4,1 7,3 10,5 5,3 4,9 14,10 4,1 10,1 14,3 2,1 3,2 5,2 2,1 3,1 4,1 1,0 2,0 3,0 5,0 8,2 12,3 5,1 9,-1 10,-3 3,-2 5,-5 5,-8 0,-2 -1,-6 -3,-8 -1,-1 -3,-1 -4,-2 -1,-1 1,-2 1,-4 1,-3 -4,-3 -7,-5 -3,-1 -1,-4 -1,-6 1,-3 1,-5 -2,-8 -3,-2 -6,-3 -10,-4 -2,0 -3,0 -5,-1 -2,-1 -4,-2 -5,-4 0,-2 -1,-4 -1,-7 -1,-3 0,-7 -1,-11 -1,-3 -2,-7 -5,-9 -4,-3 -7,1 -8,3 -1,2 0,4 -4,4 -2,1 -4,1 -6,0 -2,0 -3,-1 -5,-2 -2,0 -3,1 -5,1 -2,0 -3,0 -5,-1 -2,-1 -4,-1 -6,-1 -4,2 -7,-2 -10,-2 -1,0 -2,0 -3,0 -1,0 -2,0 -2,-1 -2,0 -4,-1 -5,-1 -4,-2 -7,-1 -10,-2 -2,-1 -3,-2 -5,-2 -1,1 -3,2 -4,3 -2,1 -5,1 -6,2 -2,1 -2,2 -4,2 -3,0 -4,0 -6,1 -2,0 -2,2 -1,3 1,1 3,2 -1,3 -1,0 -2,0 -3,0 -1,0 -2,0 -3,0 -4,1 -7,2 -11,3 -1,0 -1,0 -1,0zm-16 -100c-1,0 -2,0 -3,0 -1,0 -2,0 -3,0 -2,-1 -3,-1 -4,-2 0,-1 0,-2 0,-2 0,-1 0,-2 0,-3 0,0 0,-1 0,-1 0,-1 0,-2 1,-2 0,-1 0,-2 0,-3 2,-2 3,-4 5,-5 1,-2 5,-6 0,-6 -3,0 -4,1 -4,3 -1,0 -1,1 -1,1 0,1 -1,2 -1,2 -2,2 -3,3 -4,4 -1,1 -2,1 -2,2 -1,1 -1,1 -1,2 -1,2 -2,3 -1,5 0,1 0,2 0,3 1,1 2,1 2,1 0,1 0,1 0,2 0,0 0,0 1,1 0,0 0,1 -1,1 0,3 7,3 9,2 2,-1 4,-1 5,-2 1,-1 3,-2 2,-3zm-10 13c-1,1 -2,0 -2,-1 -1,-1 1,-2 3,-2 2,0 2,3 -1,3z"/>
 </g>
</svg>
