<?xml version="1.0" encoding="UTF-8"?>
<!DOCTYPE svg PUBLIC "-//W3C//DTD SVG 1.1//EN" "http://www.w3.org/Graphics/SVG/1.1/DTD/svg11.dtd">
<!-- Creator: CorelDRAW X8 -->
<svg xmlns="http://www.w3.org/2000/svg" xml:space="preserve" width="1000px" height="1000px" version="1.1" style="shape-rendering:geometricPrecision; text-rendering:geometricPrecision; image-rendering:optimizeQuality; fill-rule:evenodd; clip-rule:evenodd"
viewBox="0 0 1000 1000"
 xmlns:xlink="http://www.w3.org/1999/xlink">
 <defs>
  <style type="text/css">
   <![CDATA[
    .fil3 {fill:black;fill-rule:nonzero}
    .fil7 {fill:#50659C;fill-rule:nonzero}
    .fil29 {fill:#514A62;fill-rule:nonzero}
    .fil10 {fill:#53516E;fill-rule:nonzero}
    .fil15 {fill:#544F77;fill-rule:nonzero}
    .fil34 {fill:#58567A;fill-rule:nonzero}
    .fil11 {fill:#6A6380;fill-rule:nonzero}
    .fil9 {fill:#6EB990;fill-rule:nonzero}
    .fil18 {fill:#735846;fill-rule:nonzero}
    .fil33 {fill:#7370A0;fill-rule:nonzero}
    .fil0 {fill:#7C5186;fill-rule:nonzero}
    .fil36 {fill:#807DA8;fill-rule:nonzero}
    .fil22 {fill:#A16695;fill-rule:nonzero}
    .fil1 {fill:#A37CB2;fill-rule:nonzero}
    .fil35 {fill:#A6A8CC;fill-rule:nonzero}
    .fil8 {fill:#A8AAB9;fill-rule:nonzero}
    .fil24 {fill:#ABB1D1;fill-rule:nonzero}
    .fil16 {fill:#C4C8E2;fill-rule:nonzero}
    .fil30 {fill:#C7CBE6;fill-rule:nonzero}
    .fil37 {fill:#D17667;fill-rule:nonzero}
    .fil25 {fill:#E1E7EF;fill-rule:nonzero}
    .fil39 {fill:#E8AEE5;fill-rule:nonzero}
    .fil20 {fill:#E8E7E5;fill-rule:nonzero}
    .fil17 {fill:#EC7580;fill-rule:nonzero}
    .fil32 {fill:#EEC9C8;fill-rule:nonzero}
    .fil2 {fill:#EFEFEF;fill-rule:nonzero}
    .fil4 {fill:#FA5240;fill-rule:nonzero}
    .fil27 {fill:#FBE5E4;fill-rule:nonzero}
    .fil28 {fill:#FF8480;fill-rule:nonzero}
    .fil38 {fill:#FF907D;fill-rule:nonzero}
    .fil5 {fill:#FFE208;fill-rule:nonzero}
    .fil6 {fill:white;fill-rule:nonzero}
    .fil21 {fill:url(#id0)}
    .fil19 {fill:url(#id1)}
    .fil26 {fill:url(#id2)}
    .fil13 {fill:url(#id3)}
    .fil14 {fill:url(#id4)}
    .fil23 {fill:url(#id5)}
    .fil12 {fill:url(#id6)}
    .fil31 {fill:url(#id7)}
   ]]>
  </style>
  <linearGradient id="id0" gradientUnits="userSpaceOnUse" x1="515.68" y1="292.066" x2="513.882" y2="328.709">
   <stop offset="0" style="stop-opacity:1; stop-color:#D45851"/>
   <stop offset="1" style="stop-opacity:1; stop-color:#D9B7B4"/>
  </linearGradient>
  <linearGradient id="id1" gradientUnits="userSpaceOnUse" x1="515.536" y1="292.066" x2="513.674" y2="328.709">
   <stop offset="0" style="stop-opacity:1; stop-color:#E85F5A"/>
   <stop offset="1" style="stop-opacity:1; stop-color:#EEC9C8"/>
  </linearGradient>
  <linearGradient id="id2" gradientUnits="userSpaceOnUse" x1="536.304" y1="298.284" x2="496.572" y2="274.785">
   <stop offset="0" style="stop-opacity:1; stop-color:#EEC9C8"/>
   <stop offset="0.678431" style="stop-opacity:1; stop-color:#EBAFAD"/>
   <stop offset="1" style="stop-opacity:1; stop-color:#E89492"/>
  </linearGradient>
  <linearGradient id="id3" gradientUnits="userSpaceOnUse" x1="547.945" y1="591.976" x2="538.538" y2="609.864">
   <stop offset="0" style="stop-opacity:1; stop-color:#534E64"/>
   <stop offset="1" style="stop-opacity:1; stop-color:#3F3C4D"/>
  </linearGradient>
  <linearGradient id="id4" gradientUnits="userSpaceOnUse" xlink:href="#id3" x1="574.282" y1="609.97" x2="569.351" y2="617.983">
  </linearGradient>
  <linearGradient id="id5" gradientUnits="userSpaceOnUse" xlink:href="#id0" x1="515.545" y1="292.064" x2="513.693" y2="328.709">
  </linearGradient>
  <linearGradient id="id6" gradientUnits="userSpaceOnUse" xlink:href="#id3" x1="505.065" y1="637.55" x2="498.522" y2="647.637">
  </linearGradient>
  <linearGradient id="id7" gradientUnits="userSpaceOnUse" xlink:href="#id1" x1="532.477" y1="376.386" x2="551.376" y2="378.461">
  </linearGradient>
 </defs>
 <g id="Слой_x0020_1" visibility="hidden">
  <metadata id="CorelCorpID_0Corel-Layer"/>
  <path class="fil0" d="M553 546l-6 -3c0,0 0,0 0,0 0,0 1,0 1,0 0,0 1,0 1,0 0,0 0,0 0,0 1,0 2,1 3,1 0,1 2,1 2,1 0,1 0,1 -1,1zm-6 -3l-2 -1c1,0 1,0 1,0 0,0 0,0 1,0 1,0 -1,1 0,1 0,0 0,0 0,0zm-4 -2l-3 -2 0 0c0,0 0,0 0,0 0,0 0,0 1,0 0,0 0,0 0,0 1,0 1,0 2,0 0,0 0,0 0,0 0,0 1,0 1,0 0,0 1,0 1,0 0,0 0,0 0,0 3,0 -1,1 -2,2 0,0 0,0 0,0z"/>
  <path class="fil1" d="M554 547l-1 -1c1,0 1,0 1,-1 0,0 -2,0 -2,-1 -1,0 -2,-1 -3,-1 0,0 0,0 0,0 0,0 -1,0 -1,0 0,0 -1,0 -1,0 0,0 0,0 0,0l0 0c0,0 0,0 0,0 -1,0 1,-1 0,-1 -1,0 -1,0 -1,0 0,0 0,0 -1,0l-2 -1c0,0 0,0 0,0 1,-1 5,-2 2,-2 0,0 0,0 0,0 0,0 -1,0 -1,0 0,0 -1,0 -1,0 0,0 0,0 0,0 -1,0 -1,0 -2,0 0,0 0,0 0,0 -1,0 -1,0 -1,0 -1,-1 -1,-3 0,-4l45 -25c1,-1 2,-1 4,-1 1,0 2,0 3,0l0 1 14 7 -52 30z"/>
  <polygon class="fil1" points="571,557 554,547 606,517 623,527 "/>
  <path class="fil0" d="M581 563l-6 -4c1,0 1,-1 2,-1 1,-1 2,-2 3,-2 0,0 1,0 1,0 0,0 0,0 1,0 0,0 0,0 0,0 3,0 3,-1 5,-2 2,0 4,0 6,0 4,-2 7,-5 10,-7 1,0 2,0 3,0 1,0 3,0 5,0 1,0 2,-1 3,-1 1,0 1,0 1,0 -1,2 -1,3 1,3 2,0 8,-2 5,-4 1,1 2,1 3,2l-26 15c0,0 0,-1 0,-1 0,-1 1,-2 -2,-3 -1,0 -1,0 -2,0 -1,0 -2,0 -2,0 -1,0 -2,0 -2,0 -1,0 -1,0 -1,0 -1,0 -3,-1 -4,-1 -1,0 -1,1 -2,1 -1,1 1,2 0,3 0,1 -1,1 -2,2z"/>
  <path class="fil1" d="M589 566c-2,0 -3,0 -4,-1l0 0 -4 -2c1,-1 2,-1 2,-2 1,-1 -1,-2 0,-3 1,0 1,-1 2,-1 1,0 3,1 4,1 0,0 0,0 1,0 0,0 1,0 2,0 0,0 1,0 2,0 1,0 1,0 2,0 3,1 2,2 2,3 0,0 0,1 0,1l-6 3c-1,1 -2,1 -3,1zm-14 -7l-4 -2 52 -30 14 8 0 1c2,1 1,2 0,3l-13 8c-1,-1 -2,-1 -3,-2 3,2 -3,4 -5,4 -2,0 -2,-1 -1,-3 0,0 0,0 -1,0 -1,0 -2,1 -3,1 -2,0 -4,0 -5,0 -1,0 -2,0 -3,0 -3,2 -6,5 -10,7 -2,0 -4,0 -6,0 -2,1 -2,2 -5,2 0,0 0,0 0,0 -1,0 -1,0 -1,0 0,0 -1,0 -1,0 -1,0 -2,1 -3,2 -1,0 -1,1 -2,1z"/>
  <path class="fil2" d="M592 507l0 0c-2,-1 -5,-1 -7,0l-45 25c-1,2 -1,3 0,4l0 0 14 8 52 -29 -14 -8z"/>
  <polygon class="fil2" points="606,515 554,544 571,554 623,525 "/>
  <path class="fil2" d="M637 533l0 -1 -14 -7 -52 29 14 8 0 0c2,1 5,1 7,0l45 -26c1,-1 2,-2 0,-3z"/>
  <polygon class="fil2" points="628,534 638,534 638,527 628,527 "/>
  <polygon class="fil2" points="539,534 549,534 549,527 539,527 "/>
  <path class="fil3" d="M592 500l14 8 -52 29 -14 -8 0 0c-1,-1 -1,-3 0,-4l45 -25c2,-1 5,-2 7,-1l0 1z"/>
  <polygon class="fil4" points="606,508 623,517 571,547 554,537 "/>
  <path class="fil5" d="M623 517l14 8 0 1c2,1 1,2 0,3l-45 26c-2,1 -5,1 -7,0l0 0 -14 -8 52 -30z"/>
  <path class="fil0" d="M737 653l-13 -8 -1 0c-1,-1 -1,-3 1,-4l44 -25c1,-1 3,-1 4,-1 1,0 2,0 3,0l0 1 14 7 -52 30z"/>
  <path class="fil0" d="M755 663l-18 -10 52 -30 17 10 -34 20c-2,1 -3,1 -3,1 0,1 0,1 0,1l-14 8z"/>
  <path class="fil1" d="M769 655c0,0 0,0 0,-1 0,0 1,0 3,-1l-3 2z"/>
  <path class="fil0" d="M759 666l-4 -3 14 -8c0,1 4,0 4,2 -1,3 -8,4 -11,6 -2,1 -3,2 -3,3zm24 -6c0,-1 -5,-6 -7,-7 0,0 -1,0 -1,0 -1,0 -2,0 -3,0l34 -20 10 6c-2,0 -3,1 -4,1 -7,1 -10,4 -15,6 -5,3 -11,3 -15,6 2,2 7,6 1,8z"/>
  <path class="fil1" d="M772 672c-1,0 -2,0 -3,-1l-1 0 -9 -5c0,-1 1,-2 3,-3 3,-2 10,-3 11,-6 0,-2 -4,-1 -4,-2l3 -2c1,0 2,0 3,0 0,0 1,0 1,0 2,1 7,6 7,7 6,-2 1,-6 -1,-8 4,-3 10,-3 15,-6 5,-2 8,-5 15,-6 1,0 2,-1 4,-1l4 2 0 1c2,1 2,2 0,3l-45 26c-1,1 -2,1 -3,1z"/>
  <path class="fil2" d="M775 613l0 0c-2,-1 -5,-1 -7,0l-44 25c-2,2 -2,3 -1,4l1 0 13 8 52 -29 -14 -8z"/>
  <polygon class="fil2" points="789,621 737,650 755,660 806,631 "/>
  <path class="fil2" d="M820 639l0 -1 -14 -7 -51 29 13 8 1 0c2,1 5,1 6,0l45 -26c2,-1 2,-2 0,-3z"/>
  <polygon class="fil2" points="812,640 821,640 821,633 812,633 "/>
  <polygon class="fil2" points="722,640 732,640 732,633 722,633 "/>
  <path class="fil4" d="M775 605l45 26 0 0c2,1 2,3 0,4l-45 25c-1,1 -4,2 -6,1l-1 -1 -44 -25 -1 -1c-1,-1 -1,-2 1,-3l44 -26c2,-1 5,-1 7,0l0 0z"/>
  <polygon class="fil6" points="741,621 793,650 785,655 733,625 "/>
  <polygon class="fil6" points="794,615 802,620 750,650 742,645 "/>
  <path class="fil0" d="M219 636l-3 -2c0,0 0,0 0,0 0,0 0,0 -1,0l0 0c1,-2 5,-1 1,-3 1,0 1,0 1,0 0,0 1,0 1,0 0,0 0,0 0,0 1,0 2,0 2,-1 0,0 1,1 1,1 1,0 1,0 1,0 1,0 0,-1 1,-1 1,0 2,0 2,0 1,0 1,0 2,0 0,0 -1,1 -1,1l-7 5zm-12 -7l-1 -1c0,0 -1,0 -1,0 0,-1 -1,-1 -1,-1 0,0 0,-1 0,-1 0,0 0,0 0,0 0,0 0,0 0,0 1,0 1,0 2,0 0,0 0,0 1,0 0,0 4,-3 4,-3 0,-1 0,-1 -1,-1 -1,0 -2,0 -3,1l39 -23c3,0 4,1 6,2 2,1 2,2 4,2 3,0 4,0 5,1 2,1 3,2 4,2 1,0 1,0 2,0 0,0 1,-1 2,-2l1 1 -28 17c-1,-1 -1,-1 -1,-1 0,-1 2,0 2,-1 0,-1 0,-1 0,-1 -1,0 -2,0 -3,1 0,0 -1,0 -1,0 0,0 0,0 0,0 0,0 1,-1 0,-1 -1,0 -1,0 -1,0 -1,0 -1,1 -3,1 0,0 0,0 0,0 1,-1 0,-1 -2,-1 0,0 0,0 0,0 -2,0 -4,0 -4,1 -1,0 -1,2 -2,2 0,0 0,0 -1,0 0,-1 2,-1 1,-2 0,0 -1,0 -1,0 -1,0 -1,0 -2,0 0,0 0,0 0,0 -1,0 -1,1 -2,2 -1,0 -1,0 -1,0 -1,0 -1,0 -2,0 -1,0 -2,0 -3,0 -1,0 -2,0 -4,0 -2,1 -2,2 -3,3 0,1 -1,1 -2,2 0,0 0,1 0,1z"/>
  <path class="fil1" d="M216 634l-1 0c1,0 1,0 1,0 0,0 0,0 0,0zm-1 0l-8 -5c0,0 0,-1 0,-1 1,-1 2,-1 2,-2 1,-1 1,-2 3,-3 2,0 3,0 4,0 1,0 2,0 3,0 1,0 1,0 2,0 0,0 0,0 1,0 1,-1 1,-2 2,-2 0,0 0,0 0,0 1,0 1,0 2,0 0,0 1,0 1,0 1,1 -1,1 -1,2 1,0 1,0 1,0 1,0 1,-2 2,-2 0,-1 2,-1 4,-1 0,0 0,0 0,0 2,0 3,0 2,1 0,0 0,0 0,0 2,0 2,-1 3,-1 0,0 0,0 1,0 1,0 0,1 0,1 0,0 0,0 0,0 0,0 1,0 1,0 1,-1 2,-1 3,-1 0,0 0,0 0,1 0,1 -2,0 -2,1 0,0 0,0 1,1l-16 8c0,0 1,-1 1,-1 -1,0 -1,0 -2,0 0,0 -1,0 -2,0 -1,0 0,1 -1,1 0,0 0,0 -1,0 0,0 -1,-1 -1,-1 0,1 -1,1 -2,1 0,0 0,0 0,0 0,0 -1,0 -1,0 0,0 0,0 -1,0 4,2 0,1 -1,3zm-9 -6l-1 0 0 0c-1,-1 -1,-1 -1,-1 0,0 1,0 1,1 0,0 1,0 1,0zm0 -2c-1,0 -1,0 -2,0 0,0 0,0 0,0 0,0 0,0 0,0 -1,-1 0,-2 1,-2l2 -1c1,-1 2,-1 3,-1 1,0 1,0 1,1 0,0 -4,3 -4,3 -1,0 -1,0 -1,0zm59 -19c-1,0 -2,-1 -4,-2 -1,-1 -2,-1 -5,-1 -2,0 -2,-1 -4,-2 -2,-1 -3,-2 -6,-2l4 -2c1,0 2,-1 3,-1 1,0 2,0 3,1l0 0 13 7c-1,1 -2,2 -2,2 -1,0 -1,0 -2,0z"/>
  <path class="fil0" d="M236 645c0,0 0,0 -1,0 0,0 0,0 0,0l-16 -9 7 -5c0,1 0,1 1,1 0,0 0,0 1,0 1,0 0,-2 1,-2 1,0 1,0 1,0 0,0 1,0 1,0 1,0 2,0 3,0 1,0 2,0 3,0 0,0 0,0 0,0 1,0 3,0 3,1 0,0 -1,1 0,2 -1,1 -1,1 1,2 0,0 0,0 1,0 0,0 0,0 0,0 0,0 0,0 1,0 0,0 0,0 0,1 -1,1 -6,2 -6,3 -1,1 0,2 1,2 0,0 0,0 0,0 2,0 3,-1 3,-1 1,-1 3,-3 4,-3 1,0 1,0 1,0 1,0 1,0 2,0 0,0 0,0 0,0 1,0 1,0 1,0 1,0 1,0 1,0 0,0 0,0 0,0 1,0 1,0 1,0l-15 8zm-6 -14c0,0 -1,0 -1,1 -2,1 -1,3 1,3 1,0 2,0 2,0 4,-2 0,-4 -2,-4zm6 -1c-1,0 -3,1 -3,1 0,1 0,1 1,1 1,0 3,-1 3,-1 0,-1 0,-1 -1,-1zm21 -1c0,0 -1,0 -2,0 0,0 -1,0 -1,0 0,0 -1,0 -1,0 0,0 -1,0 -1,0 -1,-1 2,-1 2,-1 0,-1 -1,-1 -2,-1 -1,-2 5,-1 6,-3 1,1 1,2 2,2 1,0 1,0 1,0 1,0 3,0 2,-1 0,0 -1,0 -1,-1 0,-1 1,-1 1,-1 1,-1 0,-1 -1,-1 0,-1 0,-2 -2,-2 0,0 0,0 0,0 -2,0 -3,1 -4,2 0,-1 0,-1 0,-2 0,0 0,0 0,0 -1,0 -2,1 -3,1 0,0 0,0 -1,0 0,0 0,0 -1,0 0,0 -1,0 -1,0 0,0 -1,0 -1,0 -2,1 -4,2 -6,2 0,0 -1,0 -1,0l28 -17 2 1c-1,1 -1,1 0,2 0,1 1,1 2,1 0,1 0,1 0,1 2,2 7,2 10,3l3 2 -21 12c0,0 -1,0 -1,0 0,0 -1,0 -1,0 0,0 -1,0 -1,0 0,0 -1,0 -1,0 0,0 0,0 0,0 -1,0 -1,0 -2,0 0,0 -1,0 -1,0 -1,0 -1,1 -2,1z"/>
  <path class="fil1" d="M236 646l-1 -1c0,0 0,0 0,0 1,0 1,0 1,0l0 1zm2 -5c0,0 0,0 0,0 -1,0 -2,-1 -1,-2 0,-1 5,-2 6,-3 0,-1 0,-1 0,-1 -1,0 -1,0 -1,0 0,0 0,0 0,0 -1,0 -1,0 -1,0 -2,-1 -2,-1 -1,-2 -1,-1 0,-2 0,-2 0,-1 -2,-1 -3,-1 0,0 0,0 0,0 -1,0 -2,0 -3,0 -1,0 -2,0 -3,0 0,0 -1,0 -1,0 0,0 0,0 -1,0 -1,0 0,2 -1,2 -1,0 -1,0 -1,0 -1,0 -1,0 -1,-1l16 -8c0,0 1,0 1,0 2,0 4,-1 6,-2 0,0 1,0 1,0 0,0 1,0 1,0 1,0 1,0 1,0 1,0 1,0 1,0 1,0 2,-1 3,-1 0,0 0,0 0,0 0,1 0,1 0,2 1,-1 2,-2 4,-2 0,0 0,0 0,0 2,0 2,1 2,2 1,0 2,0 1,1 0,0 -1,0 -1,1 0,1 1,1 1,1 1,1 -1,1 -2,1 0,0 0,0 -1,0 -1,0 -1,-1 -2,-2 -1,2 -7,1 -6,3 1,0 2,0 2,1 0,0 -3,0 -2,1 0,0 1,0 1,0 0,0 1,0 1,0 0,0 1,0 1,0 1,0 2,0 2,0 1,0 1,-1 2,-1 0,0 1,0 1,0 1,0 1,0 2,0 0,0 0,0 0,0 0,0 1,0 1,0 0,0 1,0 1,0 0,0 1,0 1,0 0,0 1,0 1,0l-15 9c0,0 0,0 -1,0 0,0 0,0 0,0 0,0 0,0 -1,0 0,0 0,0 -1,0 0,0 0,0 0,0 -1,0 -1,0 -2,0 0,0 0,0 -1,0 -1,0 -3,2 -4,3 0,0 -1,1 -3,1zm-8 -6c-2,0 -3,-2 -1,-3 0,-1 1,-1 1,-1 2,0 6,2 2,4 0,0 -1,0 -2,0zm4 -3c-1,0 -1,0 -1,-1 0,0 2,-1 3,-1 1,0 1,0 1,1 0,0 -2,1 -3,1zm50 -18c-3,-1 -8,-1 -10,-3 0,0 0,0 0,-1 -1,0 -2,0 -2,-1 -1,-1 -1,-1 0,-2l12 7z"/>
  <path class="fil0" d="M253 654c-1,0 -2,0 -3,0l0 0 -13 -8c0,0 0,0 0,0 0,0 0,0 -1,-1l15 -8c1,0 1,0 2,0 0,0 0,0 0,1 0,0 0,0 0,0 0,0 1,0 1,-1 1,0 1,0 2,0 0,0 0,0 0,0 0,0 1,0 1,0 1,0 1,0 2,-1 1,0 2,0 3,0 2,0 3,-1 4,-1 0,0 2,0 3,-1 1,0 0,-1 -1,-1 -1,0 -3,1 -3,1 -1,0 -3,0 -4,0 -1,0 -2,0 -2,0 1,-1 2,-1 1,-2 2,0 7,0 9,-1 -1,-1 -2,-1 -3,-1 0,0 1,-1 1,-1 0,0 -1,0 -1,-1l21 -12 14 8 0 0c2,1 2,3 0,4l-15 8c-1,0 -2,0 -3,0 0,0 -1,0 -1,0 -2,0 -3,0 -4,0 0,0 -1,-1 -2,-1 0,0 0,0 0,0 -1,1 0,1 1,2 0,0 1,1 2,1 0,1 -1,1 -2,2 0,0 1,0 0,1 -1,0 -2,0 -2,1 -1,0 -2,0 -3,0 -1,0 0,1 -1,1 -1,0 0,0 0,-1 -1,0 -1,0 -2,0 0,0 -1,0 -2,-1 0,0 0,-1 0,-1 -1,-1 -1,-1 -2,-1 -1,0 -2,1 -2,1 -1,0 -1,1 -2,1 0,0 0,0 -1,0 0,-1 0,-1 0,-1 -1,0 -1,1 -2,1 0,0 -1,0 -1,0 0,0 -1,0 -1,0 0,0 -1,-1 -1,-1 -1,0 -1,1 -2,1 -1,0 -1,1 -1,1 -1,1 -2,1 -3,2 -1,0 -4,1 -3,2 1,0 2,0 2,1 1,0 1,0 2,1 0,1 2,1 4,2 1,0 0,0 0,1 0,1 1,2 2,2 0,0 1,-1 2,-1 0,0 0,0 1,0l-3 2c0,0 -2,0 -3,0zm-10 -7c-1,0 -1,0 -1,0 0,1 1,2 2,2 0,0 0,0 1,0 0,-1 -1,-2 -2,-2z"/>
  <path class="fil1" d="M256 653c-1,0 -2,-1 -2,-2 0,-1 1,-1 0,-1 -2,-1 -4,-1 -4,-2 -1,-1 -1,-1 -2,-1 0,-1 -1,-1 -2,-1 -1,-1 2,-2 3,-2 1,-1 2,-1 3,-2 0,0 0,-1 1,-1 1,0 1,-1 2,-1 0,0 1,1 1,1 0,0 1,0 1,0 0,0 1,0 1,0 1,0 1,-1 2,-1 0,0 0,0 0,1 1,0 1,0 1,0 1,0 1,-1 2,-1 0,0 1,-1 2,-1 1,0 1,0 2,1 0,0 0,1 0,1 1,1 2,1 2,1 1,0 1,0 2,0 0,1 -1,1 0,1 1,0 0,-1 1,-1 1,0 2,0 3,0 0,-1 1,-1 2,-1 1,-1 0,-1 0,-1 1,-1 2,-1 2,-2 -1,0 -2,-1 -2,-1 -1,-1 -2,-1 -1,-2 0,0 0,0 0,0 1,0 2,1 2,1 1,0 2,0 4,0 0,0 1,0 1,0 1,0 2,0 3,0l-27 16c-1,0 -1,0 -1,0 -1,0 -2,1 -2,1zm-12 -4c-1,0 -2,-1 -2,-2 0,0 0,0 1,0 1,0 2,1 2,2 -1,0 -1,0 -1,0zm-7 -3l-1 0 0 -1c1,1 1,1 1,1 0,0 0,0 0,0zm16 -8c0,0 0,0 0,0 0,-1 0,-1 0,-1 -1,0 -1,0 -2,0l15 -9c0,1 1,1 1,1 0,0 -1,1 -1,1 1,0 2,0 3,1 -2,1 -7,1 -9,1 1,1 0,1 -1,2 0,0 1,0 2,0 1,0 3,0 4,0 0,0 2,-1 3,-1 1,0 2,1 1,1 -1,1 -3,1 -3,1 -1,0 -2,1 -4,1 -1,0 -2,0 -3,0 -1,1 -1,1 -2,1 0,0 -1,0 -1,0 0,0 0,0 0,0 -1,0 -1,0 -2,0 0,1 -1,1 -1,1z"/>
  <path class="fil2" d="M256 595l0 0c-2,-1 -5,-1 -6,0l-45 26c-2,1 -2,3 0,4l0 0 14 8 51 -30 -14 -8z"/>
  <polygon class="fil2" points="270,603 219,633 236,643 287,613 "/>
  <path class="fil2" d="M301 621l0 0 -14 -8 -51 30 14 8 0 0c2,1 5,1 6,0l45 -26c2,-1 2,-3 0,-4z"/>
  <polygon class="fil2" points="293,623 303,623 303,616 293,616 "/>
  <polygon class="fil2" points="204,623 213,623 213,616 204,616 "/>
  <path class="fil4" d="M279 601l22 13 0 0c2,1 2,3 0,4l-45 26c-1,1 -4,1 -6,0l0 0 -4 -3 9 -26 24 -14z"/>
  <path class="fil6" d="M256 588l23 13 -24 14 -46 5 -4 -2 0 0c-2,-1 -2,-3 0,-4l45 -26c1,-1 4,-1 6,0l0 0z"/>
  <polygon class="fil7" points="255,615 246,641 209,620 "/>
  <polygon class="fil2" points="720,588 730,588 730,580 720,580 "/>
  <path class="fil0" d="M646 600l-14 -8 0 0c-2,-1 -1,-3 0,-4l45 -25c1,-1 2,-1 3,-1 2,0 3,0 4,0l0 1 14 8 -52 29z"/>
  <polygon class="fil0" points="663,610 646,600 698,571 715,580 "/>
  <path class="fil0" d="M680 619c-1,0 -2,0 -3,-1l0 0 -14 -8 52 -30 5 4 0 4 7 0 2 0 0 1c1,1 1,2 0,3l-45 26c-1,1 -2,1 -4,1z"/>
  <polygon class="fil8" points="727,588 720,588 720,584 "/>
  <path class="fil2" d="M684 560l0 0c-2,-1 -5,-1 -7,0l-45 26c-1,1 -2,2 0,3l0 1 14 7 52 -29 -14 -8z"/>
  <polygon class="fil2" points="698,568 646,597 663,607 715,578 "/>
  <path class="fil2" d="M729 586l0 0 -14 -8 -52 29 14 8 0 1c2,0 5,0 7,-1l45 -25c1,-2 1,-3 0,-4z"/>
  <polygon class="fil2" points="631,588 641,588 641,580 631,580 "/>
  <path class="fil9" d="M696 601l-51 -30 -1 0 -12 7c-1,1 -2,3 0,4l0 0 45 26 0 0c2,1 5,1 7,0l12 -7 0 0z"/>
  <polygon class="fil6" points="716,589 696,601 696,601 644,571 645,571 665,560 665,560 716,589 "/>
  <path class="fil4" d="M716 589l13 -7c1,-1 1,-2 0,-3l0 -1 -45 -25 0 -1c-2,-1 -5,0 -7,1l-12 7 0 0 51 29 0 0z"/>
  <polygon class="fil2" points="384,677 394,677 394,670 384,670 "/>
  <path class="fil0" d="M319 684c1,-1 -4,-2 -6,-3 1,0 1,0 1,0 1,-1 -1,-4 -2,-5 0,-2 3,-4 3,-6 -1,-1 -1,-1 -2,-2l28 -16c1,-1 2,-1 4,-1 1,0 2,0 3,1l0 0 14 8 -43 24zm-23 -3c-1,-1 -1,-1 -1,-2 0,0 1,-1 1,-1 0,0 0,0 0,0 0,0 0,0 0,0l1 -1c0,0 0,0 0,0 1,1 0,2 0,2 -1,1 -1,1 -1,2z"/>
  <path class="fil1" d="M310 689l-14 -7 0 -1c0,0 0,0 0,0 0,-1 0,-1 1,-2 0,0 1,-1 0,-2 0,0 0,0 0,0l16 -9c1,1 1,1 2,2 0,2 -3,4 -3,6 1,1 3,4 2,5 0,0 0,0 -1,0 2,1 7,2 6,3l-9 5zm-15 -10c0,0 0,-1 1,-1 0,0 0,0 0,0 0,0 -1,1 -1,1z"/>
  <path class="fil0" d="M328 699c-1,0 -1,0 -2,0l-8 -5c0,0 0,0 0,0 -1,-1 0,-3 0,-5 1,-1 3,-3 1,-4 0,0 0,-1 0,-1l43 -24 17 10 -51 29z"/>
  <path class="fil1" d="M327 699l-1 0c1,0 1,0 2,0l-1 0zm-9 -5l-8 -5 9 -5c0,0 0,1 0,1 2,1 0,3 -1,4 0,2 -1,4 0,5 0,0 0,0 0,0z"/>
  <path class="fil0" d="M345 708c-2,0 -3,0 -4,0l0 -1 -1 0c0,-1 1,-1 1,-1 2,-1 3,-1 5,-1 0,0 0,0 0,0 0,0 0,0 0,0 1,0 2,0 3,-1 0,0 1,0 1,0 1,0 1,1 1,1 0,0 0,0 0,0l-3 2c-1,1 -2,1 -3,1zm-7 -3l-5 -3c1,0 1,-1 -1,-2 -1,0 -2,-1 -4,-1l51 -29 5 3 0 4 7 0 2 1 0 0c2,1 1,3 0,4l-31 18c-1,0 -3,1 -3,1 0,0 0,0 0,0l-4 2c1,0 2,-2 1,-2l0 0c-1,1 -2,1 -3,1 -1,0 -2,0 -3,1 -1,0 -2,0 -3,0 -1,0 -2,1 -3,1 -2,0 -4,1 -6,1z"/>
  <path class="fil1" d="M340 707l-2 -2c2,0 4,-1 6,-1 1,0 2,-1 3,-1 1,0 2,0 3,0 1,-1 2,-1 3,-1 1,0 2,0 3,-1l0 0c1,0 0,2 -1,2l-4 2c0,0 0,0 0,0 0,0 0,-1 -1,-1 0,0 -1,0 -1,0 -1,1 -2,1 -3,1 0,0 0,0 0,0 0,0 0,0 0,0 -2,0 -3,0 -5,1 0,0 -1,0 -1,1zm-7 -5l-6 -3 1 0c2,0 3,1 4,1 2,1 2,2 1,2zm26 -1c0,0 0,0 0,0 0,0 2,-1 3,-1l-3 1z"/>
  <polygon class="fil8" points="391,677 384,677 384,673 "/>
  <path class="fil2" d="M348 649l0 0c-2,-1 -5,-1 -7,0l-45 26c-1,1 -1,2 0,3l0 1 14 8 52 -30 -14 -8z"/>
  <polygon class="fil2" points="362,657 310,687 327,697 379,667 "/>
  <path class="fil2" d="M393 675l0 0 -14 -8 -52 30 14 7 0 1c2,1 5,1 7,-1l45 -25c1,-1 2,-3 0,-4z"/>
  <polygon class="fil2" points="295,677 305,677 305,670 295,670 "/>
  <path class="fil6" d="M348 642l45 26 0 0c2,1 1,3 0,4l-45 25c-2,1 -5,1 -6,1l-1 -1 -45 -25 0 -1c-1,-1 -1,-2 0,-3l45 -26c2,-1 5,-1 7,0l0 0z"/>
  <path class="fil6" d="M322 653l29 17 -29 16 -26 -14 0 -1c-1,-1 -1,-2 0,-3l26 -15z"/>
  <path class="fil7" d="M322 653l29 17 -29 16 -26 -14 0 -1c-1,-1 -1,-2 0,-3l26 -15z"/>
  <path class="fil7" d="M348 642l3 1 -23 13 -6 -3 19 -11c2,-1 5,-1 7,0l0 0z"/>
  <polygon class="fil6" points="333,660 339,663 310,680 304,676 "/>
  <polygon class="fil6" points="333,680 304,663 310,660 339,676 "/>
  <polygon class="fil7" points="356,646 362,650 339,663 333,660 "/>
  <polygon class="fil7" points="367,653 373,656 351,670 345,666 "/>
  <polygon class="fil7" points="379,660 385,663 333,693 327,689 "/>
  <path class="fil7" d="M390 666l3 2 0 0c2,1 1,3 0,4l-45 25c-2,1 -5,1 -6,1l-1 -1 -2 -1 51 -30z"/>
  <polygon class="fil2" points="567,781 577,781 577,774 567,774 "/>
  <path class="fil0" d="M493 794l-14 -8 0 0c-1,-2 -1,-3 0,-4l7 -4c1,1 3,2 5,3 2,2 5,4 8,6l0 0 0 0 0 0 0 0c1,0 2,1 3,2l-9 5zm6 -7l0 0 0 0 0 0zm19 -8c0,-1 -1,-2 -5,-3 0,0 0,0 0,0 -1,0 -1,0 -1,0 0,0 -1,0 -1,0 -1,0 -1,0 -1,-1 0,-1 0,-2 0,-3 0,-1 -2,-3 -3,-3 -1,-1 -2,-1 -3,-1l20 -12c1,-1 2,-1 4,-1 1,0 2,0 3,1l0 0 14 8 -27 15z"/>
  <path class="fil1" d="M502 789c-1,-1 -2,-2 -3,-2l0 0 0 0 0 0 0 0c-3,-2 -6,-4 -8,-6 -2,-1 -4,-2 -5,-3l18 -10c1,0 2,0 3,1 1,0 3,2 3,3 0,1 0,2 0,3 0,1 0,1 1,1 0,0 1,0 1,0 0,0 0,0 1,0 0,0 0,0 0,0 4,1 5,2 5,3l-16 10zm-3 -2l0 0 0 0 0 0z"/>
  <path class="fil0" d="M510 804l-17 -10 9 -5c0,0 0,0 1,1 6,3 11,4 19,4 0,0 1,0 2,0 1,0 2,0 3,0l-17 10zm29 -17c0,0 0,0 0,-1 -1,0 -1,0 -2,0 -1,0 -3,1 -4,1 -2,0 -3,0 -4,0 -2,0 -3,0 -4,0 -4,-1 -6,-4 -6,-6 0,-1 -1,-1 -1,-2l27 -15 17 10 -23 13z"/>
  <path class="fil1" d="M522 794c-8,0 -13,-1 -19,-4 -1,-1 -1,-1 -1,-1l16 -10c0,1 1,1 1,2 0,2 2,5 6,6 1,0 2,0 4,0 1,0 2,0 4,0 1,0 3,-1 4,-1 1,0 1,0 2,0 0,1 0,1 0,1l-12 7c-1,0 -2,0 -3,0 -1,0 -2,0 -2,0z"/>
  <path class="fil0" d="M528 812c-2,0 -3,0 -3,0l-1 0 -14 -8 17 -10c3,0 6,-1 8,-2 3,-1 3,-3 4,-5l23 -13 5 3 0 4 7 0 2 1 0 0c2,1 1,3 0,4l-3 1c0,0 0,0 -1,0 -3,0 -6,1 -9,1 -1,0 -3,0 -5,-1 -3,-1 -5,-2 -6,-2 -1,0 -1,1 0,4 0,0 1,3 2,4 1,0 2,0 2,0 1,0 1,0 1,0 1,0 1,0 1,0 1,0 1,0 1,0 1,0 2,1 3,1l-31 18c-1,0 -2,0 -3,0z"/>
  <path class="fil1" d="M527 794l12 -7c-1,2 -1,4 -4,5 -2,1 -5,2 -8,2zm35 0c-1,0 -2,-1 -3,-1 0,0 0,0 -1,0 0,0 0,0 -1,0 0,0 0,0 -1,0 0,0 -1,0 -2,0 -1,-1 -2,-4 -2,-4 -1,-3 -1,-4 0,-4 1,0 3,1 6,2 2,1 4,1 5,1 3,0 6,-1 9,-1 1,0 1,0 1,0l-11 7z"/>
  <polygon class="fil8" points="574,781 567,781 567,777 "/>
  <path class="fil2" d="M531 753l0 0c-2,-1 -5,-1 -7,0l-45 26c-1,1 -1,3 0,4l0 0 14 8 52 -30 -14 -8z"/>
  <polygon class="fil2" points="545,761 493,791 510,801 562,771 "/>
  <path class="fil2" d="M576 779l0 0 -14 -8 -52 30 14 8 1 0c1,1 4,1 6,0l45 -26c1,-1 2,-3 0,-4z"/>
  <polygon class="fil2" points="478,781 488,781 488,774 478,774 "/>
  <path class="fil6" d="M531 746l45 26 0 0c2,1 1,3 0,4l-45 26c-2,1 -5,1 -6,0l-1 0 -45 -26 0 0c-1,-2 -1,-3 0,-4l45 -26c2,-1 5,-1 7,0l0 0z"/>
  <path class="fil4" d="M539 767c6,4 6,10 0,13 -6,4 -17,4 -23,0 -6,-3 -6,-9 0,-13 6,-3 17,-3 23,0z"/>
  <path class="fil0" d="M402 741l-2 -1c1,0 2,0 2,1l0 0z"/>
  <path class="fil1" d="M402 741c0,-1 -1,-1 -2,-1l-12 -7 0 0c-2,-1 -2,-3 0,-4l45 -26c1,0 2,-1 3,-1 1,0 2,1 3,1l0 0 14 8 -51 30z"/>
  <path class="fil0" d="M419 751l-17 -10 0 0c2,0 3,0 4,1 4,0 8,0 11,1 2,0 4,1 6,1 2,0 4,0 5,0 1,0 1,0 2,0l-11 7z"/>
  <path class="fil1" d="M430 744c-1,0 -1,0 -2,0 -1,0 -3,0 -5,0 -2,0 -4,-1 -6,-1 -3,-1 -7,-1 -11,-1 -1,-1 -2,-1 -4,-1l51 -30 17 10 -40 23z"/>
  <path class="fil0" d="M436 760c-1,0 -2,-1 -3,-1l0 0 -14 -8 11 -7c0,1 1,1 1,1 0,0 1,0 1,0 2,-1 3,-1 6,-1 0,0 0,0 0,0 4,0 7,2 10,4 2,1 4,2 5,3l-14 8c0,0 -2,1 -3,1z"/>
  <path class="fil1" d="M453 751c-1,-1 -3,-2 -5,-3 -3,-2 -6,-4 -10,-4 0,0 0,0 0,0 -3,0 -4,0 -6,1 0,0 -1,0 -1,0 0,0 -1,0 -1,-1l40 -23 14 8 0 0c2,1 2,3 0,4l-31 18z"/>
  <path class="fil2" d="M439 700l0 0c-2,-1 -5,-1 -6,0l-45 26c-2,1 -2,3 0,4l0 0 14 8 51 -30 -14 -8z"/>
  <polygon class="fil2" points="453,708 402,738 419,748 470,718 "/>
  <path class="fil2" d="M484 726l0 0 -14 -8 -51 30 14 8 0 0c2,1 5,1 6,0l45 -26c2,-1 2,-3 0,-4z"/>
  <polygon class="fil2" points="476,728 486,728 486,721 476,721 "/>
  <polygon class="fil2" points="387,728 396,728 396,721 387,721 "/>
  <path class="fil4" d="M439 694l45 25 0 1c2,1 2,2 0,3l-45 26c-1,1 -4,1 -6,0l0 0 -45 -26 0 0c-2,-1 -2,-3 0,-4l45 -25c1,-1 4,-2 6,-1l0 1z"/>
  <polygon class="fil5" points="401,719 409,721 415,718 413,722 421,725 412,725 411,730 407,726 399,727 405,723 "/>
  <polygon class="fil5" points="414,708 416,709 418,709 417,710 418,711 416,711 414,712 414,711 411,710 414,710 "/>
  <polygon class="fil5" points="434,720 436,721 439,721 437,722 439,723 436,723 435,724 435,723 432,722 434,722 "/>
  <polygon class="fil5" points="427,708 428,709 431,709 428,710 429,712 427,711 425,712 426,710 423,709 426,709 "/>
  <polygon class="fil5" points="433,714 435,714 437,713 437,715 440,715 437,716 436,717 435,716 432,716 434,715 "/>
 </g>
 <g id="flag_eng" visibility="hidden">
  <metadata id="CorelCorpID_1Corel-Layer"/>
  <path class="fil2" d="M633 264l0 1c0,2 -2,4 -3,5l-45 26c-2,1 -3,0 -4,-2l0 0 0 -16 52 -30 0 16z"/>
  <polygon class="fil2" points="633,248 581,278 581,258 633,228 "/>
  <path class="fil2" d="M633 212l0 1 0 15 -52 30 0 -16c0,0 0,0 0,0 1,-2 2,-5 4,-6l45 -25c1,-1 3,-1 3,1z"/>
  <polygon class="fil2" points="627,219 632,210 638,214 633,222 "/>
  <polygon class="fil2" points="582,296 587,288 593,291 589,300 "/>
  <path class="fil7" d="M639 268l0 -52 0 0c0,-2 -2,-3 -3,-2l-45 26c-2,1 -3,3 -3,5 0,1 0,1 0,1l0 52 0 0c0,2 1,3 3,1l45 -25c2,-1 3,-4 3,-6l0 0z"/>
  <polygon class="fil6" points="619,284 619,224 608,230 608,290 "/>
  <polygon class="fil6" points="639,248 639,236 588,266 588,278 "/>
  <polygon class="fil4" points="616,285 616,225 611,229 611,288 "/>
  <polygon class="fil4" points="639,245 639,239 588,269 588,275 "/>
  <polygon class="fil6" points="608,267 608,266 593,275 588,283 588,298 588,298 "/>
  <polygon class="fil4" points="602,270 597,272 588,286 588,291 "/>
  <polygon class="fil6" points="639,231 639,216 639,216 619,246 619,248 634,239 "/>
  <polygon class="fil4" points="639,227 639,223 625,244 630,241 "/>
  <path class="fil6" d="M608 254l0 -2 -20 -7c0,1 0,1 0,1l0 15 5 1 15 -8z"/>
  <polygon class="fil4" points="606,255 588,249 588,253 601,258 "/>
  <polygon class="fil6" points="639,268 619,261 619,260 621,259 625,256 634,251 634,251 639,253 639,265 "/>
  <polygon class="fil4" points="639,265 639,260 625,256 625,256 621,259 621,259 "/>
 </g>
 <g id="flag_fr" visibility="hidden">
  <metadata id="CorelCorpID_2Corel-Layer"/>
  <path class="fil2" d="M429 381l0 0c0,3 -2,5 -4,6l-44 26c-2,1 -4,0 -4,-2l0 0 0 -16 52 -30 0 16z"/>
  <polygon class="fil2" points="429,365 377,395 377,375 429,345 "/>
  <path class="fil2" d="M429 329l0 1 0 15 -52 30 0 -16c0,0 0,0 0,0 0,-2 2,-5 4,-6l44 -25c2,-1 3,-1 4,1z"/>
  <polygon class="fil2" points="423,336 428,327 434,331 429,339 "/>
  <polygon class="fil2" points="378,413 383,405 389,408 384,417 "/>
  <path class="fil7" d="M400 350l-13 7c-1,1 -3,4 -3,6 0,0 0,0 0,0l0 52 0 0c0,2 2,3 3,2l13 -7 0 0 0 -60 0 0z"/>
  <polygon class="fil6" points="420,338 420,398 420,398 400,410 400,410 400,350 400,350 420,339 "/>
  <path class="fil4" d="M420 339l0 59 0 0 12 -7c2,-1 3,-4 3,-6l0 0 0 -52 0 0c0,-2 -1,-3 -3,-2l-12 7 0 1z"/>
 </g>
 <g id="man" visibility="hidden">
  <metadata id="CorelCorpID_3Corel-Layer"/>
  <path class="fil10" d="M498 603c-4,0 -6,6 -6,11 -1,4 -4,9 -3,15 0,6 3,18 9,21 6,3 11,1 12,-2 1,-3 -2,-13 -3,-16 -1,-3 -1,-7 -3,-13 -2,-7 -1,-16 -6,-16z"/>
  <path class="fil11" d="M499 601c-5,0 -7,7 -7,11 -1,4 -3,10 -3,16 0,6 3,18 10,21 5,2 11,0 11,-3 1,-2 -2,-12 -3,-15 -1,-3 -1,-7 -3,-13 -2,-7 -1,-16 -5,-17z"/>
  <path class="fil12" d="M492 641c7,-3 13,-3 17,-2 1,3 2,6 1,7 0,3 -6,5 -11,3 -3,-1 -5,-4 -7,-8z"/>
  <path class="fil13" d="M547 591l2 0c-2,-2 -5,-3 -8,-2 -4,0 -4,7 -5,8 -1,2 -5,11 0,14 4,2 8,1 11,1l0 -21z"/>
  <path class="fil10" d="M569 608c-2,-1 -3,-2 -5,-3l-31 0c1,2 1,3 3,4 5,3 9,1 12,1 3,1 12,6 19,7 6,2 12,1 12,-2 0,-3 -7,-6 -10,-7z"/>
  <path class="fil11" d="M541 587c-4,0 -4,7 -5,8 -1,2 -5,11 0,14 5,2 10,0 12,1 3,0 12,5 19,6 6,2 12,1 12,-2 0,-3 -7,-5 -10,-7 -2,0 -7,-4 -11,-7 -3,-3 -7,-5 -7,-6 -4,-4 -4,-8 -10,-7z"/>
  <path class="fil10" d="M521 439l10 98c1,7 7,11 13,11 6,-1 11,-6 11,-11l7 -99c1,-12 -8,-21 -19,-22 -12,-1 -21,8 -22,19 0,1 0,2 0,4z"/>
  <path class="fil10" d="M547 527c-8,-4 -19,15 -17,29 2,14 2,37 3,43 1,6 18,4 18,-2 1,-22 8,-66 -4,-70z"/>
  <path class="fil10" d="M493 433l-3 109c0,7 5,12 12,13 5,0 10,-4 12,-10l20 -107c2,-11 -5,-22 -16,-24 -12,-2 -22,5 -24,16 -1,1 -1,2 -1,3z"/>
  <path class="fil10" d="M492 541c-5,6 -6,13 -6,23 -1,8 0,30 4,50 1,7 14,7 14,2 1,-5 10,-66 8,-73 -4,-10 -14,-9 -20,-2z"/>
  <path class="fil14" d="M564 616c1,-4 5,-7 7,-8 4,2 8,4 8,6 0,3 -6,4 -12,2 -1,0 -2,0 -3,0z"/>
  <path class="fil11" d="M492 618c-9,-54 0,-72 1,-73 0,-2 1,-24 1,-50 1,-28 3,-36 3,-36l0 0c0,0 -1,8 -2,36 -1,26 -1,50 -1,50l-1 0c0,0 -9,17 0,73l-1 0z"/>
  <path class="fil15" d="M533 268c0,0 4,4 4,8 1,4 -6,8 -6,8l-4 -15 6 -1z"/>
  <path class="fil16" d="M534 340l29 55c2,5 9,7 14,4 5,-2 7,-8 5,-13l-25 -57c-3,-6 -10,-9 -17,-6 -6,3 -9,10 -6,16 0,1 0,1 0,1z"/>
  <path class="fil10" d="M496 432c-1,18 0,36 18,36 19,1 47,-16 47,-34 1,-18 -13,-34 -32,-34 -18,-1 -33,14 -33,32z"/>
  <path class="fil6" d="M494 447c-3,-6 4,-24 2,-30 -3,-5 -19,-55 -19,-68 0,-14 14,-23 34,-29 24,-7 38,2 42,8 9,11 1,77 1,77 0,0 8,21 8,30 0,7 -5,12 -26,15 -21,3 -36,5 -42,-3z"/>
  <path class="fil17" d="M543 437c0,0 0,-2 0,-4 0,-1 0,-3 1,-5l0 -1c0,-2 0,-4 0,-6 0,-3 0,-5 -1,-8 0,-2 0,-3 0,-5l0 -4 -1 -5c0,-1 0,-3 0,-5l-1 -5 -1 -5c-1,-2 -1,-5 -2,-9 -1,-3 -1,-5 -2,-8l0 -2c-1,-1 -1,-2 -1,-3 -1,-2 -1,-4 -2,-5 -1,-3 -2,-6 -3,-8 -1,-5 -3,-9 -4,-11l-1 -3 -3 1 -2 1 0 3c1,2 2,7 3,11 1,2 2,5 2,8 1,1 1,3 1,5 1,1 1,2 1,3 0,2 0,3 1,4 0,2 0,4 1,6 0,1 0,2 0,3 1,2 1,4 1,6l1 5 0 5 1 4 1 5 0 4c0,2 0,3 0,5 0,2 1,5 1,7l0 7c0,2 0,4 0,5 0,2 0,3 0,4l4 5 5 -5z"/>
  <path class="fil18" d="M534 448c13,0 23,-6 28,-12 -3,7 -13,16 -29,16 -7,1 -12,0 -17,0l0 0c-11,-2 -18,-5 -21,-10 0,0 0,-2 0,-3 5,7 20,10 39,9z"/>
  <path class="fil19" d="M517 334c1,-3 2,-6 3,-8 -13,-3 -16,-10 -16,-10 0,0 -1,7 0,13 -1,-2 -1,-4 -1,-6 0,0 0,0 0,0 0,0 0,0 0,0l0 0c2,-14 2,-14 -2,-27l0 0c0,-2 0,-3 0,-4 0,-7 6,-12 13,-12 0,0 0,0 1,0 7,0 12,6 11,13 0,1 0,1 0,1l0 0c-1,12 -1,14 1,23 0,1 -2,7 -7,9 0,0 3,3 5,5 -2,2 -5,3 -8,3z"/>
  <path class="fil20" d="M514 340c-3,0 -8,-6 -9,-10 0,-1 -1,-1 -1,-1 2,3 6,4 11,5 1,0 1,0 2,0 0,0 0,0 0,0 -1,3 -1,5 -2,6 0,0 -1,0 -1,0z"/>
  <path class="fil21" d="M517 334c-1,0 -1,0 -2,0 -5,-1 -9,-2 -11,-5 -1,-6 0,-13 0,-13 0,0 3,7 16,10 -1,2 -2,5 -3,8 0,0 0,0 0,0z"/>
  <path class="fil22" d="M528 318c0,0 0,0 0,0 -1,0 -1,0 -1,0 0,-1 0,-1 0,-1 0,0 0,-1 0,-1 0,0 1,1 1,2z"/>
  <path class="fil20" d="M530 336c-1,0 -1,0 -1,0 0,-1 -2,-2 -4,-5 2,-1 3,-3 3,-6 1,-2 0,-3 0,-4l0 0c0,-1 0,-2 -1,-3 0,0 0,0 1,0 0,0 0,0 0,0 2,1 3,4 4,8 0,5 -2,10 -2,10z"/>
  <path class="fil23" d="M525 331c-2,-2 -5,-5 -5,-5 5,-2 7,-8 7,-9 0,0 0,0 0,1 1,1 1,2 1,3l0 0c0,1 1,2 0,4 0,3 -1,5 -3,6z"/>
  <path class="fil17" d="M526 325c1,1 0,7 -1,11 0,4 -4,3 -6,2 -3,-3 -7,-11 -6,-12 1,-1 12,-2 13,-1z"/>
  <path class="fil6" d="M504 314c0,0 3,8 16,10 -4,6 -3,14 -5,14 -4,1 -9,-5 -10,-10 -2,-6 -1,-14 -1,-14z"/>
  <path class="fil6" d="M520 324c0,0 8,9 9,10 1,1 4,-4 3,-10 -1,-5 -5,-9 -5,-9 0,0 -1,8 -7,9z"/>
  <path class="fil16" d="M504 319c0,0 34,80 35,95 0,24 -14,53 -16,54 -7,3 -40,-9 -38,-17 2,-7 10,-29 10,-36 0,-6 -25,-69 -19,-75 7,-9 28,-21 28,-21z"/>
  <path class="fil24" d="M494 413c1,1 1,2 1,2 0,7 -8,29 -10,36 0,2 1,4 4,6 2,-8 9,-29 10,-36 0,-1 -1,-4 -3,-8l-2 0z"/>
  <path class="fil16" d="M528 316c0,0 17,29 11,98 -2,16 9,47 13,46 11,-3 16,-11 15,-17 -1,-9 -11,-27 -11,-36 1,-8 9,-75 -3,-83 -12,-7 -25,-8 -25,-8z"/>
  <path class="fil25" d="M530 367l1 0 5 -1c0,0 1,0 0,-1 0,0 0,0 0,0l-6 1c0,0 0,1 0,1 0,0 0,0 0,0z"/>
  <path class="fil24" d="M507 326c4,6 23,40 32,88 0,0 -31,-64 -38,-71l7 -5 -10 -3c0,0 -1,-11 0,-13l6 -12c0,0 -1,9 3,16z"/>
  <path class="fil24" d="M539 414c10,-42 5,-79 5,-79l-9 -2 8 -4 -18 -20c0,0 9,24 13,55 2,16 2,39 1,50z"/>
  <path class="fil26" d="M506 301c0,0 2,6 4,8 3,2 13,7 16,8 3,0 5,-1 6,-3 1,-1 2,-6 3,-8 0,-2 2,-5 2,-8 0,-3 -1,-8 -1,-9 1,-2 1,-2 1,-5 0,-3 -2,-11 -3,-13 -1,-3 -12,-12 -22,-9 -11,3 -16,13 -15,17 0,4 1,9 1,9 0,0 -2,1 -1,3 0,2 0,5 2,7 1,1 4,3 5,4 1,0 2,-1 2,-1z"/>
  <path class="fil27" d="M504 301c0,0 0,1 0,1l0 0 0 0c0,0 0,-1 0,-1z"/>
  <path class="fil27" d="M536 289c1,-2 1,-2 1,-5 0,-3 -2,-11 -3,-13 -1,-3 -10,-10 -19,-10 8,1 16,7 17,10 1,2 3,10 3,13 0,3 0,3 -1,5 0,1 1,6 1,9 0,3 -2,6 -3,8 0,2 -1,7 -2,8 -1,2 -2,2 -4,3l0 0c3,0 5,-1 6,-3 1,-1 2,-6 3,-8 0,-2 2,-5 2,-8 0,-3 -1,-8 -1,-9z"/>
  <path class="fil15" d="M507 296l-1 -7c0,0 2,-1 3,-3 1,-2 -1,-5 -1,-7 1,-1 2,-4 4,-5 2,0 11,3 15,2 5,-1 9,-4 10,-7 2,-3 3,-8 -2,-10 -4,-2 -9,2 -10,2 0,0 -9,-3 -18,1 -10,4 -12,12 -11,18 1,6 2,8 2,8 0,0 4,1 5,3 2,2 2,5 2,5l2 0z"/>
  <path class="fil28" d="M529 287c0,0 5,11 4,12 -1,1 -4,1 -4,1l0 -13z"/>
  <path class="fil29" d="M522 290c0,1 1,2 1,2 1,0 2,-1 2,-1 0,-1 -1,-2 -1,-2 -1,0 -2,1 -2,1z"/>
  <path class="fil29" d="M532 289c0,1 1,2 2,2 0,0 1,-1 1,-2 0,0 0,-1 -1,-1 -1,0 -2,0 -2,1z"/>
  <path class="fil15" d="M520 288c0,0 0,0 0,0 2,-2 5,-1 5,-1 1,0 1,0 1,-1 0,0 0,0 0,-1 0,0 -4,-1 -7,2 0,0 0,1 0,1 0,0 0,0 1,0z"/>
  <path class="fil15" d="M532 286c0,0 0,0 0,0 0,0 2,-2 5,0 0,0 0,0 1,0 0,-1 0,-1 -1,-1 -3,-2 -6,0 -6,0 0,0 0,1 0,1 0,0 0,0 1,0z"/>
  <path class="fil28" d="M532 303c0,0 1,1 1,1 -1,2 -2,3 -3,3 -2,1 -4,0 -4,-2 0,0 0,-1 0,-1l6 -1z"/>
  <path class="fil16" d="M568 399c-7,-6 -2,-17 4,-21 5,-3 31,-25 34,-28 3,-2 11,5 9,9 -3,4 -32,52 -47,40z"/>
  <path class="fil25" d="M608 357c1,1 2,2 4,2l0 0 0 0c1,0 2,0 3,0 0,-1 0,-2 0,-3 0,0 0,0 0,0l0 0c0,-2 -1,-3 -2,-4 -2,-1 -4,-2 -5,-2 0,0 -1,0 -1,0 0,0 -1,0 -1,1 -1,0 -1,1 0,2l0 0c0,1 1,3 2,4z"/>
  <path class="fil16" d="M472 351l7 63c0,6 5,10 11,10 6,-1 10,-6 9,-11l-2 -64c-1,-7 -7,-13 -13,-12 -7,0 -13,6 -12,13 0,0 0,0 0,1z"/>
  <path class="fil30" d="M482 420c-6,-7 2,-16 9,-19 6,-2 37,-16 40,-18 4,-2 10,7 6,10 -3,3 -44,42 -55,27z"/>
  <path class="fil25" d="M538 391c0,1 0,1 -1,2 -1,0 -2,0 -3,0l0 0 0 0c-1,0 -1,-1 -2,-2 0,0 -1,0 -1,-1 -1,-2 -2,-3 -2,-4l0 0c0,-1 0,-2 1,-2l0 0 0 0c0,0 0,-1 0,-1 1,0 1,0 1,0 1,0 1,0 1,0 2,0 3,1 4,3l0 0c1,1 2,3 2,4l0 0c0,0 0,0 0,1z"/>
  <path class="fil31" d="M544 364l-2 5c1,0 5,-1 6,-1 1,-1 4,-1 7,-1 0,0 1,2 -1,2 -2,1 -5,1 -5,1l-6 2 1 3 3 -5 4 0c0,0 -6,12 -7,14 -1,2 -11,6 -11,6l-2 -6 7 -19 6 -1z"/>
  <path class="fil32" d="M550 366l-3 0c0,0 0,0 -1,1 -1,0 -3,-1 -3,-1l-4 0 -1 1c0,0 2,-1 3,0 1,0 3,1 3,2 1,0 0,1 -2,1 -1,-1 -2,-1 -2,-1l-3 2c0,0 0,13 0,15 0,0 0,0 -1,0 0,2 -2,4 -4,5 0,0 -1,0 -1,-1 -1,-2 -2,-3 -2,-4l0 0c0,-1 0,-2 1,-2l0 0 0 0c0,-1 3,-13 4,-14 0,-1 1,-2 1,-2 0,0 1,-3 1,-4 1,-1 7,-2 8,-2 1,0 5,1 7,3 1,0 0,2 -1,1z"/>
  <path class="fil2" d="M577 375l35 -16c2,0 3,-2 4,-4l12 -39c1,-2 -1,-3 -2,-3l-36 16c-1,1 -3,3 -3,4l-13 40c0,1 1,3 3,2z"/>
  <path class="fil32" d="M616 353c0,0 1,0 3,-1 2,-1 3,-2 3,-2 0,0 1,0 2,-1 0,-1 0,-2 0,-2 0,0 2,-1 2,-2 0,0 0,-2 0,-2 0,0 0,-1 0,-2 0,-1 0,-2 -2,-2 0,0 1,-2 1,-3 -1,-1 -4,0 -5,1 -1,0 -3,1 -4,2 0,1 0,1 1,1 0,0 3,-1 5,-1l0 0c-2,1 -10,3 -10,3 -1,0 -1,2 0,1 0,0 -1,1 -1,1 0,0 1,1 1,1 0,0 0,1 1,2 2,0 5,1 5,1l-2 5z"/>
  <path class="fil6" d="M537 448c-1,1 -1,1 -1,2l0 0c0,1 1,1 1,1l4 0c0,0 1,-1 1,-2l0 0c0,-1 -1,-1 -2,-1l-3 0zm4 4l-3 0c-2,0 -3,-1 -3,-2l0 0c0,-1 1,-2 2,-3l3 0c1,0 3,1 3,2l0 0c0,1 -1,2 -2,3z"/>
 </g>
 <g id="phone" visibility="hidden">
  <metadata id="CorelCorpID_4Corel-Layer"/>
  <path class="fil0" d="M596 766c-5,0 -9,-1 -12,-3l-83 -47c0,-1 0,-2 -1,-2 -1,-3 -4,-5 -7,-7 -1,-1 -3,-1 -4,-3 -1,-1 -1,-2 -2,-3 -1,-1 -1,-3 -1,-5l98 57c3,1 7,2 12,2 4,0 8,-1 12,-2l97 -57c-1,2 -1,4 -2,6 -1,3 -2,3 -8,5 0,0 0,0 -1,0 0,0 0,0 -1,0 0,0 0,0 0,0 -2,0 -3,0 -3,1 -1,1 3,1 3,3 -1,1 -5,2 -5,3 -2,1 -1,2 -3,3 -2,2 -10,4 -10,6 0,1 0,1 1,1l-5 3c0,-1 0,-1 0,-2 0,0 0,0 0,0 -5,0 -9,5 -12,7 -4,3 -12,3 -10,7 -1,0 -1,1 -1,1l-40 23c-4,2 -8,3 -12,3zm-133 -72l-155 -90c-2,-3 -2,-6 0,-8 1,-1 1,-1 2,-2l168 97c-2,0 -6,1 -8,1 -2,0 -5,1 -7,2zm260 -8l11 -6c1,-1 1,-1 2,-2 1,1 2,2 2,3 0,0 -1,0 -1,0 -2,0 -3,0 -5,1 -3,2 -6,3 -9,4z"/>
  <path class="fil1" d="M648 740c0,0 0,-1 1,-1 -2,-4 6,-4 10,-7 3,-2 7,-7 12,-7 0,0 0,0 0,0 0,1 0,1 0,2l-23 13zm28 -16c-1,0 -1,0 -1,-1 0,-2 8,-4 10,-6 2,-1 1,-2 3,-3 0,-1 4,-2 5,-3 0,-2 -4,-2 -3,-3 0,-1 1,-1 3,-1 0,0 0,0 0,0 1,0 1,0 1,0 1,0 1,0 1,0 6,-2 7,-2 8,-5 1,-2 1,-4 2,-6l18 -10c3,-1 6,-2 9,-4 2,-1 3,-1 5,-1 0,0 1,0 1,0 2,3 0,7 -4,9l-58 34zm-175 -8l-38 -22c2,-1 5,-2 7,-2 2,0 6,-1 8,-1l8 5c0,2 0,4 1,5 1,1 1,2 2,3 1,2 3,2 4,3 3,2 6,4 7,7 1,0 1,1 1,2zm-193 -112l-10 -6c-6,-3 -7,-8 -2,-12 0,0 1,1 2,1l12 7c-1,1 -1,1 -2,2 -2,2 -2,5 0,8z"/>
  <path class="fil33" d="M734 680l-126 73c-7,3 -18,3 -24,0l-286 -166c-4,-2 -5,-4 -5,-7 0,-3 0,-12 0,-12l131 -67c7,-4 17,-4 24,0l291 159c0,0 0,10 0,13 0,2 -2,5 -5,7z"/>
  <path class="fil2" d="M734 667l-126 73c-7,4 -18,4 -24,0l-286 -165c-7,-4 -7,-10 0,-14l126 -73c7,-4 17,-4 24,0l286 165c6,4 6,10 0,14z"/>
  <polygon class="fil33" points="702,645 569,722 331,584 464,507 "/>
  <path class="fil34" d="M389 527c0,0 -1,0 -1,0l-23 13c0,0 -1,1 -1,1 0,0 1,0 1,0 1,1 2,1 3,0l23 -13c0,0 0,0 0,0 0,-1 0,-1 0,-1 -1,0 -1,0 -2,0z"/>
  <path class="fil33" d="M333 601l17 10c1,1 2,2 2,3l0 0c0,1 -1,2 -2,1l-17 -10c-1,0 -2,-2 -2,-3l0 0c0,-1 1,-1 2,-1z"/>
  <path class="fil34" d="M683 699l-16 9c-2,1 -3,3 -3,5l0 0c0,3 1,3 3,2l16 -8c1,-1 3,-4 3,-6l0 0c0,-2 -2,-3 -3,-2z"/>
  <path class="fil35" d="M332 601c0,0 1,0 1,0l17 10c1,1 2,2 2,3l0 0c0,1 0,1 0,1l2 -1 0 0c0,0 1,-1 1,-1l0 0c0,-1 -1,-3 -2,-3l-17 -10c-1,-1 -1,-1 -2,0l0 0 -2 1z"/>
  <path class="fil33" d="M363 618l17 10c1,1 2,2 2,3l0 0c0,2 -1,2 -2,1l-17 -10c-1,0 -2,-1 -2,-3l0 0c0,-1 1,-1 2,-1z"/>
  <path class="fil35" d="M365 617c0,0 -1,0 -1,0l0 0 -3 1c1,0 1,0 2,0l17 10c1,1 2,2 2,3l0 0c0,1 -1,1 -1,2l3 -2 0 0c0,0 0,0 0,-1l0 0c0,-1 -1,-2 -2,-3l-17 -10z"/>
  <polygon class="fil36" points="569,722 509,687 509,533 702,645 "/>
  <path class="fil37" d="M658 635c-9,-4 -23,-4 -31,1l-75 43 -8 0 0 11 0 0c1,3 3,6 7,9l0 0c10,5 24,5 33,0l76 -44c5,-3 7,-6 7,-9l0 0 0 -11 -9 0z"/>
  <path class="fil38" d="M660 645l-76 44c-9,5 -23,5 -33,0l0 0c-9,-6 -9,-14 0,-19l76 -44c9,-5 24,-5 33,0l0 0c9,5 9,14 0,19z"/>
  <polygon class="fil6" points="567,673 569,674 566,676 575,681 573,683 564,677 561,679 559,678 "/>
  <path class="fil6" d="M576 674l1 -1c0,0 1,0 1,0 0,0 0,0 0,-1 0,0 0,0 0,0 0,0 0,0 -1,-1 0,0 -1,0 -1,0 -1,0 -1,0 -2,1l-1 0 3 2zm2 1l4 2 -3 2 -11 -6 4 -2c1,-1 2,-1 2,-1 1,-1 2,-1 2,-1 1,0 1,0 2,0 1,0 1,1 2,1 0,0 0,0 0,1 1,0 1,0 1,0 0,1 0,1 0,1 0,0 0,1 -1,1 1,0 1,0 1,0 0,0 1,0 1,0l6 1 -2 1c-1,0 -1,0 -2,0l-4 -1c-1,0 -1,0 -1,0 0,0 0,1 -1,1l0 0z"/>
  <path class="fil6" d="M588 669l3 -2 -4 -1c0,0 0,0 -1,0 0,0 0,0 -1,0 0,0 1,0 1,0 0,0 0,0 0,1l2 2zm11 -2l-2 1c0,1 0,1 0,1 -1,0 -1,0 -1,0l-3 -1 -4 2 1 2c1,0 1,0 1,0 0,0 -1,0 -1,0l-2 2 -6 -9 2 -2 15 4z"/>
  <path class="fil6" d="M591 660l0 0 0 0c0,0 1,0 1,0l11 0c0,0 0,0 0,0 0,0 -1,0 -1,0l-6 -4 3 -1 10 6 -1 1c0,0 0,0 0,0 -1,0 -1,0 -1,0l-12 0c1,0 1,0 1,0 0,0 0,0 0,0l6 4 -2 1 -11 -6 2 -1 0 0z"/>
  <path class="fil6" d="M609 652l0 0 -1 0c0,0 0,1 0,1 0,0 0,0 -1,0 0,0 0,0 -1,0 0,0 0,0 0,0 -1,1 -1,1 -1,1 0,0 0,0 0,1 1,0 1,0 1,0 0,0 1,0 1,0 0,0 1,0 1,-1 0,0 1,0 1,0 1,0 1,0 2,0 0,0 0,0 1,0 0,0 1,0 1,0 1,0 1,0 2,0 0,1 0,1 1,1 0,1 0,1 0,1 0,1 0,1 0,2 -1,0 -1,0 -2,1 0,0 0,0 -1,0 0,0 -1,1 -1,1 -1,0 -1,0 -2,0 0,0 0,0 -1,0l0 -1 0 0 0 -1c0,0 0,0 1,0 0,0 0,0 0,0 1,0 1,0 1,0 1,0 1,0 1,0 1,-1 1,-1 1,-1 0,-1 0,-1 0,-1 -1,0 -1,0 -1,0 -1,0 -1,0 -1,0 -1,0 -1,0 -1,0 -1,0 -1,0 -1,0 -1,1 -1,1 -2,1 0,0 -1,0 -1,0 0,0 -1,0 -1,0 -1,0 -1,-1 -2,-1 0,0 -1,0 -1,-1 0,0 0,0 0,-1 0,0 0,0 0,-1 1,0 1,-1 2,-1 0,0 0,0 1,0 0,-1 0,-1 1,-1 0,0 1,0 1,0 0,0 1,0 1,0l1 1z"/>
  <polygon class="fil6" points="620,653 624,651 626,652 619,656 608,649 611,648 "/>
  <path class="fil6" d="M626 647l3 -2 -4 -1c0,0 -1,0 -1,0 0,0 -1,0 -1,0 0,0 0,0 1,0 0,0 0,1 0,1l2 2zm11 -2l-2 2c0,0 0,0 -1,0 0,0 0,0 0,0l-3 -1 -4 2 1 2c0,0 0,0 0,0 0,0 0,1 0,1l-2 1 -7 -9 3 -1 15 3z"/>
  <polygon class="fil6" points="634,635 636,636 633,638 641,643 639,644 630,639 627,641 625,640 "/>
  <polygon class="fil6" points="642,630 644,631 639,634 642,635 645,633 647,635 644,636 646,638 651,635 652,637 646,641 635,634 "/>
 </g>
 <g id="map">
  <metadata id="CorelCorpID_5Corel-Layer"/>
  <path class="fil39" d="M860 623c-2,1 -6,1 -9,2 -3,0 -6,2 -9,3 -3,-5 -4,1 -6,2 -3,1 -5,0 -8,2 -3,2 0,3 -5,5 0,0 -2,-1 -3,-1 -1,1 -1,2 -2,2 -2,0 -4,2 -6,2 -7,1 -10,4 -15,6 -5,3 -11,3 -15,6 2,2 7,6 1,8 0,-1 -5,-6 -7,-7 -2,0 -6,0 -7,1 -1,3 4,1 4,3 -1,3 -8,4 -11,6 -5,2 -2,4 -4,7 -2,2 0,4 -2,7 0,0 -3,1 -4,1 -1,1 1,2 -2,3 0,0 -1,-1 -1,-1 -4,1 -4,1 -8,1 -4,0 -5,-1 -9,1 -6,3 -8,3 -16,5 -10,2 -11,10 -13,15 -1,3 -2,3 -8,5 0,0 -1,0 -2,0 -1,0 -3,0 -3,1 -1,1 3,1 3,3 -1,1 -5,2 -5,3 -2,1 -1,2 -3,3 -2,2 -10,4 -10,6 0,3 9,2 4,6 -6,3 -8,-1 -8,-4 -5,0 -9,5 -12,7 -4,3 -12,3 -10,7 -6,6 -4,13 -4,19l230 -133c-1,0 -1,0 -2,-1 -3,-1 -5,-1 -8,-1 -1,0 -3,1 -5,0zm-288 164c-5,0 -9,2 -14,0 -6,-1 -9,-4 -6,2 0,0 1,3 2,4 2,1 2,1 3,0 1,0 1,0 2,0 4,1 10,2 11,3 -2,1 -5,2 -7,4 1,1 2,3 4,3l28 -16c-7,-1 -15,0 -23,0zm158 -286c0,0 1,1 1,0 1,1 2,1 3,1 1,0 0,-1 -1,-1 0,0 -1,0 -1,0 0,0 0,0 1,-1 1,0 -1,0 -1,0 -1,0 -1,0 -1,0l0 0c0,0 -1,1 -1,1zm-3 3c0,0 -2,1 0,1 1,0 2,0 2,0 2,0 1,-1 1,-1 -1,0 -2,0 -3,0zm-522 119c-1,1 -5,2 -5,3 1,1 2,1 3,0 0,0 0,0 1,0 1,0 2,1 3,0 0,0 4,-3 4,-3 0,-1 -6,0 -6,0zm-41 1c1,0 3,0 3,0 1,-1 0,-1 -1,-1 1,0 1,-1 2,-1 -1,0 -3,0 -3,-1 1,0 1,0 2,1 2,-1 0,-2 1,-3 0,0 2,-1 2,-2 -1,0 -2,0 -3,1 -1,-1 -2,0 -3,1 1,-2 0,-2 -2,-2 0,0 -1,0 -1,0 -1,0 -2,-1 -3,0 -1,1 1,1 2,1 -3,1 -6,1 -9,1 -2,0 -8,1 -8,3 1,0 2,-1 3,-1 1,1 -3,1 -3,2 -1,1 0,1 1,0 1,0 2,0 2,0 0,0 -1,0 -1,1 0,0 0,0 0,0 0,0 0,1 0,1 0,0 -1,0 -1,0 0,0 -1,1 -1,1 2,1 4,-1 6,-1 0,1 -4,1 -4,2 0,1 1,0 2,0 1,0 2,0 3,0 -1,0 -1,0 -1,1 1,0 4,-2 5,-2 1,-1 1,-3 3,-3 0,1 -1,1 -1,2 1,0 1,-1 2,-1 0,1 -4,2 -5,3 1,0 2,0 3,0 0,0 0,0 -1,0 2,0 3,0 5,-1 -1,1 -1,1 -1,2 2,0 4,-2 5,-3 0,0 0,0 -1,0 1,0 2,0 2,0 1,0 1,0 2,0 -1,0 -2,-1 -2,-1 -1,0 -1,0 0,0 0,0 0,0 -1,0zm-12 22c-1,1 -2,2 0,2 2,-1 2,-3 0,-2zm-6 -9c-1,1 -3,3 0,2 2,0 1,-3 0,-2zm3 6c0,-1 -3,-1 -3,0 -2,2 1,1 3,1 -1,0 -1,1 -1,1 2,0 4,-2 1,-2zm7 -5l-2 1c-1,1 0,2 1,1 0,0 -1,1 -1,1 0,0 1,0 1,0 0,1 -1,0 -2,0 0,0 -1,0 -1,0 -2,1 -1,1 1,1 -1,1 0,1 0,1 0,0 0,0 1,-1 -1,1 -3,2 -2,3 0,-1 1,-1 1,-1 0,0 0,0 0,0 2,0 4,-3 5,-3 0,1 0,1 0,2l0 0c0,0 1,0 1,-1 0,1 1,1 1,1 1,0 0,-1 1,-1 1,0 2,0 2,-1 4,-1 0,-1 -1,-1 -1,-1 1,-1 1,-1 0,-1 -2,-1 -2,-1 -2,-1 -5,-2 -5,0zm11 -2c-1,1 -2,2 -1,3 1,1 5,0 6,0 6,-3 -6,-5 -5,-3zm7 -7c0,0 -1,0 -2,0 -1,0 -1,0 -2,0 -2,1 -2,2 -4,2 -2,1 -9,2 -8,4 2,2 8,-2 9,-2 5,-2 5,2 8,2 3,1 2,0 3,-1 2,-1 3,0 4,-1 0,0 0,-1 0,-1 1,-1 1,-1 1,0 0,0 0,0 1,0 1,0 2,-1 2,-2 1,0 2,0 2,-1 0,-1 3,0 4,-1 0,-1 1,-2 -1,-2 0,-1 2,0 3,0 1,0 1,0 2,-1 2,-1 5,-3 1,-3 1,-1 1,-2 -2,-2 -2,1 -4,1 -6,2 -1,0 -7,5 -4,5 -2,1 -4,1 -5,2 -2,1 -4,2 -6,1 1,0 1,-1 2,-1 0,0 -1,0 -1,0 0,0 0,0 -1,0zm-8 -2c0,1 2,1 3,1 1,-1 1,-1 1,-2 -2,0 -3,1 -4,1zm-5 2c-1,1 -7,4 -4,4 1,0 7,-3 4,-4zm-6 0c0,1 -10,2 -7,4 0,0 1,0 1,-1 0,1 0,1 0,1 2,0 2,-1 4,-1 0,0 -1,1 -1,1 3,0 6,-4 3,-4zm-14 0c-2,0 -3,2 -1,2 1,0 2,0 2,-1 1,-1 0,-1 -1,-1zm-2 9c1,1 -5,1 -2,2 2,1 4,-1 4,-2 2,0 3,-1 5,-1 2,-1 5,-1 4,-2 -1,0 -3,0 -4,0 0,0 0,-1 -1,-2 -1,1 -1,1 -2,2 -1,-1 -2,-1 -3,0 -1,1 0,1 -3,1 -2,0 -6,1 -4,3 1,0 1,-1 2,-1 0,0 0,1 0,1 1,-1 1,-2 2,-2 0,1 0,1 0,1 1,-1 2,-1 2,0zm90 -6c-3,1 -1,5 3,3 5,-2 -3,-5 -3,-3zm4 -1c0,1 3,1 4,0 1,-1 -4,-1 -4,0zm7 2c-1,1 -1,1 1,2 0,0 1,0 1,0 1,0 1,0 1,1 -1,1 -6,2 -6,3 -1,1 0,2 1,2 1,1 3,-1 3,-1 1,-1 4,-4 5,-3 1,0 1,0 2,0 1,0 1,0 1,0 1,0 1,0 1,0 2,0 4,-1 3,1 0,0 1,0 1,-1 1,0 1,0 2,0 1,0 2,0 3,-1 1,0 2,0 3,0 2,0 3,-1 4,-1 0,0 2,0 3,-1 3,-1 -3,-1 -4,0 -2,0 -5,1 -6,0 1,-1 2,-1 1,-2 2,0 7,0 9,-1 -1,-1 -2,-1 -3,-1 0,0 1,-1 1,-1 0,0 -1,-1 -2,-1 -1,0 -1,0 -2,0 -1,0 -1,0 -1,0 -2,0 -2,0 -3,0 -1,0 -1,1 -2,1 -1,0 -2,0 -3,0 -1,0 -1,0 -2,0 -1,-1 2,-1 2,-1 0,-1 -1,-1 -2,-1 -1,-2 5,-1 6,-3 1,1 1,2 2,2 2,0 4,0 3,-1 0,0 -1,0 -1,-1 0,-1 1,-1 1,-1 1,-1 0,-1 -1,-1 0,-1 0,-2 -2,-2 -2,0 -3,1 -4,2 0,-1 0,-1 0,-2 -1,0 -2,1 -3,1 -1,0 -1,0 -2,0 -1,0 -1,0 -2,0 -2,1 -5,2 -7,3 2,-1 -1,-1 -1,-2 0,-1 2,0 2,-1 1,-1 -1,-1 -3,0 0,0 -1,1 -1,0 0,0 1,-2 -1,-1 -2,0 -1,2 -3,1 1,-1 0,-1 -2,-1 -2,0 -4,0 -4,1 -1,0 -1,3 -3,2 0,-1 2,-1 1,-2 -1,0 -2,0 -3,0 -1,0 -1,1 -2,2 -1,0 -1,0 -3,0 -2,0 -4,0 -7,0 -2,1 -2,2 -3,3 0,1 -1,1 -2,2 0,0 0,1 -1,1 0,0 0,-1 -1,-1 0,-1 -1,-1 -1,-1 -1,0 -1,0 -1,0 -2,0 -4,-1 -6,0 -2,0 -1,3 -2,3 -1,1 -1,0 -2,0 0,0 -1,0 -1,0 -1,0 -2,1 -2,2 -3,0 -3,6 -1,7 2,2 4,1 6,0 1,0 3,-1 4,0 -1,1 -2,1 -3,2 1,1 7,-1 7,-2 4,1 7,-3 11,-4 0,0 0,0 0,0 1,0 2,0 2,-1 0,0 -1,0 -1,0 1,-2 5,-1 1,-3 1,0 1,0 2,0 1,0 2,0 2,-1 0,0 1,1 1,1 2,0 1,-1 2,-1 1,0 3,0 4,0 0,1 -2,3 1,2 1,0 0,-2 2,-2 0,1 2,0 4,0 1,0 2,0 3,0 1,0 3,0 3,1 0,0 -1,1 0,2zm2 14c0,1 2,3 3,2 0,-1 -3,-3 -3,-2zm-7 2c-1,1 -3,5 1,3 1,-1 1,-2 1,-2 0,-1 0,-2 -2,-1zm72 2c-2,1 0,1 2,1 1,0 3,0 4,-1 2,-2 -4,-1 -6,0zm-84 -3c-2,0 0,-2 -1,-2 -2,0 -2,2 -2,2 1,1 2,1 2,2 1,1 1,1 1,2 1,2 1,1 2,1 1,-1 0,-1 1,-1 1,-1 1,0 1,0 1,0 1,0 1,0 3,0 2,-3 2,-4 1,0 3,0 4,0 1,-1 2,-2 3,-2 0,-1 -1,-1 -2,-1 -1,1 -1,1 -2,2 -2,-1 -3,-1 -5,-1 -2,0 -4,1 -5,1 0,0 0,0 0,1zm-39 4c-2,0 0,1 0,2 0,1 -1,1 0,2 1,0 1,0 2,-1 1,0 2,0 3,0 1,-1 3,-2 3,-2 1,-3 -5,-2 -8,-1zm-1 -8c0,0 0,-1 0,-2 -1,-1 -2,0 -1,-1 1,-1 4,-4 1,-5 -2,-1 -5,1 -6,2 -1,0 -6,2 -2,3 -4,1 4,3 5,4 0,1 0,1 0,1 0,0 1,0 1,0 1,0 1,0 2,0 1,1 -3,1 -1,3 1,0 1,0 2,0 1,1 1,1 2,1 1,1 3,0 4,0 2,-1 6,-4 4,-5 -1,-1 -2,-1 -3,-1 -1,0 -1,1 -2,0 -3,0 -4,-1 -6,0zm-18 2c-1,1 -2,2 -1,2 1,0 4,-1 4,0 0,1 -3,1 -3,1 -2,1 -1,2 0,2 1,0 2,0 3,0 0,-1 1,-1 2,-1 2,0 6,2 7,0 0,-1 -1,-1 -1,-1 1,-1 1,-1 2,-1 0,-1 1,-2 -1,-2 1,-2 -1,-2 -2,-2 0,1 -3,1 -3,2 -1,-1 2,-3 -1,-2 2,-2 -1,-3 -3,-1 0,1 0,1 -1,2 -1,0 -3,0 -2,1zm-26 -3c0,0 0,-1 -1,-1 1,2 3,2 4,1 1,0 3,0 1,-1 0,0 -1,0 -2,0 -1,1 -1,1 -2,1zm-18 8c-1,1 0,2 2,1 1,0 1,0 1,-1 -1,0 -2,-1 -3,0zm2 -4c-1,1 -2,1 -1,2 1,-1 1,-1 2,-1 0,-1 1,-1 2,-1 0,-1 3,-2 3,-2 1,-2 -2,-1 -3,-1 -2,1 -2,3 -3,3zm6 -2c-1,1 -6,5 -4,6 3,1 7,-3 7,-4 -1,0 -1,0 -2,0 0,0 -1,0 -1,0 0,0 2,-1 0,-2zm-2 8c-2,0 0,2 2,1 2,-1 0,-1 -2,-1zm-4 6c0,1 -2,3 0,3 1,-1 2,-2 0,-3zm24 -8c1,-1 3,-2 1,-3 -1,-1 -2,-2 -3,-1 -1,1 1,1 -1,2 0,0 -1,0 -2,0 -1,0 -1,0 -2,0 -1,0 -3,-1 -3,-1 -2,0 -2,2 -2,2 1,1 0,1 1,1 0,0 2,0 2,0 1,0 1,0 1,1 1,-1 4,-1 2,0 -1,1 -4,2 -5,1 -1,1 -1,1 -2,1 0,0 -1,0 -1,0 -2,0 -2,0 -3,1 -2,0 -3,0 -4,0 -1,1 0,2 1,1 0,1 -3,3 0,3 -1,0 -1,0 -1,1 2,0 2,-1 3,-2 0,1 -2,2 -2,3 1,1 3,-1 3,-1 1,0 2,0 2,0 1,0 0,-1 0,-1 1,0 2,0 2,0 1,-1 -1,-2 0,-3 2,1 3,0 5,-1 0,2 -3,2 -3,4 0,2 3,-1 4,-2 1,-1 2,-2 3,-3 1,-1 2,-1 3,-1 1,-1 0,-1 1,-2zm-28 10c0,0 0,0 1,0 0,0 1,0 1,0 1,-1 0,-1 -1,-1 0,-1 -1,-2 1,-2 0,1 2,1 3,0 1,-1 0,-3 -1,-3 1,-2 -5,-1 -3,0 -3,2 -4,2 -4,5 0,0 0,1 0,2 -1,0 -2,1 -2,2 0,1 3,1 3,0 1,-1 -1,-2 1,-2 1,0 1,0 1,0 1,1 2,1 2,0 0,-1 -3,-1 -2,-2l0 1zm35 -9c0,2 6,2 7,0 1,-2 -5,-1 -7,0zm1 13c2,3 -3,4 -5,5 -5,2 0,2 3,2 2,-1 2,-1 4,-2 0,0 1,0 1,1 1,0 1,0 2,0 1,-1 3,-3 4,-4 2,-1 3,-2 4,-3 1,-2 2,-1 4,-2 2,0 5,-2 6,-2 1,-1 2,-1 1,-2 0,-1 -1,0 -1,0 0,0 -1,0 -1,0 0,0 0,0 0,0 -1,1 -2,1 -2,0 0,0 2,-2 2,-2 1,0 4,-1 0,-1 -1,0 -3,0 -4,1 -3,1 -5,2 -6,1 -4,-2 -7,-3 -12,-3 0,0 0,1 0,1 0,0 -1,0 -2,0 1,2 7,2 6,3 -2,0 -3,-1 -5,-1 -2,0 -3,1 -5,1 1,1 2,1 3,1 -1,0 -1,1 -2,1 1,0 0,1 0,1 -1,-1 -3,-1 -4,0 -2,1 -1,2 -3,3 -2,-4 -9,3 -5,4l0 0c0,1 -1,2 0,3 1,0 2,-1 2,-1 1,1 2,-1 3,-1 2,1 -1,1 1,3 2,-3 6,-6 11,-7zm-19 8c0,-1 -1,-1 -2,-2 1,0 1,-1 2,-1 -5,-2 3,-4 1,-7 -1,-1 -4,0 -5,0 -1,1 -1,2 -2,2 -1,0 -1,0 -2,0 0,0 -1,0 -1,0 -2,1 -4,2 -6,3 -2,1 -4,1 -2,3 0,0 2,0 2,1 1,0 0,1 1,1 0,1 1,1 1,2 1,0 0,1 0,1 2,2 4,1 6,0 0,0 1,0 2,0 1,0 3,0 3,-1 -1,-1 1,-1 2,-2zm36 -46c-2,0 2,1 2,1 1,0 0,-1 1,-1 0,0 0,0 1,0 0,0 1,0 1,0 1,-1 3,-2 4,-3 2,-1 1,-1 3,-2 1,0 5,-1 4,-2 0,0 1,0 1,0 1,0 2,1 3,0 0,-1 1,-2 1,-2 1,-1 2,-1 2,-2 -1,-2 -4,0 -4,1 -2,-1 0,-4 -3,-4 -1,0 3,-2 4,-2 1,-2 -1,-2 -3,-1 0,-1 1,-2 2,-3 -1,-1 -3,0 -4,1 1,-1 2,-1 2,-2 -1,-1 -2,1 -3,1 0,-1 6,-3 4,-4 1,-1 2,-1 2,-1 1,-1 2,-2 1,-3 -1,1 -3,2 -3,1 0,-1 2,-1 3,-2 1,-1 1,-2 1,-3 0,-2 5,-5 2,-6 -3,1 -3,4 -6,5 1,0 3,-1 1,-2 0,0 -1,0 -1,0 2,-1 4,-2 6,-4 2,-1 2,-3 3,-4 -7,-1 -10,3 -13,6 -1,-1 0,-2 0,-3 -1,0 -2,0 -3,1 -2,0 -4,1 -5,3 -1,0 -2,1 -3,1 -1,1 0,1 0,2 -1,1 -4,1 -6,2 -3,1 -4,3 0,2 0,1 -3,1 -5,2 -1,1 -2,2 -3,3 -1,1 -4,2 -1,3 1,0 2,0 3,-1 1,0 2,0 3,0 0,1 -6,2 -7,3 -1,0 -4,0 -5,0 -1,0 -2,2 1,2 -1,0 -2,0 -2,1 0,0 1,0 2,0 -1,1 -3,1 -4,2 -1,0 0,1 -1,1 0,1 -1,1 -2,2 -1,0 -3,2 0,2 2,-1 3,-2 4,-3 1,1 0,1 0,2 1,1 2,0 2,-1 2,-1 3,-1 4,-3 1,1 1,0 2,-1 0,1 -5,5 -3,5 3,0 3,-4 5,-5 1,1 -1,2 0,3 1,-1 4,-2 4,-2 1,-1 -1,-3 1,-3 0,0 1,0 1,0 0,0 0,0 0,1 2,-1 4,-2 4,-3 1,-2 0,-3 2,-4 1,1 0,2 2,2 1,2 -6,3 -7,5 0,1 1,1 2,1 1,-1 1,-1 2,0 1,0 -1,0 -2,0 -1,0 -1,0 -1,0 -3,0 -8,2 -7,4 0,2 6,0 8,0 2,0 3,0 4,0 -1,1 -3,1 -4,2 -1,1 -2,2 -2,3 0,3 5,-2 6,-3 0,2 0,4 3,2 1,0 2,-1 3,-1 1,1 -1,2 -2,2 -1,1 -2,1 -3,1 -1,0 -2,0 -3,0 -1,0 -3,1 -3,2 1,1 3,0 4,0 0,0 -1,2 -2,3zm-48 106c0,0 1,-1 0,-1 0,0 -2,0 -2,0 -2,1 -1,1 -1,2 -1,1 -1,1 0,2 1,0 1,0 2,0 0,-1 0,-1 0,-2 1,0 2,0 1,-1zm-2 -1c1,0 0,-1 1,-1 0,-1 -2,0 -2,0 -1,1 -1,2 1,1zm-30 10c-2,-1 -4,2 -3,2l3 -1c1,0 0,0 0,0 0,-1 1,-1 1,-1 0,-1 -1,-1 -1,0zm147 -58c1,0 0,0 0,-1 1,0 2,1 2,1 0,0 0,-1 1,-1 1,0 0,1 1,1l0 0c1,0 1,1 2,1 1,0 0,0 0,-1 0,0 1,0 0,0 -1,-1 -3,-1 -4,-1 -1,-1 -2,-1 -4,-1 -1,0 -2,-1 -3,-1 -1,-1 -1,0 -1,0 0,0 0,-1 -1,-1 0,1 1,1 1,1 -1,1 -2,2 0,2 1,1 1,0 1,0 2,0 1,0 1,1 1,0 1,0 2,0 0,0 0,0 0,0 1,0 2,0 2,0zm-54 -6c-1,0 -1,1 -2,2 0,1 1,3 -2,3 0,1 0,1 -1,1 0,0 -1,-1 -1,0 0,0 -1,0 -1,0 0,0 -1,0 -1,0 -1,0 -3,1 -2,1 1,0 1,0 2,0 0,0 0,0 1,0 0,0 0,0 1,0 0,0 1,0 1,0 0,0 -1,1 -1,1 0,1 1,1 1,1 -1,1 -3,1 -2,1 0,1 -2,1 -1,1 0,1 2,0 2,0 0,-1 2,-1 3,-1 1,-1 2,-2 2,-2 -1,-1 -1,-1 0,-1 0,-1 1,-1 1,-1 0,-1 0,-2 1,-2 -2,0 -1,-1 -1,-2 1,0 2,-1 2,-1 -1,0 -1,0 -1,0l-1 0c-1,0 0,1 -1,2 -1,-1 2,-4 4,-3 1,0 -2,-1 -3,0zm-25 2c0,-1 -1,0 -2,0 0,1 0,1 0,2 -1,0 -1,1 -2,1 -2,0 0,-2 0,-3 -2,1 -2,1 -3,2 -1,0 -2,1 -2,2 -1,1 -2,1 -2,2 -1,1 -2,1 -2,2 0,0 1,0 2,0 0,0 0,0 0,-1 0,-1 1,0 2,-1 0,0 0,-1 0,-1 1,0 1,0 1,0 2,-1 3,-1 2,0 -1,0 -2,1 -2,1 0,0 1,0 2,0 0,0 -1,1 -1,1 0,0 1,0 1,0 0,1 -1,1 -1,2 1,-1 2,-1 3,-2 1,0 0,0 0,-1 0,-1 1,-2 2,-1 1,0 0,1 0,1 1,1 1,0 1,-1 0,-1 2,-1 0,-1 0,0 0,0 0,0 -1,0 -1,0 -1,-1 0,0 1,0 1,0 1,-1 3,-1 2,-2 0,1 0,0 -1,0 0,-1 0,-1 0,-1zm103 5c1,1 1,-1 2,-1 1,1 2,0 2,-1 1,0 0,-1 1,-2 0,0 0,-1 1,-1 1,1 0,1 1,2 0,0 1,-1 1,-1 0,0 0,0 1,0 0,0 0,0 1,0 0,0 1,-1 2,-1 0,-1 0,-2 1,-2 0,0 1,0 1,0 1,0 1,0 2,0 1,0 2,0 3,-1 0,0 2,-1 3,-1 1,0 -2,1 -2,1 -1,1 -2,1 -3,1 -1,1 -2,1 -3,2 -1,0 0,0 0,1 -1,0 -1,0 -1,0 0,0 0,0 0,1l-1 -1c-1,1 0,3 1,3 1,0 0,-1 0,-2 1,0 1,1 1,1 1,1 2,2 3,3 0,1 3,2 4,2 1,0 0,-2 0,-3 -1,-1 -3,-1 -4,-1 0,-1 -2,-2 -1,-3 0,1 1,1 1,1 -1,-1 0,-1 -1,-1 0,-1 1,-1 0,-1l0 0c0,0 0,0 0,0 1,-1 2,-1 3,-2 1,0 1,1 2,1 0,0 0,0 1,0 0,0 0,1 0,1 0,0 0,1 0,1 1,0 1,0 1,-1 2,-1 3,0 4,1 0,0 0,-1 0,-1 0,-1 0,-1 -1,-2 -1,0 -1,-1 -1,-1 -1,0 -2,0 -2,0 0,0 0,0 1,0 0,0 0,0 1,-1 0,1 0,1 1,1 0,0 1,-1 1,-1 0,0 1,0 1,0 -1,0 0,-1 -1,-1 0,0 0,0 0,0 0,0 -1,0 -1,0 0,0 0,0 -1,0 -1,0 -2,0 -4,1 0,0 -1,0 -1,0 -1,0 -2,1 -2,1 -1,0 -2,1 -3,1 -2,0 -1,-1 -2,-1 0,0 -1,0 -1,0 0,0 -1,0 -1,0 0,0 0,-1 -1,-1 0,1 -2,1 -3,1 -1,0 -1,-1 -2,0 0,0 0,0 -1,0 0,1 -1,0 -1,1l-1 0c-1,0 0,0 0,0 0,0 0,0 0,0 0,0 1,0 1,1 0,0 -1,0 -1,0 0,0 0,0 0,0 0,0 0,0 0,0 0,1 0,1 0,1 -1,0 -1,0 -1,0 0,0 1,0 1,1 0,0 -1,1 -1,2 -1,1 -2,2 -1,2zm33 -7c-1,1 -1,1 -1,2 -1,0 -2,0 -2,1 0,0 0,1 -1,1 0,1 0,0 -1,0 -1,0 0,2 1,2 0,-1 0,-1 0,-1 1,1 1,1 2,0 1,0 1,-1 1,-1 1,-1 1,-2 2,-3 0,0 1,-1 0,-2 0,0 -1,1 -1,1zm-1 -1c1,0 1,-1 2,-1 1,-1 3,-1 3,-2 1,-1 -1,0 -1,-1 0,0 0,-1 0,-1 -1,-1 -1,0 -1,0 0,1 0,2 -1,2 -1,1 -3,1 -3,2 0,1 0,1 1,1zm191 18c0,2 0,4 1,6 1,1 1,2 2,3 1,2 3,2 4,3 3,2 6,4 7,7 1,2 2,4 2,6 0,2 -3,4 -3,6 0,2 -1,3 1,4 1,2 2,2 2,4 0,2 1,3 2,5 0,2 1,5 3,8 -2,1 -7,2 -10,3 0,0 0,1 1,1 2,0 6,0 8,1 3,1 2,4 1,5 -1,1 -2,2 -3,3 -1,1 -1,1 1,2 0,1 1,2 1,3 -1,1 -3,1 -4,2 1,1 3,1 5,2 1,0 3,2 3,3 0,1 0,2 0,3 0,2 1,1 2,1 0,0 1,0 1,0 5,1 5,3 6,5 0,2 2,5 6,6 3,0 5,0 8,0 2,-1 4,-2 6,-1 -1,2 -1,5 -4,6 -3,1 -7,2 -11,2 -9,0 -15,-1 -21,-4 -2,-1 -3,-2 -4,-3l0 0 0 0 0 0 0 0c-3,-2 -6,-4 -8,-6 -3,-2 -6,-3 -9,-6 -3,-2 -5,-4 -8,-6 -4,-3 -7,-6 -11,-9 -3,-2 -5,-4 -7,-6 -2,-2 -5,-5 -8,-6 -3,-2 -6,-4 -10,-4 -3,0 -4,0 -6,1 -2,0 -2,-1 -4,-1 -1,0 -3,0 -5,0 -2,0 -4,-1 -6,-1 -3,-1 -7,-1 -11,-1 -2,-1 -4,-2 -6,-2 -2,0 -4,0 -6,-1 -3,-1 -6,-4 -7,-6 -2,-2 -2,-4 -2,-6 -1,-2 -5,-4 -8,-5 -1,0 -5,-2 -6,-2 -3,1 1,3 -1,5 -3,1 -10,2 -13,1 -2,0 -3,-1 -5,-1 -2,0 -3,0 -5,0 -4,1 -7,3 -12,3 -1,0 -2,0 -3,0 0,0 -1,0 -2,0 -3,0 -3,1 -4,2 -2,1 -5,1 -7,2 -3,0 -4,1 -6,2 -2,0 -3,1 -5,1 -5,0 -8,1 -12,-1 -2,-1 -2,-1 -5,-1 -2,0 -4,-1 -6,0 -2,0 -4,-1 -6,-1 -2,-1 -3,-1 -5,-1 -2,0 -4,1 -5,0 -2,0 -4,-1 -5,-2 -4,0 -8,2 -3,3 7,1 15,1 20,3 2,-1 4,-1 5,0 -1,1 -4,2 -6,2 -3,-1 -4,-2 -7,-2 -1,0 -2,0 -2,0 -2,0 -3,0 -5,0 -2,-1 -3,-1 -4,-1 0,0 -1,0 -2,0 -3,0 -5,-1 -7,-1 -4,-2 -8,-1 -12,-1 -4,1 -7,-1 -11,-1 -2,-1 -4,0 -6,-1 -2,0 -4,-1 -6,-2 -4,-2 -9,-5 -12,-7 -2,-1 -7,-2 -5,-4 1,-1 3,0 2,-2 0,-1 -2,-1 -3,-1 -3,0 -5,1 -8,1 -3,1 -7,2 -10,1 -1,0 -2,0 -3,0 -1,0 -3,1 -4,0 -2,0 -3,-2 -6,-2 -4,0 2,3 -4,3 -2,-1 -2,-1 -3,-1 -1,0 -2,0 -3,0 -1,0 -1,0 -2,0 -3,0 -6,-1 -9,-1 -4,0 -8,0 -12,2 -2,0 -3,2 -5,3 -3,1 -6,0 -9,1 -1,1 -1,1 0,2 0,1 0,1 0,2 0,1 1,3 -2,4 -2,0 -3,-2 -3,-3 0,-1 2,-1 2,-2 0,0 -1,-1 -2,-1 -1,0 -2,1 -1,1 -3,2 -1,3 -1,5 0,1 -1,1 0,2 1,1 1,1 2,0 1,0 1,0 2,0 0,1 -1,2 -1,3 -1,1 -1,2 -1,3 0,1 -1,3 -2,4 0,1 1,2 0,4 -1,1 -2,2 -3,3 0,1 -2,4 -3,2 -1,-1 1,-3 2,-3 1,-2 1,-2 1,-4 0,-2 2,-2 1,-3 0,-1 -1,-2 -1,-3 0,0 1,-2 -1,-2 -1,1 -2,2 -2,3 -2,1 -3,1 -5,0 -1,1 0,2 -3,2 -1,-1 -2,-2 -3,-2 0,2 -3,3 -7,2 -3,0 -5,-1 -6,-3 0,-2 0,-1 2,-2 1,-1 1,-2 1,-3 1,-1 2,-1 0,-2 0,0 -2,0 -2,0 -1,0 0,-1 -1,-2 -1,1 0,2 -1,2 0,1 -2,2 -3,2 -1,1 -2,2 -3,2 -1,0 -4,1 -3,0 -1,0 -1,0 -2,0 -1,0 -3,1 -3,0 0,-1 2,-2 3,-2 0,-1 -1,-1 -1,-2 1,0 1,-1 2,-1 1,-1 2,0 4,-1 1,0 4,-1 3,-2 0,0 -1,0 -1,0 -1,0 -1,0 -1,0 -1,0 -1,0 -1,0 0,-1 -1,0 -1,-1 0,1 -2,1 -3,1 -1,1 -2,1 -3,1 -2,-1 -2,0 -4,0 -1,0 -3,1 -4,0 -3,-1 2,-2 3,-3 1,-1 -1,-3 -1,-4 0,-2 2,-4 4,-5 1,-1 1,-2 2,-3 0,-1 1,-2 3,-2 1,0 2,-1 3,-2 1,0 2,0 3,-1 0,0 1,0 1,0 1,0 2,0 2,0 1,0 1,0 1,0 1,-1 3,-1 3,-1 2,-1 4,-2 6,-3 2,-1 5,-2 7,-3 2,-1 4,-2 7,-2 1,-1 3,-2 5,-2 2,0 3,-1 4,-1 2,-1 1,-2 1,-3 0,-1 1,-2 3,-2 1,0 2,-2 2,-3 1,0 2,-3 3,-2 1,0 -1,2 -2,3 0,0 -1,1 0,1 1,0 2,-1 2,-1 0,-1 0,-1 1,-2 0,0 0,0 1,-1 1,0 1,-1 1,-1 0,-1 -1,-1 -1,-1 -1,-2 2,-1 4,-1 0,0 4,0 4,0 1,-1 -1,-2 0,-2 0,-1 1,0 2,0 1,0 1,0 2,0 0,-1 -1,-1 -1,-1 0,-1 3,-2 4,-2 2,0 4,-1 6,-1 1,-1 3,-1 4,-2 1,0 2,0 2,-1 0,0 1,0 1,-1 1,0 4,0 5,0 0,1 -2,2 -1,3 1,0 2,-1 3,-1 2,-1 3,-3 4,-4 1,-1 3,-2 5,-2 1,0 3,1 4,1 3,0 -1,-1 -1,-2 -2,-1 -1,-1 0,-3 0,0 0,-1 -1,-1 0,1 -1,2 -1,2 0,0 -3,3 -3,1 0,-1 2,-2 3,-3 1,-1 1,-1 2,-1 1,0 1,0 1,0 1,0 1,0 1,0 1,1 1,1 2,1 1,-1 1,-1 2,-1 2,-1 3,-1 5,-2 1,-1 3,-1 4,-2 1,-1 0,-1 0,-1 0,-1 0,-2 0,-2l0 0c1,0 3,-2 4,-1 1,0 1,1 1,1 1,0 2,0 3,0 3,0 -1,-1 -2,-2 0,0 1,-1 1,-1 0,-1 0,-1 0,-2 -1,-1 -1,0 -2,0 -1,1 -1,1 -2,0 0,0 1,-1 1,-1 0,0 0,0 0,-1 0,0 0,0 0,0 0,-1 1,-1 2,-1 1,0 1,-1 2,-1 0,-1 0,-1 1,-1 2,0 1,1 1,1 0,0 0,0 1,0 0,0 0,0 0,0 1,0 2,1 3,1 2,1 0,-1 0,-2 -1,-1 -1,-1 0,-1 1,-1 2,-1 3,0 2,0 0,2 3,2 1,1 3,0 5,-1 -1,0 -1,0 -2,-1 0,-1 1,-1 0,-1 0,-1 -1,-1 -1,-1 0,-1 1,-1 0,-2 -1,0 -5,0 -3,-1 1,-1 3,-2 5,-2 1,0 3,-1 5,0 0,0 -1,1 -1,1 0,1 1,1 2,1 2,1 5,0 5,2 0,0 0,1 -1,2 0,0 -1,1 -1,1 -1,0 -2,0 -2,0 0,1 1,0 2,1 -1,0 -1,0 -2,0 0,1 -1,2 -2,1 -1,0 -2,1 -2,1 0,0 1,0 1,0 0,0 1,0 1,0 1,0 1,2 0,3 -1,1 -3,0 -5,1 0,0 -4,2 -2,2 0,0 2,0 2,-1 1,0 2,0 2,0 1,-1 2,-1 2,-1 1,0 2,-1 2,-1 2,-1 2,1 2,2 0,1 -2,2 -2,3 0,1 0,1 -1,1 -1,1 -2,1 -3,2 0,0 -2,0 -2,0 0,1 1,1 1,0 1,0 1,0 2,0l0 0c0,0 3,-1 4,0 0,0 -2,2 -2,2 0,2 0,2 1,4 0,1 0,2 2,3 0,1 1,2 3,2 2,0 3,-1 5,-1 2,0 3,1 4,1 2,1 3,0 4,0 2,-1 3,-2 5,-2 1,-1 3,-1 5,-1 1,0 3,0 5,-1 2,0 3,-1 4,-2 1,0 2,-1 3,-1 2,0 2,1 3,2 1,0 1,1 2,1 2,1 4,1 6,1 1,0 4,0 4,-1 1,-1 0,-2 -2,-3 -1,0 -3,-1 -5,-1 -3,-1 -2,-2 -2,-3 1,-1 1,-3 0,-4 -1,-1 -3,-2 -5,-2 -1,0 -2,0 -2,0 -2,1 -4,1 -4,-1 0,-1 1,-1 0,-1 -2,-1 -4,-1 -4,-2 -1,-1 -1,-1 -2,-1 0,-1 -1,-1 -2,-1 -1,-1 2,-2 3,-2 1,-1 2,-1 3,-2 0,0 0,-1 1,-1 1,-1 2,-1 3,0 1,0 1,0 2,0 1,0 1,-1 2,0 1,0 2,0 3,-1 1,-1 2,-1 4,0 0,0 0,1 0,1 1,1 2,1 2,1 1,0 1,0 2,0 0,1 -1,1 0,1 1,0 0,-1 1,-1 1,0 2,0 3,0 0,-1 1,-1 2,-1 1,-1 0,-1 0,-1 1,-1 2,-1 2,-2 -1,0 -2,-1 -2,-1 -1,-1 -2,-1 -1,-2 0,0 1,1 2,1 2,0 3,-1 5,0 2,0 3,0 5,1 1,0 2,0 3,0 1,0 1,1 1,1 1,1 2,1 3,0 1,0 1,0 2,0 1,0 1,1 2,1 0,0 1,0 1,-1 1,0 2,0 3,-1 5,0 0,3 0,4 1,0 1,-1 1,-1 1,1 0,1 0,2 0,1 1,1 2,0 0,-1 0,-1 0,-2 0,-1 0,-1 2,-2 2,0 4,-1 6,0 3,1 5,4 9,4 1,0 2,0 3,0 1,0 1,-1 2,-1 1,1 4,1 4,2 4,1 2,4 -1,2 -1,1 -1,2 -2,3 -2,-2 -4,0 -5,1 -5,2 -6,-1 -7,-4 -1,0 -2,-3 -4,-2 -1,0 -1,3 -1,3 -1,1 -2,3 -3,3 -2,1 -4,2 -5,3 -2,1 -4,5 -1,6 3,-1 4,-6 9,-3 2,1 3,1 6,1 2,-1 2,-2 3,-3 3,0 1,3 1,4 -1,1 -2,4 -4,5 -1,-1 -1,-4 -3,-4 -2,2 -2,4 -2,6 0,1 0,2 0,3 0,1 1,2 2,3 0,2 -3,4 -3,6 1,1 3,4 2,5 0,0 0,0 -1,0 2,1 7,2 6,4 2,1 0,3 -1,4 0,2 -1,4 0,5 1,2 4,3 7,4 2,1 5,1 7,2 2,1 2,2 -1,3 -1,0 -3,-1 -5,-2 -3,-1 -7,-2 -10,-1 -1,1 -2,2 -3,2 0,0 0,0 -1,0 0,0 -1,0 -1,0 -2,1 -3,2 -4,3 0,2 0,2 -3,2 -2,1 -4,2 -6,2 -3,2 -2,5 -1,7 0,1 0,2 1,2 1,0 2,0 3,0 1,1 2,2 3,3 3,2 6,4 10,4 6,2 9,1 12,-2 2,-1 2,-2 1,-4 0,-1 -1,-6 4,-4 1,0 2,2 2,3 1,1 2,2 4,3 4,2 6,-2 9,-3 4,-1 9,3 12,4 2,1 4,1 6,1 3,-1 3,-3 5,-3 2,-1 6,-1 5,-2 0,-1 -1,-4 -1,-6 1,-2 5,-4 8,-5 3,-1 7,-2 10,-4 3,0 9,-2 8,-2 2,-1 4,-1 6,0 5,0 8,0 11,-1 4,-1 8,-3 11,-3 4,0 8,1 11,2 2,0 4,0 6,0 1,-1 2,-1 3,-2 1,0 3,0 4,-1 3,-1 6,-1 8,-2 4,-1 8,-1 11,-2 3,0 8,-1 10,-1 1,1 1,1 2,2 0,0 1,0 1,0 1,0 1,0 1,0 2,0 2,1 2,2zm13 92l0 0 0 0 0 0zm-226 -183c1,1 -1,2 -1,2 -1,1 -1,2 0,3 0,1 1,1 2,1 0,1 0,1 0,1 2,2 8,2 10,3 2,0 4,1 5,1 2,1 4,0 5,1 4,0 6,1 10,0 2,0 4,0 5,0 2,-1 2,-1 4,-2 2,0 3,0 3,-1 0,-1 -2,-2 -3,-3 -5,-4 -8,-9 -5,-14 1,-2 3,-3 4,-4 0,-2 -1,-3 -1,-4 0,-1 1,-3 2,-4 2,-2 5,-5 6,-7 2,-2 3,-4 2,-6 0,-1 -2,-1 -3,-2 -2,-1 -4,-2 -5,-3 -1,-1 -2,-2 -2,-3 0,-1 0,-2 0,-4 0,-1 -1,-1 -3,-2 -2,0 -3,-1 -5,-1 0,0 -1,0 -2,0 -1,0 -1,1 -2,0 -3,0 2,-4 -2,-4 -1,-1 -1,0 -2,0 -1,0 -3,0 -4,-1 -2,-1 -2,-3 -2,-5 1,-1 1,-2 1,-3 0,-1 1,-2 0,-2 0,0 0,0 -1,0 0,0 0,0 -1,0 0,-1 2,-2 2,-3 1,-1 2,-2 2,-3 1,-3 -5,-1 -7,0 -1,1 -3,2 -3,3 -1,1 0,2 -2,3 -2,1 -5,2 -5,5 -3,0 -2,-2 -3,-2 -1,-1 -3,0 -4,1 -1,0 0,0 0,0 -1,0 0,0 -1,0 0,-1 3,-2 3,-3 0,-2 -5,-1 -6,0 -1,1 -2,1 -4,1 -1,0 -3,1 -4,2 -3,1 -6,2 -9,3 -4,2 -7,3 -10,5 -1,1 -2,1 -2,2 -1,2 0,3 -3,5 -2,1 -5,2 -7,3 -1,1 -2,3 -2,4 1,2 2,1 3,1 1,0 2,-1 3,-1 0,1 0,1 0,1 0,1 -6,2 -8,3 -2,1 -6,2 -8,4 -2,1 -3,3 -5,4 -3,2 -5,5 -6,7 -1,2 -2,3 -2,4 -1,2 -3,4 -2,6 2,1 3,-2 5,-2 1,0 1,1 1,2 0,0 1,1 1,1 -1,1 -2,2 -3,2 -1,1 -2,2 -2,3 -1,1 -5,4 -3,5 2,1 6,1 8,1 1,0 2,0 2,0 3,0 8,-1 10,-2 1,-1 1,-2 3,-3 1,-1 2,-1 3,-2 2,0 3,-1 5,-2 1,0 3,-1 4,-1 4,-1 7,0 10,1 4,1 7,1 10,3 2,1 2,2 4,2 3,0 4,0 5,1 2,1 3,2 6,2 2,-1 3,-6 6,-3zm72 -22c5,0 5,-1 7,-3 0,-1 1,-1 1,-2 1,-1 1,-2 2,-3 -2,0 1,-1 -1,-2 -2,0 -2,0 -3,0 0,0 0,1 -1,1 0,0 -1,-1 -1,-1 -3,0 -3,0 -4,2 -1,0 -2,1 -2,1 0,1 0,1 0,1 -2,-1 -4,1 -2,2 -1,0 -2,0 -3,0 1,1 2,2 1,2 -1,1 -1,0 -1,0 -1,-1 0,-1 -2,-1 -1,0 -4,0 -4,1 1,0 2,0 2,0 1,0 -3,2 0,2 -1,0 -2,1 -1,1 2,0 2,-2 5,-2 0,0 -1,1 -1,1 1,0 2,-1 2,-1 0,1 -4,2 -2,3 1,0 1,-1 2,-1 1,0 1,0 1,0 1,0 1,0 2,0 0,1 -1,1 -1,2 2,0 1,-2 4,-3zm266 -200c0,0 0,0 0,0 -1,-1 -2,-1 -2,0 -1,0 0,1 0,1 1,0 2,0 3,0 1,0 2,0 3,-1 1,0 2,-1 3,-2 1,-1 1,-1 1,-2 -1,0 -2,0 -2,0 -2,1 -2,2 -3,2 -1,0 -1,0 -2,0 -1,1 -1,1 -1,2zm-5 11c0,0 0,0 1,-1 0,0 1,0 2,0 0,0 4,-1 3,-2 -1,-1 -4,0 -5,0 -1,1 0,0 -2,0 -1,0 -2,0 -2,1 -2,1 1,2 2,1 0,0 -2,2 1,1zm-4 -5c2,0 5,-1 4,-2 0,0 -1,0 -1,0 0,0 -1,0 0,0 0,-1 1,-1 1,-2 1,-1 -1,0 -2,0 -2,1 -4,1 -5,1 -1,0 -2,0 -2,1 -1,1 1,1 0,1 -1,1 -3,1 -4,1 -1,0 -2,1 -2,1 -1,1 0,1 0,2 1,1 0,1 2,1 2,1 4,0 6,0 0,-1 0,-1 0,-1 0,-1 0,-1 1,-1 1,-1 2,-2 2,-2zm-88 31c-1,0 0,-1 -1,-1 -5,0 -2,5 -2,7 0,0 -1,1 1,1 1,0 2,-1 2,-2 1,0 1,-1 1,-2 1,0 2,-1 3,-1 1,-1 5,-4 1,-3 -1,0 -1,0 -2,0 0,0 -1,0 -1,0 -1,0 -2,1 -2,1zm-14 8c1,0 2,-1 3,-1 2,-1 4,-1 5,-2 2,-1 1,-1 0,-2 -1,0 -1,0 -2,-1 -2,-2 -2,1 -4,2 0,0 0,0 0,0 0,0 0,0 0,0 0,-1 -1,-2 -1,-2 -1,0 -2,1 -3,1 -2,0 -1,-1 -1,-2 -2,0 -4,0 -5,0 -2,1 -1,1 -2,2 0,0 -1,1 -1,1 -1,2 0,3 -1,4 -1,2 1,3 4,2 1,-1 3,-2 5,-2 1,0 1,0 1,0 1,0 1,1 2,0zm-69 35c-1,0 -3,2 0,1 1,0 2,-2 0,-1zm-3 1c-1,0 0,-1 -1,-1 -1,0 -2,0 -2,1 -1,0 -2,2 -2,2 0,1 5,-1 5,-2zm6 -9c1,1 -2,2 -2,2 0,1 1,1 2,1 1,-1 1,-1 1,-2 1,0 3,-1 2,-2 -2,-1 -3,0 -3,1zm-5 4c-1,0 -3,2 -3,3 1,0 2,0 3,-1 1,0 2,0 3,0 0,-1 1,-2 0,-2 0,-1 -2,0 -3,0zm-11 5c1,-1 5,-2 4,-3 0,0 -1,0 -2,0 0,0 2,-1 1,-2 0,0 -2,1 -2,1 -1,1 0,2 -1,3 0,1 0,1 0,1zm1 0c-1,1 -3,2 -3,3 1,0 2,0 3,-1 0,0 1,0 2,0 1,-1 3,-2 2,-3 0,-1 -1,0 -2,0 -1,1 -2,1 -2,1zm-1 5c-1,0 -2,1 -1,2 1,0 3,-2 3,-2 1,-1 -1,-1 -2,0zm-8 5c0,0 -1,0 -1,-1 0,0 1,-1 1,-1 1,-1 4,-2 2,-2 -2,1 -3,1 -4,2 -2,1 -3,2 -4,3 -1,0 -2,1 -2,1 0,1 1,1 2,0 1,0 2,-2 3,-2 -4,3 5,2 3,0zm111 94c0,1 -1,2 -2,2 0,1 -2,2 0,2 1,0 1,-1 2,-1 0,0 1,-1 1,-1 0,0 0,0 -1,-1 0,0 1,0 0,-1 0,0 0,0 0,0zm-17 11c-1,0 -2,1 -2,1 0,0 0,1 1,1 1,0 2,-2 3,-2 0,0 1,0 1,-1 1,0 0,0 0,0 -2,0 -3,1 -3,1zm-25 7c0,1 -3,1 -3,2 -1,1 2,0 3,0 1,0 5,0 4,-1 0,0 -1,0 -2,0 0,0 0,0 0,0 0,0 -1,0 -1,0 0,-1 0,-1 -1,-1zm-21 -1c1,1 0,1 0,2 1,1 2,1 3,0 1,0 -1,-1 -1,-1 -1,-1 -1,-1 -2,-1 0,0 -1,0 0,0zm9 6c0,0 0,0 0,0 0,-1 0,-1 0,-1 0,0 -1,-1 -1,-1 -1,-1 -3,-2 -4,-1 0,0 0,0 0,1 0,0 -1,0 -1,0 0,1 0,1 1,1 0,0 1,0 1,0 0,0 0,0 0,0 1,1 1,0 1,1 1,0 1,0 2,0 0,0 1,1 1,0zm-12 6c1,-1 -1,-2 -2,-1 -1,2 1,1 2,1zm230 -240c-1,0 -2,3 1,3 2,0 1,-1 2,-2 0,-1 1,-1 2,-2 1,-1 3,-3 -1,-2 -1,0 -4,2 -4,3l0 0zm47 6c0,0 4,-1 3,-2 0,0 -4,1 -5,1 -1,0 -4,1 -3,2 2,1 3,-1 5,-1zm-23 104c0,-1 -1,-3 -3,-2 -1,1 -2,2 -1,3 1,1 2,1 2,0 0,-1 0,-1 0,-1 0,0 0,0 1,0 0,0 0,0 0,0 1,0 1,0 1,-1l0 1zm-3 -18c-1,0 -2,-1 -3,-1 -1,0 0,0 0,1 0,0 -1,0 -1,0 -1,2 2,3 3,4 1,1 2,2 2,3 0,1 0,2 -1,2 0,0 -1,0 -1,0 0,0 -1,-1 -1,0 -1,1 1,1 1,2 0,1 0,2 1,2 -1,0 -3,2 -4,2 -1,1 -1,2 -1,3 0,1 -1,1 -1,2 0,0 1,0 1,1 0,1 -1,3 2,2 -1,0 -1,-1 -1,-1 0,-1 1,0 2,0 0,1 1,3 3,2 1,0 0,-2 -1,-3 0,0 -1,-1 -1,-1 -1,0 -1,0 -2,0 0,0 0,0 -1,0 0,-1 1,-2 2,-3 0,0 2,-2 3,-2 1,-1 2,0 2,0 1,1 1,1 2,1 1,0 0,-2 1,-3 -1,0 -2,0 -2,0 0,-1 1,-1 1,-1 1,0 1,-1 2,-2 2,1 2,0 1,-1 1,0 1,0 1,0 1,0 1,-1 1,-1 -1,-1 -1,-1 -2,-1 -1,-1 -2,-2 -3,-3 0,0 -1,0 -1,0 0,0 0,-1 0,-1 0,0 1,0 0,0 0,0 0,0 -1,0 -1,-1 0,-2 -2,-3 0,0 0,0 0,0 -1,0 -1,0 -1,0zm-3 -9c0,1 0,1 -2,1 -1,1 -2,1 -3,1 -1,0 -5,-1 -4,0 0,1 1,1 1,1 1,0 1,0 1,1 0,0 2,1 2,1 -1,1 -1,1 -2,1 0,0 1,0 1,1 0,0 0,0 1,0 0,1 -1,1 -1,1 1,1 3,1 4,2 0,-1 0,-1 0,-2 0,0 1,0 0,0 0,-1 0,0 -1,0 -1,0 -2,0 -1,-1 1,0 2,0 2,-1 0,0 1,0 1,0 1,0 2,0 3,0 1,-1 0,-2 0,-2 0,-1 1,-1 1,-2 0,0 1,-1 0,-1 0,-1 -1,0 -1,0 -1,0 -1,-1 -1,-1 -1,0 -1,0 -1,0zm-28 -9c2,1 2,1 4,2 1,0 1,0 2,0 0,0 0,1 1,1 0,0 1,1 2,2 0,0 1,1 2,1 0,0 1,0 1,1 1,0 1,0 1,1 0,0 1,0 2,1 1,0 2,1 3,1 0,-1 -1,-1 0,-2 0,0 1,0 1,0 1,0 1,0 1,0 0,-1 -5,-1 -6,-2 -2,-1 -2,-3 2,-3l0 0c-1,0 -1,0 -2,0 -2,-1 -4,-1 -6,-2 -1,-1 -2,-1 -3,-1 -1,0 -2,-1 -2,-1 -1,-1 -1,-1 -2,-2 -1,0 -1,0 -2,-1 -1,0 -3,0 -2,1 0,0 3,0 2,1 -3,0 0,1 1,2zm263 85c-1,1 -1,0 -2,0 0,0 -1,0 -1,0 -2,0 -1,1 -1,1 1,1 1,2 1,3 1,0 2,1 2,1 0,2 -2,3 -2,5 1,1 1,2 1,3 1,0 0,1 1,1 2,0 2,0 3,-1 1,1 1,1 2,2 1,-1 0,-1 0,-2 0,-1 2,-1 3,-2 1,-2 -2,-3 -3,-4 0,-1 0,-1 0,-2 0,0 1,0 1,0 1,-1 0,-1 -1,-2 -1,-1 -1,-1 -1,-2 0,-1 -1,-1 -2,-2 -1,0 -1,1 -1,1zm-2 -8c0,0 -1,0 -2,0 -1,0 -1,0 -2,0 -2,0 -1,1 -3,0 -3,0 -5,-1 -8,0 1,0 1,0 2,0 1,0 1,1 1,1 1,0 1,0 1,0 0,-1 0,-1 0,-1 2,1 3,1 5,1 1,1 2,1 3,2 0,1 0,2 2,2 1,0 1,0 2,0 0,0 1,-1 2,1 1,0 2,2 4,0 1,-1 0,-2 -1,-3 -2,-2 -1,-1 -1,-3 0,-1 -1,-2 -2,-2 -2,0 -2,1 -3,2zm-47 36c-1,1 -7,1 -4,3 2,1 5,1 8,1 3,-1 2,-3 1,-4 -2,-2 -6,-3 -5,0zm-115 -11c-1,-1 -3,0 -5,0 2,2 3,0 5,0zm21 -11c-1,1 -4,4 -1,3 2,-1 4,-3 1,-3zm31 -2c-1,1 -3,1 -5,1 -2,0 -4,1 -6,1 -2,1 -5,0 -6,-1 -1,-1 1,-3 -2,-4 -2,0 -4,1 -6,2 0,0 -2,1 -2,2 -1,1 0,0 1,1 0,2 -2,1 -3,3 -1,1 2,2 1,3 0,2 -4,2 -5,2 -6,3 0,8 1,12 0,1 -1,1 -3,3 -3,2 -3,5 -3,8 -6,1 0,4 2,4 2,1 3,1 4,2 1,1 2,1 3,2 4,1 8,1 11,3 1,0 3,1 4,2 3,1 5,4 9,1 2,-1 2,-4 4,-6 2,-1 4,-1 4,-2 1,-1 0,-2 0,-3 1,-1 3,-1 4,-3 1,-1 -1,-1 1,-3 3,-2 7,-3 13,-3 2,0 6,2 7,0 1,-1 -1,-3 -1,-4 2,0 2,3 4,4 2,-2 0,-2 0,-4 2,1 3,1 5,2 2,1 4,2 6,2 5,0 8,-3 11,-5 1,0 2,0 3,0 3,-2 4,-5 2,-8 -2,-3 -3,-5 -5,-8 -2,-3 -5,-5 -9,-7 -2,-1 -4,-1 -6,-2 -1,0 -2,0 -3,0 -1,0 -2,0 -3,0 -1,0 -2,-1 -3,-1 -2,0 -1,1 -2,1 -2,0 -4,-1 -6,-2 -2,0 -3,1 -5,1 -4,1 -5,-1 -7,-2 -2,0 -4,-1 -6,-1 -1,0 -2,0 -3,0 0,0 -1,0 -2,0 -2,0 -3,-2 -5,-2 -7,-1 -1,2 1,4 1,1 6,3 6,5zm0 -29c0,0 8,2 7,0 0,-1 -7,-1 -7,0zm-5 3c0,0 0,-1 -1,-2 -3,1 -1,2 -1,3 0,1 -4,2 -3,3 2,2 7,-3 7,-4 -1,0 -2,0 -2,0zm-34 15c-2,1 -4,0 -5,0 -2,-1 -3,-1 -5,-1 -3,1 -3,5 0,3 2,1 2,-1 3,-1 3,-1 0,2 0,2 0,1 2,1 3,1 2,-1 1,-1 2,-2 2,-1 7,-1 9,-1 2,0 3,-1 5,0 2,0 2,1 2,1 2,2 2,1 3,0 1,0 2,-1 3,-1 1,1 5,-1 6,-2 1,-2 -1,-3 3,-4 2,-1 3,0 5,0 1,0 2,0 3,0 2,0 5,-2 7,-1 0,-2 -4,-1 -6,-2 -1,1 -3,1 -5,1 -1,0 -4,0 -5,-1 2,-1 1,-1 -1,-1 -2,0 -3,1 -5,1 -2,0 -3,-1 -5,-1 -2,0 -4,1 -5,2 -4,1 -7,1 -10,2 -2,1 -6,3 -2,5 0,0 1,-1 1,-1l-1 1zm-9 6c0,0 2,0 2,-1 -1,-1 -3,0 -4,1 -2,0 -4,1 -2,3 -2,-1 -7,0 -4,1 2,0 4,-1 5,-1 1,-1 0,-3 3,-3zm-2 11c0,2 -3,3 -4,4 -1,0 -4,1 -3,2 0,1 4,-1 4,-1 2,-1 5,-4 4,-5 0,0 0,0 -1,0zm3 1c-3,2 1,2 1,4 3,-1 1,-3 1,-4 0,-1 2,-2 1,-3 -2,0 -4,3 -3,3zm-15 7c0,1 -4,2 -1,2 2,1 3,-1 4,-2 1,-1 3,-2 0,-2 -3,1 -1,1 -3,2zm-14 4c-1,1 -2,1 -1,2 -3,0 -4,0 -6,1 -1,1 -5,2 -4,3 1,2 9,-2 11,-2 1,-1 10,-4 10,-4 1,-2 -4,0 -5,0 0,0 -1,0 -2,0 -1,0 -2,0 -2,1 -1,0 -1,-1 -1,-1 0,0 0,0 0,0zm16 -26c-1,-1 -1,-1 -1,-2 -1,0 -1,0 -1,0 -1,0 -1,-1 -2,-1 0,0 0,0 -1,1 2,1 4,5 8,4 0,-1 -2,-1 0,-2 -1,-1 -2,-1 -2,0 -1,0 -1,0 -1,0zm-8 2c0,2 -1,2 -3,4 -1,0 -1,0 -2,1 -2,0 -2,1 -2,2 0,1 0,1 1,2 1,1 1,1 2,2 1,1 4,3 6,2 1,0 3,2 4,2 2,-1 -1,-3 -2,-3 0,0 -4,-1 -3,-2 1,-1 5,1 6,1 0,0 1,-1 1,-1 -1,-1 -4,0 -5,-2 -2,-1 1,-2 -1,-3 -2,1 -2,2 -4,3 -4,0 -4,-1 -2,-2 2,-1 5,-2 6,-3 0,-1 -1,-4 -2,-3zm-31 -5c2,1 2,3 2,4 0,1 0,4 2,1 0,0 0,-2 0,-3 0,-1 -1,-3 -4,-2zm16 12c0,-2 -3,-1 -4,-2 1,0 2,-1 0,-2 2,-1 -4,0 -5,0 -1,0 -1,0 -2,0 0,0 0,0 -1,1 0,1 1,2 1,3 0,1 -1,1 -1,2 0,1 1,1 1,2 0,2 -2,3 2,4 -2,2 -8,1 -4,3 1,2 3,1 4,1 2,1 2,3 4,1 1,1 2,2 4,2 2,0 2,-2 3,-3 0,0 3,-1 4,-1 2,-1 2,0 3,-1 2,-2 1,-2 0,-3 -2,-1 -2,-1 -2,-2 -1,-1 0,-1 -1,-2 0,0 -2,0 -2,0 -1,-1 1,-2 1,-3 -1,0 -1,0 -2,0 -1,1 -3,1 -3,0zm5 -14c0,-1 1,0 2,1 2,-2 -2,-3 -4,-3 0,-1 -2,-1 -3,-1 2,3 -3,5 -2,7 3,0 3,-2 4,-2 1,0 4,2 6,0 -1,-1 -2,-1 -3,-2 0,0 0,0 0,0zm-11 -3c0,1 -1,1 -2,1 -1,0 -3,0 -3,1 -2,2 3,1 5,1 0,1 3,3 4,1 0,-1 -2,-4 -4,-4zm0 -3c-1,0 -3,1 -2,2 1,0 5,1 6,1 0,-1 -2,-2 -4,-3zm-11 2c0,0 -1,-1 -2,-1 -1,-1 0,-1 0,-2 -1,0 -3,-1 -4,-2 -1,0 0,-1 -2,-1 -1,1 -1,1 -2,2 0,1 2,2 3,3 -2,1 0,2 1,2 1,0 1,0 2,0 1,0 2,0 2,1 2,0 2,-1 3,-1 2,0 3,0 4,0 0,-1 0,-1 -1,-2 1,0 3,-1 0,-1 -1,0 -2,1 -3,2 -1,0 0,0 -1,0zm-30 4c-3,1 -5,6 -1,5 2,-1 4,-5 1,-5zm8 -17c-3,1 -1,5 2,5 7,0 -1,-4 -2,-5zm30 47c1,1 4,3 4,1 0,-1 -1,-1 -2,-1 -1,0 -2,1 -2,0zm-27 2c-1,0 -2,0 -3,0 -4,0 -6,0 -8,3 1,0 2,0 4,0 0,0 1,0 2,0 2,0 3,1 5,1 3,0 3,-1 6,0 2,0 2,0 3,0 1,0 2,0 3,0 2,1 4,2 6,2 1,0 2,0 3,0 1,0 2,0 3,0 1,0 2,0 3,0 3,0 1,0 2,-1 0,0 0,0 0,-1 0,0 1,-1 1,0 -1,-1 -1,-2 -2,-2 -1,-1 -3,-1 -4,-1 -2,1 -6,1 -6,-1 -1,0 -2,0 -3,0 -1,0 -1,0 -2,0 -1,-1 -3,0 -4,0 -3,1 -4,1 -6,0 -1,0 -2,0 -3,0zm-44 14c-3,1 3,6 6,4 1,-1 1,-3 1,-4 -1,0 -2,0 -3,0 0,0 0,0 -1,0 -1,0 -1,0 -3,0zm-3 77c3,1 4,3 7,1 3,-2 3,-3 1,-5 -2,-2 -2,-4 -4,-6 -2,-1 -3,-2 -5,-3 -2,-1 -3,-2 -4,-3 0,-1 -2,-2 -4,-3 -2,-1 -4,0 -3,2 0,1 2,2 2,4 -1,1 -3,2 -3,3 0,4 9,3 9,6 0,2 2,3 4,4zm-303 77c-2,0 -7,2 -4,3 1,0 2,-1 3,-1 1,0 1,0 2,-1 0,0 0,-1 0,-1 0,0 0,0 -1,0zm19 -11c-2,0 -5,2 -3,2 2,0 2,0 3,-1 0,0 1,-1 1,-1 0,0 -1,0 -1,0 0,0 0,0 0,0zm-6 2c-1,0 -2,1 -3,1 0,0 -1,0 -1,0 0,0 -1,0 -2,0 -1,0 -2,1 -2,1 -1,1 -3,2 -3,2 0,0 1,0 2,0 1,0 3,0 1,1 -1,1 -3,1 -2,2 0,1 1,0 2,0 1,-1 2,-2 3,-2 1,0 2,1 2,0 1,0 -1,-1 -1,-1 0,-1 1,-1 2,-1 0,-1 0,-1 1,-1 0,0 3,-2 1,-2zm-14 4c-1,1 -2,1 -3,1 -1,0 -2,0 -3,1 -1,0 -2,0 -3,0 -1,0 -2,1 -3,1 -4,1 -10,2 -11,5 0,0 0,2 1,2 2,0 0,-3 2,-4 0,0 1,0 1,0 0,1 0,1 1,0 1,0 2,-1 3,-1 2,-1 3,-1 5,-1 1,0 2,0 3,-1 1,0 2,0 2,1 1,1 3,-1 4,-1 0,-1 3,-3 1,-3l0 0zm189 -162c0,0 -1,0 -1,0 0,0 -1,0 -1,0 -1,0 -1,0 -2,0 -2,0 -1,1 -1,2 -1,-1 -2,-1 -2,-2l-1 0c0,0 -1,0 -1,0 -1,1 -1,1 -2,1 0,-1 -1,-1 -2,-1 0,0 0,-1 -1,-1 0,0 -1,1 -1,1 0,0 0,0 -1,0 0,0 0,-1 0,-1 1,0 1,0 2,0 0,-1 0,-1 0,-1 -1,0 -1,0 -1,0 0,0 0,0 0,0 -1,0 -1,0 -1,0 0,-1 1,-1 1,-1 1,-1 1,-1 2,-1 0,0 0,0 1,0 0,-1 0,-1 0,-1 0,0 0,0 1,0 0,0 0,1 0,2 0,0 1,-1 1,-2 1,-1 0,-1 -1,-1 -1,0 -2,2 -3,2 0,0 -1,-2 -2,-2 -1,-1 -1,-1 -2,0 -1,0 -1,0 -1,1 -1,0 -1,0 -2,0 -1,1 -1,1 -1,2 -1,1 -1,1 -1,2 0,1 -1,1 -1,2 0,0 0,1 1,1 0,1 -1,2 1,2 1,0 1,-1 2,0 2,0 4,2 6,2 0,0 1,0 2,-1 0,0 1,0 1,0 2,0 2,1 4,1 0,0 0,0 0,0 0,0 1,0 1,0 1,0 0,0 0,1 0,0 1,1 1,2 1,1 1,2 4,1 2,0 4,0 6,-1 1,0 1,-1 2,-1 1,-1 2,-1 2,-2 0,0 -2,0 -2,-1 -1,0 -2,-1 -3,-1 0,0 -1,0 -1,0 -1,0 -1,0 -1,0 -1,0 1,-1 0,-1 -1,0 -1,0 -2,0 -2,1 -3,0 -2,-1 1,-1 5,-2 2,-2zm-30 12c-1,0 -1,0 -3,0 -1,0 -2,0 -3,0 -1,0 -6,2 -5,1 0,0 0,0 -1,0 -1,0 0,-1 1,-1 -2,-1 0,-1 0,-2 -1,0 -1,0 -2,0 0,0 -1,0 -1,0 0,0 1,0 1,-1 0,0 0,0 0,0 0,0 1,-1 0,-1 -1,-1 -2,2 -2,2 -1,1 -2,1 -2,2 0,0 0,0 -1,0 0,1 0,1 -1,1 0,1 2,1 3,1 1,0 2,-1 2,-1 2,0 0,1 0,1 -1,1 -1,2 -2,2 0,0 0,1 0,1 -1,0 -1,0 -2,0 -1,0 -1,0 -2,1 0,-1 0,-1 0,-1 0,0 0,0 0,0 -1,0 1,-2 -1,-2 -1,0 -2,2 -3,2 0,-1 0,-1 1,-2 0,0 0,0 -1,0l0 0c-2,1 -3,2 -3,3 0,1 1,2 2,2 1,1 0,1 0,2 0,1 1,1 2,2 0,0 0,1 0,2 0,0 0,1 1,1 1,0 3,0 3,0 1,0 2,-1 3,-1 1,0 3,-1 3,-2 0,-1 0,-1 1,-2 0,-1 1,-1 2,-1 1,-1 1,-2 3,-2 0,0 0,0 0,0 1,0 1,0 1,0 0,0 1,0 2,0 2,-1 4,-1 6,-2 1,-1 3,-2 3,-3 1,-2 -3,-2 -5,-2zm207 -192c-2,2 0,1 1,3 1,2 -1,1 -3,2 -3,0 -4,1 -6,0 -2,0 -5,3 -8,1 -2,1 1,2 1,3 0,1 -3,3 -2,4 1,0 5,0 7,0 0,1 1,1 2,2 1,0 2,-1 2,0 0,1 -4,2 -5,3 -1,1 -1,3 -2,4 -1,2 -2,3 -2,4 -1,2 0,3 -3,4 -2,1 -5,1 -5,3 0,1 -3,3 -4,4 0,2 0,4 1,5 1,-1 3,-1 4,-1 1,0 1,1 2,1 0,0 2,1 2,1 1,1 0,1 0,2 0,1 2,2 2,3 0,1 0,1 0,2 0,0 2,1 2,1 0,1 -1,1 -1,2 -1,2 3,5 -2,4 -3,-1 -6,-2 -8,-3 -4,-2 -7,-4 -8,-7 0,-1 1,-2 1,-4 1,-1 0,-3 0,-4 0,-2 2,-3 1,-4 0,-1 -2,-2 -2,-3 -1,-1 -1,-3 -3,-2 0,0 0,3 0,4 0,1 1,2 1,3 -2,2 -4,1 -3,-1 -1,-1 -4,1 -5,2 -1,1 0,1 -1,3 0,1 -3,4 0,5 0,0 1,0 1,0 1,0 2,0 1,1 0,1 -2,1 -3,2 0,0 -1,2 -2,2 -1,1 -1,-1 -1,-2 -2,1 -4,2 -4,3 -2,1 -1,1 -3,2 -2,2 -8,3 -8,6 0,4 -3,7 -3,11 0,1 -1,3 0,4 2,1 2,-1 4,-2 2,1 3,1 4,0 2,-2 1,-2 4,-2 5,-1 9,1 11,4 3,3 5,6 6,9 1,3 4,7 1,10 -1,1 -3,2 -5,2 -4,1 2,4 2,6 0,2 -1,3 1,4 0,0 0,0 1,0 0,0 1,0 1,0 1,0 2,0 3,1 3,1 9,3 6,5 -4,3 -9,-1 -10,-3 0,1 -3,2 -4,2 -3,-1 -2,-3 -4,-3 -3,-1 -4,4 -5,5 -3,0 -1,-3 -4,-3 -1,0 -3,3 -3,4 -1,4 4,5 8,2 1,-1 2,-3 4,-3 3,0 2,2 1,3 -1,5 4,3 8,4 2,1 2,2 0,3 0,0 1,0 2,0 1,0 1,0 2,0 2,1 2,1 2,2 7,-3 8,5 8,7 1,4 -4,9 -7,13 -1,1 -2,2 -3,3 -1,1 -3,1 -4,2 0,1 0,2 0,2l1 0c-1,0 -1,0 -1,1 1,1 4,2 8,3l-2 0c2,0 4,0 5,0 5,1 11,0 11,4 0,2 0,8 -4,7 -3,-1 -2,-2 -6,-1 -1,0 -2,0 -3,0 -1,0 -3,1 -3,1 -1,0 -1,0 -2,0 -2,1 4,5 5,6 2,-1 4,-1 7,0 1,0 3,1 5,0 2,0 4,0 6,0 2,1 3,2 5,3 2,0 6,0 4,1 -1,1 -6,1 -7,1 -5,0 -7,-2 -12,-2 -3,0 -7,0 -9,-1 -4,-1 -5,-3 -7,-5 -2,-1 -10,-4 -12,-4 0,1 1,2 -1,3 -2,1 -4,0 -5,-1 -1,-2 -4,-2 -8,-2 0,0 -1,0 -2,0 -2,0 -3,0 -5,-1 0,1 -1,3 -3,4 0,1 -2,1 -2,2 -1,1 0,0 0,1 1,3 2,5 1,8 0,2 -3,5 0,7 2,2 7,3 9,6 1,0 3,3 3,4 -2,2 -12,-1 -14,-2 -4,-1 -7,-2 -10,-2 -8,-1 -11,-4 -17,-7 4,3 -10,6 -6,1 0,0 -2,1 -4,1 -3,0 -6,1 -8,0 -3,2 -6,5 -10,7 -2,0 -4,0 -6,0 -2,1 -2,2 -5,2 -1,0 0,0 -2,0 -1,0 -2,1 -3,2 -1,0 -2,1 -5,2 -1,0 -3,-1 -4,-1 -4,0 -7,-1 -9,1 -2,2 4,3 7,3 3,0 6,0 9,1 0,-1 -3,-1 -2,-2 1,0 4,1 5,2 1,-1 4,-2 5,-3 1,-1 -1,-2 0,-3 2,-1 4,0 6,0 1,0 2,0 3,0 1,0 2,0 4,0 3,1 2,2 2,3 0,1 1,3 2,4 0,1 -2,2 -2,4 1,2 1,1 -1,2 -4,3 -2,6 -4,9 -1,2 -3,3 -5,4 0,1 -2,4 -5,2 -2,-2 -7,-3 -11,-4 -2,-1 -4,-1 -6,-1 -2,0 -4,1 -6,0 -5,-2 -7,-3 -12,-3 -4,0 -8,-1 -12,-2 4,3 -1,2 -4,2 -1,-1 -3,-1 -5,-1 -1,0 -2,0 -3,0 -2,-1 1,-2 2,-2 2,-1 3,-2 3,-4 1,-3 -5,-5 -8,-7 -2,1 -3,3 -4,4 -1,1 -2,1 -3,1 -2,1 -2,1 -3,2 -1,2 -2,2 -6,2 -4,0 -5,-1 -7,-2 -1,0 -2,1 -3,0 -1,-1 1,-1 1,-2 1,-1 3,-2 4,-3 -3,-1 -4,2 -4,3 -2,1 -5,2 -7,3 1,0 2,0 2,1 -1,0 -2,0 -3,0 0,1 2,3 4,2 0,0 0,0 0,1 2,-1 3,-1 5,-1 -1,1 0,2 1,3 -1,1 -2,1 -4,1 0,0 0,1 0,1 -2,0 -2,-2 -3,-2 0,0 -1,0 -2,0 -1,0 -2,0 -2,0 -1,0 -4,0 -5,-1 -2,0 -2,-2 -4,-2 -3,0 -7,1 -9,1 -2,0 -3,0 -5,0 -2,0 -4,-1 -4,1 -2,-1 -3,-1 -2,1 1,2 2,1 5,1 1,0 2,0 3,0 0,0 1,0 2,0 2,0 4,0 6,-1 0,1 1,1 1,1 2,-1 5,0 7,0 -1,1 -3,1 -4,1 0,1 3,1 4,2 0,0 -1,2 -1,3 -2,-1 -1,-3 -3,-3 -1,0 -1,0 -2,0 -1,0 -2,0 -3,-1 -3,1 -6,2 -10,2 -4,0 -6,-2 -9,0 -1,2 -3,6 -8,6 0,2 2,3 3,4 -1,1 -2,3 -2,4 1,2 3,3 4,4 1,1 1,2 0,3 0,1 0,2 -1,2 0,1 -2,1 -2,2 0,1 -3,2 -5,1 -2,1 -3,2 -5,2 -2,0 -3,-2 -5,-1 -2,-1 -2,-3 -3,-4 -1,-1 -2,-1 -4,-2 -1,0 -2,1 -2,0 0,-1 1,-2 1,-2 0,-1 0,-1 1,-2 1,0 2,0 3,0 2,-1 3,-2 5,-3 1,-1 3,-2 2,-3 0,-1 -4,-2 -5,-3 -1,0 -1,0 -1,0 -1,0 -1,0 -2,0 0,0 -2,-1 -2,-1 -2,0 -4,1 -6,1 0,0 -1,0 -1,0 0,0 0,-2 1,-2 0,0 5,-2 1,-2 -1,-1 2,-1 3,-2 0,-1 1,-2 1,-3 0,-1 -1,-1 -1,-2 0,-1 1,-1 1,-2 1,-1 0,-2 0,-3 -1,-1 1,-3 2,-5 0,0 2,-1 2,-2 0,-1 -1,-1 -3,0 -1,-1 -2,-1 -3,-2 -1,0 -3,0 -3,-1 -1,-1 0,-4 1,-4 2,0 2,1 4,1 2,1 0,2 2,4 1,0 2,0 4,0 0,0 1,0 1,0 0,-1 1,-3 2,-3 1,-1 3,0 5,-1 2,-1 1,-2 2,-3 1,-1 2,-2 4,-2 2,0 2,-2 2,-3 0,-2 0,-1 -3,-2 -4,-3 -1,-5 3,-6 2,-2 -1,-2 -4,-1 -3,0 -5,0 -3,-2 1,-1 2,-1 3,-2 1,-1 2,-1 3,-1 1,-2 0,-3 3,-4 -2,-1 -3,1 -4,1 0,0 -1,0 -1,0 -2,1 -3,3 -5,4 0,1 0,1 -1,2 -1,0 -1,0 -1,0 -1,0 -1,-1 -1,0 -2,0 -3,1 -5,1 -2,0 -1,-1 -2,-2 -2,-1 -4,-1 -4,-3 0,-1 1,-2 1,-3 0,-2 -1,-3 1,-4 -2,-1 -8,0 -9,1 -3,3 0,5 3,6 2,1 -2,5 -1,7 1,1 1,3 4,3 1,0 1,-1 2,-1 1,0 2,-1 3,0 3,1 0,2 0,3 0,2 2,3 3,4 2,2 1,2 1,4 0,1 1,3 -2,2 -2,0 -2,-1 -3,-2 -1,0 -1,0 -2,0 0,0 -1,0 -1,0 -3,0 -3,-1 -6,-1 -6,-2 -3,2 -4,4 -1,2 -3,3 -5,2 -3,0 -4,-1 -6,-2 -3,-2 -6,-3 -4,-7 1,-2 3,-3 2,-6 0,-2 -1,-4 -2,-6 -1,-2 -2,-5 -3,-7 0,-2 1,-4 2,-6 1,-1 2,-3 3,-5 1,-2 1,-4 3,-6 2,1 1,3 3,3 0,0 0,0 0,-1 0,-1 -1,-2 0,-3 1,-1 2,0 4,0 2,-1 0,-3 3,-3 4,0 2,2 0,3 2,0 4,-1 6,-2 1,-1 5,-2 3,0l1 0c-3,-2 7,-4 8,-4 4,-1 9,-3 13,-1 10,3 -11,7 -13,9 2,0 2,-1 5,0 2,0 3,1 5,2 2,0 8,1 8,-2 0,0 -1,0 -1,0 -3,0 -5,1 -3,-1 2,-2 5,-1 7,-2l0 0c-1,-1 -3,-1 -3,-2 0,-1 0,-2 0,-3 1,-1 1,-1 3,-2 3,-1 0,-1 -1,-2 -1,0 -2,0 -2,0 0,-1 -1,-1 -1,-2 -1,0 -5,0 -3,-1 1,-1 2,-1 2,-1 1,0 2,-1 2,-1 2,-1 4,0 5,1 0,0 -2,1 -2,1 0,1 2,1 3,1 1,0 1,-1 1,-2 0,0 -1,0 -1,-1 0,0 1,-1 1,-1 2,-2 3,-4 4,-6 1,-1 1,-2 3,-2 2,0 3,0 3,-1 1,-1 2,-2 3,-3 0,0 1,0 1,-1 1,0 1,-1 2,-1 1,1 1,1 2,0 1,0 2,0 2,-1 0,-1 -3,-1 -4,-1 0,0 0,0 0,0 -1,-1 5,-4 7,-4 1,-1 3,-1 5,-1 1,0 4,0 5,-1 1,-2 -2,-2 -4,-1 -2,0 -3,0 -4,-1 -1,-1 -2,-1 -3,-1 0,0 -1,0 -2,0 -1,-1 -1,-1 0,-2 0,0 1,-1 1,-1 0,-2 -2,-3 -2,-4 1,0 1,-1 1,-1 0,0 -1,0 -1,0 0,-1 0,-1 0,-1 0,-1 2,-3 4,-3 2,1 0,2 0,2 1,0 3,-1 4,-1 2,1 2,2 2,3 2,1 3,0 5,1 2,0 2,2 3,3 1,0 2,1 2,1 1,0 1,0 2,0 0,0 1,0 1,0 2,0 3,1 3,2 1,1 0,3 -1,4 0,0 -3,2 -2,2 1,-1 5,-1 7,-1 2,-2 3,-4 1,-6 -1,0 -1,-1 -2,-2 -1,0 -2,0 -2,-1 0,0 1,-1 2,-1 1,-1 1,0 2,0 1,0 2,-1 2,-1 0,-1 -1,-1 -2,-1 -2,0 -4,0 -5,1 -2,1 -2,3 -4,1 -1,0 -1,0 -2,-1 0,-1 0,-1 -1,-1 -1,-1 -3,-1 -4,-1 -1,-1 -1,-1 -1,-2 0,0 0,-1 -1,-1 -1,-1 -3,-2 -1,-2 2,-1 3,1 4,2 1,1 3,1 4,0 2,0 3,-1 4,-2 0,0 -1,0 -2,0 -2,1 -4,1 -4,0 1,-1 3,-2 4,-2 1,-1 1,-1 2,-1 2,0 4,-1 5,-2 1,0 2,-1 1,-2 -2,-1 -6,2 -7,2 -1,1 -3,0 -4,-1 -1,0 0,-1 1,-2 2,-1 3,-2 4,-3 2,-2 4,-3 6,-4 -1,-2 -4,-1 -4,-3 0,-1 2,-2 3,-3 3,-3 6,-6 9,-9 3,-3 4,-5 5,-9 0,-1 6,-8 7,-5 0,1 -1,2 -1,3 2,-1 3,-2 6,-3 1,1 -1,2 0,3 4,-2 3,-4 7,-6 5,-1 9,-1 9,3 0,3 -5,6 -5,9 1,2 3,2 5,1 2,-1 1,-2 1,-4 0,0 -1,-1 0,-2 1,-1 2,-1 3,-1 2,-1 4,-2 5,-3 2,-1 3,-2 6,-3 1,-1 2,-1 3,0 1,0 1,0 2,0 1,0 6,-3 7,-4 0,0 -1,-1 -1,-2 0,0 1,-1 2,-2 1,-1 4,-2 6,-3 2,0 3,-1 6,0 3,2 4,5 10,4 5,-2 0,-4 4,-6 2,-1 4,-1 5,-2 1,-1 1,-1 2,-1 1,-1 2,-1 2,-2 0,-1 -3,-1 -3,-3 0,-1 3,-1 4,-2 2,0 2,-1 4,-2 2,-1 4,-2 6,-2 3,-1 4,-3 7,-3 2,-1 5,0 8,-1 4,0 6,-3 9,-5 1,-1 3,-2 5,-2 1,0 2,1 3,1 1,0 2,1 3,0 2,0 4,-1 6,-2 1,-1 2,-2 4,-3 3,-2 10,0 11,-3 1,-2 -2,-2 -2,-3 0,-1 4,-3 5,-3 6,-5 16,-5 25,-6 1,0 2,0 2,0 2,0 3,0 4,0 1,0 1,-2 4,-2 1,-1 4,-2 6,-1 3,0 0,2 0,3zm-293 203c0,0 -1,0 -1,0 0,0 0,0 0,0l0 1c0,0 0,0 0,0 0,0 0,0 1,1 0,0 1,-1 1,-1 1,0 1,0 1,0 1,1 1,1 1,0 -1,0 -1,0 -1,-1 0,0 0,0 0,0 -1,0 -2,1 -2,0zm11 -15c-1,0 0,0 0,0 0,0 0,0 0,0 0,0 0,0 1,0 0,0 0,0 0,0 1,1 1,0 1,-1 0,0 1,0 0,0 0,-1 0,0 -1,0 0,0 -1,1 -1,1zm-4 4c0,0 -1,0 -1,0 0,1 0,2 1,2 0,0 0,0 1,0 0,0 0,0 0,0 0,-1 1,-1 0,-1 0,0 -1,0 -1,0 1,-1 1,-1 0,-1zm-45 27c-1,0 0,0 0,0 -1,1 -1,0 -1,1 0,0 0,0 1,0 0,0 0,0 0,0 0,0 1,0 1,0 0,0 -1,0 -1,-1 0,0 0,0 0,0zm-2 1c-1,0 -1,0 -1,0 0,1 0,1 0,1l1 -1c0,1 1,1 1,1 0,0 0,0 -1,-1l0 0c0,0 0,0 0,0 0,0 0,0 0,0zm0 -2c0,0 -1,0 -1,0 0,0 0,0 0,0 0,0 -1,1 -1,1 0,0 1,0 1,0 0,0 0,0 0,1 0,0 1,0 1,0 0,0 0,-1 0,-1l0 0c0,0 0,0 0,0l0 -1c0,0 0,0 0,0zm8 6c-1,0 -1,0 -1,0 -2,0 -3,2 -1,3 0,-1 0,-1 1,-1 1,1 -3,2 -2,3 0,0 1,0 1,0 0,1 0,1 0,1 1,0 2,0 3,-1 0,1 -1,1 0,2 1,0 1,-1 1,-1 1,0 0,1 0,1 0,1 0,1 0,2 1,-1 1,0 2,0 1,0 1,-1 1,-1 1,-1 1,-2 2,-3 1,-1 2,-1 0,-2 0,-1 -1,-1 -1,-1 -2,-1 -2,0 -2,-1 0,-1 0,-1 0,-1 -1,-1 -1,-1 -1,-1 -1,0 -1,0 -1,0 -1,0 -1,0 -2,0 -1,0 0,1 0,1zm-2 -7c-1,0 0,-1 -2,-1 0,0 1,-2 0,-2 -1,0 -2,2 -2,2 0,0 -1,0 -1,0 0,0 0,0 0,1l1 0 -1 0c0,0 0,1 2,1 -1,0 -1,1 0,1 0,0 0,0 0,0 1,0 1,1 1,2 0,0 1,0 1,0l0 0c0,0 0,0 0,0 0,1 1,1 1,0 1,0 0,0 0,-1 0,0 0,-1 0,-1 1,1 0,1 1,2 0,0 1,1 2,1 1,1 1,0 0,0 0,-1 -2,-1 -1,-2 0,0 1,0 1,0l0 0c1,0 0,0 0,1 1,0 1,0 2,0 0,1 0,2 2,2 0,-1 -1,-1 -1,-1 1,0 1,0 1,-1 1,0 1,0 2,-1 1,1 -1,1 1,2 0,0 1,0 1,0 0,-1 1,-1 1,0 1,0 1,1 2,1 0,0 -1,0 -1,0 -1,0 0,0 -1,1 -1,0 -2,0 0,1 0,0 0,0 0,0 0,1 0,0 1,0 0,0 1,0 1,0 1,1 -1,2 -1,3 1,0 1,0 2,0 1,-1 0,-1 1,-1 0,-1 1,-1 2,-1 0,0 1,0 1,-1 2,1 -2,2 -2,3 0,0 1,1 1,1 0,1 -1,1 0,2 1,0 1,-1 1,-2 1,0 1,0 2,-1 0,0 -1,-1 0,-1 0,-1 1,-1 1,-1 1,-1 1,-1 2,-1 1,-1 1,-1 2,-1 0,-1 2,-2 0,-3 0,0 0,0 -1,1 0,0 0,0 0,-1 -1,0 0,-1 -1,-1 0,-1 0,-1 -1,-1 -1,0 -1,1 -2,1 -1,0 -1,-1 -2,-1 0,0 -1,0 -2,1 -1,-1 1,-1 1,-1 0,-1 -1,-1 -2,-1 -1,0 -1,0 -2,0 -1,0 -1,0 -2,0 -1,0 -2,0 -3,0 -1,0 -2,0 -3,1 0,-1 0,-1 1,-1 0,-1 -1,-1 -1,-1 -1,-1 -1,-1 -1,-2 -1,-1 -3,0 -3,0 -1,1 -2,2 -2,2zm-209 142c2,2 11,-1 13,-2 -2,-1 -11,0 -13,2zm-15 -1c-6,0 1,3 4,2 4,0 -3,-3 -4,-2zm312 -122c0,0 -1,0 -1,0 -1,0 -2,0 -2,0 -1,-1 0,-1 -1,-2 0,-1 -1,-1 -2,-1 0,0 -1,0 -1,-1 0,0 0,0 0,-1 -4,-1 -8,3 -10,5 -2,2 -7,4 -9,6 -2,4 -2,5 -7,7 -6,2 -3,3 -3,6 0,2 -1,3 -1,5 1,1 3,2 4,3 3,3 0,7 1,11 1,2 3,6 7,8 2,1 5,1 7,2 2,1 3,3 5,4 5,2 10,3 16,4 8,0 16,1 24,0 6,0 3,-4 7,-6 2,-1 4,-1 5,-3 1,-1 0,-3 1,-4 2,-3 8,-1 12,-3 2,0 3,-2 5,-2 3,-1 5,1 6,2 2,3 3,5 9,5 5,0 10,0 15,1 4,1 7,4 10,6 6,3 5,10 15,11 6,1 11,1 16,3 2,1 3,2 5,3 2,0 3,0 5,0 1,0 2,0 3,0 5,0 8,3 13,4 5,1 9,-1 11,-4 3,-2 6,-6 5,-8 0,-3 0,-7 -3,-9 -1,-1 -3,-2 -4,-3 -1,-1 0,-2 1,-3 0,-4 -5,-4 -8,-6 -3,-2 -1,-4 0,-6 0,-4 1,-6 -3,-9 -3,-2 -7,-3 -11,-4 -2,-1 -4,-1 -5,-2 -3,-1 -4,-2 -5,-4 -1,-2 -2,-5 -2,-7 -1,-4 0,-9 -1,-13 -1,-3 -2,-7 -5,-9 -5,-4 -8,1 -9,3 -1,2 -1,4 -4,4 -2,1 -5,1 -7,1 -2,-1 -3,-2 -5,-3 -3,0 -4,1 -6,1 -2,0 -3,0 -5,-1 -2,-1 -5,-1 -7,-1 -4,2 -7,-2 -11,-3 -1,0 -2,0 -3,0 -1,0 -2,0 -3,0 -1,0 -3,-1 -5,-2 -3,-1 -7,-1 -11,-2 -2,-1 -2,-2 -5,-1 -1,0 -3,1 -5,2 -1,1 -4,2 -6,3 -2,0 -2,1 -5,2 -2,0 -3,0 -5,0 -3,1 -3,3 -2,4 1,2 3,2 -1,3 -1,0 -2,0 -3,0 -1,0 -2,0 -3,0 -5,1 -8,3 -12,3 -1,0 -1,0 -1,1zm-18 -109c-1,0 -2,0 -3,0 -1,0 -2,0 -3,0 -2,-1 -3,-1 -4,-3 0,0 -1,-1 -1,-2 0,-1 1,-2 1,-2 0,-1 -1,-2 -1,-2 0,-1 1,-2 1,-2 1,-1 0,-3 1,-4 1,-1 3,-3 5,-5 1,-1 6,-6 -1,-6 -2,0 -3,1 -4,3 0,0 0,1 0,2 -1,0 -1,1 -2,2 -1,1 -3,2 -4,3 -1,1 -2,2 -2,3 -1,1 -1,1 -2,2 0,2 -1,3 -1,5 1,1 0,3 1,4 1,0 2,1 2,1 0,1 0,1 0,2 -1,0 0,0 1,1 0,0 0,1 -1,1 0,3 7,3 10,2 2,0 4,-1 5,-2 1,-1 3,-2 2,-3zm-10 15c-1,0 -3,-1 -3,-2 -1,-1 1,-2 3,-2 3,0 3,3 0,4z"/>
 </g>
</svg>
