<?xml version="1.0" encoding="UTF-8"?>
<!DOCTYPE svg PUBLIC "-//W3C//DTD SVG 1.1//EN" "http://www.w3.org/Graphics/SVG/1.1/DTD/svg11.dtd">
<!-- Creator: CorelDRAW X8 -->
<svg xmlns="http://www.w3.org/2000/svg" xml:space="preserve" width="1000px" height="1000px" version="1.1" style="shape-rendering:geometricPrecision; text-rendering:geometricPrecision; image-rendering:optimizeQuality; fill-rule:evenodd; clip-rule:evenodd"
viewBox="0 0 1000 1000"
 xmlns:xlink="http://www.w3.org/1999/xlink">
 <defs>
  <style type="text/css">
   <![CDATA[
    .fil1 {fill:#031B89;fill-rule:nonzero}
    .fil0 {fill:#6196FE;fill-rule:nonzero}
    .fil2 {fill:white;fill-rule:nonzero}
   ]]>
  </style>
 </defs>
 <g id="Слой_x0020_1">
  <metadata id="CorelCorpID_0Corel-Layer"/>
  <path class="fil0" d="M818 820l-585 51c-55,0 -99,-44 -99,-99l25 -509c0,-55 45,-99 100,-99l501 25c55,0 99,45 99,99l59 433c0,55 -45,99 -100,99z"/>
  <path class="fil1" d="M284 386c-4,-3 -6,-7 -6,-12 0,0 0,0 0,0l-3 -40c-1,-5 1,-10 4,-13 3,-4 7,-6 12,-6l32 -3c1,0 2,0 3,0 0,0 1,0 1,0 2,0 3,-1 4,-1 -2,12 -3,26 -2,39 1,13 4,26 8,38l-8 0c0,0 -1,0 -1,0l-31 3c-5,0 -10,-2 -13,-5zm48 66c-2,4 -6,5 -10,6 -4,0 -8,-1 -11,-4 -3,-3 -5,-6 -5,-10l-3 -38 26 -2 1 0c1,-1 2,-1 3,-1 0,0 0,0 0,0l3 38c0,4 -1,8 -4,11zm133 -20c-1,0 -2,0 -3,0 -1,0 -3,0 -4,0 -1,0 -2,0 -3,-1 0,0 0,0 0,0l-3 0c-6,-3 -12,-7 -18,-14 -13,-16 -23,-43 -25,-73 -2,-25 2,-49 10,-67 1,-3 3,-6 4,-8 5,-8 10,-13 16,-17l3 -1c0,0 0,0 0,0 1,0 2,-1 3,-1 1,0 2,0 4,-1 1,0 2,0 3,0l0 0c24,2 47,41 50,88 2,26 -2,50 -10,68 -7,15 -16,24 -27,27zm-17 -198c-14,1 -26,9 -35,23l-72 35 -3 1c-2,1 -4,1 -6,2 -2,1 -4,1 -6,1 -1,1 -2,1 -2,1 -1,0 -2,0 -2,0l-32 2c-9,1 -17,5 -23,12 -3,4 -6,8 -7,13l-1 1c-13,0 -22,11 -22,24l2 15c0,6 3,12 7,16 4,3 9,5 14,5 1,1 2,1 3,0l2 0c2,5 5,9 9,13 3,3 7,5 10,6 1,0 2,1 2,1 1,0 1,0 1,0l3 40c1,8 5,15 11,21 5,4 11,7 18,7 1,0 3,0 4,0 8,-1 16,-4 21,-11 5,-6 8,-14 7,-22l-2 -34 0 0 77 24c9,11 20,17 32,17 2,1 4,0 5,0 18,-1 33,-14 43,-36 9,-20 13,-47 11,-75 -4,-60 -34,-104 -69,-102z"/>
  <path class="fil1" d="M543 313c5,-3 9,-1 16,2 5,3 11,5 17,6 4,0 9,-1 13,-3 13,-6 15,-17 16,-25 2,-8 3,-13 8,-15 5,-3 9,-1 17,3 7,3 17,8 30,2 12,-6 14,-17 16,-25 1,-8 2,-12 8,-15 3,-2 5,-6 3,-10 -2,-4 -6,-5 -10,-3 -12,6 -15,17 -16,25 -2,8 -3,12 -8,15 -5,2 -9,1 -17,-3 -7,-4 -17,-9 -30,-3 -12,6 -14,17 -16,26 -1,8 -2,12 -7,14 -6,3 -10,1 -17,-2 -7,-4 -18,-9 -30,-3 -4,2 -5,6 -3,10 2,4 6,5 10,4z"/>
  <path class="fil1" d="M666 412c-12,-5 -21,2 -27,7 -7,5 -9,7 -13,6 -3,-2 -5,-5 -6,-13 -2,-7 -5,-18 -16,-22 -12,-5 -21,2 -27,7 -7,5 -9,7 -13,6 -3,-2 -5,-5 -6,-12 -2,-8 -5,-19 -16,-23 -4,-2 -9,0 -10,4 -2,4 0,9 4,10 4,1 5,4 7,12 2,8 4,19 16,23 12,4 20,-3 27,-8 6,-4 9,-6 12,-5 4,1 5,4 7,12 2,8 4,19 16,23 2,1 4,1 6,1 9,1 16,-5 21,-9 6,-4 9,-6 13,-5 3,1 8,-1 9,-5 2,-4 0,-8 -4,-9z"/>
  <path class="fil1" d="M796 348c-4,1 -7,-2 -12,-9 -5,-6 -12,-15 -25,-15 -13,1 -19,10 -23,17 -5,7 -7,10 -12,10 -4,0 -7,-3 -12,-9 -5,-7 -12,-16 -25,-15 -13,0 -19,10 -23,17 -5,6 -7,9 -12,9 -4,1 -7,-2 -12,-9 -5,-6 -12,-15 -25,-15 -13,1 -19,10 -23,17 -5,7 -7,10 -12,10 -4,0 -7,-3 -12,-9 -5,-7 -12,-16 -24,-15 -5,0 -8,3 -8,8 0,4 4,7 8,7 5,0 7,3 12,9 5,6 11,14 22,15 1,0 2,0 3,0 13,0 19,-10 24,-17 4,-6 6,-9 11,-9 5,-1 7,2 12,9 5,6 12,15 25,15 13,-1 19,-10 23,-17 5,-7 7,-10 12,-10 4,0 7,3 12,9 5,7 12,16 25,15 13,0 19,-10 23,-17 5,-6 7,-9 12,-9 4,-1 7,2 12,9 5,6 12,15 25,15 4,0 7,-4 7,-8 0,-4 -4,-8 -8,-8z"/>
  <path class="fil1" d="M438 366c0,-1 -1,-2 -1,-4 0,-1 0,-2 -1,-3 0,-2 0,-5 -1,-7 0,0 0,0 0,0 0,-2 0,-4 -1,-6 0,-1 0,-2 0,-4 0,-7 0,-14 0,-21 0,-1 0,-2 0,-2 1,-1 1,-1 1,-2 0,-1 0,-1 0,-2 0,-1 0,-1 0,-2 1,0 3,0 4,0 1,0 2,0 2,0 3,0 6,0 8,1 3,1 6,2 8,4 1,0 1,1 2,1 5,5 9,11 9,19 1,7 -2,14 -6,19 -1,1 -1,1 -2,2 -2,2 -4,4 -7,5 -2,1 -5,2 -8,2 0,0 -1,0 -2,0 -2,1 -3,1 -5,0zm15 -99c-1,0 -2,0 -3,0 -1,0 -3,1 -4,1 -3,1 -5,2 -8,4 -7,5 -13,16 -16,30l0 0 0 1 -1 3c0,1 -1,3 -1,4 0,3 -1,6 -1,9 0,3 0,6 0,9 0,2 -1,3 0,5 0,3 0,7 0,10 0,2 0,3 0,5 0,1 1,2 1,4 0,1 0,2 0,3 0,2 1,3 1,5 0,1 0,2 1,4 0,0 0,0 0,0 0,1 0,2 1,3 0,1 0,2 0,3 1,1 1,3 1,4 0,0 1,1 1,1l1 3 0 1 0 0c5,16 13,27 23,33 2,1 5,2 8,2 0,0 1,0 1,0 1,0 2,0 3,0 1,0 2,0 3,0l0 0c16,-4 27,-26 28,-55 1,-7 1,-14 0,-21 -3,-40 -19,-69 -39,-71z"/>
  <polygon class="fil2" points="250,622 250,515 272,515 272,602 318,602 318,622 "/>
  <path class="fil2" d="M390 590l-14 -36 -15 36 29 0zm13 32l-6 -14 -43 0 -6 14 -24 0 48 -109 7 0 48 109 -24 0z"/>
  <polygon class="fil2" points="453,622 453,535 419,535 419,515 509,515 509,535 475,535 475,622 "/>
  <polygon class="fil2" points="524,622 524,515 596,515 596,535 546,535 546,556 582,556 582,575 546,575 546,602 598,602 598,622 "/>
  <path class="fil2" d="M609 600l15 -11c8,10 16,15 26,15 5,0 9,-1 11,-3 3,-2 4,-5 4,-9 0,-3 0,-5 -2,-7 -2,-1 -6,-3 -11,-6l-12 -5c-17,-8 -25,-18 -25,-31 0,-9 3,-16 10,-22 6,-5 15,-8 25,-8 8,0 15,2 21,5 6,4 11,9 14,15l-15 12c-5,-9 -12,-13 -20,-13 -4,0 -7,1 -10,3 -2,2 -3,4 -3,8 0,2 1,5 2,6 2,2 5,4 10,6l12 5c9,4 16,9 20,14 5,4 7,10 7,17 0,10 -4,18 -11,24 -7,6 -16,9 -27,9 -9,0 -17,-3 -24,-7 -7,-4 -13,-10 -17,-17z"/>
  <polygon class="fil2" points="731,622 731,535 697,535 697,515 787,515 787,535 753,535 753,622 "/>
  <polygon class="fil2" points="319,652 341,652 341,761 333,761 272,695 272,759 250,759 250,650 257,650 319,716 "/>
  <polygon class="fil2" points="365,759 365,652 437,652 437,672 387,672 387,694 424,694 424,712 387,712 387,739 439,739 439,759 "/>
  <polygon class="fil2" points="584,652 609,652 566,761 559,761 529,694 499,761 492,761 449,652 474,652 497,715 525,650 533,650 561,715 "/>
  <path class="fil2" d="M614 737l15 -11c8,10 17,16 27,16 4,0 8,-2 11,-4 2,-2 4,-5 4,-8 0,-3 -1,-6 -3,-7 -2,-2 -5,-4 -11,-7l-11 -5c-18,-7 -26,-18 -26,-30 0,-9 3,-17 10,-22 7,-6 15,-9 25,-9 8,0 15,2 21,6 6,3 11,8 15,15l-15 11c-6,-8 -13,-12 -21,-12 -4,0 -7,1 -9,2 -3,2 -4,5 -4,8 0,3 1,5 3,7 1,1 5,3 9,5l13 6c9,4 15,8 20,13 4,5 6,11 6,18 0,10 -4,17 -11,23 -7,6 -16,9 -26,9 -9,0 -17,-2 -25,-6 -7,-5 -12,-10 -17,-18z"/>
 </g>
</svg>
