<svg width="25" height="19" viewBox="0 0 25 19" fill="none" xmlns="http://www.w3.org/2000/svg">
<path fill-rule="evenodd" clip-rule="evenodd" d="M2.92969 0H22.0703C23.6857 0 25 1.31426 25 2.92969V15.4297C25 17.0451 23.6857 18.3594 22.0703 18.3594H2.92969C1.31426 18.3594 0 17.0451 0 15.4297V2.92969C0 1.31426 1.31426 0 2.92969 0ZM22.0703 16.4062C22.6088 16.4062 23.0469 15.9682 23.0469 15.4297V3.52868L12.4999 11.3736L1.95312 3.52877V15.4297C1.95312 15.9682 2.39121 16.4062 2.92969 16.4062H22.0703ZM3.10741 1.95312L12.4999 8.93938L21.8925 1.95312H3.10741Z" fill="white"/>
</svg>
