<?xml version="1.0" encoding="UTF-8"?>
<!DOCTYPE svg PUBLIC "-//W3C//DTD SVG 1.1//EN" "http://www.w3.org/Graphics/SVG/1.1/DTD/svg11.dtd">
<!-- Creator: CorelDRAW X8 -->
<svg xmlns="http://www.w3.org/2000/svg" xml:space="preserve" width="900px" height="573px" version="1.1" style="shape-rendering:geometricPrecision; text-rendering:geometricPrecision; image-rendering:optimizeQuality; fill-rule:evenodd; clip-rule:evenodd"
viewBox="0 0 900 573"
 xmlns:xlink="http://www.w3.org/1999/xlink">
 <defs>
  <style type="text/css">
   <![CDATA[
    .fil0 {fill:url(#id0)}
   ]]>
  </style>
  <linearGradient id="id0" gradientUnits="userSpaceOnUse" x1="157" y1="469.5" x2="722" y2="61.5">
   <stop offset="0" style="stop-opacity:1; stop-color:#E460EC"/>
   <stop offset="0.380392" style="stop-opacity:1; stop-color:#EA659F"/>
   <stop offset="1" style="stop-opacity:1; stop-color:#F16A51"/>
  </linearGradient>
 </defs>
 <g id="Слой_x0020_1">
  <metadata id="CorelCorpID_0Corel-Layer"/>
  <path class="fil0" d="M117 419c-7,-13 -41,-32 -44,-73 -5,-67 5,-104 59,-151 35,-29 109,-37 146,-12 34,24 122,20 154,-5 27,-20 36,-25 64,-49 28,-25 54,-35 92,-40 91,-11 179,12 141,109 -11,29 -72,71 -70,123 1,32 5,39 -5,65 -22,58 -21,89 -82,115 -46,19 -219,8 -274,-9 -87,-28 -97,-23 -138,-41 -9,-5 -32,-21 -43,-32z"/>
 </g>
</svg>
