<?xml version="1.0" encoding="UTF-8"?>
<!DOCTYPE svg PUBLIC "-//W3C//DTD SVG 1.1//EN" "http://www.w3.org/Graphics/SVG/1.1/DTD/svg11.dtd">
<!-- Creator: CorelDRAW X8 -->
<svg xmlns="http://www.w3.org/2000/svg" xml:space="preserve" width="1000px" height="1000px" version="1.1" style="shape-rendering:geometricPrecision; text-rendering:geometricPrecision; image-rendering:optimizeQuality; fill-rule:evenodd; clip-rule:evenodd"
viewBox="0 0 1000 1000"
 xmlns:xlink="http://www.w3.org/1999/xlink">
 <defs>
  <style type="text/css">
   <![CDATA[
    .fil82 {fill:#FEFEFE;fill-rule:nonzero}
    .fil90 {fill:#FEE7C1;fill-rule:nonzero}
    .fil76 {fill:#FBE8F2;fill-rule:nonzero}
    .fil72 {fill:#F8BE9E;fill-rule:nonzero}
    .fil1 {fill:#E94F43;fill-rule:nonzero}
    .fil18 {fill:#E94A46;fill-rule:nonzero}
    .fil15 {fill:#E84240;fill-rule:nonzero}
    .fil83 {fill:#E74238;fill-rule:nonzero}
    .fil3 {fill:#E43024;fill-rule:nonzero}
    .fil6 {fill:#FADEA7;fill-rule:nonzero}
    .fil4 {fill:#FBDB92;fill-rule:nonzero}
    .fil71 {fill:#F4B58B;fill-rule:nonzero}
    .fil12 {fill:#E12325;fill-rule:nonzero}
    .fil41 {fill:#F8FCFE;fill-rule:nonzero}
    .fil7 {fill:#F6C460;fill-rule:nonzero}
    .fil77 {fill:#F5F8EC;fill-rule:nonzero}
    .fil75 {fill:#F1E4F1;fill-rule:nonzero}
    .fil79 {fill:#F4DAA6;fill-rule:nonzero}
    .fil89 {fill:#F1C391;fill-rule:nonzero}
    .fil78 {fill:#EEAE71;fill-rule:nonzero}
    .fil92 {fill:#F0C388;fill-rule:nonzero}
    .fil93 {fill:#EFF3E4;fill-rule:nonzero}
    .fil21 {fill:#EBF2FA;fill-rule:nonzero}
    .fil91 {fill:#E8EDE0;fill-rule:nonzero}
    .fil88 {fill:#DCAD77;fill-rule:nonzero}
    .fil2 {fill:#BD2727;fill-rule:nonzero}
    .fil85 {fill:#C38154;fill-rule:nonzero}
    .fil13 {fill:#A92826;fill-rule:nonzero}
    .fil5 {fill:#C0A166;fill-rule:nonzero}
    .fil11 {fill:#A22826;fill-rule:nonzero}
    .fil80 {fill:#C4CACB;fill-rule:nonzero}
    .fil14 {fill:#7A2622;fill-rule:nonzero}
    .fil8 {fill:#ADCA2E;fill-rule:nonzero}
    .fil70 {fill:#8EA2D3;fill-rule:nonzero}
    .fil10 {fill:#89AF31;fill-rule:nonzero}
    .fil17 {fill:#82BB31;fill-rule:nonzero}
    .fil16 {fill:#5F8F39;fill-rule:nonzero}
    .fil9 {fill:#547434;fill-rule:nonzero}
    .fil68 {fill:#4A77BA;fill-rule:nonzero}
    .fil84 {fill:#3E6EB4;fill-rule:nonzero}
    .fil67 {fill:#375EA7;fill-rule:nonzero}
    .fil87 {fill:#2D2C39;fill-rule:nonzero}
    .fil0 {fill:#3C4D9A;fill-rule:nonzero}
    .fil59 {fill:#1F1F22;fill-rule:nonzero}
    .fil74 {fill:#1E1E1F;fill-rule:nonzero}
    .fil73 {fill:#212125;fill-rule:nonzero}
    .fil69 {fill:#244C99;fill-rule:nonzero}
    .fil86 {fill:#2B3553;fill-rule:nonzero}
    .fil81 {fill:#292C43;fill-rule:nonzero}
    .fil26 {fill:#242432;fill-rule:nonzero}
    .fil22 {fill:url(#id46)}
    .fil31 {fill:url(#id47)}
    .fil50 {fill:url(#id48)}
    .fil23 {fill:url(#id49)}
    .fil55 {fill:url(#id50)}
    .fil53 {fill:url(#id51)}
    .fil65 {fill:url(#id52)}
    .fil62 {fill:url(#id53)}
    .fil48 {fill:url(#id54)}
    .fil29 {fill:url(#id55)}
    .fil64 {fill:url(#id56)}
    .fil32 {fill:url(#id57)}
    .fil25 {fill:url(#id58)}
    .fil35 {fill:url(#id59)}
    .fil45 {fill:url(#id60)}
    .fil49 {fill:url(#id61)}
    .fil66 {fill:url(#id62)}
    .fil37 {fill:url(#id63)}
    .fil33 {fill:url(#id64)}
    .fil27 {fill:url(#id65)}
    .fil58 {fill:url(#id66)}
    .fil34 {fill:url(#id67)}
    .fil47 {fill:url(#id68)}
    .fil61 {fill:url(#id69)}
    .fil42 {fill:url(#id70)}
    .fil60 {fill:url(#id71)}
    .fil40 {fill:url(#id72)}
    .fil94 {fill:url(#id73)}
    .fil54 {fill:url(#id74)}
    .fil46 {fill:url(#id75)}
    .fil36 {fill:url(#id76)}
    .fil38 {fill:url(#id77)}
    .fil43 {fill:url(#id78)}
    .fil44 {fill:url(#id79)}
    .fil19 {fill:url(#id80)}
    .fil95 {fill:url(#id81)}
    .fil39 {fill:url(#id82)}
    .fil28 {fill:url(#id83)}
    .fil30 {fill:url(#id84)}
    .fil56 {fill:url(#id85)}
    .fil52 {fill:url(#id86)}
    .fil63 {fill:url(#id87)}
    .fil20 {fill:url(#id88)}
    .fil57 {fill:url(#id89)}
    .fil51 {fill:url(#id90)}
    .fil24 {fill:url(#id91)}
   ]]>
  </style>
   <clipPath id="id0">
    <path d="M467 817l0 -62 59 -35c4,-2 8,-9 8,-14l0 -16 0 0 0 -16 0 0 -1 -82 91 -53 0 8 -1 0c-2,1 -2,3 -3,4l0 0 0 0c0,0 0,0 0,0l0 6 1 0c0,1 0,2 1,2l2 1 0 0c-2,1 -2,2 -3,3l0 0 0 7 1 0c0,1 0,1 1,2l2 1 0 18 -1 1c-2,1 -2,2 -3,3l0 0 0 0c0,0 0,0 0,0l0 7 1 0c0,0 0,1 1,1l99 57c1,1 3,1 4,1 2,0 4,-1 6,-1l49 -30c0,4 -2,7 -5,9l-309 178zm191 -322l0 -9 0 -1 0 -22 -1 0 0 -29 124 -71 0 78 -10 -6c-1,-1 -3,-1 -5,-1 -2,0 -4,0 -5,1l-7 4c0,0 0,0 0,-1 -1,-1 -2,-2 -3,-2l0 0 -11 -7c-1,0 -1,0 -2,0l0 0c-1,-1 -2,-1 -3,-1 -2,0 -4,1 -7,3 -1,0 -3,1 -4,2l0 -10 -13 8 13 -8 -12 -7 -14 8 1 47 -41 24 0 0z"/>
   </clipPath>
   <clipPath id="id1">
    <path d="M533 592l0 -20 0 0 0 -15 125 -71 0 9 -35 21c-2,0 -2,2 -3,3l0 0 0 0c0,0 0,0 0,0l0 7 1 0c0,0 0,1 1,1l2 2 0 10 -91 53zm0 -57l0 -29 124 -72 0 29 -124 72 0 0z"/>
   </clipPath>
   <clipPath id="id2">
    <path d="M533 557l0 -15 0 -7 124 -72 1 0 0 23 0 0 -125 71 0 0z"/>
   </clipPath>
   <clipPath id="id3">
    <path d="M467 755l0 -2 0 -24 67 -38 0 15c0,5 -4,12 -8,14l-59 35zm0 -42l0 -103 66 -38 0 20 1 82 -67 39zm0 -152l0 -11c0,-1 1,-3 1,-4 1,-2 2,-4 4,-5l61 -35 0 29 0 7 0 -19 -66 38 0 0z"/>
   </clipPath>
   <clipPath id="id4">
    <path d="M467 610l0 -15c0,0 0,0 0,0 1,0 2,0 3,-1 3,-1 5,-4 6,-8l-3 1c-1,2 -1,3 -3,4 0,0 0,0 -1,0 0,0 0,0 -1,0 0,-1 0,-2 0,-4l8 -5 0 0c0,-3 0,-5 -1,-6 -1,-1 -2,-1 -2,-1 -1,0 -2,0 -3,1 -1,0 -2,1 -3,2l0 -17 66 -38 0 19 0 15 0 15 -66 38zm15 -41l-3 2c0,0 0,1 0,2 0,0 0,1 0,2l0 14 3 -2 0 -10c0,-1 1,-3 1,-4 1,-1 1,-2 2,-3 1,0 1,0 1,0 1,0 2,1 2,4l0 10 3 -2 0 -12c0,-2 0,-4 -1,-4 0,-1 -1,-1 -1,-1 -1,0 -2,0 -2,1 -1,0 -2,1 -3,2 -1,1 -1,3 -2,4l0 0c0,0 0,-1 0,-1 0,-1 0,-2 0,-2zm21 -12c-1,0 -2,0 -3,1 -2,1 -4,3 -5,5 -1,3 -1,5 -1,8 0,3 0,5 1,6 1,1 1,1 2,1 1,0 2,-1 3,-1 1,-1 2,-2 3,-3 1,-1 2,-2 2,-3 1,-1 1,-3 1,-4l-3 2c-1,1 -1,2 -1,3 -1,1 -1,1 -2,2 0,0 -1,0 -1,0 -1,0 -2,-2 -2,-5 0,-4 1,-7 3,-8 0,0 1,0 1,0 0,0 1,0 1,0 0,0 0,1 0,2l4 -2c0,-2 -1,-3 -2,-4 0,0 -1,0 -1,0zm9 -12l-3 2 0 24 3 -2 0 -9c0,-2 0,-3 1,-4 0,-2 1,-3 2,-3 0,0 1,0 1,0 1,0 1,1 1,3l0 10 4 -2 0 -11c0,-2 -1,-4 -1,-5 -1,0 -1,0 -2,0 0,0 -1,0 -2,1 -1,0 -2,1 -2,2 -1,1 -2,2 -2,4l0 0c0,-1 0,-2 0,-4l0 -6zm-44 39c0,-1 0,-2 0,-3 1,-1 1,-2 2,-3 1,0 1,0 1,0 0,0 1,0 1,1 0,0 1,1 1,2l-5 3 0 0z"/>
   </clipPath>
   <clipPath id="id5">
    <path d="M467 729l0 -16 67 -39 0 0 0 16 0 1 -67 38 0 0z"/>
   </clipPath>
   <clipPath id="id6">
    <path d="M467 595c0,0 0,0 0,0l0 -17c1,-1 2,-2 3,-2 1,-1 2,-1 3,-1 0,0 1,0 2,1 1,1 1,3 1,6l0 0 -8 5c0,2 0,3 0,4 1,0 1,0 1,0 1,0 1,0 1,0 2,-1 2,-2 3,-4l3 -1c-1,4 -3,7 -6,8 -1,1 -2,1 -3,1zm4 -17c0,0 0,0 -1,1 -1,0 -1,1 -2,2 0,1 0,2 0,3l5 -3c0,-1 -1,-2 -1,-2 0,-1 0,-1 -1,-1l0 0z"/>
   </clipPath>
   <clipPath id="id7">
    <path d="M479 589l0 -14c0,-1 0,-2 0,-2 0,-1 0,-2 0,-2l3 -2c0,0 0,1 0,2 0,0 0,1 0,1l0 0c1,-1 1,-3 2,-4 1,-1 2,-1 3,-2 0,-1 1,-1 2,-1 0,0 1,0 1,1 1,1 1,2 1,4l0 12 -3 2 0 -10c0,-3 -1,-4 -2,-4 0,0 0,0 -1,0 -1,1 -1,2 -2,3 0,1 -1,3 -1,4l0 10 -3 2 0 0z"/>
   </clipPath>
   <clipPath id="id8">
    <path d="M497 578c-1,0 -1,0 -2,-1 -1,-1 -1,-3 -1,-6 0,-3 0,-5 1,-8 1,-2 3,-4 5,-5 1,-1 2,-1 3,-1 0,0 1,0 1,0 1,1 2,2 2,4l-4 2c0,-1 0,-2 0,-2 -1,0 -1,0 -1,0 0,0 -1,0 -1,0 -2,1 -3,4 -3,8 0,3 1,5 2,5 0,0 1,0 1,0 1,-1 1,-1 2,-2 0,-1 0,-2 1,-3l3 -2c0,1 0,3 -1,4 0,1 -1,2 -2,3 -1,1 -2,2 -3,3 -1,0 -2,1 -3,1l0 0z"/>
   </clipPath>
   <clipPath id="id9">
    <path d="M509 571l-1 -24 4 -2 0 6c0,2 0,3 0,4l0 0c0,-2 1,-3 2,-4 0,-1 1,-2 2,-2 1,-1 2,-1 2,-1 1,0 1,0 2,0 0,1 1,3 1,5l0 11 -4 2 0 -10c0,-2 0,-3 -1,-3 0,0 -1,0 -1,0 -1,0 -2,1 -2,3 -1,1 -1,2 -1,4l0 9 -3 2 0 0z"/>
   </clipPath>
   <clipPath id="id10">
    <path d="M726 661c-1,0 -3,0 -4,-1l-99 -57c-1,0 -1,-1 -1,-1l-1 0 0 -7c0,1 1,2 2,3l99 56c1,1 2,1 4,1 -1,3 -1,5 -1,5l6 0 0 0 50 -30c0,0 0,0 0,0l-49 30c-2,1 -4,1 -6,1zm-105 -66l0 0 0 0c0,0 0,0 0,0l0 0z"/>
   </clipPath>
   <clipPath id="id11">
    <path d="M726 655c-2,0 -3,0 -4,-1l-99 -56c-1,-1 -2,-2 -2,-3 0,0 0,0 0,0 0,0 0,0 0,0 1,-1 1,-2 3,-3l1 -1 0 3 102 58c-1,1 -1,2 -1,3l0 0z"/>
   </clipPath>
   <clipPath id="id12">
    <path d="M727 652l-102 -58 0 -3 0 -18 0 5 101 58c1,2 1,4 1,6 0,3 0,7 0,10l0 0z"/>
   </clipPath>
   <clipPath id="id13">
    <path d="M726 636l-101 -58 0 -5 97 56c0,0 1,0 2,0 1,2 2,4 2,7l0 0z"/>
   </clipPath>
   <clipPath id="id14">
    <path d="M724 629c-1,0 -2,0 -2,0l-97 -56 -2 -1c-1,-1 -1,-1 -1,-2l-1 0 0 -7 0 0c0,1 1,3 2,3l99 57c1,1 3,1 4,1 1,0 2,0 2,0l-6 2c0,0 1,1 2,3l0 0z"/>
   </clipPath>
   <clipPath id="id15">
    <path d="M726 624c-1,0 -3,0 -4,-1l-99 -57c-1,0 -2,-2 -2,-3 1,-1 1,-2 3,-3l0 0 98 57c1,0 3,1 5,1 2,0 4,-1 5,-2l49 -29 0 6 -53 31 0 0c0,0 -1,0 -2,0l0 0z"/>
   </clipPath>
   <clipPath id="id16">
    <path d="M731 660l-6 0c0,0 0,-2 1,-5 0,-1 0,-2 1,-3 0,-3 0,-7 0,-10 0,-2 0,-4 -1,-6 0,-3 -1,-5 -2,-7 -1,-2 -2,-3 -2,-3l6 -2 0 0c0,0 4,7 4,19 0,11 -1,17 -1,17l0 0 0 0z"/>
   </clipPath>
   <clipPath id="id17">
    <path d="M731 660l0 0c0,0 1,-6 1,-17 0,-12 -4,-19 -4,-19l0 0 53 -31 0 5 -38 23 0 0c-2,1 -4,4 -3,6 0,2 1,3 1,7 0,4 0,7 0,9 0,1 1,2 2,2 0,1 1,1 2,1 0,0 1,0 1,-1l35 -20 0 4c0,1 0,1 0,1l-50 30zm13 -17l0 0c0,-2 0,-5 0,-9 0,-4 -1,-6 -1,-8 0,0 1,-2 1,-2l37 -22 0 19 -36 22 -1 0 0 0z"/>
   </clipPath>
   <clipPath id="id18">
    <path d="M745 646c-1,0 -2,0 -2,-1 -1,0 -2,-1 -2,-2 0,-2 0,-5 0,-9 0,-4 -1,-5 -1,-7 -1,-2 1,-5 3,-6l0 0 38 -23 0 4 -37 22c0,0 -1,2 -1,2 0,2 1,4 1,8 0,4 0,7 0,9l0 0 1 0 36 -22 0 4 -35 20c0,1 -1,1 -1,1l0 0z"/>
   </clipPath>
   <clipPath id="id19">
    <path d="M727 618c-2,0 -4,-1 -5,-1l-98 -57 -2 -1c-1,0 -1,-1 -1,-2l-1 0 0 -6c0,1 1,2 2,2l100 58c1,0 3,1 4,1 0,3 -1,5 -1,5l6 0 0 0 50 -30 0 0 -49 29c-1,1 -3,2 -5,2zm-107 -67l0 0 0 0c0,0 0,0 0,0l0 0z"/>
   </clipPath>
   <clipPath id="id20">
    <path d="M726 612c-1,0 -3,-1 -4,-1l-100 -58c-1,0 -2,-1 -2,-2 0,0 0,0 0,0 0,0 0,0 0,0 1,-2 1,-3 3,-4l1 0 0 2 103 59c0,2 -1,3 -1,4l0 0z"/>
   </clipPath>
   <clipPath id="id21">
    <path d="M727 608l-103 -59 0 -2 0 -8 0 -10 0 0 0 5 103 58c0,2 0,4 1,6 0,4 -1,7 -1,10l0 0z"/>
   </clipPath>
   <clipPath id="id22">
    <path d="M727 592l-103 -58 0 -5 98 56c1,0 1,0 2,0 1,2 2,5 3,7l0 0z"/>
   </clipPath>
   <clipPath id="id23">
    <path d="M724 585c-1,0 -1,0 -2,0l-98 -56 -2 -2c-1,0 -1,-1 -1,-1l-1 0 0 -7c0,1 1,2 2,3l100 57c1,1 3,1 5,1 0,0 1,0 2,0l-6 2c0,0 0,1 1,3zm-104 -66l0 0 0 0c0,0 0,0 0,0l0 0z"/>
   </clipPath>
   <clipPath id="id24">
    <path d="M727 580c-2,0 -4,0 -5,-1l-100 -57c-1,-1 -2,-2 -2,-3 0,0 0,0 0,0 0,0 0,0 0,0 1,-1 1,-2 3,-3l35 -21 41 -24 0 46 12 7 0 0 13 -8c0,0 0,-2 0,-5 0,-2 0,-4 0,-6l0 0c2,3 4,5 6,6 1,0 2,0 2,0 2,0 5,-1 8,-3 6,-3 11,-9 14,-18 3,-8 5,-17 5,-29 0,-10 -2,-18 -5,-22l7 -4c1,-1 3,-1 5,-1 2,0 4,0 5,1l10 6 0 73c-1,0 -1,0 -2,1 -1,1 -2,2 -2,3 0,1 0,1 2,2 0,1 1,1 2,1l0 5 -1 1c0,1 0,1 -1,2 0,0 -1,0 -2,0 0,0 0,0 -1,0 -1,0 -2,0 -4,-1l8 -5 0 0c-2,-1 -5,-2 -7,-2 -1,0 -1,0 -1,0 -2,0 -4,0 -5,1 -2,1 -3,2 -2,4 0,1 1,2 3,3 3,2 5,3 7,3 1,0 1,0 1,0 2,0 3,-1 5,-1l0 18 -52 31 0 0c-1,0 -2,0 -2,0zm-6 -34c0,0 -1,0 -1,0 -2,0 -4,1 -6,2 -2,1 -3,3 -3,4 0,2 2,4 5,6 3,1 6,2 9,2 0,0 0,0 1,0 2,0 5,0 7,-2 2,-1 3,-2 3,-3 0,-1 0,-2 -1,-4l-4 1c1,2 1,4 -1,5 -1,0 -3,1 -4,1 0,0 -1,0 -1,0 -2,0 -4,-1 -6,-2 -2,-2 -3,-3 -3,-4 -1,-1 0,-2 1,-3 1,0 2,-1 4,-1 0,0 0,0 0,0 1,0 2,1 3,1l2 -2c-1,-1 -3,-1 -5,-1zm5 -6l-3 2 19 11 3 -2 -7 -4c-1,-1 -2,-2 -3,-2 0,-1 0,-2 1,-2 1,0 1,0 2,0 1,0 2,0 4,1l8 4 3 -1 -9 -6c-2,-1 -3,-1 -5,-1 0,0 0,0 -1,0 -1,0 -2,0 -3,1 -1,0 -2,1 -2,1 0,1 0,2 1,3l0 0c-1,-1 -2,-1 -3,-2l-5 -3zm19 -5l-3 2 14 8 3 -2 -14 -8zm6 -4l-3 2c1,0 1,1 2,1 0,0 1,0 1,1l11 6 3 -2 -7 -4c-1,-1 -2,-1 -2,-2 -1,-1 0,-1 0,-2 1,0 2,0 2,0 1,0 3,0 4,1l8 5 3 -2 -9 -5c-1,-1 -3,-2 -5,-2 0,0 0,0 0,0 -2,0 -3,0 -4,1 -1,0 -1,1 -2,2 0,0 1,1 1,2l0 0c0,0 -1,0 -1,-1 -1,0 -2,0 -2,-1zm-11 1l-3 2 2 1 4 -1 -3 -2zm30 -5c-1,-1 -1,-2 -2,-2 0,-1 0,-1 1,-2 1,0 1,0 2,0 0,0 1,0 1,0 1,0 2,0 3,1l-5 3zm11 -9c0,0 -1,0 0,-1 0,0 0,0 0,0l0 1 0 0z"/>
   </clipPath>
   <clipPath id="id25">
    <path d="M731 617l-6 0c0,0 1,-2 1,-5 1,-1 1,-2 1,-4 0,-3 1,-6 1,-10 -1,-2 -1,-4 -1,-6 -1,-2 -2,-5 -3,-7 -1,-2 -1,-3 -1,-3l6 -2 0 0c0,0 4,7 4,19 0,12 -2,18 -2,18l0 0 0 0z"/>
   </clipPath>
   <clipPath id="id26">
    <path d="M731 617l0 0c0,0 2,-6 2,-18 0,-12 -4,-19 -4,-19l0 0 52 -31 0 6 -38 23 0 0c-2,1 -3,3 -2,5 0,1 1,4 1,8 0,3 0,5 0,8 0,1 1,2 2,3 1,0 1,0 2,0 0,0 1,0 1,0l34 -20 0 5 -50 30zm15 -18l-1 0c0,-3 0,-6 0,-8 0,-5 -1,-7 -1,-9 -1,-1 0,-1 0,-2l37 -21 0 19 -35 21 0 0 0 0z"/>
   </clipPath>
   <clipPath id="id27">
    <path d="M746 602c-1,0 -1,0 -2,0 -1,-1 -2,-2 -2,-3 0,-3 0,-5 0,-8 0,-4 -1,-7 -1,-8 -1,-2 0,-4 2,-5l0 0 38 -23 0 4 -37 21c0,1 -1,1 0,2 0,2 1,4 1,9 0,2 0,5 0,8l1 0 0 0 35 -21 0 4 -34 20c0,0 -1,0 -1,0l0 0z"/>
   </clipPath>
   <clipPath id="id28">
    <path d="M726 560c-1,0 -1,0 -1,0 -3,0 -6,-1 -9,-2 -3,-2 -5,-4 -5,-6 0,-1 1,-3 3,-4 2,-1 4,-2 6,-2 0,0 1,0 1,0 2,0 4,0 5,1l-2 2c-1,0 -2,-1 -3,-1 0,0 0,0 0,0 -2,1 -3,1 -4,1 -1,1 -2,2 -1,3 0,1 1,2 3,4 2,1 4,2 6,2 0,0 1,0 1,0 1,0 3,-1 4,-1 2,-1 2,-3 1,-5l4 -1c1,2 1,3 1,4 0,1 -1,2 -3,3 -2,2 -5,2 -7,2l0 0z"/>
   </clipPath>
   <clipPath id="id29">
    <path d="M742 553l-19 -11 3 -2 5 3c1,1 2,1 3,2l0 0c-1,-1 -1,-2 -1,-3 0,0 1,-1 2,-1 1,-1 2,-1 3,-1 1,0 1,0 1,0 2,0 3,0 5,1l9 6 -3 1 -8 -4c-2,-1 -3,-1 -4,-1 -1,0 -1,0 -2,0 -1,0 -1,1 -1,2 1,0 2,1 3,2l7 4 -3 2 0 0z"/>
   </clipPath>
   <clipPath id="id30">
    <path d="M756 545l-14 -8 3 -2 14 8 -3 2zm-17 -10l-2 -1 3 -2 3 2 -4 1 0 0z"/>
   </clipPath>
   <clipPath id="id31">
    <path d="M762 541l-11 -6c0,0 -1,-1 -1,-1 -1,0 -1,-1 -2,-1l3 -2c0,1 1,1 2,1 0,1 1,1 1,1l0 0c0,-1 -1,-2 -1,-2 1,-1 1,-2 2,-2 1,-1 2,-1 4,-1 0,0 0,0 0,0 2,0 4,1 5,2l9 5 -3 2 -8 -5c-1,-1 -3,-1 -4,-1 0,0 -1,0 -2,0 0,1 -1,1 0,2 0,1 1,1 2,2l7 4 -3 2 0 0z"/>
   </clipPath>
   <clipPath id="id32">
    <path d="M776 532c0,0 0,0 -1,0 -2,0 -4,-1 -7,-3 -2,-1 -3,-2 -3,-3 -1,-2 0,-3 2,-4 1,-1 3,-1 5,-1 0,0 0,0 1,0 2,0 5,1 7,2l0 1 -8 4c2,1 3,1 4,1 0,0 1,0 1,0 1,0 2,0 2,0 1,-1 1,-1 1,-2l1 -1 0 5c-1,0 -3,1 -5,1zm-5 -9c-1,0 -1,0 -2,0 -1,1 -1,1 -1,2 1,0 1,1 2,2l5 -3c-1,-1 -2,-1 -3,-1 0,0 -1,0 -1,0l0 0z"/>
   </clipPath>
   <clipPath id="id33">
    <path d="M781 521c-1,0 -2,0 -2,-1 -2,-1 -2,-1 -2,-2 0,-1 1,-2 2,-3 1,0 1,-1 2,-1l0 3c0,0 0,0 0,0 -1,1 0,1 0,1l0 3 0 0z"/>
   </clipPath>
   <clipPath id="id34">
    <path d="M711 524l-12 -7 0 -46 0 -47 12 7 0 75c0,6 0,12 0,18l0 0z"/>
   </clipPath>
   <clipPath id="id35">
    <path d="M711 431l-12 -7 13 -8 12 7 -13 8 0 0z"/>
   </clipPath>
   <clipPath id="id36">
    <path d="M724 460l0 -11 0 -16c1,-1 3,-2 4,-2 3,-2 5,-3 7,-3 1,0 2,0 3,1l0 0c1,0 1,0 2,0l11 7 0 0c-1,-1 -2,-1 -4,-1 -2,0 -4,1 -7,2 -8,5 -13,13 -16,23l0 0 0 0z"/>
   </clipPath>
   <clipPath id="id37">
    <path d="M725 491c-1,-2 -1,-5 -1,-9 0,-7 1,-13 3,-18 1,-4 3,-8 6,-10 0,3 0,6 0,9 0,14 -3,23 -8,28l0 0z"/>
   </clipPath>
   <clipPath id="id38">
    <path d="M731 500c-2,0 -3,-1 -4,-2 -1,-2 -2,-4 -2,-7 5,-4 8,-14 8,-28 0,-3 0,-6 0,-9 0,0 1,-1 2,-1 1,-1 3,-1 4,-1 1,0 3,0 4,2 1,3 2,8 2,15 0,16 -3,26 -10,30 -2,1 -3,1 -4,1l0 0z"/>
   </clipPath>
   <clipPath id="id39">
    <path d="M711 524l0 0c0,-6 0,-12 0,-18l0 -75 13 -8 0 10 0 16 0 11 0 0c3,-11 8,-18 16,-23 3,-1 5,-2 7,-2 2,0 3,0 4,1 1,0 2,1 3,2 0,1 0,1 0,1 3,4 5,12 5,22 0,12 -2,21 -5,29 -3,9 -8,15 -14,18 -3,2 -6,3 -8,3 -1,0 -1,0 -2,0 -2,-1 -4,-3 -6,-6l0 0c0,2 0,4 0,6 0,3 0,5 0,5l-13 8zm14 -33c0,3 1,5 2,7 1,1 2,2 4,2 1,0 2,0 4,-1 7,-4 10,-14 10,-30 0,-7 -1,-12 -2,-15 -1,-2 -3,-2 -4,-2 -1,0 -3,0 -4,1 -1,0 -2,1 -2,1 -3,3 -5,6 -6,10 -2,5 -3,11 -3,18 0,4 0,7 1,9l0 0z"/>
   </clipPath>
   <clipPath id="id40">
    <path d="M470 832c-2,0 -3,-2 -3,-5l0 -10 309 -178c3,-2 5,-5 5,-9 0,0 0,0 0,0 0,0 0,0 0,-1l0 -4 0 -4 0 -19 0 -4 0 -5 0 -6 0 0 0 -5 0 -4 0 -19 0 -4 0 -6 0 -18 0 -5 0 -5 0 -3 0 -1 0 -3 0 -73 0 -78 10 -6c1,0 2,0 2,0 2,0 3,1 3,4l0 277c0,3 -2,8 -5,9l-319 184c-1,0 -1,1 -2,1l0 0z"/>
   </clipPath>
   <clipPath id="id41">
    <path d="M470 840c-2,0 -3,-1 -3,-4l0 -1 0 -82 0 2 0 62 0 10c0,3 1,5 3,5 1,0 1,0 2,-1l319 -184c3,-1 5,-6 5,-9l0 -277c0,-3 -1,-4 -3,-4 0,0 -1,0 -2,0l-10 6 -124 71 -124 72 -61 35c-2,1 -3,3 -4,5 1,-3 3,-5 4,-6l329 -189c1,0 1,-1 2,-1 2,0 3,2 3,5l0 1 0 285c0,3 -3,7 -5,9l-329 189c-1,1 -1,1 -2,1l0 0z"/>
   </clipPath>
   <clipPath id="id42">
    <path d="M214 666l0 0c-2,0 -5,-1 -6,-2 -1,-1 -1,-1 -1,-2l0 0c0,0 0,-1 0,-1l0 0c0,1 0,2 1,3 1,1 4,2 6,2zm19 -11c0,0 0,0 0,0 0,0 0,0 0,0l0 0z"/>
   </clipPath>
   <clipPath id="id43">
    <path d="M215 666l-1 0c-2,0 -5,-1 -6,-2 -1,-1 -1,-2 -1,-3 0,0 1,1 1,1 1,1 5,2 6,2 1,0 1,0 1,0 1,0 1,-1 3,-2 0,0 1,-1 2,-1 0,0 1,1 1,1 1,0 10,-6 11,-6 0,0 1,-2 1,-2l0 0c0,0 0,1 0,1 0,0 0,0 0,0l0 0c0,0 0,0 0,1 0,0 -1,1 -1,1 0,0 -12,7 -13,7 0,0 -1,1 -3,1l0 0c0,1 -1,1 -1,1l0 0z"/>
   </clipPath>
   <clipPath id="id44">
    <path d="M209 647c0,0 0,0 0,0 0,0 0,0 0,0l0 0z"/>
   </clipPath>
   <clipPath id="id45">
    <path d="M191 658c-2,0 -5,-1 -7,-2 0,-1 0,-1 0,-2l0 0c0,0 0,-1 0,-1 0,0 0,1 0,1 1,1 5,2 7,2 0,0 0,0 0,0 2,0 1,-1 3,-2 1,0 1,-1 2,-1 1,0 1,1 2,1 0,0 10,-6 10,-6 1,0 1,-2 1,-2 0,1 0,1 0,1 0,0 0,0 0,0l0 0c0,0 1,0 1,1 0,0 -1,1 -1,1 0,0 -13,7 -13,7 -1,0 -2,1 -4,1 0,1 -1,1 -1,1l0 0z"/>
   </clipPath>
  <linearGradient id="id46" gradientUnits="userSpaceOnUse" x1="446.092" y1="705.961" x2="450.683" y2="705.961">
   <stop offset="0" style="stop-opacity:1; stop-color:#5E4190"/>
   <stop offset="1" style="stop-opacity:1; stop-color:#352E51"/>
  </linearGradient>
  <linearGradient id="id47" gradientUnits="userSpaceOnUse" x1="563.448" y1="920.734" x2="592.666" y2="912.653">
   <stop offset="0" style="stop-opacity:1; stop-color:#428BC9"/>
   <stop offset="0.521569" style="stop-opacity:1; stop-color:#2354A0"/>
   <stop offset="1" style="stop-opacity:1; stop-color:#323C7C"/>
  </linearGradient>
  <linearGradient id="id48" gradientUnits="userSpaceOnUse" x1="589.852" y1="797.146" x2="616.971" y2="722.201">
   <stop offset="0" style="stop-opacity:1; stop-color:#428BC9"/>
   <stop offset="0.521569" style="stop-opacity:1; stop-color:#2354A0"/>
   <stop offset="1" style="stop-opacity:1; stop-color:#29458D"/>
  </linearGradient>
  <linearGradient id="id49" gradientUnits="userSpaceOnUse" xlink:href="#id46" x1="446.138" y1="668" x2="450.694" y2="668">
  </linearGradient>
  <linearGradient id="id50" gradientUnits="userSpaceOnUse" xlink:href="#id47" x1="249.097" y1="304.546" x2="237.095" y2="350.344">
  </linearGradient>
  <linearGradient id="id51" gradientUnits="userSpaceOnUse" xlink:href="#id47" x1="250.444" y1="303.841" x2="237.051" y2="350.247">
  </linearGradient>
  <linearGradient id="id52" gradientUnits="userSpaceOnUse" x1="227.484" y1="634.887" x2="144.375" y2="678.162">
   <stop offset="0" style="stop-opacity:1; stop-color:#F9D8E9"/>
   <stop offset="1" style="stop-opacity:1; stop-color:#FEFEFE"/>
  </linearGradient>
  <linearGradient id="id53" gradientUnits="userSpaceOnUse" xlink:href="#id52" x1="249.262" y1="642.878" x2="169.641" y2="686.129">
  </linearGradient>
  <linearGradient id="id54" gradientUnits="userSpaceOnUse" xlink:href="#id47" x1="588.414" y1="759.48" x2="577.176" y2="802.365">
  </linearGradient>
  <linearGradient id="id55" gradientUnits="userSpaceOnUse" xlink:href="#id47" x1="546.802" y1="936.805" x2="609.597" y2="919.437">
  </linearGradient>
  <linearGradient id="id56" gradientUnits="userSpaceOnUse" xlink:href="#id52" x1="249.187" y1="642.899" x2="169.367" y2="684.98">
  </linearGradient>
  <linearGradient id="id57" gradientUnits="userSpaceOnUse" xlink:href="#id47" x1="630.694" y1="930.164" x2="1282.37" y2="806.514">
  </linearGradient>
  <linearGradient id="id58" gradientUnits="userSpaceOnUse" x1="810.18" y1="503.574" x2="800.955" y2="548.158">
   <stop offset="0" style="stop-opacity:1; stop-color:#5F4E96"/>
   <stop offset="1" style="stop-opacity:1; stop-color:#3E2B4F"/>
  </linearGradient>
  <linearGradient id="id59" gradientUnits="userSpaceOnUse" xlink:href="#id47" x1="624.163" y1="898.654" x2="1284.21" y2="775.155">
  </linearGradient>
  <linearGradient id="id60" gradientUnits="userSpaceOnUse" x1="560.079" y1="881.096" x2="569.404" y2="851.431">
   <stop offset="0" style="stop-opacity:1; stop-color:#428BC9"/>
   <stop offset="0.521569" style="stop-opacity:1; stop-color:#2354A0"/>
   <stop offset="1" style="stop-opacity:1; stop-color:#323C7B"/>
  </linearGradient>
  <linearGradient id="id61" gradientUnits="userSpaceOnUse" xlink:href="#id48" x1="557.782" y1="814.996" x2="583.805" y2="743.086">
  </linearGradient>
  <linearGradient id="id62" gradientUnits="userSpaceOnUse" xlink:href="#id52" x1="227.483" y1="634.889" x2="144.379" y2="678.16">
  </linearGradient>
  <linearGradient id="id63" gradientUnits="userSpaceOnUse" xlink:href="#id47" x1="620.164" y1="870.25" x2="1276.15" y2="746.639">
  </linearGradient>
  <linearGradient id="id64" gradientUnits="userSpaceOnUse" xlink:href="#id47" x1="627.828" y1="918.121" x2="1287.89" y2="793.719">
  </linearGradient>
  <linearGradient id="id65" gradientUnits="userSpaceOnUse" xlink:href="#id47" x1="363.842" y1="191.316" x2="580.226" y2="365.132">
  </linearGradient>
  <linearGradient id="id66" gradientUnits="userSpaceOnUse" xlink:href="#id48" x1="283.933" y1="325.771" x2="313.595" y2="243.789">
  </linearGradient>
  <linearGradient id="id67" gradientUnits="userSpaceOnUse" xlink:href="#id47" x1="627.081" y1="910.926" x2="1283.1" y2="787.308">
  </linearGradient>
  <linearGradient id="id68" gradientUnits="userSpaceOnUse" xlink:href="#id47" x1="589.659" y1="759.272" x2="577.123" y2="801.525">
  </linearGradient>
  <linearGradient id="id69" gradientUnits="userSpaceOnUse" xlink:href="#id52" x1="250.914" y1="641.65" x2="168.229" y2="687.246">
  </linearGradient>
  <linearGradient id="id70" gradientUnits="userSpaceOnUse" xlink:href="#id48" x1="726.603" y1="287.533" x2="746.58" y2="232.331">
  </linearGradient>
  <linearGradient id="id71" gradientUnits="userSpaceOnUse" xlink:href="#id52" x1="250.827" y1="641.65" x2="168.34" y2="687.246">
  </linearGradient>
  <linearGradient id="id72" gradientUnits="userSpaceOnUse" xlink:href="#id47" x1="751.081" y1="244.412" x2="741.456" y2="277.765">
  </linearGradient>
  <linearGradient id="id73" gradientUnits="userSpaceOnUse" x1="506.796" y1="355.788" x2="543.561" y2="355.788">
   <stop offset="0" style="stop-opacity:1; stop-color:#FEFEFE"/>
   <stop offset="1" style="stop-opacity:1; stop-color:#AD7C7D"/>
  </linearGradient>
  <linearGradient id="id74" gradientUnits="userSpaceOnUse" xlink:href="#id47" x1="250.429" y1="304.324" x2="237.042" y2="349.447">
  </linearGradient>
  <linearGradient id="id75" gradientUnits="userSpaceOnUse" xlink:href="#id47" x1="589.674" y1="758.821" x2="577.134" y2="802.274">
  </linearGradient>
  <linearGradient id="id76" gradientUnits="userSpaceOnUse" xlink:href="#id47" x1="621.256" y1="883.153" x2="1281.3" y2="759.655">
  </linearGradient>
  <linearGradient id="id77" gradientUnits="userSpaceOnUse" xlink:href="#id47" x1="617.092" y1="861.17" x2="1277.15" y2="736.768">
  </linearGradient>
  <linearGradient id="id78" gradientUnits="userSpaceOnUse" xlink:href="#id48" x1="751.217" y1="273.828" x2="772.032" y2="216.305">
  </linearGradient>
  <linearGradient id="id79" gradientUnits="userSpaceOnUse" xlink:href="#id48" x1="775.151" y1="260.171" x2="796.472" y2="201.251">
  </linearGradient>
  <linearGradient id="id80" gradientUnits="userSpaceOnUse" xlink:href="#id58" x1="621.597" y1="565.215" x2="615.011" y2="598.145">
  </linearGradient>
  <linearGradient id="id81" gradientUnits="userSpaceOnUse" xlink:href="#id73" x1="522.257" y1="351.559" x2="556.076" y2="351.559">
  </linearGradient>
  <linearGradient id="id82" gradientUnits="userSpaceOnUse" xlink:href="#id60" x1="728.364" y1="338.266" x2="735.52" y2="315.496">
  </linearGradient>
  <linearGradient id="id83" gradientUnits="userSpaceOnUse" xlink:href="#id47" x1="662.68" y1="759.651" x2="817.092" y2="716.842">
  </linearGradient>
  <linearGradient id="id84" gradientUnits="userSpaceOnUse" x1="557.705" y1="917.722" x2="1066.29" y2="917.722">
   <stop offset="0" style="stop-opacity:1; stop-color:#FEFEFE"/>
   <stop offset="1" style="stop-opacity:1; stop-color:#2B2B2A"/>
  </linearGradient>
  <linearGradient id="id85" gradientUnits="userSpaceOnUse" xlink:href="#id48" x1="216.386" y1="363.835" x2="244.18" y2="287.038">
  </linearGradient>
  <linearGradient id="id86" gradientUnits="userSpaceOnUse" xlink:href="#id60" x1="218.837" y1="434.425" x2="228.795" y2="402.744">
  </linearGradient>
  <linearGradient id="id87" gradientUnits="userSpaceOnUse" xlink:href="#id52" x1="251.103" y1="642.869" x2="167.99" y2="686.142">
  </linearGradient>
  <linearGradient id="id88" gradientUnits="userSpaceOnUse" x1="824.764" y1="526.856" x2="821.135" y2="630.299">
   <stop offset="0" style="stop-opacity:1; stop-color:#C3ABD3"/>
   <stop offset="1" style="stop-opacity:1; stop-color:#352E51"/>
  </linearGradient>
  <linearGradient id="id89" gradientUnits="userSpaceOnUse" xlink:href="#id48" x1="250.631" y1="344.771" x2="279.592" y2="264.734">
  </linearGradient>
  <linearGradient id="id90" gradientUnits="userSpaceOnUse" xlink:href="#id48" x1="621.035" y1="779.352" x2="648.813" y2="702.586">
  </linearGradient>
  <linearGradient id="id91" gradientUnits="userSpaceOnUse" x1="243.532" y1="265.479" x2="751.527" y2="691.925">
   <stop offset="0" style="stop-opacity:1; stop-color:#FDF2F8"/>
   <stop offset="1" style="stop-opacity:1; stop-color:#EBF2FA"/>
  </linearGradient>
 </defs>
 <g id="Слой_x0020_1">
  <metadata id="CorelCorpID_0Corel-Layer"/>
  <path class="fil0" d="M791 647l-319 184c-3,2 -5,0 -5,-4l0 -277c0,-3 2,-8 5,-9l319 -184c3,-2 5,0 5,4l0 277c0,3 -2,8 -5,9z"/>
  <path class="fil1" d="M593 192l-8 -6c-2,-1 -5,-1 -8,1l-159 92c-5,3 -10,12 -10,20l1 270c0,4 2,7 4,8l9 6 5 -11 152 -88c5,-3 10,-12 10,-19l-1 -260 5 -13z"/>
  <path class="fil2" d="M428 285l159 -93c5,-3 10,0 10,8l1 270c0,8 -5,17 -10,20l-159 93c-6,3 -10,-1 -10,-8l-2 -270c0,-8 5,-17 11,-20z"/>
  <path class="fil1" d="M653 227l-8 -5c-2,-1 -5,-1 -8,0l-159 93c-5,3 -10,12 -10,19l1 271c0,4 2,7 4,8l9 6 5 -11 151 -88c6,-3 11,-12 11,-20l-2 -260 6 -13z"/>
  <path class="fil2" d="M487 321l159 -93c6,-3 11,0 11,8l1 270c0,8 -5,16 -10,20l-159 92c-6,4 -11,0 -11,-7l-1 -271c0,-7 5,-16 10,-19z"/>
  <path class="fil3" d="M478 610l-1 -270c0,-4 2,-9 4,-12l-9 -6 -13 -7 -48 -28c-2,4 -3,8 -3,12l1 270c0,4 2,7 4,8l9 6 1 0 50 30 8 5c-2,-1 -3,-4 -3,-8z"/>
  <polygon class="fil1" points="411,287 425,282 486,318 481,328 "/>
  <polygon class="fil4" points="437,290 587,202 629,227 479,314 "/>
  <polygon class="fil5" points="437,290 587,202 595,207 445,294 "/>
  <polygon class="fil6" points="408,325 477,364 477,429 409,389 "/>
  <polygon class="fil7" points="477,364 657,261 657,326 477,429 "/>
  <polygon class="fil6" points="409,549 409,527 478,567 478,589 "/>
  <polygon class="fil7" points="478,567 658,463 658,486 478,589 "/>
  <polygon class="fil2" points="556,363 556,340 570,332 570,336 560,342 560,347 569,342 569,346 560,351 560,357 570,351 571,355 "/>
  <path class="fil2" d="M582 348l0 -10c0,-3 -1,-4 -2,-3 -1,0 -2,1 -3,2 0,2 0,3 0,5l0 9 -4 2 0 -14c0,-1 0,-1 0,-2 0,-1 0,-1 0,-2l3 -2c0,1 0,1 1,2 0,1 0,2 0,2l0 0c0,-2 1,-3 1,-4 1,-1 2,-2 3,-3 1,0 2,0 3,0 1,1 1,3 1,5l0 11 -3 2z"/>
  <path class="fil2" d="M597 330c0,-2 0,-3 0,-4 -1,-1 -2,-1 -3,0 -1,1 -2,3 -2,7 0,4 1,6 3,5 0,-1 1,-2 2,-3 0,-1 0,-3 0,-5zm-2 18c-2,1 -3,1 -4,1 -1,0 -2,-1 -2,-2l3 -3c0,1 1,1 1,1 0,1 1,0 2,0 1,-1 1,-1 2,-2 0,-1 0,-3 0,-4l0 -1 0 -2 0 0c0,3 -2,5 -4,6 -2,1 -3,1 -4,0 0,-2 -1,-4 -1,-6 0,-3 0,-6 1,-8 1,-2 3,-4 4,-5 2,-1 4,-1 4,1l0 0c0,0 0,-1 0,-2 0,0 0,-1 1,-1l3 -2c0,1 0,3 0,4l0 14c0,2 -1,4 -2,6 -1,2 -2,4 -4,5z"/>
  <polygon class="fil2" points="604,335 604,310 608,308 608,333 "/>
  <path class="fil2" d="M611 331l0 -18 4 -2 0 18 -4 2zm0 -21l0 -4 4 -2 0 4 -4 2z"/>
  <path class="fil2" d="M630 315c0,2 -1,3 -2,5 -1,2 -2,3 -4,4 -2,1 -3,2 -4,1 -1,0 -2,-1 -2,-2l3 -3c0,1 0,2 1,2 0,0 1,0 2,-1 1,-1 2,-1 2,-2 0,0 1,-1 1,-2 0,0 -1,-1 -1,-1 0,0 -1,0 -2,0 -2,1 -3,1 -4,1 0,0 -1,0 -1,0 -1,-1 -1,-2 -1,-3 0,-2 1,-3 2,-5 1,-1 2,-3 4,-4 1,-1 3,-1 4,-1 1,1 1,1 2,3l-4 2c0,-1 0,-1 0,-1 -1,0 -1,0 -2,0 -1,1 -2,1 -2,2 0,1 -1,1 -1,2 0,0 1,1 1,1 0,0 1,0 1,0 2,-1 2,-1 3,-1 1,0 2,0 2,0 1,0 1,0 1,1 1,0 1,1 1,2z"/>
  <path class="fil2" d="M636 302c1,-1 1,-3 2,-4 1,-1 1,-2 2,-2 2,-1 3,-1 4,0 0,0 1,2 1,4l0 11 -4 2 0 -10c0,-3 0,-4 -2,-3 -1,1 -2,1 -2,3 -1,1 -1,2 -1,4l0 10 -3 2 0 -25 3 -2 0 7c0,1 0,2 0,3l0 0z"/>
  <path class="fil8" d="M486 472l-6 -4c-2,-1 -4,-1 -6,0l-118 69c-4,2 -8,9 -8,14l1 202c0,3 1,5 3,6l7 4 3 -8 113 -66c4,-2 7,-8 7,-14l0 -194 4 -9z"/>
  <path class="fil9" d="M363 541l118 -69c4,-2 7,0 7,6l1 201c0,6 -3,12 -7,15l-119 69c-4,2 -7,0 -7,-6l-1 -201c0,-6 3,-12 8,-15z"/>
  <path class="fil8" d="M530 498l-6 -3c-1,-2 -3,-2 -6,0l-118 68c-4,3 -7,9 -7,15l0 201c0,3 1,5 3,6l7 5 4 -8 112 -66c5,-2 8,-9 8,-15l-1 -193 4 -10z"/>
  <path class="fil9" d="M407 568l118 -69c4,-3 8,0 8,6l1 201c0,5 -4,12 -8,14l-118 69c-4,3 -8,0 -8,-5l-1 -202c0,-5 4,-12 8,-14z"/>
  <path class="fil10" d="M400 783l-1 -201c0,-3 2,-6 3,-9l-7 -4 -9 -6 -36 -20c-1,3 -2,6 -2,8l1 202c0,3 1,5 3,6l7 4 0 0 37 22 6 4c-1,-1 -2,-3 -2,-6z"/>
  <polygon class="fil8" points="350,543 360,539 406,566 402,573 "/>
  <polygon class="fil4" points="373,547 482,484 509,500 401,563 "/>
  <polygon class="fil5" points="373,547 482,484 488,487 379,550 "/>
  <polygon class="fil4" points="348,571 399,600 399,649 348,619 "/>
  <polygon class="fil7" points="399,600 533,523 533,572 399,649 "/>
  <polygon class="fil4" points="349,738 349,722 400,751 400,767 "/>
  <polygon class="fil7" points="400,751 534,674 534,690 400,767 "/>
  <polygon class="fil9" points="443,590 443,598 452,592 452,596 443,601 443,610 439,612 439,589 452,581 452,585 "/>
  <path class="fil9" d="M455 603l0 -14c0,-1 0,-2 0,-2 0,-1 0,-2 0,-2l3 -2c0,0 0,1 0,2 0,1 0,1 0,2l0 0c1,-2 1,-3 1,-3 0,-1 1,-2 1,-2 0,-1 1,-1 1,-1 1,-1 1,-1 1,-1l0 4c0,0 -1,1 -1,1 -1,0 -2,1 -2,2 -1,2 -1,3 -1,5l0 9 -3 2z"/>
  <path class="fil9" d="M470 579c-1,0 -1,1 -2,2 0,1 0,2 0,3l5 -3c0,-1 -1,-2 -1,-2 0,-1 -1,-1 -2,0zm0 15c-2,1 -3,2 -4,1 -2,-1 -2,-3 -2,-7 0,-2 0,-5 2,-7 1,-3 2,-4 4,-5 2,-2 4,-2 5,0 1,1 1,3 1,6l0 0 -8 5c0,2 0,3 0,4 1,0 2,1 2,0 2,-1 2,-2 3,-4l3 -1c-1,4 -3,7 -6,8z"/>
  <path class="fil9" d="M488 584l0 -10c0,-4 -1,-5 -3,-4 -1,1 -1,2 -2,3 0,1 -1,3 -1,4l0 10 -3 2 0 -14c0,-1 0,-2 0,-2 0,-1 0,-2 0,-2l3 -2c0,0 0,1 0,2 0,0 0,1 0,1l0 0c1,-1 1,-3 2,-4 1,-1 2,-1 3,-2 1,-1 2,-1 3,0 1,1 1,2 1,4l0 12 -3 2z"/>
  <path class="fil9" d="M500 577c-2,1 -4,1 -5,0 -1,-1 -1,-3 -1,-6 0,-3 0,-5 1,-8 1,-2 3,-4 5,-5 2,-1 3,-1 4,-1 1,1 2,2 2,4l-4 2c0,-1 0,-2 0,-2 -1,0 -1,0 -2,0 -2,1 -3,4 -3,8 0,4 1,6 3,5 1,-1 1,-1 2,-2 0,-1 0,-2 1,-3l3 -2c0,1 0,3 -1,4 0,1 -1,2 -2,3 -1,1 -2,2 -3,3z"/>
  <path class="fil9" d="M512 555c0,-2 1,-3 2,-4 0,-1 1,-2 2,-2 2,-1 3,-1 4,-1 0,1 1,3 1,5l0 11 -4 2 0 -10c0,-3 -1,-4 -2,-3 -1,0 -2,1 -2,3 -1,1 -1,2 -1,4l0 9 -3 2 0 -24 3 -2 0 6c0,2 0,3 0,4l0 0z"/>
  <path class="fil11" d="M870 575l0 -4 -7 0 -93 -53c-3,-2 -7,-2 -10,0l-124 72 -15 5 0 7 1 0c0,0 0,1 1,1l99 57c2,2 7,1 10,0l135 -81c1,-1 3,-3 3,-4z"/>
  <path class="fil12" d="M722 654l-99 -56c-2,-2 -2,-4 1,-6l136 -80c3,-1 7,-2 10,0l99 57c2,1 2,4 -1,6l-136 79c-3,2 -8,2 -10,0z"/>
  <path class="fil4" d="M625 573l0 21 103 59 21 -23c0,0 -13,-13 -15,-14 -1,-1 -109,-43 -109,-43z"/>
  <path class="fil5" d="M625 578l104 60 15 -8c0,0 -31,-41 -31,-41 -1,0 -88,-16 -88,-16l0 5z"/>
  <path class="fil11" d="M870 546l0 -6 -7 0 -93 -54c-3,-1 -7,-1 -10,1l-124 72 -15 4 0 7 1 0c0,1 0,1 1,2l99 57c2,1 7,1 10,-1l136 -79c1,-1 2,-2 2,-3z"/>
  <path class="fil12" d="M722 623l-99 -57c-2,-1 -2,-4 1,-6l136 -79c3,-2 7,-2 10,0l99 56c2,2 2,4 -1,6l-136 79c-3,2 -8,2 -10,1z"/>
  <path class="fil13" d="M722 626c0,0 5,7 5,16 1,8 -2,18 -2,18l6 0 9 -22 -5 -10 -7 -4 -6 2z"/>
  <path class="fil14" d="M728 624c0,0 4,7 4,19 0,11 -1,17 -1,17l139 -83c0,0 3,-8 3,-20 0,-11 -3,-17 -3,-17l-142 84z"/>
  <path class="fil15" d="M744 624c0,0 -1,2 -1,2 0,2 1,4 1,8 0,4 0,7 0,9l0 0 1 0 113 -68c0,0 1,-1 1,-1 0,-2 0,-6 0,-10 0,-3 0,-4 0,-6 0,0 -1,-1 -1,-1 0,0 -1,0 -1,0l-113 67zm1 22c-1,0 -2,0 -2,-1 -1,0 -2,-1 -2,-2 0,-2 0,-5 0,-9 0,-4 -1,-5 -1,-7 -1,-2 1,-5 3,-6l0 0 112 -66c2,-1 3,-1 4,-1 1,1 2,2 3,3 0,2 0,4 0,7 0,4 0,8 0,10 0,2 -1,3 -3,4l-113 67c0,1 -1,1 -1,1z"/>
  <path class="fil16" d="M873 530l-1 -3 -7 0 -94 -55c-3,-1 -7,-1 -10,1l-126 73 -15 5 0 6 1 0c0,1 0,2 1,2l100 58c3,1 7,1 10,-1l137 -81c1,-1 3,-4 4,-5z"/>
  <path class="fil17" d="M722 611l-100 -58c-2,-1 -2,-4 1,-6l138 -80c3,-2 7,-2 10,0l100 57c2,1 2,4 -1,6l-138 80c-3,2 -7,2 -10,1z"/>
  <path class="fil4" d="M624 529l0 20 105 60 21 -23c0,0 -14,-13 -15,-14 -2,-1 -111,-43 -111,-43z"/>
  <path class="fil5" d="M624 534l106 60 15 -8c0,0 -32,-41 -32,-42 -1,0 -89,-15 -89,-15l0 5z"/>
  <path class="fil16" d="M872 501l0 -6 -6 0 -95 -54c-3,-2 -7,-2 -10,0l-126 73 -15 5 0 7 1 0c0,0 0,1 1,1l100 58c3,1 7,1 10,-1l138 -80c2,-1 2,-2 2,-3z"/>
  <path class="fil17" d="M722 579l-100 -57c-2,-2 -2,-5 1,-6l138 -81c3,-2 7,-2 10,0l100 57c2,2 2,4 -1,6l-138 80c-3,2 -7,2 -10,1z"/>
  <path class="fil16" d="M723 582c0,0 4,7 5,16 0,9 -3,19 -3,19l6 0 9 -23 -4 -10 -7 -4 -6 2z"/>
  <path class="fil9" d="M729 580c0,0 4,7 4,19 0,12 -2,18 -2,18l141 -84c0,0 4,-9 4,-20 0,-12 -4,-18 -4,-18l-143 85z"/>
  <path class="fil17" d="M744 580c0,1 -1,1 0,2 0,2 1,4 1,9 0,2 0,5 0,8l1 0 0 0 115 -69c1,0 1,-1 1,-1 0,-2 1,-6 1,-10 -1,-3 -1,-5 -1,-6 0,-1 -1,-1 -1,-1 0,0 0,0 -1,0l-116 68zm2 22c-1,0 -1,0 -2,0 -1,-1 -2,-2 -2,-3 0,-3 0,-5 0,-8 0,-4 -1,-7 -1,-8 -1,-2 0,-4 2,-5l0 0 116 -68c1,-1 2,-1 4,-1 1,1 2,2 2,3 0,2 1,4 1,7 0,4 -1,8 -1,10 0,2 -1,3 -2,4l-116 69c0,0 -1,0 -1,0z"/>
  <path class="fil9" d="M730 557c2,-1 2,-3 1,-5l4 -1c1,2 1,3 1,4 0,1 -1,2 -3,3 -2,2 -5,3 -8,2 -3,0 -6,-1 -9,-2 -3,-2 -5,-4 -5,-6 0,-1 1,-3 3,-4 2,-1 4,-2 6,-2 2,0 4,0 6,1l-2 2c-1,-1 -2,-1 -3,-1 -2,1 -3,1 -4,1 -1,1 -2,2 -1,3 0,1 1,2 3,4 2,1 4,2 6,2 2,0 4,0 5,-1z"/>
  <path class="fil9" d="M734 545c-1,-1 -1,-2 -1,-3 0,0 1,-1 2,-1 1,-1 2,-1 4,-1 2,0 3,0 5,1l9 6 -3 1 -8 -4c-2,-2 -4,-2 -6,-1 -1,0 -1,1 -1,2 1,0 2,1 3,2l7 4 -3 2 -19 -11 3 -2 5 3c1,1 2,1 3,2l0 0z"/>
  <path class="fil9" d="M756 545l-14 -8 3 -2 14 8 -3 2zm-17 -10l-2 -1 3 -2 3 2 -4 1z"/>
  <path class="fil9" d="M770 537l-8 -5c-2,-1 -4,-2 -6,-1 0,1 -1,1 0,2 0,1 1,1 2,2l7 4 -3 2 -11 -6c0,0 -1,-1 -1,-1 -1,0 -1,-1 -2,-1l3 -2c0,1 1,1 2,1 0,1 1,1 1,1l0 0c0,-1 -1,-2 -1,-2 1,-1 1,-2 2,-2 1,-1 3,-1 4,-1 2,0 4,1 5,2l9 5 -3 2z"/>
  <path class="fil9" d="M769 523c-1,1 -1,1 -1,2 1,0 1,1 2,2l5 -3c-1,-1 -2,-1 -3,-1 -1,0 -2,0 -3,0zm12 7c-1,1 -3,2 -6,2 -2,0 -4,-1 -7,-3 -2,-1 -3,-2 -3,-3 -1,-2 0,-3 2,-4 2,-1 4,-1 6,-1 2,0 5,1 7,2l0 1 -7 4c1,1 2,1 3,1 1,1 2,0 3,0 1,-1 1,-1 1,-2l3 -2c1,2 1,4 -2,5z"/>
  <path class="fil9" d="M795 518c1,0 2,1 2,2 0,1 -1,2 -3,3 -2,1 -3,2 -5,2 -1,0 -3,0 -4,-1l2 -2c1,1 1,1 2,1 1,0 2,-1 2,-1 1,-1 2,-1 2,-2 0,0 0,0 -1,-1 0,0 -1,0 -1,0 -1,0 -1,0 -2,1 -3,0 -4,1 -5,1 -1,0 -2,0 -3,0 -1,0 -2,0 -2,-1 -2,-1 -2,-1 -2,-2 0,-1 1,-2 2,-3 2,-1 3,-2 5,-2 1,0 3,0 4,1l-2 2c-1,0 -1,-1 -2,-1 -1,1 -1,1 -2,1 -1,1 -1,1 -1,1 -1,1 0,1 0,1 0,1 1,1 1,1 1,0 2,-1 2,-1 2,0 3,-1 4,-1 1,0 2,0 2,0 1,-1 2,-1 3,0 0,0 1,0 2,1z"/>
  <path class="fil9" d="M795 509c-1,0 -1,1 -1,1 0,1 1,1 2,2l4 -3c-1,0 -2,-1 -3,-1 -1,0 -2,0 -2,1zm12 7c-2,1 -4,1 -6,1 -3,0 -5,-1 -7,-2 -2,-2 -4,-3 -4,-4 0,-1 1,-3 2,-4 2,-1 4,-1 6,-1 3,0 5,1 7,3l1 0 -8 4c1,1 2,2 4,2 1,0 2,0 2,-1 2,0 2,-1 1,-2l3 -2c2,2 1,4 -1,6z"/>
  <polygon class="fil3" points="699,424 711,431 711,524 699,517 "/>
  <polygon class="fil18" points="712,416 724,423 711,431 699,424 "/>
  <path class="fil3" d="M740 429c-1,0 -1,0 -2,0l0 0c-2,-1 -6,-1 -10,2 -5,3 -10,7 -13,13l3 7c1,-2 2,-3 3,-4l1 17 6 -8 4 -5c0,0 2,-1 3,-2 2,-1 3,-1 3,-1 2,-1 3,0 4,0 1,1 2,1 5,0 -1,-3 -1,-6 -2,-9l6 -3 -11 -7z"/>
  <path class="fil3" d="M736 504c0,0 16,-19 16,-19 0,-1 0,-31 0,-31l-5 -2c0,-2 0,-4 -1,-6l-14 7c1,2 1,6 1,10 0,15 -3,25 -10,29 -1,1 -1,1 -2,1l3 10c1,0 2,0 3,-1l0 1 9 1z"/>
  <path class="fil11" d="M745 469c0,-7 -1,-12 -2,-15 -2,-3 -5,-3 -8,-1 -4,2 -6,6 -8,11 -2,5 -3,11 -3,18 0,8 1,13 3,16 2,3 4,3 8,1 7,-4 10,-14 10,-30zm14 -8c0,12 -2,21 -5,29 -3,9 -8,15 -14,18 -4,2 -7,3 -10,3 -2,-1 -4,-3 -6,-6l0 0c0,2 0,4 0,6 0,3 0,5 0,5l-13 8c0,-6 0,-12 0,-18l0 -75 13 -8 0 26 0 11 0 0c3,-10 8,-18 16,-23 6,-3 11,-3 14,1 3,5 5,12 5,23z"/>
  <path class="fil11" d="M322 714l0 2c-1,3 -1,6 -2,9 -1,4 -5,22 -12,56l29 -17 -10 -33 -3 -11 -2 -6zm29 98l-9 -30 -39 23 -8 40 -22 12 37 -157 24 -14 38 114 -21 12z"/>
  <polygon class="fil3" points="273,857 253,845 289,688 310,700 "/>
  <polygon class="fil18" points="334,686 314,674 289,688 310,700 "/>
  <polygon class="fil3" points="351,812 330,800 327,791 342,782 "/>
  <polygon class="fil18" points="337,764 319,753 313,757 308,781 "/>
  <polygon class="fil3" points="322,714 337,764 319,753 316,743 "/>
  <path class="fil19" d="M436 867l-13 -8c-3,-1 -5,-5 -5,-10l0 -66 0 -26 0 -16 0 -103 0 -49 0 -28 0 -8 0 -2c0,-9 6,-20 13,-24l57 -33 169 -98 147 -84c2,-1 4,-2 5,-2 2,0 3,0 4,1l14 8c-1,0 -2,-1 -3,-1 -1,0 -3,1 -5,2l-373 215c-7,4 -13,15 -13,25l0 297c0,4 1,8 3,10z"/>
  <path class="fil20" d="M832 328l0 0c0,-1 0,-2 0,-3 0,1 0,2 0,3z"/>
  <path class="fil21" d="M796 638c0,3 -2,8 -5,9l-319 184c-3,2 -5,0 -5,-4l0 -277c0,-3 2,-7 5,-9l319 -184c3,-1 5,0 5,4l0 277zm23 -318l-373 215c-7,4 -13,15 -13,25l0 297c0,9 6,14 13,10l373 -216c7,-4 13,-15 13,-24l0 -297c0,-10 -6,-14 -13,-10z"/>
  <path class="fil22" d="M448 734l0 0c-1,1 -2,0 -2,-2l0 -50c0,-1 1,-3 2,-4 2,-1 3,0 3,2l0 50c0,1 -1,3 -3,4z"/>
  <path class="fil23" d="M448 671l0 0c-1,1 -2,0 -2,-2 0,-1 1,-3 2,-4 2,-1 3,0 3,2 0,1 -1,3 -3,4z"/>
  <path class="fil24" d="M467 836c0,0 0,0 0,0l0 -83 0 82 0 1zm1 -290c1,-3 3,-5 4,-5l329 -190c1,0 1,0 2,0 2,0 3,1 3,4l0 1 0 -1c0,-3 -1,-4 -3,-4 -1,0 -1,0 -2,0l-329 190c-1,0 -3,2 -4,5l0 0z"/>
  <g style="clip-path:url(#id0)">
   <image x="466" y="362" width="317" height="457" xlink:href="grammar2_Images\grammar2_ImgID1.png"/>
  </g>
  <g style="clip-path:url(#id1)">
   <image x="531" y="432" width="129" height="161" xlink:href="grammar2_Images\grammar2_ImgID2.png"/>
  </g>
  <g style="clip-path:url(#id2)">
   <image x="531" y="462" width="128.688" height="97.2953" xlink:href="grammar2_Images\grammar2_ImgID3.png"/>
  </g>
  <g style="clip-path:url(#id3)">
   <image x="466" y="504" width="69.8541" height="252.063" xlink:href="grammar2_Images\grammar2_ImgID4.png"/>
  </g>
  <g style="clip-path:url(#id4)">
   <image x="466" y="522" width="68.7565" height="89.8313" xlink:href="grammar2_Images\grammar2_ImgID5.png"/>
  </g>
  <g style="clip-path:url(#id5)">
   <image x="466" y="672" width="69.8541" height="58.2191" xlink:href="grammar2_Images\grammar2_ImgID6.png"/>
  </g>
  <g style="clip-path:url(#id6)">
   <image x="466" y="573" width="11.8985" height="23.5335" xlink:href="grammar2_Images\grammar2_ImgID7.png"/>
  </g>
  <g style="clip-path:url(#id7)">
   <image x="477" y="564" width="16.0696" height="26.6069" xlink:href="grammar2_Images\grammar2_ImgID8.png"/>
  </g>
  <g style="clip-path:url(#id8)">
   <image x="492" y="556" width="16.0696" height="23.314" xlink:href="grammar2_Images\grammar2_ImgID9.png"/>
  </g>
  <g style="clip-path:url(#id9)">
   <image x="507" y="543" width="16.0696" height="29.6803" xlink:href="grammar2_Images\grammar2_ImgID10.png"/>
  </g>
  <g style="clip-path:url(#id10)">
   <image x="619" y="593" width="163.593" height="68.7565" xlink:href="grammar2_Images\grammar2_ImgID11.png"/>
  </g>
  <g style="clip-path:url(#id11)">
   <image x="619" y="589" width="108.711" height="67.6588" xlink:href="grammar2_Images\grammar2_ImgID12.png"/>
  </g>
  <g style="clip-path:url(#id12)">
   <image x="624" y="571" width="105.637" height="82.3673" xlink:href="grammar2_Images\grammar2_ImgID13.png"/>
  </g>
  <g style="clip-path:url(#id13)">
   <image x="624" y="571" width="104.54" height="66.5612" xlink:href="grammar2_Images\grammar2_ImgID14.png"/>
  </g>
  <g style="clip-path:url(#id14)">
   <image x="619" y="562" width="110.906" height="68.7565" xlink:href="grammar2_Images\grammar2_ImgID15.png"/>
  </g>
  <g style="clip-path:url(#id15)">
   <image x="619" y="559" width="163.593" height="66.5612" xlink:href="grammar2_Images\grammar2_ImgID16.png"/>
  </g>
  <g style="clip-path:url(#id16)">
   <image x="721" y="622" width="13.8743" height="40.2177" xlink:href="grammar2_Images\grammar2_ImgID17.png"/>
  </g>
  <g style="clip-path:url(#id17)">
   <image x="727" y="591" width="56.0238" height="70.7323" xlink:href="grammar2_Images\grammar2_ImgID18.png"/>
  </g>
  <g style="clip-path:url(#id18)">
   <image x="738" y="597" width="45.4864" height="50.7551" xlink:href="grammar2_Images\grammar2_ImgID19.png"/>
  </g>
  <g style="clip-path:url(#id19)">
   <image x="618" y="549" width="164.691" height="69.6346" xlink:href="grammar2_Images\grammar2_ImgID20.png"/>
  </g>
  <g style="clip-path:url(#id20)">
   <image x="618" y="545" width="109.808" height="68.537" xlink:href="grammar2_Images\grammar2_ImgID21.png"/>
  </g>
  <g style="clip-path:url(#id21)">
   <image x="623" y="527" width="106.735" height="82.3673" xlink:href="grammar2_Images\grammar2_ImgID22.png"/>
  </g>
  <g style="clip-path:url(#id22)">
   <image x="623" y="527" width="105.637" height="66.5612" xlink:href="grammar2_Images\grammar2_ImgID23.png"/>
  </g>
  <g style="clip-path:url(#id23)">
   <image x="618" y="517" width="112.004" height="70.7323" xlink:href="grammar2_Images\grammar2_ImgID24.png"/>
  </g>
  <g style="clip-path:url(#id24)">
   <image x="618" y="432" width="165" height="150" xlink:href="grammar2_Images\grammar2_ImgID25.png"/>
  </g>
  <g style="clip-path:url(#id25)">
   <image x="721" y="578" width="13.8743" height="40.4372" xlink:href="grammar2_Images\grammar2_ImgID26.png"/>
  </g>
  <g style="clip-path:url(#id26)">
   <image x="727" y="547" width="56.0238" height="70.9518" xlink:href="grammar2_Images\grammar2_ImgID27.png"/>
  </g>
  <g style="clip-path:url(#id27)">
   <image x="738" y="553" width="44.6083" height="50.7551" xlink:href="grammar2_Images\grammar2_ImgID28.png"/>
  </g>
  <g style="clip-path:url(#id28)">
   <image x="709" y="544" width="28.8022" height="18.0453" xlink:href="grammar2_Images\grammar2_ImgID29.png"/>
  </g>
  <g style="clip-path:url(#id29)">
   <image x="722" y="538" width="32.7537" height="17.1672" xlink:href="grammar2_Images\grammar2_ImgID30.png"/>
  </g>
  <g style="clip-path:url(#id30)">
   <image x="735" y="530" width="25.5093" height="16.0696" xlink:href="grammar2_Images\grammar2_ImgID31.png"/>
  </g>
  <g style="clip-path:url(#id31)">
   <image x="747" y="526" width="27.485" height="17.1672" xlink:href="grammar2_Images\grammar2_ImgID32.png"/>
  </g>
  <g style="clip-path:url(#id32)">
   <image x="763" y="519" width="20.2406" height="14.9719" xlink:href="grammar2_Images\grammar2_ImgID33.png"/>
  </g>
  <g style="clip-path:url(#id33)">
   <image x="775" y="512" width="7.72747" height="10.8009" xlink:href="grammar2_Images\grammar2_ImgID34.png"/>
  </g>
  <g style="clip-path:url(#id34)">
   <image x="696" y="422" width="16.0696" height="103.442" xlink:href="grammar2_Images\grammar2_ImgID35.png"/>
  </g>
  <g style="clip-path:url(#id35)">
   <image x="696" y="414" width="28.8022" height="18.2649" xlink:href="grammar2_Images\grammar2_ImgID36.png"/>
  </g>
  <g style="clip-path:url(#id36)">
   <image x="722" y="426" width="30.778" height="36.0467" xlink:href="grammar2_Images\grammar2_ImgID37.png"/>
  </g>
  <g style="clip-path:url(#id37)">
   <image x="723" y="452" width="11.8985" height="40.2177" xlink:href="grammar2_Images\grammar2_ImgID38.png"/>
  </g>
  <g style="clip-path:url(#id38)">
   <image x="723" y="450" width="24.6312" height="51.8528" xlink:href="grammar2_Images\grammar2_ImgID39.png"/>
  </g>
  <g style="clip-path:url(#id39)">
   <image x="709" y="422" width="51.8528" height="103.442" xlink:href="grammar2_Images\grammar2_ImgID40.png"/>
  </g>
  <g style="clip-path:url(#id40)">
   <image x="466" y="355" width="332" height="478" xlink:href="grammar2_Images\grammar2_ImgID41.png"/>
  </g>
  <g style="clip-path:url(#id41)">
   <image x="466" y="349" width="342" height="492" xlink:href="grammar2_Images\grammar2_ImgID42.png"/>
  </g>
  <path class="fil25" d="M816 512l-7 4c-3,1 -5,0 -5,-3l0 -29c0,-4 2,-8 5,-9l7 -4c2,-1 4,0 4,4l0 29c0,3 -2,7 -4,8z"/>
  <path class="fil26" d="M817 471c0,0 0,1 0,2l0 29c0,3 -2,7 -4,8l-7 4c-1,0 -1,0 -2,1 1,1 3,2 5,1l6 -4c3,-1 5,-5 5,-8l0 -30c0,-2 -1,-4 -3,-3z"/>
  <path class="fil27" d="M450 512l-5 4 -6 4c0,-1 1,-15 0,-49 0,-27 -23,-41 -24,-42l-41 -23c-4,-2 -20,-9 -20,-34l0 -145c0,-2 -1,-45 24,-60l23 -14 125 -73c2,-2 17,-12 31,-5 11,5 16,20 16,44l0 64 0 57 -11 6 0 -63 0 -64c0,-19 -4,-31 -10,-35 -7,-3 -17,2 -20,5l0 0 -125 73 -23 14c-19,12 -19,50 -19,51l0 145c0,19 13,24 13,24l1 0 42 24c1,1 29,17 29,51 1,39 0,41 0,41z"/>
  <path class="fil28" d="M563 941l-5 -10 245 -142 1 0c3,-2 8,-5 8,-8 0,-2 -3,-5 -9,-9l-26 -17 -58 -33 -1 -2c0,0 -16,-31 -36,-44 -19,-12 -36,0 -36,0 -2,1 -4,1 -6,0l-17 -10c-3,-1 -17,-9 -18,-21 0,-9 6,-16 18,-23 11,-7 16,-9 16,-9l11 6c0,0 -2,1 -22,13 -8,4 -12,8 -12,12 0,5 8,10 12,12l0 0 15 9c7,-4 25,-11 45,2 20,13 35,40 39,47l56 32 26 17c10,6 14,13 14,20 -1,9 -12,14 -15,16l-245 142z"/>
  <path class="fil29" d="M611 925l0 0 -2 -10 -6 0c-6,-3 -15,-6 -25,-6 -10,0 -19,3 -25,6l-5 0 -3 10 0 0c0,1 0,2 0,3 0,11 15,19 33,19 18,0 33,-8 33,-19 0,-1 0,-2 0,-3z"/>
  <path class="fil30" d="M609 918c0,9 -14,17 -31,17 -17,0 -30,-8 -30,-17 0,-10 13,-18 30,-18 17,0 31,8 31,18z"/>
  <path class="fil31" d="M594 917c0,4 -7,8 -16,8 -9,0 -16,-4 -16,-8 0,-5 7,-9 16,-9 9,0 16,4 16,9z"/>
  <path class="fil32" d="M654 921c-3,-2 -5,-3 -8,-4 -2,0 -5,0 -6,1 -4,2 -2,5 4,9 6,3 11,4 14,2 2,-1 3,-2 2,-4 -1,-1 -3,-3 -6,-4zm21 18c-3,2 -6,3 -9,3 -3,0 -7,0 -9,-2l5 -4c2,1 3,1 4,1 2,0 3,0 4,-1 2,-1 3,-2 2,-3 0,-2 -2,-3 -4,-4l-2 -1 -2 -2 0 0c2,3 1,5 -3,8 -3,1 -7,2 -11,1 -4,0 -8,-2 -13,-5 -4,-2 -7,-5 -8,-7 -1,-3 0,-5 3,-6 4,-3 8,-3 13,-2l0 0c-1,0 -1,-1 -2,-1 -1,-1 -2,-1 -2,-2l6 -3c2,1 4,2 6,4l21 12c4,2 6,5 7,7 0,2 -2,5 -6,7z"/>
  <path class="fil33" d="M682 922l-22 -13c-2,-1 -3,-2 -4,-2 -1,-1 -2,-1 -3,-2l6 -3c1,0 2,0 3,1 2,1 3,2 4,2l0 0c-2,-1 -3,-3 -3,-3 0,-1 0,-2 0,-2 0,-1 1,-2 2,-2 1,-1 2,-1 2,-1l7 4c-2,0 -3,0 -4,1 -1,1 -2,2 -1,3 1,2 2,3 5,5l14 8 -6 4z"/>
  <path class="fil34" d="M700 896l-3 2c-2,1 -3,2 -3,2 0,1 0,1 0,2 0,0 1,1 2,2 1,0 3,1 4,1 1,0 2,0 3,-1 1,0 2,-1 2,-2 0,-1 0,-2 -1,-3 0,-1 -1,-1 -3,-2l-1 -1zm6 12c-2,2 -5,2 -8,2 -2,0 -5,-1 -8,-2 -3,-2 -4,-4 -4,-6 0,-2 2,-3 5,-5l5 -3 -2 -1c-1,-1 -3,-2 -5,-2 -1,0 -2,0 -4,1 -1,0 -1,1 -1,2 0,0 0,1 2,2l-7 4c-3,-2 -4,-4 -3,-6 0,-2 2,-3 5,-5 3,-2 6,-3 10,-3 3,0 7,1 10,3l10 6c2,1 3,2 4,2 1,0 2,0 2,-1 1,0 1,0 2,0l4 2c-1,0 -1,0 -1,1 0,0 -1,0 -1,0 0,0 0,1 -1,1 0,0 0,0 -1,1 -1,1 -3,1 -5,1 -1,0 -3,-1 -5,-2l0 0c2,4 1,6 -3,8z"/>
  <path class="fil35" d="M741 888l-16 -9c-5,-3 -9,-4 -12,-2 -1,0 -1,1 -1,3 1,1 3,2 5,4l15 9 -6 3 -22 -12c-2,-1 -3,-2 -4,-3 -1,0 -2,-1 -3,-1l6 -4c1,1 2,1 3,2 2,1 3,1 3,2l1 -1c-2,-1 -2,-3 -2,-4 0,-1 1,-2 3,-3 3,-2 8,-3 13,-1l0 0c-2,-1 -2,-3 -2,-4 0,-1 1,-3 3,-4 2,-1 5,-1 8,-1 3,0 7,2 10,4l18 10 -6 4 -16 -10c-5,-2 -9,-3 -11,-2 -1,1 -2,2 -1,3 0,1 2,3 4,4l16 9 -6 4z"/>
  <path class="fil36" d="M782 864l-16 -9c-5,-3 -9,-4 -11,-2 -1,0 -2,2 -1,3 1,1 2,3 5,4l15 9 -6 4 -23 -13c-1,-1 -2,-2 -3,-2 -1,-1 -2,-1 -3,-2l6 -3c0,0 1,0 3,1 1,1 2,1 3,2l0 0c-1,-2 -2,-4 -2,-5 1,-1 1,-2 3,-3 4,-2 8,-2 13,0l0 0c-1,-2 -2,-4 -1,-5 0,-1 1,-2 3,-3 2,-2 5,-2 8,-2 3,0 6,2 10,4l18 10 -6 4 -16 -9c-5,-3 -9,-4 -12,-3 -1,1 -1,2 -1,3 1,2 3,3 5,4l15 10 -6 3z"/>
  <path class="fil37" d="M809 834l-3 1c-1,1 -2,2 -3,3 0,0 0,1 0,1 1,1 1,1 2,2 2,1 3,1 4,1 1,0 2,0 3,0 1,-1 2,-2 2,-3 0,0 0,-1 -1,-2 0,-1 -1,-2 -2,-3l-2 0zm6 12c-2,1 -5,2 -7,2 -3,0 -6,-1 -9,-3 -3,-2 -4,-3 -4,-5 0,-2 2,-4 5,-6l5 -3 -1 -1c-2,-1 -4,-1 -5,-2 -2,0 -3,0 -4,1 -2,1 -2,2 -2,2 0,1 1,2 2,3l-7 3c-3,-2 -4,-3 -3,-5 0,-2 2,-4 5,-6 3,-2 6,-2 10,-2 3,0 7,1 10,3l10 6c2,1 3,1 4,1 1,0 2,0 3,0 0,0 0,-1 1,-1l4 2c0,1 -1,1 -1,1 0,0 0,1 -1,1 0,0 0,0 0,0 -1,1 -1,1 -2,1 -1,1 -3,1 -5,1 -1,0 -3,0 -5,-1l0 0c2,3 1,6 -3,8z"/>
  <path class="fil38" d="M835 834l-22 -13c-1,-1 -2,-1 -4,-2 -1,-1 -2,-1 -2,-2l6 -3c0,0 1,1 3,1 1,1 3,2 3,2l0 0c-1,-1 -2,-2 -2,-3 -1,-1 -1,-2 0,-2 0,-1 0,-1 1,-2 1,-1 2,-1 3,-1l6 4c-1,0 -2,1 -3,1 -2,1 -2,2 -2,3 1,2 3,3 6,5l14 8 -7 4z"/>
  <path class="fil39" d="M746 306c3,-17 0,-21 0,-21l-17 23c0,0 5,7 3,12 0,2 -1,4 -2,5 0,1 0,2 1,2l0 1 6 3 8 -13 1 -7 -1 1c0,-2 1,-4 1,-6z"/>
  <path class="fil40" d="M798 197l-6 -4c0,0 -2,-1 -3,-1 -1,0 -3,0 -5,1l-74 43c-5,3 -10,12 -10,19l1 60c0,4 1,7 4,8l7 4 5 -9 67 -39c6,-3 10,-11 10,-19l0 -57 4 -6z"/>
  <path class="fil41" d="M792 283l-74 43c-5,3 -10,0 -10,-8l0 -59c0,-7 4,-16 10,-19l73 -43c6,-3 10,0 10,8l0 59c1,7 -4,16 -9,19z"/>
  <path class="fil41" d="M740 310c0,0 2,7 -1,14 0,2 -1,4 -2,5 -1,2 1,3 2,2 5,-3 13,-10 14,-21 3,-17 0,-21 0,-21l-13 21z"/>
  <path class="fil42" d="M740 269c1,6 -3,14 -8,18 -5,4 -10,2 -10,-4 -1,-6 2,-14 7,-18 5,-3 10,-2 11,4z"/>
  <path class="fil43" d="M765 256c0,6 -3,13 -8,17 -5,4 -10,2 -11,-4 -1,-6 3,-14 8,-17 5,-4 10,-2 11,4z"/>
  <path class="fil44" d="M788 242c1,6 -2,14 -7,18 -5,3 -10,2 -11,-4 -1,-6 3,-14 8,-18 5,-4 10,-2 10,4z"/>
  <path class="fil45" d="M584 839c3,-23 0,-28 0,-28l-23 31c0,0 6,9 4,15 0,3 -1,5 -2,7 -1,1 -1,2 0,3l0 0 1 0 8 5 10 -17 2 -10 -3 2c1,-2 2,-5 3,-8z"/>
  <path class="fil46" d="M651 697l-8 -5c-1,0 -3,-1 -3,-1 -3,-1 -5,0 -8,1l-95 56c-8,4 -13,15 -13,25l0 77c0,6 2,10 5,11l9 5 7 -11 88 -51c7,-4 13,-15 13,-25l-1 -74 6 -8z"/>
  <path class="fil47" d="M642 809l-95 56c-8,4 -13,0 -13,-10l-1 -77c0,-10 6,-21 13,-25l96 -56c7,-4 13,0 13,10l0 77c0,10 -5,21 -13,25z"/>
  <path class="fil48" d="M576 845c0,0 2,9 -1,17 -2,3 -3,5 -4,7 -1,2 1,4 3,3 7,-4 17,-13 19,-27 3,-23 0,-28 0,-28l-17 28z"/>
  <path class="fil49" d="M575 791c1,8 -4,18 -10,23 -7,5 -13,3 -14,-5 -1,-8 4,-18 10,-23 7,-5 13,-3 14,5z"/>
  <path class="fil50" d="M607 773c1,8 -3,18 -10,23 -7,5 -13,3 -14,-5 -1,-7 4,-18 10,-23 7,-5 13,-2 14,5z"/>
  <path class="fil51" d="M638 756c1,7 -3,18 -10,23 -6,5 -13,2 -14,-5 -1,-8 4,-19 11,-24 6,-5 12,-2 13,6z"/>
  <path class="fil52" d="M244 390c4,-25 0,-30 0,-30l-24 32c0,0 6,11 4,17 0,3 -1,5 -3,7 0,2 0,3 1,3l1 1 8 5 11 -18 2 -11 -2 2c1,-2 1,-5 2,-8z"/>
  <path class="fil53" d="M316 237l-9 -4c0,-1 -3,-2 -3,-2l0 0c-2,0 -5,0 -8,2l-102 59c-8,5 -14,16 -14,27l0 82c0,7 2,11 6,12l9 5 8 -11 93 -54c8,-5 14,-17 14,-27l0 -80 6 -9z"/>
  <path class="fil54" d="M307 358l-102 59c-8,5 -14,0 -14,-10l-1 -83c0,-10 6,-22 14,-27l102 -59c8,-5 14,0 14,10l1 83c0,10 -7,22 -14,27z"/>
  <path class="fil55" d="M235 396c0,0 3,9 -1,18 -1,3 -2,6 -3,8 -2,2 1,4 3,3 7,-5 17,-14 20,-29 3,-25 0,-30 0,-30l-19 30z"/>
  <path class="fil56" d="M235 338c1,9 -4,20 -11,25 -7,5 -14,3 -15,-5 -1,-9 4,-20 11,-25 7,-5 14,-3 15,5z"/>
  <path class="fil57" d="M269 319c1,9 -4,20 -11,25 -7,5 -13,3 -14,-5 -1,-9 3,-20 11,-25 7,-5 13,-3 14,5z"/>
  <path class="fil58" d="M302 300c1,9 -3,20 -10,25 -8,5 -14,3 -15,-5 -1,-9 4,-20 11,-25 7,-5 13,-3 14,5z"/>
  <path class="fil59" d="M209 656c0,0 -1,0 -1,2 0,3 -2,5 0,6 2,1 6,2 8,1 2,0 3,-1 3,-1 1,0 13,-7 13,-7 0,0 1,-1 1,-2 -1,-2 -3,-2 -3,-3 -1,0 -7,1 -9,1 -2,0 -7,-1 -7,-1l-5 4z"/>
  <path class="fil60" d="M215 666c0,0 0,0 -1,0l0 0c1,0 1,0 1,0l0 0z"/>
  <path class="fil61" d="M215 666c0,0 0,0 -1,0l1 0c0,0 0,0 0,0z"/>
  <path class="fil62" d="M207 662c0,0 0,-1 0,-1l0 0 0 0 0 0c0,0 0,1 0,1l0 0z"/>
  <path class="fil63" d="M214 664c-1,0 -5,-1 -6,-2 0,0 -1,-1 -1,-1l0 0c0,0 1,1 1,1 1,1 5,2 6,2 1,0 1,0 1,0 1,0 1,-1 3,-2 0,0 1,-1 2,-1 0,0 1,1 1,1 1,0 10,-6 11,-6 0,0 1,-2 1,-2 0,0 0,1 0,1l0 0c0,0 0,-1 0,-1l0 0c0,0 -1,2 -1,2 -1,0 -10,6 -11,6 0,0 -1,-1 -1,-1 -1,0 -2,1 -2,1 -2,1 -2,2 -3,2 0,0 0,0 -1,0z"/>
  <g style="clip-path:url(#id42)">
   <image x="205" y="654" width="29.6803" height="13.8742" xlink:href="grammar2_Images\grammar2_ImgID43.png"/>
  </g>
  <g style="clip-path:url(#id43)">
   <image x="205" y="652" width="29.6803" height="14.9719" xlink:href="grammar2_Images\grammar2_ImgID44.png"/>
  </g>
  <path class="fil64" d="M185 648c0,0 -1,0 -1,2 0,3 -1,5 0,6 2,1 6,2 8,1 2,0 3,-1 4,-1 0,0 13,-7 13,-7 0,0 1,-1 0,-2 0,-2 -2,-2 -3,-3 0,0 -7,1 -9,1 -1,0 -7,-1 -7,-1l-5 4z"/>
  <path class="fil65" d="M191 658l0 0c0,0 0,0 0,0 0,0 0,0 0,0zm0 0c-2,0 -5,-1 -6,-2 1,1 4,2 6,2zm1 -1c0,0 0,0 0,0 0,0 0,0 1,0 -1,0 -1,0 -1,0 0,0 0,0 0,0zm-8 -1c0,0 0,0 0,0 0,0 0,0 0,0 0,0 0,0 0,0 0,0 0,0 0,0zm0 0c0,0 0,0 0,0 0,0 0,0 0,0zm0 0c0,0 0,0 0,0 0,0 0,0 0,0zm0 0c0,0 0,0 0,0 0,0 0,0 0,0zm0 0c0,0 0,0 0,0 0,0 0,0 0,0zm0 0c0,0 0,0 0,0 0,0 0,0 0,0zm0 0c0,0 0,0 0,0 0,0 0,0 0,0zm0 0c0,0 0,0 0,0 0,0 0,0 0,0zm0 0c0,0 0,0 0,0 0,0 0,0 0,0zm0 0c0,0 0,0 0,0 0,0 0,0 0,0zm0 0c0,0 0,0 0,0 0,0 0,0 0,0zm0 0c0,0 0,0 0,0 0,0 0,0 0,0zm0 0c0,0 0,0 0,0 0,0 0,0 0,0zm0 0c0,0 0,0 0,0 0,0 0,0 0,0zm0 0c0,0 0,0 0,0 0,0 0,0 0,0zm0 0c0,0 0,0 0,0 0,0 0,0 0,0zm0 0c0,0 0,0 0,0 0,0 0,0 0,0zm0 0c0,0 0,0 0,0 0,0 0,0 0,0zm0 0c0,0 0,0 0,0 0,0 0,0 0,0zm0 0c0,0 0,0 0,0 0,0 0,0 0,0zm0 0c0,0 0,0 0,0 0,0 0,0 0,0zm0 0c0,0 0,0 0,0 0,0 0,0 0,0zm0 0c0,0 0,0 0,0 0,0 0,0 0,0zm0 0c0,0 0,0 0,0 0,0 0,0 0,0zm0 0c0,-1 0,-1 0,-1 0,0 0,0 0,1zm0 -1c0,0 0,0 0,0 0,0 0,0 0,0zm0 0c0,0 0,0 0,0 0,0 0,0 0,0zm0 0c0,0 0,0 0,0 0,0 0,0 0,0zm0 0c0,0 0,0 0,0 0,0 0,0 0,0zm0 0c0,0 0,0 0,0 0,0 0,0 0,0zm0 0c0,0 0,0 0,0 0,0 0,0 0,0zm0 0c0,0 0,0 0,0 0,0 0,0 0,0zm0 0c0,0 0,0 0,0 0,0 0,0 0,0zm0 0c0,0 0,0 0,0 0,0 0,0 0,0zm0 0c0,0 0,0 0,0 0,0 0,0 0,0zm0 0c0,0 0,0 0,0 0,0 0,0 0,0zm0 0c0,0 0,0 0,0 0,0 0,0 0,0zm0 0c0,0 0,0 0,0 0,0 0,0 0,0zm0 0c0,0 0,0 0,0 0,0 0,0 0,0zm0 0c0,0 0,0 0,0 0,0 0,0 0,0zm0 0c0,0 0,0 0,0 0,0 0,0 0,0zm0 0c0,0 0,0 0,0 0,0 0,0 0,0zm0 0c0,0 0,0 0,0 0,0 0,0 0,0zm0 0c0,0 0,0 0,0 0,0 0,0 0,0zm0 0c0,0 0,0 0,0 0,0 0,0 0,0zm0 0c0,0 0,0 0,0 0,0 0,0 0,0zm0 0c0,0 0,0 0,0 0,0 0,0 0,0zm0 0c0,0 0,0 0,0 0,0 0,0 0,0zm0 0c0,0 0,0 0,0 0,0 0,0 0,0zm0 0c0,0 0,0 0,0 0,0 0,0 0,0zm0 0c0,0 0,0 0,0 0,0 0,0 0,0zm0 0c0,0 0,0 0,0 0,0 0,0 0,0zm0 0c0,0 0,0 0,0 0,0 0,0 0,0zm0 0c0,0 0,0 0,0 0,0 0,0 0,0zm0 0c0,0 0,0 0,0 0,0 0,0 0,0zm0 0c0,0 0,0 0,0 0,0 0,0 0,0zm0 0c0,0 0,0 0,0 0,0 0,0 0,0zm0 0c0,0 0,0 0,0 0,0 0,0 0,0zm0 0c0,0 0,0 0,0 0,0 0,0 0,0zm0 0c0,0 0,0 0,0 0,0 0,0 0,0zm0 0c0,0 0,0 0,0 0,0 0,0 0,0zm0 0c0,0 0,0 0,0 0,0 0,0 0,0zm0 0c0,0 0,0 0,0 0,0 0,0 0,0zm0 0c0,0 0,0 0,0 0,0 0,0 0,0z"/>
  <path class="fil66" d="M191 658c0,0 0,0 0,0 -2,0 -5,-1 -6,-2 -1,0 -1,0 -1,0 0,0 0,0 0,0 0,0 0,0 0,0 0,0 0,0 0,0 0,0 0,0 0,0 0,0 0,0 0,0 0,0 0,0 0,0 0,0 0,0 0,0 0,0 0,0 0,0 0,0 0,0 0,0 0,0 0,0 0,0 0,0 0,0 0,0 0,0 0,0 0,0 0,0 0,0 0,0 0,0 0,0 0,0 0,0 0,0 0,0 0,0 0,0 0,0 0,0 0,0 0,0 0,0 0,0 0,0 0,0 0,0 0,0 0,0 0,0 0,0 0,0 0,0 0,0 0,0 0,0 0,0 0,0 0,0 0,0 0,0 0,0 0,0 0,0 0,0 0,0 0,0 0,0 0,0 0,0 0,0 0,0 0,0 0,0 0,0 0,0 0,0 0,0 0,0 0,0 0,0 0,0 0,0 0,0 0,0 0,0 0,0 0,0 0,0 0,0 0,0 0,0 0,0 0,0 0,0 0,0 0,0 0,0 0,0 0,0 0,0 0,0 0,0 0,0 0,0 0,0 0,0 0,0 0,0 0,0 0,0 0,0 0,0 0,0 0,0 0,0 0,0 0,0 0,0 0,0 0,0 0,0 0,0 0,0 0,0 0,0 0,0 0,0 0,0 0,0 0,0 0,0 0,0 0,0 0,0 0,0 0,0 0,0 0,-1 0,-1 0,-1 0,0 0,0 0,0 0,0 0,0 0,0 0,0 0,0 0,0 0,0 0,0 0,0l0 0c0,0 0,0 0,0 0,0 0,0 0,0 0,0 0,0 0,0 0,0 0,0 0,0 0,0 0,0 0,0 0,0 0,0 0,0 0,0 0,0 0,0 0,0 0,0 0,0 0,0 0,0 0,0 0,0 0,0 0,0 0,0 0,0 0,0l0 0c0,0 0,0 0,0l0 0c0,0 0,0 0,0 0,0 0,0 0,0 0,0 0,0 0,0l0 0c0,0 0,0 0,0 0,0 0,0 0,0 0,0 0,0 0,0l0 0c0,0 0,0 0,0 0,0 0,0 0,0 0,0 0,0 0,0 0,0 0,0 0,0 0,0 0,0 0,0 0,0 0,0 0,0 0,0 0,0 0,0l0 0c0,0 0,0 0,0l0 0c0,0 0,0 0,0l0 0c0,0 0,0 0,0l0 0c0,0 0,0 0,0l0 0c0,0 0,0 0,0l0 0c0,0 0,0 0,0l0 0c0,0 0,0 0,0 0,0 0,0 0,0 0,0 0,0 0,0l0 0c0,0 0,0 0,0l0 0c0,0 0,0 0,0 0,0 0,0 0,0 0,0 0,0 0,0 0,0 0,0 0,0 0,0 0,0 0,0l0 0c0,0 0,0 0,0 0,0 0,0 0,0 0,0 0,0 0,0 0,0 0,0 0,0 0,0 0,0 0,0 0,0 0,0 0,0 0,0 0,0 0,0 0,0 0,0 0,0 0,0 0,0 0,0 0,0 0,0 0,0 0,0 0,0 0,0 0,0 0,0 0,0 0,0 0,0 0,0 0,0 0,0 0,0 0,0 0,0 0,0 0,0 0,0 0,0 0,0 0,0 0,0 0,0 0,0 0,0 0,0 0,0 0,0 0,0 0,-1 0,-1l0 0c0,1 0,1 0,2 2,1 5,2 7,2 0,0 1,0 1,-1 2,0 3,-1 4,-1 0,0 13,-7 13,-7 0,0 1,-1 1,-1l0 0c0,0 -1,1 -1,1 0,0 0,0 0,0 -2,1 -13,7 -13,7 -1,0 -2,1 -3,1 -1,0 -1,0 -1,0 0,0 0,0 0,0 0,1 -1,1 -1,1 0,0 0,0 0,0z"/>
  <g style="clip-path:url(#id44)">
   <image x="207" y="645" width="3.33689" height="3.55637" xlink:href="grammar2_Images\grammar2_ImgID45.png"/>
  </g>
  <g style="clip-path:url(#id45)">
   <image x="182" y="645" width="28.8022" height="14.0938" xlink:href="grammar2_Images\grammar2_ImgID46.png"/>
  </g>
  <path class="fil10" d="M209 556l-7 -5c-1,0 -1,0 -1,0l0 0 0 0c-1,0 -2,0 -3,0l-27 16c-2,1 -4,4 -4,6l0 24c0,1 1,2 2,3l0 0 0 0 3 2 5 3 8 -13 14 -7c2,-2 4,-4 4,-7l0 -12 6 -10z"/>
  <path class="fil9" d="M180 605l27 -16c3,-1 4,-3 4,-6l0 -24c0,-3 -3,-4 -5,-3l-27 16c-2,1 -4,4 -4,6l0 24c0,2 3,4 5,3z"/>
  <path class="fil67" d="M182 565c0,0 0,31 0,37 0,6 1,20 1,31 0,10 0,14 2,15 2,1 11,0 12,-2 2,-2 1,-26 1,-30 1,-5 4,-23 4,-23l-1 -21 -19 -7z"/>
  <path class="fil68" d="M220 573c0,0 5,34 5,42 -1,8 -3,35 -3,38 -1,2 -2,3 -5,4 -3,0 -5,0 -7,0 -2,-1 -3,-2 -3,-5 0,-2 3,-29 2,-34 -1,-4 -9,-23 -10,-31 -1,-7 -2,-15 -2,-15l23 1z"/>
  <path class="fil69" d="M222 587c0,0 -3,-1 -5,-3 -2,-3 -4,-8 -4,-8l7 -3 2 14z"/>
  <path class="fil67" d="M182 502c0,0 -10,21 -11,25 -2,4 -2,6 0,8 1,3 10,16 10,16l10 -13 3 -20 -5 -13 -7 -3z"/>
  <path class="fil70" d="M230 532c0,0 -3,-10 -5,-16 -2,-6 -4,-7 -6,-9 -3,-1 -5,-4 -5,-4l-22 -5c0,0 -8,1 -10,4 -3,5 -4,58 -3,61 1,4 8,10 19,13 11,2 22,1 25,-1 2,-2 3,-21 1,-30 -1,-9 6,-13 6,-13z"/>
  <path class="fil71" d="M211 502c0,0 -1,-2 -1,-6 0,-4 1,-9 1,-9l-13 -2c0,0 1,2 1,7 -1,5 -4,8 -4,8 0,0 7,5 9,5 2,0 6,0 6,0l1 -3z"/>
  <path class="fil72" d="M215 476c0,0 3,4 3,9 -1,6 -3,10 -5,10 -2,1 -6,0 -9,-3 -2,-2 -4,-11 -4,-11l12 -11 3 6z"/>
  <path class="fil73" d="M214 469c2,1 5,3 5,6 0,2 -3,5 -3,5 0,0 -2,-3 -5,-4 -2,-1 -2,1 -2,1l-6 -7c0,0 6,-4 11,-1z"/>
  <path class="fil74" d="M208 470l3 -2c0,0 -5,-2 -9,-1 -5,1 -6,4 -6,4 0,0 -4,3 -4,7 0,4 1,8 4,9 3,2 3,3 7,2 3,0 6,-4 6,-7 -1,-3 1,-2 3,-4 1,-2 1,-5 0,-7 -2,-2 -4,-1 -4,-1z"/>
  <path class="fil67" d="M215 504c-1,-2 -2,-3 -3,-4 0,0 -1,0 -2,0 -1,0 -3,1 -6,1 -3,-1 -5,-2 -7,-5 -1,-2 -5,1 -5,2 0,2 2,5 7,7 5,2 9,1 12,1 2,0 3,-1 3,-1 1,0 1,-1 1,-1z"/>
  <path class="fil72" d="M247 522l3 -5c0,0 3,1 4,-1 1,-1 2,-4 2,-6 -1,-1 -3,-3 -3,-3 0,0 3,-6 3,-7 0,-1 -1,-1 -2,-1 0,1 -4,7 -4,7 0,0 -2,0 -3,4 -1,4 -1,4 -1,4l-2 3 3 5z"/>
  <polygon class="fil73" points="247,526 249,523 244,516 242,520 "/>
  <path class="fil67" d="M247 524c1,1 1,2 0,3 -2,4 -13,23 -17,24 -3,0 -10,-9 -13,-18 -4,-9 -6,-14 -4,-19 1,-4 4,-8 7,-6 3,2 5,5 8,15 2,10 2,10 2,10 0,0 9,-12 10,-14 0,0 1,-1 1,-1 1,0 2,0 2,0l4 6z"/>
  <path class="fil75" d="M249 523l0 -1c1,-1 1,-1 0,-1l-4 -6c0,0 -1,0 -1,0l0 1 5 7z"/>
  <path class="fil76" d="M206 501c0,0 0,0 0,0 2,0 3,-1 4,-1 1,0 2,0 2,0 1,1 2,2 3,4 0,0 0,1 0,1 -1,0 -5,-4 -9,-4z"/>
  <path class="fil59" d="M323 585c0,0 1,3 1,4 0,2 0,3 0,3l-4 1 -1 -1 0 2c0,0 -7,5 -10,6 -3,1 -8,-1 -8,-2 0,-1 0,-3 2,-5 2,-1 8,-8 8,-8l12 0z"/>
  <path class="fil77" d="M311 587l3 1c0,0 1,0 1,0 0,0 0,-1 -1,-1l-3 -1c0,0 -1,0 -1,1 0,0 0,0 1,0z"/>
  <path class="fil77" d="M309 589l4 1c0,0 0,0 0,0 0,-1 0,-1 0,-1l-3 -1c-1,0 -1,0 -1,1 0,0 0,0 0,0z"/>
  <path class="fil59" d="M303 580c0,0 2,3 1,5 0,1 0,2 0,2l-3 1 -1 -1 0 2c0,0 -7,5 -10,6 -3,0 -8,-2 -8,-2 0,-1 1,-3 3,-5 2,-1 7,-8 7,-8l11 0z"/>
  <path class="fil77" d="M292 582l3 1c0,0 0,0 0,-1 1,0 0,0 0,0l-3 -1c0,0 0,0 -1,0 0,1 1,1 1,1z"/>
  <path class="fil77" d="M291 584l2 0c1,1 1,0 1,0 0,0 0,0 0,-1l-3 0c0,0 -1,0 -1,0 0,0 0,1 1,1z"/>
  <path class="fil67" d="M302 517c0,0 1,25 1,35 0,11 1,28 1,28 0,0 -4,2 -9,2 -5,0 -5,-1 -5,-1l-2 -31c0,0 -2,-4 -3,-21 -1,-17 0,-22 0,-22l7 -14 11 19 -1 5z"/>
  <path class="fil68" d="M323 513c0,0 1,35 0,40 0,6 0,2 0,2l1 30c0,0 -3,2 -7,2 -4,1 -9,-2 -9,-2 0,0 -2,-30 -2,-32 -1,-1 -3,-20 -4,-32 -3,-23 21,-8 21,-8z"/>
  <path class="fil70" d="M304 518c3,1 7,1 10,0l12 -3c0,0 2,1 1,-4 -1,-5 -3,-35 -1,-47 2,-13 1,-21 1,-21 0,0 -11,-7 -13,-7 -3,1 -14,-3 -14,-3l-10 3c0,0 -2,0 -5,4 -2,3 -5,15 -5,15l3 15 0 15c0,0 1,13 0,18 -1,6 -1,9 0,9 1,1 8,4 9,1 2,-3 1,-16 1,-16 0,0 3,18 7,20 1,0 3,1 4,1z"/>
  <path class="fil78" d="M301 431c0,0 1,4 0,8 -2,4 -4,6 -4,6l0 4 11 -7 6 -7c-2,-3 -3,-12 -3,-12l-11 6 1 2z"/>
  <path class="fil78" d="M305 432c0,0 -4,2 -6,0 -2,-2 -4,-7 -4,-13 1,-5 3,-9 3,-9l17 5 -3 10 0 2 -7 5z"/>
  <path class="fil79" d="M308 409c0,-1 2,-2 3,-1 1,0 2,1 3,1 2,2 4,7 4,10 -1,3 -2,6 -4,8 -3,1 -4,1 -4,1l1 -3c0,0 2,-2 2,-4 -1,-2 -3,-2 -3,-2 0,0 1,-2 0,-3 -1,-1 -4,-2 -4,-2l2 -5z"/>
  <path class="fil79" d="M312 412c-1,-3 -4,-6 -8,-7 -5,0 -10,5 -12,8 -1,4 1,7 2,8 2,1 9,-1 13,-4 3,-2 5,-5 5,-5z"/>
  <path class="fil67" d="M293 460l0 -18 5 -3 -5 0 0 -2c0,0 2,-3 5,-4 2,0 3,1 3,1l0 3 -7 24 -1 -1z"/>
  <path class="fil67" d="M298 468l13 -26 2 -8c0,-1 1,-1 1,-1 2,2 5,5 5,7 0,2 -2,7 -2,7l-5 -4 4 6 -16 19 -2 0z"/>
  <polygon class="fil80" points="301,440 307,443 311,442 298,468 295,462 294,461 298,449 300,442 "/>
  <path class="fil81" d="M307 442l-2 4c-1,0 -1,0 -2,0l-1 0c-1,0 -2,-1 -1,-2l0 -4 6 2z"/>
  <path class="fil82" d="M312 436c0,0 -3,4 -5,4 -2,1 -4,1 -4,1l0 4c1,1 2,2 3,2l3 0 2 -5 1 -6z"/>
  <polygon class="fil82" points="299,445 303,441 301,437 "/>
  <polygon class="fil81" points="301,445 295,462 297,464 299,467 303,446 "/>
  <path class="fil78" d="M294 465l0 0c0,0 0,0 -1,-1 0,-1 0,-1 0,-1 0,0 -4,0 -4,0 0,0 -1,-2 -1,-2l5 -1c0,0 1,0 2,1 1,1 4,5 4,5l2 1 -1 2c-2,-2 -5,-3 -6,-4z"/>
  <path class="fil81" d="M280 471l14 7c1,1 1,0 1,-1l-3 -22c0,-1 -1,-2 -2,-3l-13 -7c-1,-1 -2,0 -2,1l4 22c0,1 0,2 1,3z"/>
  <path class="fil82" d="M278 472l14 7c1,0 1,0 1,-1l-3 -22c0,-1 -1,-2 -2,-3l-13 -7c-1,-1 -2,0 -2,1l4 22c0,1 0,2 1,3z"/>
  <path class="fil83" d="M282 454l0 0c1,0 1,0 1,-1l-1 -5c0,-1 -1,-2 -2,-3 0,0 -1,1 -1,2l1 5c0,1 1,2 2,2z"/>
  <path class="fil78" d="M286 463c0,0 3,2 5,2 1,0 2,0 3,0 1,1 4,2 6,4l-4 3 -2 0c0,1 -6,0 -8,-2 -2,-2 -1,-3 -2,-5 -1,-3 2,-2 2,-2z"/>
  <path class="fil67" d="M314 478c0,-4 4,-24 6,-28 1,-5 4,-9 6,-8 3,2 5,4 5,11 1,7 -8,37 -10,39 -3,2 -5,2 -7,0 -3,-2 -19,-19 -19,-19 0,0 1,-2 3,-4 2,-2 3,-3 3,-3l13 12z"/>
  <path class="fil84" d="M278 452l0 0c1,0 1,0 1,-1l-1 -5c0,-1 -1,-2 -2,-3 0,0 -1,1 -1,2l1 5c0,1 1,2 2,2z"/>
  <path class="fil41" d="M299 486l-3 0c0,0 -1,0 -1,0 0,-1 1,-1 1,-1l3 0c1,0 1,0 1,1 0,0 0,0 -1,0z"/>
  <path class="fil41" d="M299 493l-3 0c0,0 -1,-1 -1,-1 0,-1 1,-1 1,-1l3 0c1,0 1,0 1,1 0,0 0,1 -1,1z"/>
  <path class="fil85" d="M508 356l-1 12c0,0 1,1 1,1l9 -2 0 -12 -9 1z"/>
  <polygon class="fil85" points="526,364 524,354 533,350 535,362 "/>
  <path class="fil86" d="M509 365c-2,0 -3,1 -3,2 0,2 -1,4 -1,5 0,2 0,3 0,3l4 2 1 -2 1 3c0,0 7,6 10,6 3,1 9,-1 9,-2 0,-1 -2,-3 -4,-5 -2,-1 -5,-8 -6,-10 -1,-1 -2,-2 -3,-2l-8 0z"/>
  <path class="fil77" d="M519 369l-3 1c-1,0 -1,-1 -1,-1 0,0 0,-1 0,-1l4 -1c0,0 0,1 0,1 1,0 0,1 0,1z"/>
  <path class="fil77" d="M520 371l-3 1c0,0 0,0 -1,-1 0,0 1,0 1,-1l3 0c0,-1 1,0 1,0 0,0 0,1 -1,1z"/>
  <path class="fil86" d="M527 363c-1,1 -3,2 -3,4 0,1 0,3 0,3 1,2 1,3 1,3l4 1 0 -2 1 2c0,0 9,4 12,4 3,-1 7,-3 7,-4 0,-1 -2,-3 -5,-4 -1,-1 -5,-5 -7,-7 -1,-1 -2,-2 -4,-1l-6 1z"/>
  <path class="fil77" d="M535 365l-2 1c0,1 -1,1 -1,0 0,0 0,0 0,-1l3 -1c0,0 1,0 1,0 0,1 0,1 -1,1z"/>
  <path class="fil77" d="M537 366l-2 2c-1,0 -1,0 -1,0 0,-1 0,-1 0,-1l3 -1c0,-1 0,-1 0,0 1,0 0,0 0,0z"/>
  <path class="fil70" d="M504 218c0,0 6,2 8,11 1,3 4,19 4,26 0,3 -1,9 -4,10l-5 2 -4 -28 1 -21z"/>
  <path class="fil67" d="M504 270c0,0 26,17 29,23 2,6 0,21 0,21l1 36c0,3 -2,5 -4,6 -4,0 -8,1 -7,0 0,-2 -4,-27 -4,-27l-22 -43 -5 -10 12 -6z"/>
  <path class="fil68" d="M472 282c0,0 -2,8 7,14 9,6 25,11 25,11 0,0 0,30 1,38 1,6 2,9 2,11 1,1 2,2 3,3l5 0c2,0 3,-1 3,-3l3 -40c0,0 4,-12 -2,-19 -7,-8 -24,-24 -24,-24l-23 9z"/>
  <path class="fil87" d="M474 217c0,0 -11,4 -12,11 -1,8 3,42 4,49 2,7 2,5 6,5 4,0 21,-5 25,-8 5,-2 7,-2 7,-4 1,-2 0,-22 0,-22 0,0 3,-7 3,-14 0,-6 -2,-14 -2,-14 0,0 -1,-4 -2,-5 -2,-1 -4,-1 -4,-1l-25 3z"/>
  <path class="fil88" d="M495 205c0,0 -3,5 0,9l2 4 -6 9 -18 -12c0,0 6,1 8,-1 1,-2 1,-17 1,-17l13 8z"/>
  <path class="fil89" d="M500 188c0,0 2,5 1,9 -1,4 -5,11 -8,11 -4,0 -12,-6 -12,-14 -1,-9 9,-13 9,-13l9 5 1 2z"/>
  <path class="fil90" d="M498 183c0,0 -2,8 -9,10 -8,1 -12,-1 -12,-1l-4 -2c0,0 4,-13 10,-14 7,-2 16,4 16,4l-1 3z"/>
  <path class="fil90" d="M501 195c0,0 5,-5 4,-8 0,-2 -1,-6 -4,-8 -2,-1 -4,1 -4,2 -1,1 1,4 2,8 2,3 2,6 2,6z"/>
  <path class="fil91" d="M495 215c0,0 2,-1 4,-1 1,0 -6,18 -6,18l-18 -13 -3 -4c2,0 4,2 4,2l15 10 4 -12z"/>
  <path class="fil90" d="M483 191c0,0 -1,9 1,11 2,3 3,6 1,9 -2,3 -4,10 -10,8 -5,-1 -7,2 -10,6 -3,4 -4,0 -2,-4 1,-4 4,-12 10,-14 5,0 5,2 5,2 0,0 -6,-5 -6,-10 -1,-5 0,-12 4,-15 3,-4 7,7 7,7z"/>
  <path class="fil92" d="M494 256l0 0c0,0 -1,0 1,-1 1,-1 1,-1 1,-1 0,0 3,0 3,0 1,1 2,-1 2,-1l-4 -2c0,0 -2,0 -3,0 -2,1 -6,4 -6,4l-2 1 1 2c2,-1 5,-2 7,-2z"/>
  <path class="fil93" d="M506 266l-16 4c-1,0 -2,-1 -1,-2l10 -22c0,-2 2,-3 3,-3l15 -4c1,0 2,0 2,2l-11 22c0,1 -1,3 -2,3z"/>
  <path class="fil67" d="M507 267l-15 4c-1,1 -2,0 -2,-1l11 -23c0,-1 1,-2 2,-3l16 -4c1,0 2,1 1,2l-10 23c0,1 -2,2 -3,2z"/>
  <path class="fil92" d="M503 256c0,0 -4,1 -6,1 -2,0 -3,-1 -3,-1 -2,0 -5,1 -7,2l2 5 2 1c0,0 6,1 9,-1 2,-1 2,-2 4,-5 2,-3 -1,-2 -1,-2z"/>
  <path class="fil70" d="M469 264c1,-4 4,-27 4,-32 -1,-6 -2,-11 -5,-10 -3,1 -6,3 -8,10 -3,7 -4,42 -2,45 2,3 4,3 7,2 3,-1 25,-15 25,-15 0,0 0,-3 -2,-5 -1,-3 -2,-4 -2,-4l-17 9z"/>
  <path class="fil94" d="M517 354c-3,0 -10,-1 -10,-1 0,1 0,2 0,3 1,1 2,2 3,3l5 0c2,0 3,-1 3,-3l1 -2c-1,0 -1,0 -2,0z"/>
  <path class="fil95" d="M522 353c0,1 1,3 1,3 -1,1 3,0 7,0 2,-1 4,-3 4,-6l0 -3c-2,1 -3,2 -4,3 -3,3 -7,3 -8,3z"/>
 </g>
</svg>
