<?xml version="1.0" encoding="UTF-8"?>
<!DOCTYPE svg PUBLIC "-//W3C//DTD SVG 1.1//EN" "http://www.w3.org/Graphics/SVG/1.1/DTD/svg11.dtd">
<!-- Creator: CorelDRAW X8 -->
<svg xmlns="http://www.w3.org/2000/svg" xml:space="preserve" width="1920px" height="1080px" version="1.1" style="shape-rendering:geometricPrecision; text-rendering:geometricPrecision; image-rendering:optimizeQuality; fill-rule:evenodd; clip-rule:evenodd"
viewBox="0 0 1920 1080"
 xmlns:xlink="http://www.w3.org/1999/xlink">
 <defs>
  <style type="text/css">
   <![CDATA[
    .fil8 {fill:#FEFEFE;fill-rule:nonzero}
    .fil106 {fill:#FFF3CD;fill-rule:nonzero}
    .fil100 {fill:#FFE99D;fill-rule:nonzero}
    .fil93 {fill:#FAC9A8;fill-rule:nonzero}
    .fil74 {fill:#FCC000;fill-rule:nonzero}
    .fil95 {fill:#F8BE92;fill-rule:nonzero}
    .fil90 {fill:#F7B682;fill-rule:nonzero}
    .fil89 {fill:#F5A35B;fill-rule:nonzero}
    .fil97 {fill:#E73845;fill-rule:nonzero}
    .fil5 {fill:#E31E28;fill-rule:nonzero}
    .fil113 {fill:#FEE569;fill-rule:nonzero}
    .fil6 {fill:#FDDC05;fill-rule:nonzero}
    .fil54 {fill:#FDDC00;fill-rule:nonzero}
    .fil78 {fill:#FCD162;fill-rule:nonzero}
    .fil59 {fill:#FDE31E;fill-rule:nonzero}
    .fil71 {fill:#FCDC7F;fill-rule:nonzero}
    .fil69 {fill:#FBD03B;fill-rule:nonzero}
    .fil44 {fill:#F2AB53;fill-rule:nonzero}
    .fil20 {fill:#DF2025;fill-rule:nonzero}
    .fil24 {fill:#E25055;fill-rule:nonzero}
    .fil67 {fill:#F2F2F1;fill-rule:nonzero}
    .fil105 {fill:#F4D368;fill-rule:nonzero}
    .fil63 {fill:#EFEFEF;fill-rule:nonzero}
    .fil22 {fill:#F1DAA5;fill-rule:nonzero}
    .fil4 {fill:#EEEDEC;fill-rule:nonzero}
    .fil57 {fill:#E06A6B;fill-rule:nonzero}
    .fil84 {fill:#EBECEC;fill-rule:nonzero}
    .fil11 {fill:#EBEAE9;fill-rule:nonzero}
    .fil25 {fill:#E9DDC3;fill-rule:nonzero}
    .fil77 {fill:#DA5C5F;fill-rule:nonzero}
    .fil48 {fill:#E5E4E3;fill-rule:nonzero}
    .fil68 {fill:#DB7D7C;fill-rule:nonzero}
    .fil52 {fill:#D22529;fill-rule:nonzero}
    .fil29 {fill:#E6C96B;fill-rule:nonzero}
    .fil40 {fill:#DE953D;fill-rule:nonzero}
    .fil62 {fill:#E1E0DE;fill-rule:nonzero}
    .fil45 {fill:#DFDEDC;fill-rule:nonzero}
    .fil99 {fill:#CC2635;fill-rule:nonzero}
    .fil27 {fill:#CC262D;fill-rule:nonzero}
    .fil64 {fill:#CB2B39;fill-rule:nonzero}
    .fil73 {fill:#C92728;fill-rule:nonzero}
    .fil17 {fill:#DBDAD9;fill-rule:nonzero}
    .fil21 {fill:#DCC58E;fill-rule:nonzero}
    .fil111 {fill:#D26A69;fill-rule:nonzero}
    .fil58 {fill:#D6ECFB;fill-rule:nonzero}
    .fil2 {fill:#D7D5D3;fill-rule:nonzero}
    .fil39 {fill:#D08630;fill-rule:nonzero}
    .fil92 {fill:#D4D3D1;fill-rule:nonzero}
    .fil65 {fill:#D2D0CE;fill-rule:nonzero}
    .fil32 {fill:#D4B757;fill-rule:nonzero}
    .fil94 {fill:#D0CECC;fill-rule:nonzero}
    .fil101 {fill:#CECBC8;fill-rule:nonzero}
    .fil0 {fill:#CCCAC8;fill-rule:nonzero}
    .fil85 {fill:#CFDA8B;fill-rule:nonzero}
    .fil102 {fill:#B97328;fill-rule:nonzero}
    .fil79 {fill:#B84A4F;fill-rule:nonzero}
    .fil53 {fill:#C6E4F9;fill-rule:nonzero}
    .fil72 {fill:#BE6A69;fill-rule:nonzero}
    .fil28 {fill:#AE2A2F;fill-rule:nonzero}
    .fil70 {fill:#A22930;fill-rule:nonzero}
    .fil87 {fill:#C4C1BE;fill-rule:nonzero}
    .fil3 {fill:#BFBDBB;fill-rule:nonzero}
    .fil91 {fill:#BDB9B6;fill-rule:nonzero}
    .fil13 {fill:#C0CB67;fill-rule:nonzero}
    .fil23 {fill:#BAB9B6;fill-rule:nonzero}
    .fil38 {fill:#915326;fill-rule:nonzero}
    .fil80 {fill:#9C4C4D;fill-rule:nonzero}
    .fil75 {fill:#932933;fill-rule:nonzero}
    .fil1 {fill:#B9B5B1;fill-rule:nonzero}
    .fil103 {fill:#8D5526;fill-rule:nonzero}
    .fil31 {fill:#B6B2AE;fill-rule:nonzero}
    .fil83 {fill:#BBCC4D;fill-rule:nonzero}
    .fil26 {fill:#AE9031;fill-rule:nonzero}
    .fil56 {fill:#A7CEE9;fill-rule:nonzero}
    .fil98 {fill:#ACA8A4;fill-rule:nonzero}
    .fil88 {fill:#A7A5A2;fill-rule:nonzero}
    .fil76 {fill:#693538;fill-rule:nonzero}
    .fil19 {fill:#A09B97;fill-rule:nonzero}
    .fil86 {fill:#9B9793;fill-rule:nonzero}
    .fil36 {fill:#9BC54C;fill-rule:nonzero}
    .fil55 {fill:#8C8783;fill-rule:nonzero}
    .fil109 {fill:#898581;fill-rule:nonzero}
    .fil96 {fill:#80A3D5;fill-rule:nonzero}
    .fil9 {fill:#7E7A76;fill-rule:nonzero}
    .fil34 {fill:#7D7975;fill-rule:nonzero}
    .fil114 {fill:#79736F;fill-rule:nonzero}
    .fil51 {fill:#75B6DC;fill-rule:nonzero}
    .fil82 {fill:#75716D;fill-rule:nonzero}
    .fil33 {fill:#69645F;fill-rule:nonzero}
    .fil46 {fill:#67625E;fill-rule:nonzero}
    .fil18 {fill:#655F5C;fill-rule:nonzero}
    .fil50 {fill:#625D5A;fill-rule:nonzero}
    .fil108 {fill:#615C59;fill-rule:nonzero}
    .fil49 {fill:#4C4846;fill-rule:nonzero}
    .fil112 {fill:#5B5654;fill-rule:nonzero}
    .fil81 {fill:#54504D;fill-rule:nonzero}
    .fil43 {fill:#69B86E;fill-rule:nonzero}
    .fil66 {fill:#6194B2;fill-rule:nonzero}
    .fil7 {fill:#4C80C0;fill-rule:nonzero}
    .fil42 {fill:#2D574B;fill-rule:nonzero}
    .fil15 {fill:#0086BA;fill-rule:nonzero}
    .fil41 {fill:#196758;fill-rule:nonzero}
    .fil47 {fill:#007AAD;fill-rule:nonzero}
    .fil35 {fill:#008CD1;fill-rule:nonzero}
    .fil107 {fill:#0076B5;fill-rule:nonzero}
    .fil61 {fill:#006D9E;fill-rule:nonzero}
    .fil104 {fill:#006B9B;fill-rule:nonzero}
    .fil30 {fill:#006BB4;fill-rule:nonzero}
    .fil37 {fill:#0069A0;fill-rule:nonzero}
    .fil12 {fill:#00628F;fill-rule:nonzero}
    .fil14 {fill:#0D567E;fill-rule:nonzero}
    .fil110 {fill:#145175;fill-rule:nonzero}
    .fil60 {fill:#155074;fill-rule:nonzero}
    .fil16 {fill:#184E71;fill-rule:nonzero}
    .fil10 {fill:#184C6E;fill-rule:nonzero}
   ]]>
  </style>
 </defs>
 <g id="Слой_x0020_1">
  <metadata id="CorelCorpID_0Corel-Layer"/>
  <polygon class="fil0" points="225,570 54,586 45,491 216,475 "/>
  <polygon class="fil1" points="73,489 67,558 211,571 225,570 216,476 211,476 "/>
  <polygon class="fil2" points="243,569 72,554 80,460 251,475 "/>
  <polygon class="fil3" points="231,548 231,473 80,460 72,548 "/>
  <polygon class="fil4" points="60,543 232,543 232,448 60,448 "/>
  <polygon class="fil5" points="66,487 120,487 120,454 66,454 "/>
  <polygon class="fil6" points="66,479 120,479 120,463 66,463 "/>
  <polygon class="fil7" points="171,536 224,536 224,503 171,503 "/>
  <polygon class="fil8" points="218,536 198,523 177,536 171,536 171,531 190,519 171,508 171,503 178,503 198,516 218,503 224,503 224,508 206,520 224,532 224,536 224,536 "/>
  <polygon class="fil5" points="202,520 224,505 224,503 222,503 198,518 173,503 171,503 171,505 194,519 171,534 171,536 173,536 198,520 222,536 224,536 224,536 224,534 "/>
  <polygon class="fil8" points="192,536 203,536 203,503 192,503 "/>
  <polygon class="fil8" points="171,524 224,524 224,515 171,515 "/>
  <polygon class="fil5" points="195,536 201,536 201,503 195,503 "/>
  <polygon class="fil5" points="171,522 224,522 224,517 171,517 "/>
  <polygon class="fil9" points="79,518 87,518 87,510 89,510 89,529 87,529 87,521 79,521 79,529 76,529 76,510 79,510 "/>
  <polygon class="fil9" points="95,526 104,526 104,529 92,529 92,510 104,510 104,513 95,513 95,518 104,518 104,521 95,521 "/>
  <polygon class="fil9" points="109,526 118,526 118,529 107,529 107,510 109,510 "/>
  <polygon class="fil9" points="123,526 132,526 132,529 120,529 120,510 123,510 "/>
  <path class="fil9" d="M149 514c-2,-1 -4,-2 -5,-2 -2,0 -4,1 -5,2 -2,2 -2,3 -2,5 0,2 0,4 2,5 1,2 3,2 5,2 1,0 3,0 5,-2 1,-1 2,-3 2,-5 0,-2 -1,-3 -2,-5zm-12 -1c2,-2 4,-3 7,-3 2,0 5,1 6,3 2,1 3,4 3,6 0,3 -1,5 -3,7 -1,2 -4,3 -6,3 -3,0 -5,-1 -7,-3 -2,-2 -3,-4 -3,-7 0,-2 1,-5 3,-6z"/>
  <polygon class="fil9" points="146,471 154,471 154,463 157,463 157,482 154,482 154,474 146,474 146,482 143,482 143,463 146,463 "/>
  <path class="fil9" d="M174 468c-1,-2 -3,-2 -5,-2 -2,0 -4,0 -5,2 -1,1 -2,3 -2,5 0,2 1,3 2,4 1,2 3,3 5,3 2,0 4,-1 5,-3 1,-1 2,-2 2,-4 0,-2 -1,-4 -2,-5zm-12 -2c2,-2 4,-3 7,-3 3,0 5,1 7,3 2,1 3,4 3,7 0,2 -1,5 -3,6 -2,2 -4,3 -7,3 -3,0 -5,-1 -7,-3 -2,-1 -3,-4 -3,-6 0,-3 1,-6 3,-7z"/>
  <polygon class="fil9" points="184,479 193,479 193,482 181,482 181,463 184,463 "/>
  <path class="fil9" d="M200 475l6 0 -3 -8 -3 8zm7 2l-8 0 -2 5 -3 0 8 -19 2 0 7 19 -3 0 -1 -5z"/>
  <path class="fil10" d="M1102 635l-145 0c-5,0 -8,-4 -8,-8l0 -200 153 0 0 208z"/>
  <path class="fil11" d="M1102 632l-142 0c-4,0 -8,-4 -8,-8l0 -200 150 0 0 208z"/>
  <path class="fil12" d="M1102 626l-153 0 0 -197c0,-6 4,-11 10,-11l143 0 0 208z"/>
  <polygon class="fil13" points="949,562 1102,562 1102,555 949,555 "/>
  <polygon class="fil13" points="949,458 1102,458 1102,451 949,451 "/>
  <polygon class="fil8" points="999,431 1052,431 1052,427 999,427 "/>
  <polygon class="fil8" points="1059,574 1092,574 1092,570 1059,570 "/>
  <polygon class="fil8" points="1059,585 1092,585 1092,580 1059,580 "/>
  <path class="fil14" d="M960 418l-1 0c-6,0 -10,5 -10,11l0 197 11 0 0 -208z"/>
  <path class="fil8" d="M998 493c6,0 9,-5 9,-10 0,-4 -3,-9 -9,-9l-6 0 0 19 6 0zm0 -22c8,0 12,6 12,12 0,7 -4,13 -12,13l-10 0 0 -25 10 0z"/>
  <polygon class="fil8" points="1027,474 1022,474 1022,493 1027,493 1027,496 1013,496 1013,493 1018,493 1018,474 1013,474 1013,471 1027,471 "/>
  <path class="fil8" d="M1033 474c3,-2 6,-4 9,-4 6,0 11,4 12,10l-4 0c-1,-4 -4,-6 -8,-6 -2,0 -5,1 -6,3 -2,2 -3,4 -3,7 0,2 1,4 3,6 1,2 4,3 6,3 4,0 7,-2 9,-6l3 0c-1,6 -6,10 -12,10 -3,0 -6,-2 -9,-4 -2,-3 -3,-6 -3,-9 0,-4 1,-7 3,-10z"/>
  <polygon class="fil8" points="1065,496 1065,474 1057,474 1057,471 1076,471 1076,474 1069,474 1069,496 "/>
  <path class="fil8" d="M999 531l10 0 -5 -14 -5 14zm12 5l-14 0 -4 9 -5 0 14 -36 4 0 14 36 -5 0 -4 -9z"/>
  <polygon class="fil8" points="1026,531 1040,531 1040,527 1026,527 "/>
  <polygon class="fil8" points="1073,513 1053,540 1074,540 1074,545 1047,545 1047,541 1067,514 1047,514 1047,509 1073,509 "/>
  <path class="fil12" d="M228 861c28,47 13,107 -34,136 -46,28 -107,13 -135,-34 -28,-46 -13,-107 34,-135 46,-28 107,-13 135,33z"/>
  <path class="fil15" d="M242 912c0,-55 -44,-98 -99,-98 -54,0 -98,43 -98,98l197 0z"/>
  <path class="fil5" d="M216 869c0,0 -2,84 -36,104 -33,21 -77,10 -98,-24 -20,-34 -9,-77 25,-98 33,-20 109,18 109,18z"/>
  <path class="fil16" d="M215 912c0,40 -32,72 -72,72 -39,0 -71,-32 -71,-72 0,-39 32,-71 71,-71 40,0 72,32 72,71z"/>
  <path class="fil17" d="M183 967c-31,22 -73,15 -94,-15 -22,-31 -15,-73 15,-95 31,-21 73,-14 94,16 22,30 15,72 -15,94z"/>
  <path class="fil18" d="M150 921c-5,3 -12,2 -15,-3 -3,-4 -2,-11 2,-14 5,-4 31,-9 31,-9 0,0 -14,22 -18,26z"/>
  <path class="fil18" d="M151 920c-4,4 -11,4 -15,0 -4,-4 -4,-11 0,-15 4,-4 11,-4 15,0 4,4 4,11 0,15z"/>
  <path class="fil8" d="M148 917c-3,2 -6,2 -9,0 -2,-3 -2,-7 0,-9 3,-2 6,-2 9,0 2,2 2,6 0,9z"/>
  <path class="fil17" d="M156 828c-4,-1 -8,-1 -13,-1l0 0c-3,0 -6,0 -9,1l0 -5c3,0 6,0 9,0l0 0c5,0 9,0 14,1l-1 4zm-62 15l-2 -4c6,-4 13,-8 20,-11l1 5c-7,2 -13,6 -19,10zm102 2c-6,-4 -12,-8 -19,-11l2 -4c7,3 13,7 20,11l-3 4zm-130 31l-4 -2c4,-7 8,-13 13,-19l3 3c-5,5 -8,11 -12,18zm156 3c-3,-6 -6,-13 -11,-19l4 -2c4,6 8,12 11,20l-4 1zm-168 40c0,-2 0,-5 0,-7 0,-5 0,-11 1,-16l5 1c-1,5 -2,10 -2,15 0,2 0,4 1,6l-5 1zm176 16l-4 -1c2,-7 3,-14 3,-22 0,-4 -1,-8 -1,-12l4 0c1,4 1,8 1,12 0,8 -1,16 -3,23zm-161 27c-5,-7 -8,-14 -10,-21l4 -1c2,6 5,13 9,19l-3 3zm139 13l-3 -4c5,-5 9,-11 13,-17l4 2c-4,7 -9,13 -14,19zm-106 17c-6,-4 -13,-8 -18,-13l3 -3c5,4 11,9 17,12l-2 4zm67 6l-1 -4c7,-2 14,-5 20,-9l2 4c-6,4 -13,7 -21,9zm-26 4c-6,0 -13,-1 -19,-2l1 -5c7,2 14,3 22,2l0 5c-1,0 -2,0 -4,0z"/>
  <polygon class="fil18" points="118,934 121,934 113,953 111,953 104,934 107,934 112,948 "/>
  <polygon class="fil18" points="126,950 135,950 135,953 123,953 123,934 135,934 135,937 126,937 126,942 134,942 134,945 126,945 "/>
  <path class="fil18" d="M141 943l3 0c2,0 3,-1 3,-3 0,-2 -1,-3 -3,-3l-4 0 0 16 -3 0 0 -19 7 0c4,0 6,3 6,6 0,3 -2,5 -5,6l6 7 -3 0 -7 -8 0 -2z"/>
  <path class="fil18" d="M156 950l5 0c2,0 3,-1 3,-3 0,-1 -1,-3 -3,-3l-5 0 0 6zm0 -8l5 0c3,0 3,-5 0,-5l-5 0 0 5zm5 -8c2,0 4,1 4,3 1,2 1,4 -1,6 2,0 3,2 3,4 0,3 -2,6 -6,6l-8 0 0 -19 8 0z"/>
  <path class="fil18" d="M180 939c-1,-2 -2,-2 -4,-2 -1,0 -3,0 -3,1 -1,0 -1,1 -1,2 0,2 2,2 4,2 3,0 6,1 7,4 0,1 0,1 0,1 0,4 -4,6 -7,6 -3,0 -6,-2 -7,-5l0 -1 3 0 0 1 0 0c0,1 2,2 4,2 2,0 4,-1 4,-3 0,0 0,0 0,0 0,-2 -2,-2 -4,-2 -3,0 -6,-1 -7,-5l0 0c0,-1 1,-3 1,-4 2,-1 4,-2 6,-2 3,0 6,1 7,5l-3 0z"/>
  <polygon class="fil5" points="104,877 101,877 101,891 104,891 104,894 94,894 94,891 98,891 98,877 94,877 94,875 104,875 "/>
  <path class="fil5" d="M175 885c-1,2 -2,5 -3,7l-2 0 -5 -16 2 0 4 12 3 -8 2 0 2 8c2,-4 3,-8 4,-12l2 0 -5 16 -1 0 -3 -7z"/>
  <polygon class="fil5" points="189,890 196,890 196,892 186,892 186,876 196,876 196,879 189,879 189,883 196,883 196,885 189,885 "/>
  <polygon class="fil5" points="122,853 127,860 131,853 134,853 128,863 128,869 125,869 125,863 119,853 "/>
  <path class="fil5" d="M147 857c-1,-1 -2,-2 -4,-2 -1,0 -3,1 -4,2 -1,1 -2,2 -2,4 0,2 1,3 2,4 1,1 3,2 4,2 2,0 3,-1 4,-2 1,-1 2,-2 2,-4 0,-2 -1,-3 -2,-4zm-10 -2c2,-1 4,-2 6,-2 3,0 5,1 6,2 2,2 3,4 3,6 0,2 -1,4 -3,6 -1,2 -3,2 -6,2 -2,0 -4,0 -6,-2 -1,-2 -2,-4 -2,-6 0,-2 1,-4 2,-6z"/>
  <path class="fil5" d="M154 864l0 -11 2 0 0 11c0,2 2,3 4,3 1,0 3,-1 3,-3l0 -11 3 0 0 11c0,4 -3,5 -6,5 -3,0 -6,-1 -6,-5z"/>
  <path class="fil4" d="M479 1015l-113 0c-5,0 -8,-4 -8,-9l0 -159c0,-5 3,-9 8,-9l113 0c5,0 8,4 8,9l0 159c0,5 -3,9 -8,9z"/>
  <polygon class="fil19" points="365,856 480,856 480,854 365,854 "/>
  <polygon class="fil19" points="365,870 480,870 480,868 365,868 "/>
  <polygon class="fil19" points="365,885 480,885 480,883 365,883 "/>
  <polygon class="fil19" points="365,899 480,899 480,897 365,897 "/>
  <polygon class="fil19" points="365,913 480,913 480,911 365,911 "/>
  <polygon class="fil19" points="365,927 480,927 480,925 365,925 "/>
  <polygon class="fil19" points="365,942 480,942 480,940 365,940 "/>
  <polygon class="fil19" points="365,956 480,956 480,954 365,954 "/>
  <polygon class="fil19" points="365,970 480,970 480,968 365,968 "/>
  <polygon class="fil19" points="365,984 480,984 480,982 365,982 "/>
  <polygon class="fil19" points="365,999 480,999 480,997 365,997 "/>
  <polygon class="fil20" points="465,1007 467,1007 467,845 465,845 "/>
  <path class="fil19" d="M506 846l4 0 -1 -8c-1,0 -1,0 -1,0l-2 8z"/>
  <path class="fil21" d="M513 988l0 -132c0,-1 -1,-2 -2,-2l-6 0c-1,0 -2,1 -2,2l0 132 10 0z"/>
  <path class="fil22" d="M508 854l-3 0c-1,0 -2,1 -2,2l0 132 5 0 0 -134z"/>
  <polygon class="fil2" points="503,1006 513,1006 513,976 503,976 "/>
  <polygon class="fil23" points="503,1006 513,1006 513,996 503,996 "/>
  <path class="fil24" d="M503 1000l0 10c0,2 2,5 5,5 3,0 5,-3 5,-5l0 -10 -10 0z"/>
  <path class="fil25" d="M503 856l10 0 -4 -14c0,-1 -2,-1 -2,0l-4 14z"/>
  <path class="fil26" d="M485 600l0 11c0,4 4,8 9,8l145 0 0 -19 -154 0z"/>
  <path class="fil11" d="M639 616l-142 0c-5,0 -8,-4 -8,-8l0 -200 150 0 0 208z"/>
  <polygon class="fil27" points="616,646 604,637 591,646 591,599 616,599 "/>
  <polygon class="fil28" points="591,616 616,616 616,599 591,599 "/>
  <path class="fil29" d="M639 610l-154 0 0 -197c0,-6 5,-11 11,-11l143 0 0 208z"/>
  <path class="fil30" d="M608 477l-82 0c-4,0 -7,-3 -7,-7l0 -34c0,-4 3,-7 7,-7l82 0c3,0 6,3 6,7l0 34c0,4 -3,7 -6,7z"/>
  <path class="fil5" d="M573 429l35 0c3,0 6,3 6,7l0 34c0,4 -3,7 -6,7l-35 0c-3,0 -6,-3 -6,-7l0 -34c0,-4 3,-7 6,-7z"/>
  <polygon class="fil8" points="583,477 550,477 550,429 583,429 "/>
  <polygon class="fil31" points="603,498 530,498 530,493 603,493 "/>
  <polygon class="fil31" points="603,512 530,512 530,508 603,508 "/>
  <polygon class="fil31" points="543,527 590,527 590,522 543,522 "/>
  <path class="fil32" d="M496 402c-2,0 -3,0 -5,1l0 207 5 0 0 -208 0 0z"/>
  <path class="fil33" d="M1409 626c0,-22 -3,-40 -7,-40 -4,0 -7,18 -8,40l15 0z"/>
  <path class="fil34" d="M1431 418l0 0c-2,-1 -5,1 -6,3l0 0c-1,3 0,6 3,6l0 0c42,15 64,60 50,102 -14,42 -59,64 -101,50l0 0c-3,-1 -5,1 -6,3l0 0c-1,3 0,6 2,6l1 0c47,16 98,-9 114,-56 15,-47 -10,-98 -57,-114z"/>
  <path class="fil35" d="M1470 526c-13,37 -53,57 -90,45 -37,-13 -57,-53 -45,-90 13,-37 53,-57 90,-45 37,13 57,53 45,90z"/>
  <path class="fil36" d="M1470 523c0,2 -1,3 -2,3 -1,1 -2,0 -4,1 -4,0 -8,3 -10,6 -4,6 -3,14 -6,20 -1,2 -3,3 -4,4 -3,3 -5,6 -8,9 15,-8 28,-22 34,-40 0,-1 0,-2 0,-3zm-8 -43c2,4 4,9 6,13 2,3 3,7 2,10 0,2 -1,3 -2,4 0,2 -1,3 0,5 -2,0 -3,2 -4,4 2,0 4,1 6,1 1,0 1,0 1,1 1,0 1,1 1,1 3,-17 1,-34 -7,-49 -2,-1 -4,1 -4,4 0,2 0,5 1,6zm-62 35c1,2 4,4 5,6 0,2 0,4 -1,5 -1,1 -2,1 -2,2 -1,1 -1,3 -1,4 -1,2 -3,3 -5,4 -2,1 -4,1 -6,2 -6,2 -7,8 -11,13 -1,1 -2,1 -2,2 0,2 0,3 -1,5 0,2 -1,3 -2,5 -1,0 -1,-1 -1,-2 0,-2 1,-2 1,-3 1,-4 -2,-8 -3,-11 -1,-5 2,-11 2,-16 1,-1 1,-3 1,-4 -1,-1 -1,-2 -1,-3 0,-2 0,-3 -1,-4 -1,-1 -2,-1 -2,-2 -1,0 -1,-2 0,-3 1,-2 2,-5 4,-7 1,-1 4,-3 3,-4 0,-1 0,-1 0,-1 -2,-2 -5,-3 -6,-6 -1,-3 -1,-7 0,-9 0,-2 2,-4 3,-5 1,-4 -2,-7 -2,-10 -1,-3 -1,-7 1,-9 2,-6 7,-9 5,-16 0,-1 -1,-2 -1,-4 1,-4 6,-4 9,-4 2,-1 4,-2 5,-4 0,1 1,4 2,5 2,1 3,0 4,0 1,0 1,1 2,1 2,1 3,-1 4,-2 1,0 2,1 3,2 2,0 4,-1 5,-2 3,-1 7,-1 11,-1 0,0 1,0 1,0 0,0 -1,1 -1,1 -3,1 -6,1 -9,2 1,1 0,2 -1,3 -1,0 -3,1 -3,2 0,1 2,3 4,2 2,0 6,0 6,3 0,1 0,1 -1,2 0,0 -3,1 -2,2 2,0 5,1 7,-1 1,0 2,-1 2,-2 1,0 2,0 3,-1 0,-1 0,-1 1,-2 0,-1 2,0 3,0 1,1 2,2 3,3 1,1 4,1 5,3 0,0 0,1 0,1 1,1 1,1 2,1 2,2 2,6 0,8 -2,5 -7,7 -10,10 -5,3 -8,7 -12,10 -1,1 -3,2 -4,3 0,1 -1,2 -1,3 -2,4 -3,7 -4,11 0,0 -1,1 -1,1 0,0 -1,-1 -1,-1 0,-1 0,-1 0,-2 1,-2 1,-5 0,-7 -1,0 -1,-1 -1,-1 -1,-1 -2,-1 -4,-1 -2,1 -4,0 -5,-2 -1,0 -1,-1 -1,-1 -1,0 -1,0 -1,0 -5,-1 -9,-2 -13,-2 -4,-1 -5,1 -8,2 -1,1 -2,1 -2,2 -1,1 -2,3 -1,3 1,2 3,1 4,1 1,-1 3,-1 4,-1 0,1 -1,1 -1,1 -1,1 -2,1 -2,1 -1,0 -2,1 -2,2 0,4 3,5 6,5 1,1 3,1 5,1 2,1 4,3 6,4 1,0 2,0 3,1 0,0 1,1 1,1 1,1 2,1 3,2 0,1 0,2 0,3z"/>
  <path class="fil37" d="M1400 573c11,-2 21,-7 30,-16 12,-2 23,-7 30,-14 -13,19 -36,31 -60,30zm-67 -73c1,10 6,20 15,29 2,13 7,23 14,31 -19,-14 -31,-37 -29,-60zm65 -66c0,0 0,1 0,1 -12,4 -24,13 -33,25 -4,-5 -6,-9 -5,-12l-1 0c12,-8 25,-13 39,-14zm2 0c0,0 0,0 0,0l0 0c1,0 3,0 5,0 -2,0 -3,0 -5,0zm47 15l-1 0c0,0 0,1 0,1 -1,-1 -2,-3 -3,-4 1,1 2,2 4,3zm23 37l0 0c-1,3 -5,4 -12,5 1,-15 -4,-29 -11,-39 0,-1 1,-1 1,-2 11,10 18,22 22,36zm-21 45c8,0 15,-2 19,-4 -5,14 -19,24 -35,28 6,-7 12,-15 16,-24zm-48 25c4,-8 9,-17 14,-28 11,3 22,4 32,4 -5,9 -11,17 -18,24 -9,1 -19,1 -28,0zm-2 2c9,1 19,1 27,0 -12,10 -27,15 -40,13 4,-2 8,-7 13,-13zm-25 -8c4,1 7,3 11,4 4,1 8,2 12,3 -7,9 -13,14 -17,12 -4,-1 -6,-8 -6,-19zm-2 -2c0,9 1,15 3,19 -13,-6 -21,-19 -25,-34 6,6 14,11 22,15zm-22 -49c7,6 17,12 27,16 -3,12 -4,22 -5,31 -9,-5 -16,-10 -22,-17 -2,-9 -2,-20 0,-30zm-2 -2c-2,10 -2,20 -1,29 -11,-13 -15,-29 -11,-44 2,5 6,10 12,15zm3 -11c-1,3 -1,6 -2,9 -8,-7 -12,-14 -11,-18 4,-10 11,-20 19,-27 0,4 2,8 7,12 -5,7 -10,15 -13,24zm38 -7c-2,6 -4,11 -6,18 -2,5 -4,11 -5,16 -11,-5 -21,-11 -27,-17 0,-3 1,-6 2,-9 3,-9 7,-17 12,-24 6,6 14,11 24,16zm21 -35c-4,-3 -7,-6 -8,-7 5,-2 11,-2 17,-1 -3,1 -6,4 -9,8zm20 7c-3,0 -6,-1 -9,-2 -4,-1 -7,-3 -9,-4 5,-6 10,-9 13,-8 3,1 5,6 5,14zm3 0c-1,-5 -2,-9 -3,-12 5,3 10,7 14,12 -3,0 -7,1 -11,0zm-41 27c6,-14 12,-24 18,-31 3,1 7,3 10,4 4,1 7,2 11,3 0,9 -2,21 -5,35 -6,-1 -11,-3 -17,-5 -6,-1 -12,-4 -17,-6zm21 50c-5,11 -10,20 -15,27 -4,-1 -8,-2 -12,-3 -4,-1 -8,-3 -12,-5 1,-8 2,-19 5,-31 6,3 11,5 17,7 5,2 11,4 17,5zm-17 -7c-5,-2 -11,-4 -16,-7 1,-5 3,-11 5,-17 2,-6 4,-12 6,-17 6,2 11,5 17,7 6,2 12,3 17,4 -1,6 -3,12 -5,18 -2,6 -4,12 -6,17 -6,-1 -12,-3 -18,-5zm62 -27c6,-1 10,-3 13,-5 2,10 2,22 -1,33 -2,3 -9,6 -20,7 1,-3 3,-6 4,-8 3,-9 4,-18 4,-27zm-7 26c-1,3 -2,6 -3,9 -9,0 -20,0 -32,-3 2,-5 4,-10 6,-16 2,-6 4,-12 5,-18 12,2 21,3 29,2 0,9 -2,17 -5,26zm5 -28c-7,0 -17,0 -28,-2 3,-14 5,-27 5,-36 5,1 9,0 12,-1 7,10 11,24 11,39zm-57 -55c1,3 5,6 9,9 -6,7 -12,18 -18,31 -10,-5 -18,-10 -23,-16 9,-11 20,-20 32,-24zm72 89c0,-1 0,-2 1,-3 0,-1 0,-1 0,-1l0 0c10,-37 -10,-75 -47,-87 -36,-12 -75,6 -89,41l0 0c0,0 -1,0 -1,1 0,1 0,2 -1,3l0 0 0 0 0 0c-13,38 8,79 45,92 38,12 79,-8 92,-46l0 0 0 0 0 0z"/>
  <path class="fil34" d="M1437 635c-1,-14 -16,-24 -35,-24 -19,0 -34,10 -35,24l70 0z"/>
  <path class="fil33" d="M1370 627c-2,2 -3,5 -3,8l70 0c-1,-3 -1,-6 -3,-8l-64 0z"/>
  <path class="fil38" d="M980 1040l-330 0c-8,0 -14,-7 -14,-15l0 -192c0,-9 6,-15 14,-15l330 0c8,0 14,6 14,15l0 192c0,8 -6,15 -14,15z"/>
  <path class="fil39" d="M980 1036l-330 0c-8,0 -14,-7 -14,-15l0 -193c0,-8 6,-15 14,-15l330 0c8,0 14,7 14,15l0 193c0,8 -6,15 -14,15z"/>
  <path class="fil40" d="M994 924l0 -96c0,-8 -6,-15 -14,-15l-330 0c-8,0 -14,7 -14,15l0 96 358 0z"/>
  <polygon class="fil41" points="661,1011 969,1011 969,838 661,838 "/>
  <polygon class="fil42" points="661,842 969,842 969,838 661,838 "/>
  <polygon class="fil8" points="712,871 708,871 708,885 712,885 712,887 702,887 702,885 706,885 706,871 702,871 702,869 712,869 "/>
  <path class="fil8" d="M700 907c-1,3 -2,7 -3,9l-2 0 -7 -18 3 0 5 13 3 -9 2 0 3 9c2,-4 3,-9 5,-13l2 0 -6 18 -2 0 -3 -9z"/>
  <polygon class="fil8" points="716,914 725,914 725,916 714,916 714,898 725,898 725,900 716,900 716,906 725,906 725,908 716,908 "/>
  <polygon class="fil8" points="682,927 688,935 693,927 696,927 689,938 689,945 686,945 686,938 679,927 "/>
  <path class="fil8" d="M712 931c-1,-1 -3,-2 -5,-2 -2,0 -3,1 -5,2 -1,1 -2,3 -2,5 0,2 1,4 2,5 2,1 3,2 5,2 2,0 4,-1 5,-2 1,-1 2,-3 2,-5 0,-2 -1,-4 -2,-5zm-12 -2c2,-2 5,-3 7,-3 3,0 5,1 7,3 2,2 3,4 3,7 0,3 -1,5 -3,7 -2,2 -4,3 -7,3 -2,0 -5,-1 -7,-3 -1,-2 -2,-4 -2,-7 0,-3 1,-5 2,-7z"/>
  <path class="fil8" d="M720 940l0 -13 2 0 0 13c0,2 3,3 5,3 2,0 4,-1 4,-3l0 -13 3 0 0 13c0,4 -4,6 -7,6 -4,0 -7,-2 -7,-6z"/>
  <polygon class="fil8" points="682,975 682,958 676,958 676,956 690,956 690,958 685,958 685,975 "/>
  <polygon class="fil8" points="695,964 703,964 703,956 706,956 706,975 703,975 703,966 695,966 695,975 692,975 692,956 695,956 "/>
  <polygon class="fil8" points="712,972 720,972 720,975 709,975 709,956 720,956 720,958 712,958 712,964 720,964 720,967 712,967 "/>
  <polygon class="fil8" points="725,956 730,964 735,956 738,956 731,967 731,975 729,975 729,967 722,956 "/>
  <polygon class="fil8" points="822,892 830,892 830,884 833,884 833,903 830,903 830,895 822,895 822,903 819,903 819,884 822,884 "/>
  <polygon class="fil8" points="838,900 847,900 847,903 836,903 836,884 847,884 847,887 838,887 838,892 847,892 847,895 838,895 "/>
  <path class="fil8" d="M822 918c-1,-1 -3,-2 -4,-2 -2,0 -3,0 -4,1 0,1 0,1 0,2 0,2 2,2 4,2 3,1 6,1 7,4 0,1 0,1 0,2 0,3 -4,5 -7,5 -3,0 -7,-1 -7,-5l0 0 3 0 0 0 0 0c0,2 2,3 4,3 2,0 4,-1 4,-3 0,-1 0,-1 0,-1 0,-1 -2,-2 -4,-2 -3,0 -7,-1 -7,-5l0 0c0,-1 0,-2 1,-3 1,-2 4,-3 6,-3 3,0 6,2 6,5l-2 0z"/>
  <polygon class="fil8" points="830,921 838,921 838,913 841,913 841,932 838,932 838,924 830,924 830,932 827,932 827,913 830,913 "/>
  <polygon class="fil8" points="846,930 855,930 855,932 844,932 844,913 855,913 855,916 846,916 846,921 855,921 855,924 846,924 "/>
  <polygon class="fil8" points="830,945 827,945 827,959 830,959 830,961 820,961 820,959 824,959 824,945 820,945 820,943 830,943 "/>
  <polygon class="fil8" points="838,961 838,945 832,945 832,943 846,943 846,945 840,945 840,961 "/>
  <path class="fil43" d="M767 937c-2,-4 -1,-7 2,-9 0,0 1,1 1,1 0,2 0,5 -1,7 -1,0 -1,0 -2,1zm7 -24l0 0 0 0c-1,-3 -5,-2 -5,0 0,0 0,0 0,0l0 0c1,3 1,7 1,10 -2,-1 -5,1 -7,3 -3,4 -2,12 2,15 4,4 7,1 8,-4 1,2 1,5 2,7 0,3 5,2 4,-1 -2,-10 -4,-21 -5,-30z"/>
  <path class="fil43" d="M788 934c0,1 -1,2 -2,2 -1,0 -1,-2 -1,-2 -1,-2 -1,-4 -1,-6l0 0c0,0 1,0 1,-1 2,-1 3,1 4,2 0,2 0,4 -1,5zm-6 -10c-1,1 -1,1 0,2 -2,0 -3,1 -3,2 0,4 1,10 5,12 3,2 7,0 8,-4 2,-3 2,-8 -1,-11 -2,-3 -6,-4 -9,-1z"/>
  <path class="fil43" d="M892 935c-4,1 -1,-11 0,-10 0,1 1,1 2,1 0,1 0,1 0,2 0,1 -1,6 -2,7zm6 -8c1,-5 0,-9 0,-13 0,-3 -5,-3 -5,0 0,2 0,4 0,7 -2,-1 -4,0 -6,2 -3,4 -3,12 1,16 3,4 6,1 8,-2 0,2 1,4 2,6 1,3 5,2 4,-1 -2,-5 -3,-10 -4,-15z"/>
  <path class="fil43" d="M914 930c-1,2 -3,5 -5,3 -2,-2 -2,-5 -1,-7 0,0 0,0 0,-1l0 0c2,-1 4,-3 6,-1 1,1 1,5 0,6zm-8 -9c-1,0 -1,1 -1,2 -1,0 -1,0 -1,1 -2,4 -2,9 2,13 3,3 9,1 11,-3 3,-3 4,-9 1,-13 -3,-4 -8,-3 -12,0z"/>
  <path class="fil43" d="M929 919c0,2 -1,4 -2,5 0,-1 0,-2 0,-2 0,-1 2,-5 2,-3zm3 11c-1,2 -3,0 -4,-1 4,-3 8,-8 6,-13 -3,-6 -9,-2 -11,2 -2,4 -2,10 2,14 3,4 8,5 11,1 2,-3 -2,-5 -4,-3z"/>
  <path class="fil43" d="M948 926c-1,-1 -3,-2 -4,-4 -1,-2 -1,-3 0,-5 1,0 2,0 3,-1 -2,3 3,5 4,2 1,-2 1,-5 -2,-6 -2,-1 -6,0 -9,2 -2,2 -2,6 -1,9 1,2 2,3 3,4 1,1 2,2 3,3 0,0 1,1 1,1 2,2 1,3 -2,2 -3,-1 -5,3 -2,5 4,2 10,1 10,-5 0,-3 -2,-5 -4,-7z"/>
  <path class="fil8" d="M747 913c0,1 1,1 1,2 1,0 2,0 3,-1 0,-1 -1,-2 -1,-3 -2,-1 -9,-11 -12,-10 -2,1 7,11 9,12z"/>
  <path class="fil8" d="M751 942c1,0 1,-1 2,-1 0,-1 0,-2 -1,-3 -1,0 -2,0 -2,1 -2,1 -13,8 -12,10 1,3 12,-6 13,-7z"/>
  <path class="fil8" d="M867 913c1,1 2,1 2,2 1,0 2,0 2,-1 1,-1 0,-2 0,-3 -2,-1 -10,-11 -12,-10 -3,1 7,11 8,12z"/>
  <path class="fil8" d="M872 942c1,0 1,-1 2,-1 0,-1 0,-2 -1,-3 -1,0 -2,0 -2,1 -2,1 -13,8 -12,10 1,3 12,-6 13,-7z"/>
  <polygon class="fil44" points="976,913 990,913 990,911 976,911 "/>
  <polygon class="fil44" points="976,904 990,904 990,902 976,902 "/>
  <polygon class="fil44" points="976,895 990,895 990,893 976,893 "/>
  <polygon class="fil44" points="976,886 990,886 990,884 976,884 "/>
  <polygon class="fil44" points="976,877 990,877 990,875 976,875 "/>
  <polygon class="fil44" points="976,869 990,869 990,866 976,866 "/>
  <polygon class="fil44" points="976,860 990,860 990,857 976,857 "/>
  <polygon class="fil44" points="976,851 990,851 990,848 976,848 "/>
  <polygon class="fil44" points="976,842 990,842 990,839 976,839 "/>
  <polygon class="fil44" points="976,1007 990,1007 990,1005 976,1005 "/>
  <polygon class="fil44" points="976,998 990,998 990,996 976,996 "/>
  <polygon class="fil44" points="976,989 990,989 990,987 976,987 "/>
  <polygon class="fil44" points="976,980 990,980 990,978 976,978 "/>
  <polygon class="fil44" points="976,971 990,971 990,969 976,969 "/>
  <polygon class="fil44" points="976,963 990,963 990,960 976,960 "/>
  <polygon class="fil44" points="976,954 990,954 990,951 976,951 "/>
  <polygon class="fil44" points="976,945 990,945 990,942 976,942 "/>
  <polygon class="fil44" points="976,936 990,936 990,933 976,933 "/>
  <polygon class="fil44" points="641,913 654,913 654,911 641,911 "/>
  <polygon class="fil44" points="641,904 654,904 654,902 641,902 "/>
  <polygon class="fil44" points="641,895 654,895 654,893 641,893 "/>
  <polygon class="fil44" points="641,886 654,886 654,884 641,884 "/>
  <polygon class="fil44" points="641,877 654,877 654,875 641,875 "/>
  <polygon class="fil44" points="641,869 654,869 654,866 641,866 "/>
  <polygon class="fil44" points="641,860 654,860 654,857 641,857 "/>
  <polygon class="fil44" points="641,851 654,851 654,848 641,848 "/>
  <polygon class="fil44" points="641,842 654,842 654,839 641,839 "/>
  <polygon class="fil44" points="641,1007 654,1007 654,1005 641,1005 "/>
  <polygon class="fil44" points="641,998 654,998 654,996 641,996 "/>
  <polygon class="fil44" points="641,989 654,989 654,987 641,987 "/>
  <polygon class="fil44" points="641,980 654,980 654,978 641,978 "/>
  <polygon class="fil44" points="641,971 654,971 654,969 641,969 "/>
  <polygon class="fil44" points="641,963 654,963 654,960 641,960 "/>
  <polygon class="fil44" points="641,954 654,954 654,951 641,951 "/>
  <polygon class="fil44" points="641,945 654,945 654,942 641,942 "/>
  <polygon class="fil44" points="641,936 654,936 654,933 641,933 "/>
  <path class="fil45" d="M907 992l-1 5 -9 2 -7 -23c0,-2 1,-6 3,-6l6 4 8 18z"/>
  <path class="fil45" d="M909 988l-2 9c0,2 1,4 3,5l1 0c2,0 5,-1 5,-3l2 -9c1,-2 -1,-4 -3,-4 0,-1 -1,-1 -1,-1 -2,0 -4,1 -5,3z"/>
  <path class="fil8" d="M907 992l-9 3 -7 -23c0,-2 1,-4 3,-3l6 1 7 22z"/>
  <path class="fil8" d="M910 984l-2 9c-1,2 1,4 3,5l1 0c2,0 4,-1 5,-3l2 -9c0,-2 -1,-4 -3,-5 0,0 -1,0 -1,0 -2,0 -5,1 -5,3z"/>
  <path class="fil1" d="M627 182l0 54c0,5 -5,10 -10,10l-52 0 0 -29 -3 0 0 29 -32 0c-6,0 -10,-5 -10,-10l0 -54 -2 0 0 54c0,7 4,15 12,15l87 0c7,0 12,-8 12,-15l0 -54 -2 0z"/>
  <polygon class="fil46" points="567,228 560,228 560,220 567,220 "/>
  <polygon class="fil46" points="626,194 630,194 630,181 626,181 "/>
  <polygon class="fil46" points="517,194 521,194 521,181 517,181 "/>
  <path class="fil12" d="M529 135c-1,0 -2,0 -3,0 -15,0 -27,12 -27,27 0,15 12,27 27,27 1,0 2,0 3,0l0 -54z"/>
  <path class="fil47" d="M529 161l0 -26c-1,0 -2,0 -3,0 -15,0 -27,12 -27,26l30 0z"/>
  <path class="fil48" d="M507 155c0,-4 -6,-5 -7,-1 -1,2 -1,5 -1,8 0,3 0,6 1,8 1,4 7,3 7,-1l0 -14z"/>
  <path class="fil48" d="M525 135l0 0 0 54 0 0c1,0 2,0 3,0 3,0 4,-2 4,-5l0 -45c0,-2 -1,-4 -4,-4 -1,0 -2,0 -3,0z"/>
  <path class="fil12" d="M618 135c1,0 2,0 3,0 15,0 27,12 27,27 0,15 -12,27 -27,27 -1,0 -2,0 -3,0l0 -54z"/>
  <path class="fil47" d="M618 161l0 -26c1,0 2,0 3,0 15,0 27,12 27,26l-30 0z"/>
  <path class="fil48" d="M640 155c0,-4 6,-5 7,-1 1,2 1,5 1,8 0,3 0,6 -1,8 -1,4 -7,3 -7,-1l0 -14z"/>
  <path class="fil48" d="M622 135l0 0 0 54 0 0c-1,0 -2,0 -3,0 -3,0 -5,-2 -5,-5l0 -45c0,-2 2,-4 5,-4 1,0 2,0 3,0z"/>
  <path class="fil1" d="M654 159c-2,0 -4,-2 -4,-4 -1,-64 -26,-88 -77,-88 -50,0 -75,24 -76,88 0,2 -2,4 -4,4 -2,0 -4,-2 -4,-4 1,-68 29,-103 84,-103 55,0 84,35 85,103 0,2 -2,4 -4,4z"/>
  <path class="fil12" d="M530 76c1,0 1,-1 2,-1 11,-6 25,-8 41,-8 17,0 31,2 42,8 0,0 1,1 2,1l0 0c6,0 9,-8 4,-12 -13,-8 -29,-12 -48,-12 -18,0 -34,4 -47,12 -5,4 -2,12 4,12z"/>
  <path class="fil47" d="M526 71c13,-8 29,-12 47,-12 19,0 35,4 48,12 0,1 1,1 1,2 2,-3 2,-6 -1,-9 -13,-8 -29,-12 -48,-12 -18,0 -34,4 -47,12 -3,3 -3,6 -1,9 0,-1 1,-1 1,-2z"/>
  <path class="fil46" d="M661 161c0,3 -3,6 -7,6 -3,0 -6,-3 -6,-6 0,-4 3,-7 6,-7 4,0 7,3 7,7z"/>
  <path class="fil1" d="M657 161c0,1 -1,3 -3,3 -1,0 -3,-2 -3,-3 0,-2 2,-3 3,-3 2,0 3,1 3,3z"/>
  <path class="fil46" d="M499 161c0,3 -3,6 -7,6 -3,0 -6,-3 -6,-6 0,-4 3,-7 6,-7 4,0 7,3 7,7z"/>
  <path class="fil1" d="M495 161c0,1 -1,3 -3,3 -1,0 -3,-2 -3,-3 0,-2 2,-3 3,-3 2,0 3,1 3,3z"/>
  <path class="fil49" d="M599 221l-52 0c-2,0 -5,-3 -5,-6l0 -92c0,-3 3,-5 5,-5l52 0c3,0 6,2 6,5l0 92c0,3 -3,6 -6,6z"/>
  <path class="fil50" d="M605 161l0 -39c0,-2 -2,-4 -5,-4l-53 0c-3,0 -5,2 -5,4l0 39 63 0z"/>
  <polygon class="fil51" points="547,208 600,208 600,121 547,121 "/>
  <polygon class="fil52" points="552,144 577,144 577,126 552,126 "/>
  <polygon class="fil53" points="552,153 595,153 595,149 552,149 "/>
  <polygon class="fil53" points="552,163 595,163 595,159 552,159 "/>
  <polygon class="fil53" points="552,173 595,173 595,169 552,169 "/>
  <polygon class="fil53" points="567,183 595,183 595,178 567,178 "/>
  <polygon class="fil53" points="567,192 595,192 595,188 567,188 "/>
  <polygon class="fil54" points="558,131 559,135 562,135 560,136 561,140 558,137 556,140 557,136 554,135 557,135 "/>
  <polygon class="fil54" points="566,139 567,140 568,140 567,141 567,142 566,141 565,142 566,141 564,140 566,140 "/>
  <polygon class="fil54" points="566,127 567,128 568,128 567,129 567,130 566,130 565,130 566,129 564,128 566,128 "/>
  <polygon class="fil54" points="569,130 569,131 571,131 570,132 570,133 569,133 568,133 568,132 567,131 569,131 "/>
  <polygon class="fil54" points="569,136 569,137 571,137 570,138 570,139 569,138 568,139 568,138 567,137 569,137 "/>
  <polygon class="fil55" points="547,121 596,121 596,121 "/>
  <path class="fil56" d="M547 171l0 -50 49 0c-6,7 -12,13 -19,20l0 -15 -25 0 0 18 22 0c-2,2 -3,3 -5,5l-17 0 0 4 13 0c-2,2 -4,4 -6,6l-7 0 0 4 3 0c-3,3 -5,5 -8,8z"/>
  <path class="fil57" d="M574 144l-22 0 0 -18 25 0 0 15c-1,1 -2,2 -3,3zm-10 -4l2 1 -1 1 1 -1 1 1 0 -1 1 -1 -1 0 -1 -1 0 1 -2 0zm-6 -3l3 3 -1 -4 2 -1 -3 0 -1 -4 -1 4 -3 0 3 1 -1 4 2 -3zm9 0l1 1 0 1 1 -1 1 1 0 -1 1 -1 -2 0 0 -1 0 1 -2 0zm0 -6l1 1 0 1 1 0 1 0 0 -1 1 -1 -2 0 0 -1 0 1 -2 0zm-3 -3l2 1 -1 1 1 0 1 0 0 -1 1 -1 -1 0 -1 -1 0 1 -2 0z"/>
  <path class="fil58" d="M565 153l-13 0 0 -4 17 0c-1,1 -3,3 -4,4z"/>
  <path class="fil58" d="M555 163l-3 0 0 -4 7 0c-1,1 -2,3 -4,4z"/>
  <polygon class="fil59" points="561,140 558,137 556,140 557,136 554,135 557,135 558,131 559,135 562,135 560,136 "/>
  <polygon class="fil59" points="565,142 566,141 564,140 566,140 566,139 567,140 568,140 567,141 567,142 566,141 "/>
  <polygon class="fil59" points="565,130 566,129 564,128 566,128 566,127 567,128 568,128 567,129 567,130 566,130 "/>
  <polygon class="fil59" points="568,133 568,132 567,131 569,131 569,130 569,131 571,131 570,132 570,133 569,133 "/>
  <polygon class="fil59" points="568,139 568,138 567,137 569,137 569,136 569,137 571,137 570,138 570,139 569,138 "/>
  <path class="fil48" d="M579 214c0,1 -2,3 -6,3 -3,0 -6,-2 -6,-3 0,-2 3,-3 6,-3 4,0 6,1 6,3z"/>
  <path class="fil48" d="M592 214c0,1 -1,1 -3,1 -2,0 -3,0 -3,-1 0,-1 1,-1 3,-1 2,0 3,0 3,1z"/>
  <path class="fil48" d="M561 214c0,1 -2,1 -3,1 -2,0 -4,0 -4,-1 0,-1 2,-1 4,-1 1,0 3,0 3,1z"/>
  <path class="fil60" d="M1404 74l-87 0c-10,0 -15,9 -15,20l0 46c0,9 7,17 16,18l0 32 28 -33 58 0c11,0 21,-7 21,-17l0 -46c0,-11 -10,-20 -21,-20z"/>
  <path class="fil23" d="M1392 119l87 0c10,0 20,9 20,20l0 45c0,10 -7,18 -16,19l0 32 -33 -33 -58 0c-10,0 -16,-7 -16,-18l0 -45c0,-11 6,-20 16,-20z"/>
  <path class="fil12" d="M1404 67l-87 0c-10,0 -15,9 -15,20l0 46c0,9 7,17 16,19l0 31 28 -33 58 0c11,0 21,-7 21,-17l0 -46c0,-11 -10,-20 -21,-20z"/>
  <path class="fil61" d="M1425 112l0 -25c0,-11 -10,-20 -21,-20l-87 0c-10,0 -15,9 -15,20l0 25 123 0z"/>
  <path class="fil8" d="M1359 90c-3,6 -5,12 -7,17l-2 5 17 0 -2 -5c-2,-5 -4,-11 -6,-17l0 0zm-24 43l21 -51 5 0 21 51 -7 0 -6 -15 -21 0 -6 15 -7 0z"/>
  <path class="fil62" d="M1392 112l87 0c10,0 20,9 20,20l0 46c0,9 -7,17 -16,19l0 31 -33 -33 -58 0c-10,0 -16,-7 -16,-17l0 -46c0,-11 6,-20 16,-20z"/>
  <path class="fil63" d="M1499 150l0 -18c0,-11 -10,-20 -20,-20l-87 0c-10,0 -16,9 -16,20l0 18 123 0z"/>
  <path class="fil12" d="M1448 166l0 -9 -10 0 0 9 10 0zm5 -19l-9 0 0 7 7 0 0 15 -16 0 0 -15 6 0 0 -7 -9 0 0 -3 9 0 0 -7 4 0c0,1 0,1 -1,1l0 6 9 0 0 3zm-23 27l26 0 0 -39 -26 0 0 39zm-4 -42l34 0 0 48 -4 0 0 -3 -26 0 0 4 -4 0 0 -49zm-11 49l0 -32c-1,3 -3,6 -6,9 0,-1 -1,-3 -1,-4 4,-6 9,-16 12,-25l4 1c0,0 -4,8 -5,12l0 39 -4 0z"/>
  <path class="fil3" d="M1446 1026l-22 0c-5,0 -10,-4 -10,-10l0 -145c0,-6 5,-10 10,-10l22 0c6,0 10,4 10,10l0 145c0,6 -4,10 -10,10z"/>
  <path class="fil12" d="M1414 1014l0 4c0,5 4,8 8,8l26 0c5,0 8,-3 8,-8l0 -4 -42 0z"/>
  <polygon class="fil12" points="1420,892 1451,892 1451,880 1420,880 "/>
  <polygon class="fil4" points="1420,882 1451,882 1451,875 1420,875 "/>
  <polygon class="fil64" points="1420,898 1451,898 1451,891 1420,891 "/>
  <path class="fil4" d="M1430 1005l5 0 0 -1c0,-1 0,-1 0,-2 -1,0 -1,0 -1,-1 0,0 0,-1 -1,-1 0,0 0,-1 -1,-1 -1,0 -1,1 -1,1 -1,0 -1,1 -1,1 0,0 0,1 0,1 0,0 0,1 0,1l0 2zm6 0l6 0 0 2 -14 0 0 -4c0,0 0,-1 0,-1 0,-1 0,-1 0,-1 1,-1 1,-2 2,-3 0,0 1,0 2,0 1,0 1,0 1,0 1,0 1,0 2,1 0,0 0,0 0,1 1,0 1,1 1,1l0 0 6 -4 0 2 -6 4 0 2z"/>
  <path class="fil4" d="M1441 989c0,0 0,-1 -1,-1 0,-1 0,-1 0,-1 0,-1 -1,-1 -1,-1 0,0 -1,0 -1,-1 0,0 0,0 -1,0 0,0 0,0 0,0l-9 0 0 -1 9 0c0,0 0,0 1,0 0,0 0,0 1,0 0,0 0,0 1,0 0,1 1,1 1,1 0,1 1,1 1,2 0,1 0,1 0,2 0,1 0,1 0,2 0,1 -1,1 -1,1 0,1 -1,1 -1,2 0,0 -1,0 -1,0 -1,0 -1,0 -1,0 -1,0 -1,0 -1,0l-9 0 0 -1 9 0c0,0 0,0 1,0 0,0 0,0 0,-1 1,0 2,0 2,-1 0,0 1,-1 1,-2z"/>
  <path class="fil4" d="M1432 979c0,0 0,0 1,0 0,-1 0,-1 0,-1 0,0 1,-1 1,-1 0,0 0,-1 0,-1 0,-1 0,-1 0,-2 1,0 1,-1 1,-1 0,-1 1,-1 1,-1 1,0 1,-1 2,-1 1,0 1,1 2,1 0,0 1,1 1,1 0,0 1,1 1,2 0,0 0,1 0,2 0,0 0,1 0,1 0,0 0,1 0,1 0,0 0,1 0,1 -1,0 -1,0 -1,1l-1 0c0,-1 0,-1 0,-1 0,-1 0,-1 0,-1 0,-1 0,-1 1,-1 0,-1 0,-1 0,-1 0,-1 0,-1 -1,-2 0,0 0,0 0,-1 0,0 0,0 -1,0 0,-1 -1,-1 -1,-1 0,0 -1,0 -1,0 0,1 -1,1 -1,1 0,0 0,1 0,1 0,1 0,1 0,1 -1,1 -1,1 -1,2 0,0 0,1 -1,1 0,1 0,1 -1,1 0,0 -1,1 -1,1 -1,0 -2,-1 -2,-1 -1,0 -1,0 -1,-1 -1,0 -1,-1 -1,-1 0,-1 0,-2 0,-2 0,-1 0,-2 0,-2 0,-1 0,-1 0,-2l2 0c0,1 0,1 -1,2 0,0 0,1 0,2 0,0 0,1 0,1 1,0 1,1 1,1 0,0 0,1 1,1 0,0 0,0 1,0z"/>
  <path class="fil4" d="M1432 967c0,0 0,0 1,0 0,0 0,0 0,-1 0,0 1,0 1,-1 0,0 0,0 0,-1 0,0 0,-1 0,-1 1,-1 1,-1 1,-2 0,0 1,-1 1,-1 1,0 1,0 2,0 1,0 1,0 2,0 0,0 1,1 1,1 0,1 1,1 1,2 0,1 0,1 0,2 0,1 0,1 0,1 0,1 0,1 0,1 0,1 0,1 0,1 -1,1 -1,1 -1,1l-1 0c0,0 0,-1 0,-1 0,0 0,-1 0,-1 0,0 0,-1 1,-1 0,0 0,-1 0,-1 0,0 0,-1 -1,-1 0,-1 0,-1 0,-1 0,-1 0,-1 -1,-1 0,0 -1,0 -1,0 0,0 -1,0 -1,0 0,0 -1,0 -1,1 0,0 0,0 0,0 0,1 0,1 0,2 -1,0 -1,1 -1,1 0,1 0,1 -1,2 0,0 0,0 -1,1 0,0 -1,0 -1,0 -1,0 -2,0 -2,0 -1,-1 -1,-1 -1,-2 -1,0 -1,0 -1,-1 0,-1 0,-1 0,-2 0,-1 0,-1 0,-2 0,-1 0,-1 0,-2l2 0c0,1 0,2 -1,2 0,1 0,1 0,2 0,1 0,1 0,1 1,1 1,1 1,1 0,1 0,1 1,1 0,0 0,0 1,0z"/>
  <polygon class="fil4" points="1428,957 1442,957 1442,955 1428,955 "/>
  <path class="fil4" d="M1430 947c2,0 3,1 5,1l1 1 0 -5 -1 1c-2,0 -3,1 -5,2l0 0zm12 6l-14 -6 0 -1 14 -6 0 2 -4 2 0 6 4 1 0 2z"/>
  <path class="fil4" d="M1436 931c1,-1 2,-2 3,-2l0 0c-1,0 -2,0 -4,0l-7 0 0 -2 14 0 0 2 -8 5c-1,1 -2,2 -4,3l0 0c2,0 3,0 5,0l7 0 0 1 -14 0 0 -1 8 -6z"/>
  <path class="fil8" d="M1414 871l0 -3c0,-4 4,-7 8,-7l2 0c-5,0 -10,4 -10,10z"/>
  <path class="fil65" d="M1435 1014l-21 0 0 -143c0,-6 5,-10 10,-10l11 0 0 14 -15 0 0 23 15 0 0 29 -7 0 0 2 7 0 0 2 -7 6 0 1 7 0 0 5 -7 3 0 1 7 3 0 5 -7 0 0 2 7 0 0 4c0,0 0,0 0,0 0,1 0,1 -1,2 0,0 0,1 0,1 0,1 0,1 0,1 0,1 -1,1 -1,1 0,1 0,1 0,1 -1,0 -1,0 -1,0 -1,0 -1,0 -1,0 -1,0 -1,0 -1,-1 0,0 0,0 -1,-1 0,0 0,0 0,-1 0,-1 0,-1 0,-2 1,0 1,-1 1,-2l-2 0c0,1 0,1 0,2 0,1 0,1 0,2 0,1 0,1 0,2 0,1 0,1 1,1 0,1 0,1 1,2 0,0 1,0 2,0 0,0 1,0 1,0 1,-1 1,-1 1,-1 1,-1 1,-1 1,-2 0,0 0,0 0,0l0 7c0,0 0,0 0,0 0,0 0,1 -1,1 0,1 0,1 0,2 0,0 0,1 0,1 0,0 -1,1 -1,1 0,0 0,0 0,1 -1,0 -1,0 -1,0 -1,0 -1,0 -1,0 -1,0 -1,-1 -1,-1 0,0 0,-1 -1,-1 0,0 0,-1 0,-1 0,-1 0,-2 0,-2 1,-1 1,-1 1,-2l-2 0c0,1 0,1 0,2 0,0 0,1 0,2 0,0 0,1 0,2 0,0 0,1 1,1 0,1 0,1 1,1 0,0 1,1 2,1 0,0 1,-1 1,-1 1,0 1,0 1,-1 1,0 1,-1 1,-1 0,0 0,0 0,0l0 6 -7 0 0 1 7 0 0 8 -7 0 0 1 7 0 0 5c0,0 0,0 0,0 -1,-1 -1,-1 -2,-1 0,0 0,0 -1,0 -1,0 -2,0 -2,0 -1,1 -1,2 -2,3 0,0 0,0 0,1 0,0 0,1 0,1l0 4 7 0 0 7z"/>
  <path class="fil66" d="M1435 1026l-13 0c-4,0 -8,-3 -8,-8l0 -4 21 0 0 12z"/>
  <path class="fil65" d="M1435 1005l-5 0 0 -2c0,0 0,-1 0,-1 0,0 0,-1 0,-1 0,0 0,-1 1,-1 0,0 0,-1 1,-1 1,0 1,1 1,1 1,0 1,1 1,1 0,1 0,1 1,1 0,1 0,1 0,2l0 1zm0 -56l0 -1c-2,0 -3,-1 -5,-1l0 0c2,-1 3,-2 5,-2l0 0 0 4z"/>
  <polygon class="fil66" points="1420,892 1420,880 1420,882 1435,882 1435,891 1420,891 "/>
  <polygon class="fil67" points="1435,882 1420,882 1420,875 1435,875 "/>
  <polygon class="fil68" points="1435,898 1420,898 1420,891 1435,891 "/>
  <path class="fil67" d="M1435 1007l-7 0 0 -4c0,0 0,-1 0,-1 0,-1 0,-1 0,-1 1,-1 1,-2 2,-3 0,0 1,0 2,0 1,0 1,0 1,0 1,0 1,0 2,1 0,0 0,0 0,0l0 8zm-3 -8c-1,0 -1,1 -1,1 -1,0 -1,1 -1,1 0,0 0,1 0,1 0,0 0,1 0,1l0 2 5 0 0 -1c0,-1 0,-1 0,-2 -1,0 -1,0 -1,-1 0,0 0,-1 -1,-1 0,0 0,-1 -1,-1z"/>
  <path class="fil67" d="M1435 994l-7 0 0 -1 7 0 0 1zm0 -9l-7 0 0 -1 7 0 0 1z"/>
  <path class="fil67" d="M1432 981c-1,0 -2,-1 -2,-1 -1,0 -1,0 -1,-1 -1,0 -1,-1 -1,-1 0,-1 0,-2 0,-2 0,-1 0,-2 0,-2 0,-1 0,-1 0,-2l2 0c0,1 0,1 -1,2 0,0 0,1 0,2 0,0 0,1 0,1 1,0 1,1 1,1 0,0 0,1 1,1 0,0 0,0 1,0 0,0 0,0 1,0 0,-1 0,-1 0,-1 0,0 1,-1 1,-1 0,0 0,-1 0,-1 0,-1 0,-1 0,-2 1,0 1,-1 1,-1 0,0 0,0 0,0l0 5c0,0 0,0 0,0 0,0 0,1 -1,1 0,1 0,1 -1,1 0,0 -1,1 -1,1z"/>
  <path class="fil67" d="M1432 969c-1,0 -2,0 -2,0 -1,-1 -1,-1 -1,-2 -1,0 -1,0 -1,-1 0,-1 0,-1 0,-2 0,-1 0,-1 0,-2 0,-1 0,-1 0,-2l2 0c0,1 0,2 -1,2 0,1 0,1 0,2 0,1 0,1 0,1 1,1 1,1 1,1 0,1 0,1 1,1 0,0 0,0 1,0 0,0 0,0 1,0 0,0 0,0 0,-1 0,0 1,0 1,-1 0,0 0,0 0,-1 0,0 0,-1 0,-1 1,-1 1,-1 1,-2 0,0 0,0 0,0l0 5c0,0 0,0 0,0 0,1 0,1 -1,2 0,0 0,0 -1,1 0,0 -1,0 -1,0z"/>
  <polygon class="fil67" points="1428,957 1435,957 1435,955 1428,955 "/>
  <path class="fil67" d="M1435 950l-7 -3 0 -1 7 -3 0 2 0 0c-2,0 -3,1 -5,2l0 0c2,0 3,1 5,1l0 1 0 1z"/>
  <path class="fil65" d="M1430 937l0 0c2,-1 3,-2 4,-3l1 -1 0 4 0 0c-2,0 -3,0 -5,0z"/>
  <path class="fil67" d="M1435 938l-7 0 0 -1 7 -6 0 2 -1 1c-1,1 -2,2 -4,3l0 0c2,0 3,0 5,0l0 0 0 1zm0 -9l-7 0 0 -2 7 0 0 2z"/>
  <path class="fil64" d="M1499 1026l-22 0c-6,0 -10,-4 -10,-10l0 -145c0,-6 4,-10 10,-10l22 0c5,0 10,4 10,10l0 145c0,6 -5,10 -10,10z"/>
  <polygon class="fil69" points="1488,902 1490,908 1496,908 1491,913 1493,920 1488,916 1483,920 1485,913 1479,908 1486,908 "/>
  <polygon class="fil69" points="1467,898 1509,898 1509,894 1467,894 "/>
  <path class="fil69" d="M1479 993l0 9c0,2 2,4 4,4l9 0c3,0 5,-2 5,-4l0 -9c0,-2 -2,-4 -5,-4l-9 0c-2,0 -4,2 -4,4z"/>
  <path class="fil69" d="M1509 882l0 -14c0,-4 -4,-7 -8,-7l-26 0c-5,0 -8,3 -8,7l0 14 42 0z"/>
  <path class="fil70" d="M1467 1014l0 4c0,5 3,8 8,8l26 0c4,0 8,-3 8,-8l0 -4 -42 0z"/>
  <path class="fil68" d="M1488 1014l-21 0 0 -116 21 0 0 4 -2 6 -7 0 6 5 -2 7 5 -4 0 73 -5 0c-2,0 -4,2 -4,4l0 9c0,2 2,4 4,4l5 0 0 8z"/>
  <polygon class="fil71" points="1483,920 1485,913 1479,908 1486,908 1488,902 1488,916 "/>
  <polygon class="fil68" points="1467,894 1488,894 1488,882 1467,882 "/>
  <polygon class="fil71" points="1467,898 1488,898 1488,894 1467,894 "/>
  <path class="fil71" d="M1488 1006l-5 0c-2,0 -4,-2 -4,-4l0 -9c0,-2 2,-4 4,-4l5 0 0 17z"/>
  <path class="fil71" d="M1488 882l-21 0 0 -14c0,-4 3,-7 8,-7l13 0 0 21z"/>
  <path class="fil72" d="M1488 1026l-13 0c-5,0 -8,-3 -8,-8l0 -4 21 0 0 12z"/>
  <path class="fil73" d="M1553 1026l-21 0c-6,0 -10,-4 -10,-10l0 -145c0,-6 4,-10 10,-10l21 0c6,0 10,4 10,10l0 145c0,6 -4,10 -10,10z"/>
  <path class="fil74" d="M1543 1026l-1 0c-6,0 -10,-4 -10,-10l0 -145c0,-6 4,-10 10,-10l1 0c6,0 10,4 10,10l0 145c0,6 -4,10 -10,10z"/>
  <path class="fil73" d="M1563 873l0 -5c0,-4 -3,-7 -8,-7l-26 0c-4,0 -7,3 -7,7l0 5 41 0z"/>
  <path class="fil73" d="M1522 1014l0 4c0,5 3,8 7,8l26 0c5,0 8,-3 8,-8l0 -4 -41 0z"/>
  <path class="fil75" d="M1522 1021c1,3 4,5 7,5l26 0c4,0 7,-2 8,-5l-41 0z"/>
  <path class="fil76" d="M1539 1006c1,0 1,0 1,0 1,0 1,-1 1,-1 0,0 0,0 1,-1 0,0 0,-1 0,-1 0,0 0,-1 0,-2 0,0 1,-1 1,-1 0,0 1,-1 1,-1 0,0 1,0 2,0 0,0 1,0 2,0 0,0 1,1 1,1 0,1 0,1 1,2 0,1 0,1 0,2 0,0 0,1 0,1 0,1 0,1 0,1 0,1 -1,1 -1,1 0,0 0,1 0,1l-1 0c0,0 0,-1 0,-1 0,0 0,-1 0,-1 0,0 0,-1 0,-1 0,0 0,-1 0,-1 0,0 0,-1 0,-1 0,-1 0,-1 0,-1 0,-1 -1,-1 -1,-1 0,0 -1,-1 -1,-1 -1,0 -1,1 -1,1 -1,0 -1,0 -1,0 0,1 0,1 0,1 0,1 -1,1 -1,2 0,0 0,1 0,1 0,1 0,1 -1,2 0,0 0,0 -1,0 0,1 -1,1 -1,1 -1,0 -2,0 -2,-1 -1,0 -1,0 -2,-1 0,0 0,-1 0,-1 0,-1 0,-1 0,-2 0,-1 0,-1 0,-2 0,-1 0,-1 0,-2l2 0c0,1 -1,1 -1,2 0,1 0,1 0,2 0,1 0,1 0,1 0,1 0,1 1,1 0,1 0,1 0,1 1,0 1,0 1,0z"/>
  <path class="fil76" d="M1542 994c0,0 0,0 0,-1 0,0 0,0 0,0 0,-1 0,-2 0,-2 0,-1 0,-1 0,-2 -1,0 -1,0 -1,-1 0,0 -1,0 -1,0 -1,0 -1,0 -2,1 0,0 0,0 0,1 -1,0 -1,0 -1,1 0,0 0,1 0,1l0 2 5 0zm8 0l0 2 -14 0 0 -4c0,-1 0,-1 0,-2 0,0 0,-1 0,-1 1,-1 1,-1 2,-2 0,0 1,-1 2,-1 0,0 1,1 2,1 0,0 1,1 1,1 0,1 1,1 1,2 0,1 0,2 0,3 0,0 0,1 0,1l6 0z"/>
  <path class="fil76" d="M1538 980c2,1 3,2 5,2l1 1 0 -5 -1 1c-2,0 -3,1 -5,1l0 0zm12 7l-14 -6 0 -1 14 -6 0 2 -5 1 0 6 5 2 0 2z"/>
  <path class="fil76" d="M1543 965c2,-1 3,-2 4,-3l0 0c-1,0 -2,0 -4,0l-7 0 0 -1 14 0 0 1 -8 6c-1,1 -3,2 -4,2l0 0c1,0 3,0 5,0l7 0 0 2 -14 0 0 -2 7 -5z"/>
  <polygon class="fil76" points="1536,957 1550,957 1550,955 1536,955 "/>
  <path class="fil76" d="M1539 951c1,0 1,0 1,-1 1,0 1,0 1,0 0,-1 0,-1 1,-1 0,-1 0,-1 0,-1 0,-1 0,-1 0,-2 0,0 1,-1 1,-1 0,-1 1,-1 1,-1 0,-1 1,-1 2,-1 0,0 1,0 2,1 0,0 1,0 1,1 0,0 0,1 1,2 0,0 0,1 0,2 0,0 0,0 0,1 0,0 0,1 0,1 0,0 -1,0 -1,1 0,0 0,0 0,0l-1 0c0,0 0,0 0,0 0,-1 0,-1 0,-1 0,-1 0,-1 0,-1 0,-1 0,-1 0,-1 0,-1 0,-1 0,-2 0,0 0,-1 0,-1 0,0 -1,0 -1,-1 0,0 -1,0 -1,0 -1,0 -1,0 -1,0 -1,0 -1,1 -1,1 0,0 0,1 0,1 0,0 -1,1 -1,1 0,1 0,1 0,2 0,0 0,1 -1,1 0,0 0,1 -1,1 0,0 -1,0 -1,0 -1,0 -2,0 -2,0 -1,0 -1,-1 -2,-1 0,0 0,-1 0,-2 0,0 0,-1 0,-1 0,-1 0,-2 0,-2 0,-1 0,-2 0,-2l2 0c0,0 -1,1 -1,2 0,0 0,1 0,2 0,0 0,1 0,1 0,0 0,1 1,1 0,0 0,0 0,0 1,1 1,1 1,1z"/>
  <polygon class="fil76" points="1542,939 1542,931 1536,931 1536,930 1550,930 1550,931 1543,931 1543,939 1550,939 1550,940 1536,940 1536,939 "/>
  <path class="fil8" d="M1542 1026l-13 0c0,0 0,0 0,0l0 0c0,0 0,0 0,0l13 0zm-13 0c0,0 0,0 0,0l0 0c0,0 0,0 0,0l0 0zm0 0c-4,0 -7,-3 -7,-8l0 -2c0,0 0,0 0,0l0 2c0,5 3,8 7,8 0,0 0,0 0,0 0,0 0,0 0,0l0 0zm-7 -155l0 -3c0,-4 3,-7 7,-7l0 0c-4,0 -7,3 -7,7l0 3c0,0 0,0 0,0z"/>
  <path class="fil77" d="M1522 1016c0,0 0,0 0,0l0 -145c0,0 0,0 0,0l0 2 10 0 0 141 -10 0 0 2z"/>
  <path class="fil78" d="M1542 1014l-10 0 0 -141 10 0 0 57 -6 0 0 1 6 0 0 8 -6 0 0 1 6 0 0 6c0,0 0,0 0,0 0,1 0,1 0,2 0,0 0,0 0,1 -1,0 -1,0 -1,1 0,0 0,0 -1,0 0,1 0,1 -1,1 0,0 0,0 -1,-1 0,0 0,0 0,0 -1,0 -1,-1 -1,-1 0,0 0,-1 0,-1 0,-1 0,-2 0,-2 0,-1 1,-2 1,-2l-2 0c0,0 0,1 0,2 0,0 0,1 0,2 0,0 0,1 0,1 0,1 0,2 0,2 1,0 1,1 2,1 0,0 1,0 2,0 0,0 1,0 1,0 1,0 1,-1 1,-1 0,0 0,0 0,0l0 4 -6 0 0 2 6 0 0 4 -6 0 0 1 6 0 0 4 -6 4 0 2 6 0 0 5 -6 3 0 1 6 3 0 4c0,-1 0,-1 0,-1 -1,0 -2,-1 -2,-1 -1,0 -2,1 -2,1 -1,1 -1,1 -2,2 0,0 0,1 0,1 0,1 0,1 0,2l0 4 6 0 0 5c0,0 0,0 0,0 0,1 0,2 0,2 0,0 0,1 0,1 -1,1 -1,1 -1,1 0,0 0,1 -1,1 0,0 0,0 -1,0 0,0 0,0 -1,0 0,0 0,0 0,-1 -1,0 -1,0 -1,-1 0,0 0,0 0,-1 0,-1 0,-1 0,-2 0,-1 1,-1 1,-2l-2 0c0,1 0,1 0,2 0,1 0,1 0,2 0,1 0,1 0,2 0,0 0,1 0,1 1,1 1,1 2,1 0,1 1,1 2,1 0,0 1,0 1,-1 1,0 1,0 1,0 0,-1 0,-1 0,-1l0 8z"/>
  <path class="fil77" d="M1542 873l-20 0 0 -5c0,-4 3,-7 7,-7l13 0 0 12z"/>
  <path class="fil78" d="M1542 994l-5 0 0 -2c0,0 0,-1 0,-1 0,-1 0,-1 1,-1 0,-1 0,-1 0,-1 1,-1 1,-1 2,-1 0,0 1,0 1,0 0,1 0,1 1,1 0,1 0,1 0,2 0,0 0,0 0,0l0 3c0,0 0,0 0,0zm0 -12c-1,0 -2,-1 -4,-2l0 0c2,0 3,-1 4,-1l0 3z"/>
  <path class="fil77" d="M1529 1026c0,0 0,0 0,0 0,0 0,0 0,0zm0 0c0,0 0,0 0,0 0,0 0,0 0,0zm0 0c0,0 0,0 0,0 0,0 0,0 0,0zm0 0c-4,0 -7,-3 -7,-8l0 -4 20 0 0 7 -20 0c1,3 4,5 7,5z"/>
  <path class="fil79" d="M1542 1026l-13 0 0 0c0,0 0,0 0,0l0 0c0,0 0,0 0,0l0 0c0,0 0,0 0,0l0 0 0 0 0 0c0,0 0,0 0,0 0,0 0,0 0,0 -3,0 -6,-2 -7,-5l20 0 0 5z"/>
  <path class="fil80" d="M1540 1008c-1,0 -2,0 -2,-1 -1,0 -1,0 -2,-1 0,0 0,-1 0,-1 0,-1 0,-1 0,-2 0,-1 0,-1 0,-2 0,-1 0,-1 0,-2l2 0c0,1 -1,1 -1,2 0,1 0,1 0,2 0,1 0,1 0,1 0,1 0,1 1,1 0,1 0,1 0,1 1,0 1,0 1,0 1,0 1,0 1,0 1,0 1,-1 1,-1 0,0 0,0 1,-1 0,0 0,-1 0,-1 0,0 0,-1 0,-2 0,0 0,0 0,0l0 5c0,0 0,0 0,1 0,0 0,0 -1,0 0,1 -1,1 -1,1z"/>
  <path class="fil80" d="M1542 996l-6 0 0 -4c0,-1 0,-1 0,-2 0,0 0,-1 0,-1 1,-1 1,-1 2,-2 0,0 1,-1 2,-1 0,0 1,1 2,1 0,0 0,0 0,1l0 3c0,0 0,0 0,0 0,-1 0,-1 0,-2 -1,0 -1,0 -1,-1 0,0 -1,0 -1,0 -1,0 -1,0 -2,1 0,0 0,0 0,1 -1,0 -1,0 -1,1 0,0 0,1 0,1l0 2 5 0c0,0 0,0 0,0l0 2z"/>
  <path class="fil80" d="M1542 984l-6 -3 0 -1 6 -3 0 2c-1,0 -2,1 -4,1l0 0c2,1 3,2 4,2l0 2z"/>
  <path class="fil78" d="M1538 970l0 0c1,0 3,-1 4,-2l0 -1 0 3c-1,0 -3,0 -4,0z"/>
  <path class="fil80" d="M1542 972l-6 0 0 -2 6 -4 0 1 0 1c-1,1 -3,2 -4,2l0 0c1,0 3,0 4,0l0 2zm0 -10l-6 0 0 -1 6 0 0 1z"/>
  <polygon class="fil80" points="1536,957 1542,957 1542,955 1536,955 "/>
  <path class="fil80" d="M1540 952c-1,0 -2,0 -2,0 -1,0 -1,-1 -2,-1 0,0 0,-1 0,-2 0,0 0,-1 0,-1 0,-1 0,-2 0,-2 0,-1 0,-2 0,-2l2 0c0,0 -1,1 -1,2 0,0 0,1 0,2 0,0 0,1 0,1 0,0 0,1 1,1 0,0 0,0 0,0 1,1 1,1 1,1 1,0 1,0 1,-1 1,0 1,0 1,0 0,-1 0,-1 1,-1 0,-1 0,-1 0,-1 0,-1 0,-1 0,-2 0,0 0,0 0,0l0 5c0,0 0,0 0,0 0,0 0,1 -1,1 0,0 -1,0 -1,0z"/>
  <polygon class="fil80" points="1542,940 1536,940 1536,939 1542,939 1542,931 1536,931 1536,930 1542,930 "/>
  <polygon class="fil50" points="138,194 172,194 172,142 138,142 "/>
  <path class="fil81" d="M185 198l0 0c0,-5 -5,-9 -10,-9l-40 0c-5,0 -9,4 -9,9l59 0z"/>
  <polygon class="fil81" points="138,171 172,171 172,142 138,142 "/>
  <path class="fil50" d="M241 166l-171 0c-5,0 -9,-3 -9,-8l0 -99c0,-5 4,-9 9,-9l171 0c4,0 8,4 8,9l0 99c0,5 -4,8 -8,8z"/>
  <path class="fil82" d="M249 108l0 -51c0,-4 -3,-7 -7,-7l-174 0c-4,0 -7,3 -7,7l0 51 188 0z"/>
  <path class="fil48" d="M244 150l0 -90c0,-3 -2,-5 -5,-5l-168 0c-2,0 -4,2 -4,5l0 90 177 0z"/>
  <polygon class="fil51" points="74,111 134,111 134,60 74,60 "/>
  <polygon class="fil51" points="82,121 126,121 126,118 82,118 "/>
  <polygon class="fil51" points="140,78 160,78 160,73 140,73 "/>
  <polygon class="fil51" points="156,83 171,76 156,69 "/>
  <polygon class="fil83" points="151,97 171,97 171,92 151,92 "/>
  <polygon class="fil83" points="155,87 140,94 155,102 "/>
  <polygon class="fil51" points="82,129 126,129 126,125 82,125 "/>
  <polygon class="fil51" points="82,137 126,137 126,133 82,133 "/>
  <polygon class="fil83" points="185,121 229,121 229,118 185,118 "/>
  <polygon class="fil83" points="185,129 229,129 229,125 185,125 "/>
  <polygon class="fil83" points="185,137 229,137 229,133 185,133 "/>
  <polygon class="fil83" points="177,111 237,111 237,60 177,60 "/>
  <path class="fil48" d="M83 157c0,2 -1,4 -3,4 -2,0 -3,-2 -3,-4 0,-1 1,-3 3,-3 2,0 3,2 3,3z"/>
  <path class="fil48" d="M94 157c0,2 -1,3 -3,3 -1,0 -2,-1 -2,-3 0,-1 1,-2 2,-2 2,0 3,1 3,2z"/>
  <polygon class="fil81" points="235,162 237,162 237,153 235,153 "/>
  <polygon class="fil81" points="230,162 232,162 232,153 230,153 "/>
  <polygon class="fil81" points="225,162 227,162 227,153 225,153 "/>
  <polygon class="fil81" points="220,162 222,162 222,153 220,153 "/>
  <polygon class="fil81" points="215,162 217,162 217,153 215,153 "/>
  <polygon class="fil81" points="210,162 212,162 212,153 210,153 "/>
  <polygon class="fil81" points="205,162 207,162 207,153 205,153 "/>
  <path class="fil84" d="M102 150l-35 0 0 -90c0,-3 2,-5 4,-5l125 0 -4 5 -15 0 0 15 -17 17 -5 0 0 -5 -15 7 12 6 -26 26 0 -1 -44 0 0 4 41 0 -4 4 -37 0 0 4 33 0 -13 13zm-20 -32l0 3 44 0 0 -3 -44 0zm-8 -58l0 51 60 0 0 -51 -60 0zm82 18l0 5 15 -7 -15 -7 0 4 -16 0 0 5 16 0z"/>
  <polygon class="fil56" points="74,111 134,111 134,60 74,60 "/>
  <polygon class="fil56" points="82,121 126,121 126,118 82,118 "/>
  <polygon class="fil56" points="156,78 140,78 140,73 156,73 "/>
  <polygon class="fil56" points="156,83 156,78 156,73 156,69 171,76 "/>
  <polygon class="fil85" points="155,96 155,92 160,92 "/>
  <polygon class="fil85" points="152,100 140,94 155,87 155,92 155,96 "/>
  <polygon class="fil56" points="123,129 82,129 82,125 126,125 126,126 "/>
  <polygon class="fil56" points="115,137 82,137 82,133 119,133 "/>
  <polygon class="fil85" points="177,75 177,60 192,60 "/>
  <path class="fil8" d="M104 72c-1,4 -3,8 -4,12l-2 3 12 0 -1 -3c-2,-4 -3,-8 -5,-12l0 0zm-16 30l14 -36 4 0 15 36 -5 0 -4 -11 -15 0 -4 11 -5 0z"/>
  <path class="fil8" d="M216 92l0 -6 -7 0 0 6 7 0zm4 -13l-6 0 0 5 4 0 0 10 -11 0 0 -10 4 0 0 -5 -6 0 0 -2 6 0 0 -5 3 0c0,1 0,1 0,1l0 4 6 0 0 2zm-17 19l19 0 0 -27 -19 0 0 27zm-2 -30l23 0 0 34 -2 0 0 -2 -19 0 0 3 -2 0 0 -35zm-8 35l0 -23c-1,3 -2,5 -4,7 0,-1 -1,-2 -1,-3 3,-4 7,-11 9,-18l3 1c0,0 -3,6 -4,8l0 28 -3 0z"/>
  <polygon class="fil81" points="61,259 249,259 249,255 61,255 "/>
  <polygon class="fil50" points="249,255 61,255 77,203 234,203 "/>
  <polygon class="fil86" points="89,213 77,213 79,206 91,206 "/>
  <polygon class="fil86" points="105,213 93,213 95,206 106,206 "/>
  <polygon class="fil86" points="121,213 109,213 110,206 122,206 "/>
  <polygon class="fil86" points="137,213 125,213 126,206 138,206 "/>
  <polygon class="fil86" points="153,213 141,213 141,206 153,206 "/>
  <polygon class="fil86" points="169,213 157,213 157,206 169,206 "/>
  <polygon class="fil86" points="185,213 173,213 173,206 185,206 "/>
  <polygon class="fil86" points="201,213 189,213 188,206 200,206 "/>
  <polygon class="fil86" points="217,213 205,213 204,206 216,206 "/>
  <polygon class="fil86" points="233,213 221,213 220,206 231,206 "/>
  <polygon class="fil86" points="87,224 74,224 76,217 88,217 "/>
  <polygon class="fil86" points="103,224 90,224 92,217 105,217 "/>
  <polygon class="fil86" points="120,224 107,224 108,217 121,217 "/>
  <polygon class="fil86" points="137,224 124,224 125,217 137,217 "/>
  <polygon class="fil86" points="153,224 140,224 141,217 153,217 "/>
  <polygon class="fil86" points="170,224 157,224 157,217 170,217 "/>
  <polygon class="fil86" points="187,224 174,224 173,217 186,217 "/>
  <polygon class="fil86" points="203,224 191,224 190,217 202,217 "/>
  <polygon class="fil86" points="220,224 207,224 206,217 218,217 "/>
  <polygon class="fil86" points="237,224 224,224 222,217 235,217 "/>
  <polygon class="fil86" points="84,236 71,236 73,228 86,228 "/>
  <polygon class="fil86" points="101,236 88,236 90,228 103,228 "/>
  <polygon class="fil86" points="118,236 105,236 107,228 119,228 "/>
  <polygon class="fil86" points="136,236 123,236 123,228 136,228 "/>
  <polygon class="fil86" points="153,236 140,236 140,228 153,228 "/>
  <polygon class="fil86" points="171,236 157,236 157,228 170,228 "/>
  <polygon class="fil86" points="188,236 175,236 174,228 187,228 "/>
  <polygon class="fil86" points="205,236 192,236 191,228 204,228 "/>
  <polygon class="fil86" points="223,236 209,236 208,228 221,228 "/>
  <polygon class="fil86" points="240,236 227,236 225,228 238,228 "/>
  <polygon class="fil86" points="81,248 67,248 70,239 83,239 "/>
  <polygon class="fil86" points="99,248 85,248 87,239 100,239 "/>
  <polygon class="fil86" points="117,248 103,248 105,239 118,239 "/>
  <polygon class="fil86" points="189,248 122,248 123,239 188,239 "/>
  <polygon class="fil86" points="207,248 193,248 192,239 206,239 "/>
  <polygon class="fil86" points="225,248 211,248 210,239 223,239 "/>
  <polygon class="fil86" points="243,248 230,248 227,239 241,239 "/>
  <polygon class="fil81" points="1098,1035 1321,1035 1321,1031 1098,1031 "/>
  <path class="fil50" d="M1321 1031l-223 0 16 -56c1,-4 5,-6 8,-6l174 0c4,0 8,2 9,6l16 56z"/>
  <polygon class="fil86" points="1145,978 1133,978 1135,971 1147,971 "/>
  <polygon class="fil86" points="1161,978 1149,978 1150,971 1162,971 "/>
  <polygon class="fil86" points="1176,978 1164,978 1166,971 1177,971 "/>
  <polygon class="fil86" points="1192,978 1180,978 1181,971 1192,971 "/>
  <polygon class="fil86" points="1208,978 1196,978 1196,971 1208,971 "/>
  <polygon class="fil86" points="1223,978 1211,978 1211,971 1223,971 "/>
  <polygon class="fil86" points="1239,978 1227,978 1226,971 1238,971 "/>
  <polygon class="fil86" points="1254,978 1242,978 1241,971 1253,971 "/>
  <polygon class="fil86" points="1270,978 1258,978 1257,971 1268,971 "/>
  <polygon class="fil86" points="1285,978 1273,978 1272,971 1283,971 "/>
  <polygon class="fil86" points="1143,989 1130,989 1132,982 1144,982 "/>
  <polygon class="fil86" points="1159,989 1146,989 1148,982 1160,982 "/>
  <polygon class="fil86" points="1175,989 1163,989 1164,982 1176,982 "/>
  <polygon class="fil86" points="1191,989 1179,989 1180,982 1192,982 "/>
  <polygon class="fil86" points="1207,989 1195,989 1195,982 1207,982 "/>
  <polygon class="fil86" points="1224,989 1211,989 1211,982 1223,982 "/>
  <polygon class="fil86" points="1240,989 1227,989 1227,982 1239,982 "/>
  <polygon class="fil86" points="1256,989 1244,989 1243,982 1255,982 "/>
  <polygon class="fil86" points="1272,989 1260,989 1259,982 1271,982 "/>
  <polygon class="fil86" points="1288,989 1276,989 1274,982 1286,982 "/>
  <polygon class="fil86" points="1140,1000 1127,1000 1129,992 1142,992 "/>
  <polygon class="fil86" points="1157,1000 1144,1000 1146,992 1158,992 "/>
  <polygon class="fil86" points="1174,1000 1161,1000 1162,992 1175,992 "/>
  <polygon class="fil86" points="1191,1000 1178,1000 1178,992 1191,992 "/>
  <polygon class="fil86" points="1207,1000 1194,1000 1195,992 1207,992 "/>
  <polygon class="fil86" points="1224,1000 1211,1000 1211,992 1224,992 "/>
  <polygon class="fil86" points="1241,1000 1228,1000 1228,992 1240,992 "/>
  <polygon class="fil86" points="1258,1000 1245,1000 1244,992 1257,992 "/>
  <polygon class="fil86" points="1275,1000 1262,1000 1260,992 1273,992 "/>
  <polygon class="fil86" points="1292,1000 1279,1000 1277,992 1289,992 "/>
  <polygon class="fil48" points="1244,1026 1175,1026 1178,1004 1241,1004 "/>
  <path class="fil81" d="M1296 969l-173 0c-5,0 -9,-4 -9,-9l0 -101c0,-4 4,-8 9,-8l173 0c5,0 8,4 8,8l0 101c0,5 -3,9 -8,9z"/>
  <path class="fil48" d="M1299 961l0 -100c0,-3 -2,-5 -5,-5l-170 0c-2,0 -4,2 -4,5l0 100 179 0z"/>
  <polygon class="fil51" points="1120,961 1299,961 1299,956 1120,956 "/>
  <polygon class="fil51" points="1162,951 1257,951 1257,860 1162,860 "/>
  <polygon class="fil87" points="1262,951 1294,951 1294,908 1262,908 "/>
  <polygon class="fil51" points="1262,868 1294,868 1294,865 1262,865 "/>
  <polygon class="fil51" points="1262,873 1294,873 1294,870 1262,870 "/>
  <polygon class="fil51" points="1262,878 1294,878 1294,876 1262,876 "/>
  <polygon class="fil87" points="1126,886 1142,886 1142,883 1126,883 "/>
  <polygon class="fil87" points="1126,891 1142,891 1142,888 1126,888 "/>
  <polygon class="fil87" points="1126,896 1142,896 1142,893 1126,893 "/>
  <polygon class="fil88" points="1262,951 1294,951 1294,942 1262,942 "/>
  <polygon class="fil88" points="1278,915 1292,915 1292,912 1278,912 "/>
  <polygon class="fil88" points="1265,920 1276,920 1276,917 1265,917 "/>
  <polygon class="fil88" points="1278,924 1292,924 1292,921 1278,921 "/>
  <polygon class="fil88" points="1265,929 1276,929 1276,926 1265,926 "/>
  <polygon class="fil88" points="1278,933 1292,933 1292,931 1278,931 "/>
  <polygon class="fil88" points="1265,938 1276,938 1276,935 1265,935 "/>
  <path class="fil81" d="M1235 894c0,19 8,52 -25,52 -33,0 -25,-33 -25,-52 0,-19 4,-31 25,-31 21,0 25,12 25,31z"/>
  <path class="fil89" d="M1200 899c0,5 0,10 0,15 0,5 0,11 0,15l18 0c1,-4 1,-10 1,-15 0,-5 0,-10 -1,-15l-18 0z"/>
  <path class="fil90" d="M1229 889c0,16 -9,32 -19,32 -11,0 -19,-16 -19,-32 0,-16 8,-26 19,-26 10,0 19,10 19,26z"/>
  <path class="fil89" d="M1246 951c-1,-23 -19,-24 -37,-24 -17,0 -35,1 -36,24l73 0z"/>
  <path class="fil89" d="M1246 951c-1,-23 -19,-24 -37,-24 -17,0 -35,1 -36,24l73 0z"/>
  <path class="fil12" d="M1246 951c-1,-14 -8,-20 -17,-23 -6,7 -13,12 -20,12 -6,0 -13,-5 -19,-12 -9,3 -16,9 -17,23l73 0z"/>
  <path class="fil90" d="M1193 891c1,4 0,9 -2,9 -2,0 -4,-4 -5,-8 -1,-5 0,-8 2,-8 2,0 4,2 5,7z"/>
  <path class="fil90" d="M1227 891c-1,4 0,9 2,9 2,0 4,-4 5,-8 0,-5 -1,-8 -3,-8 -1,0 -4,2 -4,7z"/>
  <path class="fil81" d="M1232 887c0,-17 -6,-25 -23,-25 -17,0 -23,8 -22,25 0,0 10,-2 14,-17 5,22 31,17 31,17z"/>
  <polygon class="fil91" points="1127,951 1153,951 1153,918 1127,918 "/>
  <path class="fil89" d="M1137 933c0,1 0,3 0,5 0,2 0,4 0,5l6 0c0,-1 0,-3 0,-5 0,-2 0,-4 0,-5l-6 0z"/>
  <path class="fil90" d="M1147 929c0,6 -3,12 -7,12 -4,0 -7,-6 -7,-12 0,-6 1,-9 7,-9 6,0 7,3 7,9z"/>
  <path class="fil81" d="M1140 919c-7,0 -7,4 -7,10 0,0 0,-2 2,-3 0,-3 2,-4 5,-4 4,0 5,1 6,4 1,1 1,3 1,3 0,-6 0,-10 -7,-10z"/>
  <path class="fil89" d="M1153 951c0,-8 -7,-9 -13,-9 -6,0 -13,1 -13,9l26 0z"/>
  <path class="fil81" d="M1153 951c0,-5 -3,-7 -6,-8 -2,2 -7,4 -7,4 0,0 -5,-2 -7,-4 -3,1 -6,3 -6,8l26 0z"/>
  <path class="fil90" d="M1134 930c1,1 0,3 0,3 -1,0 -2,-1 -2,-3 0,-2 0,-3 1,-3 0,0 1,1 1,3z"/>
  <path class="fil90" d="M1146 930c-1,1 0,3 0,3 1,0 2,-1 2,-3 0,-2 0,-3 -1,-3 0,0 -1,1 -1,3z"/>
  <polygon class="fil7" points="1125,879 1155,879 1155,860 1125,860 "/>
  <polygon class="fil8" points="1151,879 1140,871 1128,879 1125,879 1125,876 1136,869 1125,863 1125,860 1128,860 1140,867 1151,860 1155,860 1155,863 1145,870 1155,876 1155,879 1155,879 "/>
  <polygon class="fil5" points="1143,870 1155,861 1155,860 1154,860 1140,869 1126,860 1125,860 1125,861 1138,869 1125,877 1125,879 1126,879 1140,870 1154,879 1155,879 1155,879 1155,878 "/>
  <polygon class="fil8" points="1137,879 1143,879 1143,860 1137,860 "/>
  <polygon class="fil8" points="1125,872 1155,872 1155,867 1125,867 "/>
  <polygon class="fil5" points="1138,879 1142,879 1142,860 1138,860 "/>
  <polygon class="fil5" points="1125,871 1155,871 1155,868 1125,868 "/>
  <path class="fil84" d="M1156 956l-36 0 0 -95c0,-3 2,-5 4,-5l132 0c-1,1 -3,3 -4,4l-90 0 0 90c-2,2 -4,4 -6,6zm-3 -5l0 0c0,0 0,0 0,-1l0 -32 -26 0 0 32c0,0 0,1 0,1l0 0 26 0 0 0zm-27 -58l0 3 16 0 0 -3 -16 0zm0 -5l0 3 16 0 0 -3 -16 0zm0 -5l0 3 16 0 0 -3 -16 0zm28 -4l1 0 0 -19 -30 0 0 19 29 0z"/>
  <path class="fil56" d="M1151 961l-31 0 0 -5 36 0c-2,2 -3,3 -5,5z"/>
  <path class="fil56" d="M1162 950l0 -90 90 0c-6,6 -13,13 -19,19 -1,-5 -3,-9 -7,-12 -3,-4 -9,-5 -17,-5 -10,0 -17,3 -20,10 -3,5 -4,13 -4,22 0,10 -2,23 0,33 -8,8 -16,15 -23,23z"/>
  <polygon class="fil92" points="1126,886 1142,886 1142,883 1126,883 "/>
  <polygon class="fil92" points="1126,891 1142,891 1142,888 1126,888 "/>
  <polygon class="fil92" points="1126,896 1142,896 1142,893 1126,893 "/>
  <path class="fil34" d="M1185 927c-2,-10 0,-23 0,-33 0,-9 1,-17 4,-22 -1,3 -2,7 -2,13 -1,1 -2,3 -1,7 1,4 3,8 5,8 0,0 0,0 0,0 0,0 1,0 1,0 1,5 3,10 6,14 -4,4 -9,9 -13,13zm6 -41c0,0 0,0 0,0 0,0 0,0 0,0 0,0 0,0 0,0zm41 -6c-1,-5 -3,-10 -6,-13 4,3 6,7 7,12 0,0 -1,1 -1,1z"/>
  <path class="fil93" d="M1198 914c-3,-4 -5,-9 -6,-14 1,-2 1,-6 1,-9 -1,-2 -1,-4 -2,-5 0,0 0,0 0,0 3,-3 8,-7 10,-16 3,14 15,17 23,18 -8,8 -17,17 -26,26z"/>
  <path class="fil93" d="M1191 900c-2,0 -4,-4 -5,-8 -1,-4 0,-6 1,-7 0,1 0,1 0,2 0,0 2,0 4,-1 0,0 0,0 0,0 1,1 1,3 2,5 0,3 0,7 -1,9 0,0 -1,0 -1,0 0,0 0,0 0,0z"/>
  <path class="fil34" d="M1224 888c-8,-1 -20,-4 -23,-18 -2,9 -7,13 -10,16 0,0 0,0 0,0 -2,1 -4,1 -4,1 0,-1 0,-1 0,-2 0,-6 1,-10 2,-13 3,-7 10,-10 20,-10 8,0 14,1 17,5 3,3 5,8 6,13 -3,3 -5,5 -8,8z"/>
  <path class="fil94" d="M1153 950c0,-2 -1,-4 -2,-5 -1,-1 -3,-2 -4,-2 0,0 0,0 0,0 -1,0 -3,0 -4,-1 0,-1 0,-2 0,-3 2,-1 3,-4 3,-6 1,0 2,-2 2,-3 0,-2 0,-3 -1,-3 0,0 0,0 0,0 0,0 0,0 0,0 0,-5 0,-8 -7,-8 -6,0 -7,3 -7,8 0,0 0,0 0,0 0,0 0,0 0,0 -1,0 -1,1 -1,3 0,1 1,3 2,3 0,0 0,0 0,0 0,2 1,4 3,6 0,1 0,2 0,3 -2,1 -3,1 -4,1l0 0c-1,0 -3,1 -4,2 -1,1 -2,3 -2,5l0 -32 26 0 0 32z"/>
  <path class="fil95" d="M1143 942c-1,0 -2,0 -3,0 -1,0 -2,0 -3,0 0,-1 0,-2 0,-3 1,1 2,2 3,2 1,0 2,-1 3,-2 0,1 0,2 0,3z"/>
  <path class="fil93" d="M1140 941c-1,0 -2,-1 -3,-2 -2,-2 -3,-4 -3,-6 0,0 0,0 0,0 0,0 1,-2 0,-3 0,-1 0,-2 0,-2 0,-1 0,-2 1,-2 0,-3 2,-4 5,-4 4,0 5,1 6,4 0,0 0,1 1,2 -1,0 -1,1 -1,2 -1,1 0,3 0,3 0,0 0,0 0,0 0,0 0,0 0,0 0,2 -1,5 -3,6 -1,1 -2,2 -3,2z"/>
  <path class="fil34" d="M1134 928c-1,-1 -1,-1 -1,-1 0,-5 1,-8 7,-8 7,0 7,3 7,8 0,0 0,0 0,1 -1,-1 -1,-2 -1,-2 -1,-3 -2,-4 -6,-4 -3,0 -5,1 -5,4 -1,0 -1,1 -1,2z"/>
  <path class="fil95" d="M1153 951l0 0c0,-3 -1,-5 -2,-6 1,1 2,3 2,5 0,1 0,1 0,1zm-26 0l0 0c0,0 0,-1 0,-1 0,-2 1,-4 2,-5 -1,1 -2,3 -2,6zm13 -4c0,0 -5,-2 -7,-4 1,0 2,0 4,-1 1,0 2,0 3,0 1,0 2,0 3,0 1,1 3,1 4,1 -2,2 -7,4 -7,4z"/>
  <path class="fil34" d="M1153 951l-26 0 0 0c0,-3 1,-5 2,-6 1,-1 3,-2 4,-2l0 0c2,2 7,4 7,4 0,0 5,-2 7,-4 0,0 0,0 0,0 1,0 3,1 4,2 1,1 2,3 2,6l0 0z"/>
  <path class="fil93" d="M1134 933c-1,0 -2,-2 -2,-3 0,-2 0,-3 1,-3 0,0 0,0 0,0 0,0 0,0 0,0 0,0 0,0 1,1 0,0 0,1 0,2 1,1 0,3 0,3 0,0 0,0 0,0 0,0 0,0 0,0z"/>
  <path class="fil93" d="M1146 933c0,0 0,0 0,0 0,0 -1,-2 0,-3 0,-1 0,-2 1,-2 0,-1 0,-1 0,-1 0,0 0,0 0,0 0,0 0,0 0,0 1,0 1,1 1,3 0,1 -1,3 -2,3 0,0 0,0 0,0z"/>
  <path class="fil96" d="M1151 879l-8 0 0 -6 8 6zm-14 0l-9 0 9 -6 0 6zm18 -3l-6 -4 6 0 0 4zm-30 0l0 -13 6 4 -6 0 0 5 6 0 -6 4zm30 -9l-6 0 6 -4 0 4zm-12 -1l0 -6 -6 0 0 5 -9 -5 23 0 -8 6z"/>
  <path class="fil8" d="M1154 879l-3 0 -8 -6 0 -1 1 0 10 7zm-26 0l-2 0 11 -7 0 0 0 1 -9 6zm27 -1l-9 -6 3 0 6 4 0 2zm-30 -1l0 -1 6 -4 3 0 -9 5zm24 -10l-2 0 8 -6 0 2 -6 4zm-6 0l0 0 0 -1 8 -6 3 0 -11 7zm-9 0l-3 0 -6 -4 0 -2 9 6zm3 0l-11 -7 2 0 9 5 0 2z"/>
  <path class="fil97" d="M1155 879l-1 0 -10 -7 2 0 9 6 0 1zm-29 0l-1 0 0 -2 9 -5 3 0 -11 7zm21 -12l-4 0 11 -7 1 0 0 1 -8 6zm-10 0l-3 0 -9 -6 0 -1 1 0 11 7 0 0z"/>
  <path class="fil8" d="M1143 879l-1 0 0 -7 1 0 0 7zm-5 0l-1 0 0 -7 1 0 0 7zm5 -12l-1 0 0 -7 -4 0 0 7 -1 0 0 -7 6 0 0 7z"/>
  <path class="fil8" d="M1155 872l-13 0 0 -1 13 0 0 1zm-17 0l-13 0 0 -5 13 0 0 1 -13 0 0 3 13 0 0 1zm17 -4l-13 0 0 -1 13 0 0 1z"/>
  <path class="fil97" d="M1142 879l-4 0 0 -8 4 0 0 8zm0 -11l-4 0 0 -8 4 0 0 8z"/>
  <polygon class="fil97" points="1155,871 1125,871 1125,868 1155,868 "/>
  <polygon class="fil4" points="1696,232 1829,232 1829,47 1696,47 "/>
  <polygon class="fil19" points="1736,65 1789,65 1789,61 1736,61 "/>
  <polygon class="fil19" points="1708,74 1769,74 1769,72 1708,72 "/>
  <polygon class="fil19" points="1708,81 1817,81 1817,79 1708,79 "/>
  <polygon class="fil19" points="1708,88 1817,88 1817,86 1708,86 "/>
  <polygon class="fil19" points="1708,95 1817,95 1817,93 1708,93 "/>
  <polygon class="fil19" points="1708,102 1817,102 1817,100 1708,100 "/>
  <polygon class="fil19" points="1708,109 1769,109 1769,107 1708,107 "/>
  <polygon class="fil19" points="1708,116 1817,116 1817,114 1708,114 "/>
  <polygon class="fil19" points="1708,123 1817,123 1817,121 1708,121 "/>
  <polygon class="fil19" points="1754,130 1817,130 1817,129 1754,129 "/>
  <polygon class="fil19" points="1754,138 1817,138 1817,136 1754,136 "/>
  <polygon class="fil19" points="1754,145 1817,145 1817,143 1754,143 "/>
  <polygon class="fil19" points="1754,152 1817,152 1817,150 1754,150 "/>
  <polygon class="fil19" points="1708,159 1817,159 1817,157 1708,157 "/>
  <polygon class="fil19" points="1708,166 1817,166 1817,164 1708,164 "/>
  <polygon class="fil19" points="1708,173 1817,173 1817,171 1708,171 "/>
  <polygon class="fil19" points="1786,202 1816,202 1816,200 1786,200 "/>
  <polygon class="fil90" points="1666,226 1651,255 1651,261 1694,261 1704,234 "/>
  <path class="fil89" d="M1714 180l0 0c-3,1 -6,1 -8,-2l-8 -12 10 -6 7 12c2,3 1,6 -1,8z"/>
  <path class="fil89" d="M1700 179l0 0c-2,2 -6,1 -7,-1l-8 -12 9 -6 8 12c1,2 1,6 -2,7z"/>
  <path class="fil89" d="M1687 178l0 0c-3,2 -6,1 -8,-1l-7 -12 9 -6 7 12c2,2 1,6 -1,7z"/>
  <polygon class="fil90" points="1669,171 1719,178 1716,216 1704,236 1665,227 1661,203 "/>
  <path class="fil89" d="M1726 185l0 0c-2,2 -6,1 -7,-1l-8 -12 9 -6 8 12c2,2 1,6 -2,7z"/>
  <path class="fil90" d="M1717 163l0 0c3,1 5,4 4,7l-3 14 -11 -3 4 -14c0,-3 3,-4 6,-4z"/>
  <path class="fil90" d="M1734 194l-3 13c-3,-2 -7,-4 -11,-5l3 -11c1,-3 3,-4 6,-4l2 1c2,0 4,3 3,6z"/>
  <path class="fil90" d="M1730 199l1 2c2,3 1,6 -2,7l-18 17 -3 -23 15 -5c3,-1 6,0 7,2z"/>
  <path class="fil90" d="M1705 158l0 0c2,0 4,3 4,6l-3 14 -11 -2 3 -14c1,-3 4,-5 7,-4z"/>
  <path class="fil90" d="M1691 157l0 0c3,1 5,4 4,7l-3 14 -11 -3 3 -14c1,-3 4,-4 7,-4z"/>
  <path class="fil90" d="M1677 156l0 0c3,1 5,4 5,7l-3 14 -11 -3 3 -14c1,-3 4,-5 6,-4z"/>
  <polygon class="fil90" points="1874,180 1863,171 1831,195 1874,237 "/>
  <path class="fil89" d="M1804 151l0 0c3,0 5,-3 5,-6l0 -14 -11 0 0 15c1,3 3,5 6,5z"/>
  <path class="fil89" d="M1813 146l0 0c3,0 6,-1 7,-4l3 -14 -10 -3 -4 14c-1,3 1,6 4,7z"/>
  <path class="fil90" d="M1836 123l-41 26 19 34 18 13 32 -23 -5 -22c0,-2 -1,-3 -2,-4l-21 -24z"/>
  <path class="fil89" d="M1790 157l0 0c3,0 6,-2 7,-5l2 -14 -11 -1 -2 14c-1,3 1,5 4,6z"/>
  <path class="fil90" d="M1790 133l0 0c-2,2 -3,5 -1,8l8 11 9 -6 -8 -12c-2,-2 -6,-3 -8,-1z"/>
  <path class="fil90" d="M1799 129l0 0c-2,2 -1,5 1,7l11 10 7 -8 -11 -10c-2,-2 -6,-2 -8,1z"/>
  <path class="fil90" d="M1812 124l0 0c-2,2 -1,5 1,7l9 7 6 -7 -10 -7c-2,-2 -5,-2 -6,0z"/>
  <path class="fil90" d="M1821 123l0 0c-1,2 0,4 3,5l10 3 2 -8 -10 -3c-2,-1 -5,1 -5,3z"/>
  <path class="fil19" d="M1784 162l3 2 -5 5c-1,1 -1,0 -1,0l3 -7z"/>
  <path class="fil25" d="M1787 153l8 6 -10 8c-1,0 -3,-1 -2,-2l4 -12z"/>
  <polygon class="fil12" points="1787,154 1820,110 1827,116 1794,159 "/>
  <polygon class="fil15" points="1787,154 1820,110 1824,113 1791,156 "/>
  <polygon class="fil2" points="1820,111 1830,97 1837,103 1827,116 "/>
  <polygon class="fil23" points="1825,104 1830,97 1837,103 1832,110 "/>
  <path class="fil24" d="M1827 102l5 -8c2,-2 5,-2 7,0 2,1 2,4 1,6l-6 7 -7 -5z"/>
  <path class="fil90" d="M1784 165l9 12c2,-4 5,-7 8,-9l-7 -10c-2,-3 -5,-3 -8,-1l-1 1c-2,2 -3,5 -1,7z"/>
  <path class="fil90" d="M1792 172l0 2c-1,3 1,6 5,6l25 8 -8 -23 -16 2c-3,0 -6,2 -6,5z"/>
  <polygon class="fil7" points="1011,50 1038,50 1038,34 1011,34 "/>
  <polygon class="fil8" points="1035,50 1025,44 1014,50 1011,50 1011,48 1021,42 1011,36 1011,34 1014,34 1025,40 1035,34 1038,34 1038,36 1029,42 1038,48 1038,50 1038,50 "/>
  <polygon class="fil5" points="1027,42 1038,35 1038,34 1037,34 1025,41 1012,34 1011,34 1011,35 1023,42 1011,49 1011,50 1012,50 1025,42 1037,50 1038,50 1038,50 1038,49 "/>
  <polygon class="fil8" points="1022,50 1027,50 1027,34 1022,34 "/>
  <polygon class="fil8" points="1011,44 1038,44 1038,40 1011,40 "/>
  <polygon class="fil5" points="1023,50 1026,50 1026,34 1023,34 "/>
  <polygon class="fil5" points="1011,43 1038,43 1038,41 1011,41 "/>
  <polygon class="fil98" points="1008,77 1011,77 1011,34 1008,34 "/>
  <polygon class="fil98" points="892,251 1127,251 1127,245 892,245 "/>
  <polygon class="fil99" points="898,157 1122,157 1122,147 898,147 "/>
  <polygon class="fil99" points="1053,85 1059,84 1010,68 961,84 966,85 "/>
  <polygon class="fil100" points="1053,245 966,245 966,85 1010,71 1053,85 "/>
  <polygon class="fil100" points="898,245 1122,245 1122,152 898,152 "/>
  <polygon class="fil101" points="898,245 1122,245 1122,240 898,240 "/>
  <path class="fil39" d="M1035 236l-51 0 0 -46c0,-14 12,-25 26,-25l0 0c14,0 25,11 25,25l0 46z"/>
  <path class="fil102" d="M1010 165l0 71 25 0 0 -46c0,-14 -11,-25 -25,-25z"/>
  <polygon class="fil48" points="984,245 1035,245 1035,228 984,228 "/>
  <polygon class="fil101" points="984,239 1035,239 1035,234 984,234 "/>
  <path class="fil103" d="M1017 203c0,2 -1,3 -2,3 -2,0 -3,-1 -3,-3 0,-1 1,-2 3,-2 1,0 2,1 2,2z"/>
  <path class="fil103" d="M1008 203c0,2 -1,3 -2,3 -2,0 -3,-1 -3,-3 0,-1 1,-2 3,-2 1,0 2,1 2,2z"/>
  <polygon class="fil104" points="1056,181 1073,181 1073,164 1056,164 "/>
  <polygon class="fil101" points="1056,186 1073,186 1073,181 1056,181 "/>
  <polygon class="fil104" points="1056,222 1073,222 1073,205 1056,205 "/>
  <polygon class="fil101" points="1056,227 1073,227 1073,222 1056,222 "/>
  <polygon class="fil104" points="1092,181 1109,181 1109,164 1092,164 "/>
  <polygon class="fil101" points="1092,186 1109,186 1109,181 1092,181 "/>
  <polygon class="fil104" points="1092,222 1109,222 1109,205 1092,205 "/>
  <polygon class="fil101" points="1092,227 1109,227 1109,222 1092,222 "/>
  <polygon class="fil104" points="911,181 929,181 929,164 911,164 "/>
  <polygon class="fil101" points="911,186 929,186 929,181 911,181 "/>
  <polygon class="fil104" points="911,222 929,222 929,205 911,205 "/>
  <polygon class="fil101" points="911,227 929,227 929,222 911,222 "/>
  <polygon class="fil104" points="947,181 965,181 965,164 947,164 "/>
  <polygon class="fil101" points="947,186 965,186 965,181 947,181 "/>
  <polygon class="fil104" points="947,222 965,222 965,205 947,205 "/>
  <polygon class="fil101" points="947,227 965,227 965,222 947,222 "/>
  <polygon class="fil104" points="1018,110 1035,110 1035,93 1018,93 "/>
  <polygon class="fil101" points="1018,115 1035,115 1035,110 1018,110 "/>
  <polygon class="fil104" points="1018,151 1035,151 1035,134 1018,134 "/>
  <polygon class="fil101" points="1018,156 1035,156 1035,151 1018,151 "/>
  <polygon class="fil104" points="985,110 1003,110 1003,93 985,93 "/>
  <polygon class="fil101" points="985,115 1003,115 1003,110 985,110 "/>
  <polygon class="fil104" points="985,151 1003,151 1003,134 985,134 "/>
  <polygon class="fil101" points="985,156 1003,156 1003,151 985,151 "/>
  <polygon class="fil105" points="1861,570 1719,596 1693,453 1835,427 "/>
  <polygon class="fil100" points="1840,451 1835,427 1693,453 1697,477 "/>
  <polygon class="fil100" points="1702,578 1847,578 1847,433 1702,433 "/>
  <polygon class="fil106" points="1702,458 1847,458 1847,433 1702,433 "/>
  <path class="fil107" d="M1810 533c1,20 -15,36 -35,36 -20,0 -36,-15 -36,-35 0,-20 15,-36 35,-36 20,-1 36,15 36,35z"/>
  <path class="fil36" d="M1810 531c0,1 0,2 0,2 -1,1 -1,1 -2,1 -2,1 -3,3 -4,5 -1,3 1,7 1,10 -1,1 -1,2 -1,3 -1,2 -2,4 -3,5 6,-6 10,-15 9,-24 0,-1 0,-1 0,-2zm-11 -19c2,2 4,4 5,6 1,1 3,2 3,4 0,1 0,1 0,2 0,1 0,2 0,2 0,1 -1,2 -1,3 1,0 2,0 3,0 0,0 1,0 1,0 0,0 0,0 0,0 -1,-8 -5,-16 -11,-22 -1,0 -2,1 -1,3 0,1 1,2 1,2zm-23 27c0,1 2,1 3,2 0,1 0,2 0,3 0,0 0,1 0,1 -1,1 0,2 0,2 0,1 -1,2 -2,3 -1,1 -2,1 -2,2 -3,2 -2,5 -3,8 -1,0 -1,1 -1,2 0,0 0,1 0,2 1,1 1,2 0,3 0,0 -1,-1 -1,-1 0,-1 0,-1 0,-2 0,-2 -2,-3 -3,-5 -1,-2 -1,-5 -1,-7 -1,-1 -1,-2 -1,-3 0,0 -1,0 -1,-1 0,-1 0,-1 -1,-2 0,0 -1,0 -1,0 -1,0 -1,-1 -1,-1 0,-2 1,-3 1,-4 0,-1 1,-2 1,-3l-1 0c-1,-1 -2,-1 -3,-2 -1,-1 -2,-3 -2,-5 0,-1 1,-2 1,-3 0,-1 -2,-2 -3,-4 -1,-1 -1,-3 -1,-4 0,-3 2,-6 0,-9 0,0 -1,-1 -1,-1 -1,-2 2,-3 3,-4 1,-1 2,-2 2,-3 0,1 1,2 2,2 1,1 1,0 2,0 0,0 0,0 1,0 1,0 1,-1 1,-2 1,0 2,1 2,1 1,-1 2,-1 2,-2 1,-1 3,-2 5,-3l1 0c0,1 0,1 -1,1 -1,1 -2,2 -4,2 1,1 1,2 0,2 0,0 -1,1 -1,1 1,1 2,1 2,1 1,0 3,-1 4,0 0,1 0,1 0,2 0,-1 -1,0 -1,0 1,1 3,0 4,-1 0,0 0,-1 0,-1 0,-1 1,-1 1,-1 0,-1 0,-1 0,-1 0,-1 1,-1 2,-1 0,0 1,1 1,1 1,0 3,0 3,1l1 0c0,0 0,0 1,0 1,1 2,3 1,4 0,3 -2,5 -3,7 -1,2 -3,4 -4,6 0,1 -1,2 -1,2 0,1 0,2 0,2 0,2 0,4 0,6l-1 0c0,1 0,0 0,0 0,0 0,-1 0,-1 0,-1 -1,-2 -2,-3 0,0 0,0 -1,-1 0,0 -1,1 -1,1 -1,0 -2,0 -3,0 -1,0 -1,-1 -1,-1l-1 0c-2,1 -4,1 -6,2 -2,0 -2,1 -3,2 0,1 -1,1 -1,2 0,0 0,1 0,1 1,0 2,0 2,0 1,-1 1,-1 2,-1 0,0 0,0 0,0 -1,1 -1,1 -1,1 -1,0 -1,1 -1,1 1,2 2,2 4,2 1,0 2,0 2,0 2,-1 3,0 4,0 0,0 1,0 1,0 1,0 1,1 1,1 1,0 1,0 2,0 0,0 0,1 1,1z"/>
  <polygon class="fil33" points="1737,486 1746,486 1746,489 1734,489 1734,470 1746,470 1746,473 1737,473 1737,478 1746,478 1746,481 1737,481 "/>
  <path class="fil33" d="M1754 482l6 0 -3 -8 -3 8zm7 2l-8 0 -2 5 -3 0 8 -20 2 0 8 20 -3 0 -2 -5z"/>
  <path class="fil33" d="M1771 479l4 0c2,0 3,-1 3,-3 0,-2 -1,-3 -3,-3l-5 0 0 16 -2 0 0 -19 7 0c4,0 6,3 6,6 0,3 -2,5 -5,6l6 7 -4 0 -7 -8 0 -2z"/>
  <polygon class="fil33" points="1789,489 1789,472 1783,472 1783,470 1798,470 1798,472 1792,472 1792,489 "/>
  <polygon class="fil33" points="1803,478 1811,478 1811,470 1814,470 1814,489 1811,489 1811,481 1803,481 1803,489 1800,489 1800,470 1803,470 "/>
  <path class="fil89" d="M1724 865c0,0 8,21 16,34 0,1 2,1 2,1 4,-2 4,-4 4,-4 0,0 -11,-28 -16,-33 -4,-5 -6,2 -6,2z"/>
  <path class="fil89" d="M1743 896c1,-1 1,-1 2,-1 5,-1 12,-2 17,-2 5,-1 9,-1 13,-1 2,0 0,4 -2,4 -8,2 -21,7 -30,6 -2,-1 -3,-2 -3,-3 1,-1 2,-2 3,-3z"/>
  <polygon class="fil89" points="1772,892 1776,889 1788,890 1788,891 1787,894 1780,897 1774,897 1772,896 "/>
  <path class="fil81" d="M1770 887l16 13c1,1 2,1 3,0l9 -7c0,0 1,-1 0,-1 -4,-3 -24,-11 -26,-9 -3,2 -2,4 -2,4z"/>
  <path class="fil62" d="M1792 894c0,-1 2,-2 3,-2 0,0 2,1 2,1l-7 5c0,0 0,-1 0,-2 0,-1 1,-2 2,-2z"/>
  <polygon class="fil108" points="1771,883 1789,897 1800,889 1783,876 "/>
  <path class="fil51" d="M1771 865l-24 0c-2,0 -4,-2 -4,-5l0 -12c0,-3 2,-4 4,-4l0 -10 8 9 16 0c3,0 5,2 5,5l0 12c0,3 -2,5 -5,5z"/>
  <path class="fil8" d="M1760 849c-1,1 -1,3 -2,4l0 2 4 0 0 -2c-1,-1 -1,-3 -2,-4l0 0zm-6 11l5 -13 2 0 5 13 -2 0 -1 -4 -6 0 -2 4 -1 0z"/>
  <path class="fil83" d="M1779 814l23 0c3,0 6,3 6,6l0 12c0,3 -2,5 -4,5l0 9 -9 -9 -16 0c-3,0 -4,-2 -4,-5l0 -12c0,-3 1,-6 4,-6z"/>
  <path class="fil8" d="M1794 829l0 -3 -3 0 0 3 3 0zm2 -5l-3 0 0 2 2 0 0 4 -4 0 0 -4 1 0 0 -2 -2 0 0 -1 2 0 0 -2 1 0 0 0 0 2 3 0 0 1zm-7 7l7 0 0 -10 -7 0 0 10zm-1 -11l9 0 0 13 -1 0 0 -1 -7 0 0 1 -1 0 0 -13zm-3 13l0 -9c0,1 -1,2 -1,3 0,-1 -1,-1 -1,-1 2,-2 3,-5 4,-7l1 0c0,0 -1,2 -2,3l0 11 -1 0z"/>
  <path class="fil89" d="M1838 855c0,0 -10,24 -19,37 -1,1 -2,2 -4,1 -4,-3 -4,-5 -4,-5 0,0 13,-32 19,-37 5,-5 8,4 8,4z"/>
  <path class="fil89" d="M1820 887c0,-1 -2,-3 -3,-5 -3,-5 -7,-10 -11,-16 -4,-4 -7,-8 -11,-11 -2,-2 -3,3 -2,5 6,9 12,25 21,32 2,1 5,1 6,-1 1,-1 1,-2 0,-4z"/>
  <path class="fil90" d="M1844 826c0,9 -17,18 -19,18 -3,0 -5,-9 -5,-18 0,-8 5,-14 11,-14 8,0 13,3 13,14z"/>
  <path class="fil90" d="M1839 850c0,-2 6,1 5,0 -5,-5 -4,-13 -1,-19l-14 4c0,3 -1,4 -1,8 3,0 2,6 2,8l9 -1z"/>
  <path class="fil109" d="M1844 1023l0 5c0,2 -2,4 -4,4l-25 0 0 0c0,-3 2,-5 4,-6l12 -3 13 0z"/>
  <path class="fil90" d="M1854 874c-9,18 -7,49 -16,49 -10,0 -11,-28 -17,-50 0,-21 10,-26 20,-26 7,3 13,6 13,27z"/>
  <polygon class="fil110" points="1827,921 1825,970 1827,977 1831,1023 1842,1023 1841,970 1853,921 1849,913 "/>
  <path class="fil12" d="M1827 921l4 53 3 6 6 43 13 0 -4 -50c0,0 -3,-27 3,-39 3,-4 1,-14 1,-14l-26 1z"/>
  <path class="fil64" d="M1853 921c-7,-18 1,-36 1,-47 0,-20 -5,-23 -12,-26 -4,3 -9,5 -15,4 -3,4 -6,10 -6,21 4,15 4,38 6,48l26 0z"/>
  <path class="fil81" d="M1834 825c0,0 1,-1 2,-1 4,1 1,6 2,8 0,3 2,4 3,6 4,-5 6,-13 4,-19l0 -1c-2,-4 -6,-6 -10,-6 -3,-1 -7,0 -10,2 -4,3 -5,7 -5,11 0,-1 1,-2 2,-2 2,-1 4,-1 6,-3l1 -1c-1,3 -1,6 0,8 1,1 1,2 2,2 0,1 1,1 1,1 0,-2 0,-3 1,-4 0,0 0,-1 1,-1z"/>
  <path class="fil90" d="M1842 862c0,0 5,28 4,44 -7,0 -9,-2 -9,-2 0,0 -6,-33 -4,-41 1,-7 9,-1 9,-1z"/>
  <path class="fil90" d="M1844 901c-2,-1 -4,-2 -5,-2 -7,-3 -13,-5 -19,-6 -5,-2 -10,-3 -16,-4 -3,0 -1,5 2,5 10,4 24,14 36,14 2,0 4,-1 4,-3 0,-1 -1,-3 -2,-4z"/>
  <path class="fil111" d="M1831 860c2,-4 6,-6 10,-3 4,3 4,17 4,17l-13 3c0,0 -3,-13 -1,-17z"/>
  <polygon class="fil90" points="1804,889 1800,887 1792,887 1791,888 1796,889 1788,889 1788,890 1787,891 1794,893 1789,892 1789,893 1797,896 1803,895 1806,894 "/>
  <path class="fil3" d="M1853 1023l1 5c0,2 -2,4 -5,4l-24 0 0 0c0,-3 1,-5 4,-6l11 -3 13 0z"/>
  <path class="fil90" d="M1803 892l2 0 0 -3 -5 -3 -1 1c2,2 3,3 4,5z"/>
  <path class="fil89" d="M1793 846c0,-1 -1,-1 -2,0 0,0 0,1 0,2 0,0 0,4 1,4l2 0c0,-2 0,-4 -1,-6 0,0 0,0 0,0z"/>
  <path class="fil89" d="M1798 857l-2 -4c0,-1 -1,-1 -2,-2l-6 1c-1,0 -2,0 -2,2l0 3c0,0 2,3 3,4l4 -1 1 2 4 -5z"/>
  <path class="fil90" d="M1716 831c0,8 16,16 18,16 3,0 5,-8 5,-16 0,-8 -5,-13 -11,-13 -7,0 -12,2 -12,13z"/>
  <path class="fil90" d="M1721 854c0,-2 -6,0 -5,-1 4,-4 4,-12 1,-18l13 4c0,3 1,4 1,7 -3,1 -4,6 -2,8l-8 0z"/>
  <path class="fil90" d="M1719 851c-2,1 -4,2 -6,3l0 0c-4,12 -3,23 0,35 0,1 -1,2 -2,2 4,15 4,32 11,32 9,0 8,-28 14,-48 0,-20 -8,-24 -17,-24z"/>
  <path class="fil89" d="M1718 1017l7 0 7 -44c0,0 2,-4 2,-6 -1,-2 -1,-7 -1,-15 2,-25 -2,-24 -1,-32 2,-8 -21,-7 -21,-7l-4 7 12 47 -1 50z"/>
  <path class="fil90" d="M1715 970l-5 47 7 -1 8 -42 3 -5c0,0 2,-19 1,-31 -1,-12 -4,-18 -4,-18l-18 0c0,0 -1,10 4,16 3,12 4,34 4,34z"/>
  <path class="fil12" d="M1709 869c0,4 1,15 2,18 2,9 2,18 -1,27 0,2 -1,4 -1,6l23 0c-2,-12 1,-24 4,-37 2,0 3,-3 4,-6 1,-1 0,-2 0,-4 -3,-4 -4,-8 -8,-16 0,0 -1,5 -8,1 -4,-2 -7,0 -9,3 -4,4 -5,3 -6,8z"/>
  <path class="fil23" d="M1707 920c0,0 -2,8 0,13 1,6 4,32 4,32l23 -3 1 -35 -3 -17 -21 -1 -4 11z"/>
  <path class="fil112" d="M1733 914l0 -3c-1,-1 -1,-1 -2,-1l-18 -1c-3,0 -5,2 -5,5 0,1 0,2 1,2l23 0c1,0 1,-1 1,-2z"/>
  <path class="fil90" d="M1726 871c-2,0 -5,-1 -7,-2 -1,0 -1,-1 -1,-2 0,0 -1,0 -1,0 -1,5 -4,26 -3,39 6,0 8,-2 8,-2 0,0 5,-22 5,-33 0,0 0,0 -1,0z"/>
  <path class="fil90" d="M1719 903c2,1 2,0 3,1 4,5 10,12 13,17 4,4 7,8 9,12 1,3 -4,3 -5,1 -7,-7 -21,-17 -25,-27 -1,-2 0,-4 1,-5 1,0 3,0 4,1z"/>
  <polygon class="fil90" points="1744,933 1747,936 1750,947 1749,948 1745,948 1741,942 1739,936 1739,934 "/>
  <path class="fil113" d="M1728 817c-6,0 -11,2 -15,7 -6,7 -8,17 -8,26 0,10 0,19 2,28l2 0c2,0 4,-2 4,-4 0,-2 -1,-3 -1,-4 1,-7 4,-13 7,-19 1,-2 2,-5 3,-7 1,-1 1,-2 1,-3 0,0 0,-1 -1,-2 0,-1 -2,-8 2,-7 1,0 3,2 4,1 0,0 1,0 1,-1 0,0 1,-1 2,-3 1,-2 3,-5 3,-5 1,0 3,2 4,4 0,-1 0,-2 0,-2 0,-6 -5,-8 -10,-9z"/>
  <path class="fil89" d="M1725 1016l-7 1 -2 3c0,1 0,2 0,2 0,1 1,3 4,3 3,0 4,1 5,3 1,0 5,3 10,4 1,0 3,-1 3,-2 -1,-1 -2,-1 -3,-2 -1,0 -11,-7 -10,-12z"/>
  <polygon class="fil112" points="1715,1032 1721,1032 1721,1027 1715,1027 "/>
  <path class="fil112" d="M1717 1018c0,0 -5,5 -2,9 3,0 5,-1 8,2 2,2 9,3 12,3 3,0 3,-1 3,-2 -1,-2 -5,-3 -5,-3 0,0 -1,1 -3,0 -2,-1 -7,-4 -10,-4 -2,0 -3,-3 -3,-5z"/>
  <path class="fil90" d="M1717 1016l-7 0 -2 4c0,1 -1,1 0,2 0,1 1,3 3,3 4,0 5,1 6,2 0,1 4,4 9,5 2,0 4,-1 3,-2 0,-1 -2,-1 -2,-2 -2,0 -11,-7 -10,-12z"/>
  <polygon class="fil114" points="1707,1032 1712,1032 1712,1027 1707,1027 "/>
  <path class="fil114" d="M1709 1018c0,0 -6,5 -2,9 2,0 5,-1 7,2 2,2 9,3 12,3 3,0 4,-1 3,-2 0,-2 -5,-3 -5,-3 0,0 -1,1 -3,0 -1,-1 -6,-4 -9,-4 -3,0 -4,-3 -3,-5z"/>
  <path class="fil23" d="M1725 876c1,1 2,1 2,1l1 1c0,0 0,-1 0,-1 2,-3 2,-6 0,-9 -2,-4 -8,-5 -12,-1 -2,2 -3,6 -2,9 2,0 4,-1 6,-1 2,0 4,1 5,1z"/>
 </g>
</svg>
