<?xml version="1.0" encoding="UTF-8"?>
<!DOCTYPE svg PUBLIC "-//W3C//DTD SVG 1.1//EN" "http://www.w3.org/Graphics/SVG/1.1/DTD/svg11.dtd">
<!-- Creator: CorelDRAW X8 -->
<svg xmlns="http://www.w3.org/2000/svg" xml:space="preserve" width="1000px" height="1000px" version="1.1" style="shape-rendering:geometricPrecision; text-rendering:geometricPrecision; image-rendering:optimizeQuality; fill-rule:evenodd; clip-rule:evenodd"
viewBox="0 0 1000 1000"
 xmlns:xlink="http://www.w3.org/1999/xlink">
 <defs>
  <style type="text/css">
   <![CDATA[
    .fil2 {fill:#DF2025;fill-rule:nonzero}
    .fil7 {fill:#E25055;fill-rule:nonzero}
    .fil4 {fill:#F1DAA5;fill-rule:nonzero}
    .fil0 {fill:#EEEDEC;fill-rule:nonzero}
    .fil8 {fill:#E9DDC3;fill-rule:nonzero}
    .fil3 {fill:#DCC58E;fill-rule:nonzero}
    .fil5 {fill:#D7D5D3;fill-rule:nonzero}
    .fil6 {fill:#BAB9B6;fill-rule:nonzero}
    .fil1 {fill:#A09B97;fill-rule:nonzero}
   ]]>
  </style>
 </defs>
 <g id="Слой_x0020_1">
  <metadata id="CorelCorpID_0Corel-Layer"/>
  <path class="fil0" d="M729 927l-538 0c-22,0 -39,-18 -39,-39l0 -758c0,-22 17,-40 39,-40l538 0c21,0 39,18 39,40l0 758c0,21 -18,39 -39,39z"/>
  <polygon class="fil1" points="185,175 735,175 735,165 185,165 "/>
  <polygon class="fil1" points="185,243 735,243 735,233 185,233 "/>
  <polygon class="fil1" points="185,310 735,310 735,300 185,300 "/>
  <polygon class="fil1" points="185,378 735,378 735,368 185,368 "/>
  <polygon class="fil1" points="185,445 735,445 735,436 185,436 "/>
  <polygon class="fil1" points="185,513 735,513 735,503 185,503 "/>
  <polygon class="fil1" points="185,581 735,581 735,571 185,571 "/>
  <polygon class="fil1" points="185,648 735,648 735,638 185,638 "/>
  <polygon class="fil1" points="185,716 735,716 735,706 185,706 "/>
  <polygon class="fil1" points="185,783 735,783 735,774 185,774 "/>
  <polygon class="fil1" points="185,851 735,851 735,841 185,841 "/>
  <polygon class="fil2" points="662,892 671,892 671,123 662,123 "/>
  <path class="fil1" d="M857 127l18 0 -6 -36c-1,-4 -5,-4 -5,-1l-7 37z"/>
  <path class="fil3" d="M889 800l0 -626c0,-4 -3,-8 -8,-8l-30 0c-5,0 -8,4 -8,8l0 626 46 0z"/>
  <path class="fil4" d="M867 166l-16 0c-5,0 -8,4 -8,8l0 626 24 0 0 -634z"/>
  <polygon class="fil5" points="843,884 889,884 889,744 843,744 "/>
  <polygon class="fil6" points="843,884 889,884 889,839 843,839 "/>
  <path class="fil7" d="M843 857l0 46c0,13 10,23 23,23 13,0 23,-10 23,-23l0 -46 -46 0z"/>
  <path class="fil8" d="M843 173l46 0 -17 -63c-1,-7 -10,-7 -12,0l-17 63z"/>
 </g>
</svg>
