<?xml version="1.0" encoding="UTF-8"?>
<!DOCTYPE svg PUBLIC "-//W3C//DTD SVG 1.1//EN" "http://www.w3.org/Graphics/SVG/1.1/DTD/svg11.dtd">
<!-- Creator: CorelDRAW X8 -->
<svg xmlns="http://www.w3.org/2000/svg" xml:space="preserve" width="1000px" height="1000px" version="1.1" style="shape-rendering:geometricPrecision; text-rendering:geometricPrecision; image-rendering:optimizeQuality; fill-rule:evenodd; clip-rule:evenodd"
viewBox="0 0 1000 1000"
 xmlns:xlink="http://www.w3.org/1999/xlink">
 <defs>
  <style type="text/css">
   <![CDATA[
    .fil0 {fill:#755946;fill-rule:nonzero}
    .fil5 {fill:#DBDBDB;fill-rule:nonzero}
    .fil4 {fill:#EA9794;fill-rule:nonzero}
    .fil2 {fill:#ED7D77;fill-rule:nonzero}
    .fil1 {fill:#EF615B;fill-rule:nonzero}
    .fil3 {fill:white;fill-rule:nonzero}
   ]]>
  </style>
 </defs>
 <g id="Слой_x0020_1">
  <metadata id="CorelCorpID_0Corel-Layer"/>
  <path class="fil0" d="M883 722c-3,-5 -1,-12 -3,-17l0 3c-1,3 -1,6 -2,10 -1,3 -3,6 0,10 3,3 18,6 20,1 -6,0 -12,-1 -15,-7z"/>
  <path class="fil1" d="M861 777c0,-5 -2,-30 10,-41 6,-6 11,-1 20,-1 8,0 11,-5 16,-2 18,12 14,44 14,44l-60 0z"/>
  <path class="fil1" d="M861 777c0,7 -7,45 28,46 41,2 32,-46 32,-46l-60 0z"/>
  <path class="fil0" d="M919 778c0,18 -13,32 -28,32 -15,0 -27,-14 -27,-32 0,-17 12,-32 27,-32 15,0 28,15 28,32z"/>
  <path class="fil1" d="M352 219c0,-9 -9,-60 38,-61 54,-2 42,61 42,61l-80 0z"/>
  <path class="fil1" d="M352 219c0,9 -9,60 38,62 54,2 42,-62 42,-62l-80 0z"/>
  <path class="fil0" d="M429 219c0,27 -16,48 -36,48 -20,0 -37,-21 -37,-48 0,-27 17,-48 37,-48 20,0 36,21 36,48z"/>
  <path class="fil2" d="M369 255c5,7 9,12 25,12 11,0 18,-6 23,-12 -3,-1 -8,-4 -15,-3 -8,2 -20,0 -25,1 -6,0 -8,1 -8,2z"/>
  <path class="fil3" d="M392 170c-7,0 -14,4 -20,10 16,-1 26,0 40,0 0,0 1,0 2,0 -6,-6 -14,-10 -22,-10z"/>
  <path class="fil4" d="M395 254c-1,0 -4,-1 -5,0 -1,1 0,1 0,2 0,0 1,1 1,1 0,1 0,4 2,4 1,1 1,0 1,-1 1,-1 1,-1 1,-2 1,-1 2,-3 0,-4z"/>
  <path class="fil0" d="M222 185c-10,-6 -22,-10 -33,-13 -19,-4 -37,-4 -55,-4 -7,0 -14,1 -21,1 -3,0 -8,-1 -11,-1l1 0c-8,-1 -16,3 -23,5 -6,1 -13,2 -19,4 -8,2 -23,10 -18,21 3,8 8,14 14,21 10,13 25,23 42,26 25,5 50,5 75,0 6,-1 12,-2 16,-5 4,-2 6,-6 9,-8 4,-4 8,-7 11,-11 5,-7 12,-13 17,-20 4,-6 1,-13 -5,-16z"/>
  <path class="fil2" d="M96 223c10,8 19,10 44,10 18,0 34,-4 44,-12 -1,-7 -22,-14 -33,-11 -12,3 -27,-1 -34,1 -9,2 -19,5 -21,12z"/>
  <path class="fil3" d="M213 180c0,0 -13,-5 -15,-5 -1,-1 -63,-9 -63,-9 0,0 -62,8 -64,9 -1,0 -14,5 -14,5 0,0 -3,16 0,18 2,2 6,-1 32,-3 28,-2 46,-2 46,-2 0,0 17,0 46,2 26,2 30,5 32,3 3,-2 0,-18 0,-18z"/>
  <path class="fil5" d="M213 177c0,0 -13,-3 -15,-4 -1,0 -63,-5 -63,-5 0,0 -62,5 -64,5 -1,1 -14,4 -14,4 0,0 -3,11 0,12 2,2 6,1 31,-3 32,-5 65,-5 95,0 25,4 28,5 30,3 3,-1 0,-12 0,-12z"/>
  <path class="fil1" d="M230 191c-1,-6 -18,-19 -42,-25 -24,-7 -53,-7 -53,-7 0,0 -28,0 -52,7 -24,6 -42,19 -42,25 -1,5 4,0 4,0 0,-4 22,-10 45,-13 23,-3 45,-3 45,-3 0,0 23,0 46,3 23,3 45,9 45,13 0,0 5,5 4,0z"/>
  <path class="fil3" d="M214 210c0,0 -14,8 -29,10 -14,2 -50,2 -50,2 0,0 -36,0 -48,-1 -14,-2 -29,-10 -29,-10l31 32 46 3 0 0 0 0 3 0 0 0 46 -4 30 -32z"/>
  <path class="fil1" d="M231 192c-1,-6 -5,-1 -5,-1 1,8 -29,40 -46,45 -17,5 -73,5 -89,0 -17,-5 -47,-37 -46,-45 0,0 -4,-7 -4,1 -1,8 22,47 42,58 20,12 53,13 53,13l0 0c3,0 33,-2 52,-13 20,-11 44,-50 43,-58z"/>
  <path class="fil0" d="M38 188c0,-6 5,-8 4,-10 -2,-3 -6,1 -7,3 -2,3 -4,17 3,17 2,-1 -1,-2 0,-10z"/>
  <path class="fil0" d="M237 185c0,-3 -1,-5 -3,-7 -1,-1 -2,-2 -3,-2l0 0c0,0 0,0 0,0 -1,0 -1,0 -2,1 -1,1 0,2 1,4 0,0 0,1 0,2 2,2 4,4 4,7 1,4 0,7 0,10 0,1 -1,3 0,4 1,1 2,-1 3,-2 2,-5 1,-12 0,-17z"/>
  <path class="fil0" d="M229 753c-1,-2 -2,-6 -5,-6 -2,1 -2,2 -2,3 -2,4 4,11 5,14 1,2 1,6 3,8 2,3 3,-1 3,-4 1,-5 -2,-10 -4,-15z"/>
  <path class="fil0" d="M40 768c-1,3 0,8 4,6 3,-1 3,-6 3,-8 1,-3 2,-6 4,-9 2,-2 6,-4 6,-7 -9,-4 -19,14 -17,22l0 -4z"/>
  <path class="fil0" d="M216 760c-9,-5 -19,-8 -29,-11 -16,-3 -107,5 -113,6 -17,5 -26,9 -3,32 10,10 22,19 37,21 22,4 44,5 66,0 23,-5 42,-30 46,-36 4,-5 2,-10 -4,-12z"/>
  <path class="fil2" d="M178 767c-9,-4 -18,-4 -28,-4 -12,0 -25,0 -37,1 -3,0 -5,0 -8,0 -1,0 -3,2 -5,1l-3 3c-5,4 1,9 5,11 7,3 16,2 24,2 13,1 27,1 41,0 4,0 12,1 15,-2 4,-5 1,-10 -4,-12z"/>
  <path class="fil3" d="M209 756c0,0 -12,-4 -13,-5 -1,0 -58,-5 -58,-5 0,0 -55,5 -57,5 -1,1 -13,5 -13,5 0,0 -2,14 0,15 2,2 7,1 30,0 28,-2 55,-3 81,-1 23,2 28,3 30,1 2,-1 0,-15 0,-15z"/>
  <path class="fil5" d="M209 756c0,0 -12,-3 -13,-3 -1,0 -57,-5 -57,-5 0,0 -56,5 -58,5 -1,0 -13,3 -13,3 0,0 -2,9 0,11 2,1 5,0 28,-3 29,-4 59,-4 86,0 23,4 25,4 27,3 2,-2 0,-11 0,-11z"/>
  <path class="fil1" d="M225 765c-1,-5 -18,-11 -39,-17 -22,-6 -66,-4 -93,0 -23,3 -38,12 -39,16 0,5 3,1 3,1 1,-3 20,-5 41,-7 21,-3 62,-3 83,0 21,2 39,4 40,7 0,0 4,5 4,0z"/>
  <path class="fil3" d="M214 778c0,0 -15,1 -30,2 -13,0 -76,0 -86,0 -16,-1 -30,-1 -30,-1l31 26 41 3 0 0 0 0 3 0 0 -1 41 -3 30 -26z"/>
  <path class="fil1" d="M222 763c-7,10 -22,29 -34,33 -16,4 -78,5 -93,1 -13,-4 -31,-25 -39,-36 0,0 -2,4 -2,5 9,13 21,35 34,42 19,10 51,9 51,9 3,0 40,1 58,-9 13,-7 24,-35 28,-42 0,0 -3,-3 -3,-3z"/>
  <path class="fil0" d="M718 185c-10,-5 -22,-9 -33,-11 -17,-4 -35,-5 -53,-5 -6,0 -13,1 -19,2 -3,0 -8,-1 -11,-1l1 -1c-7,0 -15,4 -22,5 -6,1 -12,3 -18,4 -8,2 -23,9 -18,19 3,7 9,13 14,19 10,12 24,21 40,24 24,5 48,5 72,0 5,-1 11,-2 16,-5 3,-2 5,-5 8,-7 4,-3 8,-6 11,-10 5,-7 11,-12 16,-18 4,-6 1,-12 -4,-15z"/>
  <path class="fil2" d="M675 191c-9,-4 -20,-3 -30,-3 -14,0 -28,1 -41,2 -3,1 -5,1 -8,1 -2,0 -4,2 -5,1l-4 4c-5,4 2,10 6,12 8,3 18,2 26,2 15,0 30,0 45,-2 4,-1 13,0 16,-4 5,-5 1,-11 -5,-13z"/>
  <path class="fil3" d="M710 181c0,0 -13,-5 -15,-5 -1,-1 -62,-9 -62,-9 0,0 -61,8 -63,9 -1,0 -14,5 -14,5 0,0 -3,15 0,17 2,3 7,1 32,0 31,-3 60,-3 89,-1 25,2 30,4 33,1 2,-2 0,-17 0,-17z"/>
  <path class="fil5" d="M710 178c0,0 -13,-3 -15,-4 -1,0 -62,-5 -62,-5 0,0 -61,5 -63,5 -1,1 -14,4 -14,4 0,0 -3,11 0,12 2,1 5,1 31,-3 31,-5 64,-5 93,0 25,4 27,4 30,3 2,-1 0,-12 0,-12z"/>
  <path class="fil1" d="M727 191c-1,-5 -19,-18 -42,-24 -24,-7 -52,-7 -52,-7 0,0 -28,0 -51,7 -24,6 -40,18 -41,23 0,5 3,1 3,1 0,-4 21,-9 44,-12 23,-3 45,-3 45,-3 0,0 22,0 45,3 23,3 44,8 44,12 0,0 5,4 5,0z"/>
  <path class="fil3" d="M715 203c0,0 -16,2 -32,3 -14,0 -83,0 -95,0 -17,-1 -33,-1 -33,-1l34 29 45 3 0 0 0 0 4 0 0 0 45 -4 32 -30z"/>
  <path class="fil1" d="M724 187c-8,12 -31,32 -45,37 -17,5 -75,5 -91,0 -14,-5 -37,-25 -45,-37 0,0 -2,5 -2,6 10,14 24,37 39,45 20,11 54,12 54,12 3,0 34,-1 53,-12 15,-8 37,-37 39,-46 1,0 -2,-5 -2,-5z"/>
  <path class="fil0" d="M537 192c0,-5 2,-8 0,-9 -2,-2 -4,2 -4,4 0,3 2,14 7,12 2,-1 -3,-7 -3,-7z"/>
  <path class="fil0" d="M733 187c0,-2 -1,-3 -2,-5 0,0 -1,-1 -2,-1l0 0c0,0 0,0 0,0 0,-1 -1,-1 -1,0 -1,1 -1,2 0,2 0,1 0,1 0,2 1,2 2,3 2,5 0,3 -1,5 -2,7 0,1 0,2 0,2 1,1 2,0 2,-1 2,-3 3,-7 3,-11z"/>
  <path class="fil0" d="M692 475c-17,-4 -35,-6 -53,-6 -21,0 -41,5 -58,17 -11,7 -26,25 -26,25 1,11 37,6 43,6 34,0 68,1 102,0 9,0 28,2 35,-3 7,-5 -28,-35 -43,-39z"/>
  <path class="fil1" d="M740 514c1,4 -16,7 -42,6 -35,-2 -61,-3 -101,-1 -25,2 -44,-1 -45,-5 -1,-4 187,-8 188,0z"/>
  <path class="fil3" d="M717 496c0,0 -11,-10 -12,-10 -2,0 -60,-9 -60,-9 0,0 -61,9 -62,10 -1,0 -10,9 -10,9 0,0 -4,12 -2,14 3,3 4,2 30,0 31,-2 58,-2 87,0 25,2 28,1 31,-1 2,-2 -2,-13 -2,-13z"/>
  <path class="fil5" d="M716 492c0,0 -11,-6 -12,-6 -2,0 -58,-8 -58,-8 0,0 -56,6 -57,6 -4,3 -15,8 -15,8 0,0 -4,11 -3,12 0,0 3,-4 29,-8 31,-5 64,-5 93,0 25,4 26,5 26,5l-3 -9z"/>
  <path class="fil1" d="M737 516c-8,-12 -31,-26 -45,-30 -18,-5 -78,-4 -94,1 -14,4 -34,14 -42,26 0,0 -4,2 -4,1 4,-16 26,-31 41,-39 20,-12 85,-12 104,-2 15,9 40,29 43,41 0,0 -3,2 -3,2z"/>
  <path class="fil0" d="M939 188c-10,-6 -12,-17 -22,-20 -17,-5 -33,-5 -50,-5 -7,0 -13,1 -19,1 -3,1 -7,-1 -10,-1l1 0c-7,-1 -14,4 -21,5 -5,2 -8,11 -13,13 -8,3 -17,13 -21,26 -3,6 8,6 13,13 10,15 23,26 38,30 23,6 46,5 68,0 5,-1 11,-2 15,-6 3,-3 5,-6 8,-9 3,-4 14,-10 17,-15 4,-8 7,-8 11,-16 2,-5 -10,-12 -15,-16z"/>
  <path class="fil3" d="M935 181c0,0 -6,-7 -7,-7 -2,-1 -59,-8 -59,-8 0,0 -58,7 -59,8 -2,0 -7,12 -7,12 0,0 -9,7 -7,9 2,2 6,1 31,-1 29,-2 56,-2 83,0 24,2 29,3 31,1 3,-2 -6,-14 -6,-14z"/>
  <path class="fil5" d="M935 181c0,0 -6,-8 -7,-8 -2,-1 -59,-6 -59,-6 0,0 -58,5 -59,6 -2,0 -6,6 -6,6 0,0 -10,7 -8,8 2,2 5,1 29,-3 30,-4 61,-4 88,0 24,4 26,5 28,3 3,-1 -6,-6 -6,-6z"/>
  <path class="fil1" d="M954 208c-8,-11 -29,-31 -42,-35 -16,-5 -73,-3 -88,2 -13,4 -34,23 -41,34 0,0 -3,-5 -3,-5 9,-14 25,-32 39,-39 19,-11 80,-11 98,-1 14,8 36,32 39,39 1,0 -2,5 -2,5z"/>
  <path class="fil2" d="M826 224c10,7 19,10 43,10 18,0 33,-5 43,-12 -1,-8 -21,-14 -32,-11 -12,3 -26,-1 -34,1 -8,2 -17,5 -20,12z"/>
  <path class="fil3" d="M929 219c0,0 1,-1 -15,-1 -13,0 -78,0 -89,0 -16,0 -19,0 -19,0l-3 12 65 18 0 0 0 0 4 0 0 0 63 -18 -6 -11z"/>
  <path class="fil1" d="M954 200c-7,11 -30,31 -43,35 -17,5 -71,5 -86,0 -13,-4 -35,-23 -42,-34 0,0 -4,4 -3,4 9,14 23,36 37,44 19,10 51,11 51,11l0 0c3,0 32,-1 51,-11 14,-8 34,-38 38,-45 0,-1 -3,-4 -3,-4z"/>
  <path class="fil0" d="M384 723c0,3 -3,6 -3,8 1,3 5,4 8,4 4,0 13,1 17,-2 -8,0 -22,0 -22,-10z"/>
  <path class="fil0" d="M312 763c-8,5 -8,28 1,30 9,1 0,-10 -1,-12 -2,-5 -1,-11 2,-14 2,-2 4,-2 4,-3 0,-3 -5,-2 -6,-1z"/>
  <path class="fil0" d="M481 764c1,1 2,2 6,4 3,4 3,8 2,12 -1,3 -10,15 -2,13 10,-2 10,-24 1,-30 -2,0 -7,-2 -7,1z"/>
  <path class="fil0" d="M466 765c-9,-6 -11,-15 -21,-17 -16,-5 -32,-5 -48,-5 -6,0 -12,1 -18,1 -2,1 -6,-1 -9,-1l1 0c-7,0 -14,3 -20,5 -5,1 -8,9 -13,11 -7,2 -16,7 -20,19 -2,5 8,9 13,15 9,13 21,23 36,26 22,5 44,5 65,0 5,-1 10,-2 14,-5 3,-2 5,-5 8,-8 3,-4 13,-9 16,-13 4,-7 7,-7 10,-14 2,-5 -9,-10 -14,-14z"/>
  <path class="fil3" d="M468 761c0,0 -12,-5 -13,-5 -1,0 -56,-7 -56,-7 0,0 -55,7 -56,7 -1,0 -13,5 -13,5 0,0 -2,14 0,16 2,2 6,1 29,-1 28,-2 54,-3 80,-1 22,2 27,4 29,2 2,-2 0,-16 0,-16z"/>
  <path class="fil5" d="M469 763c0,0 -13,-8 -14,-8 -1,0 -56,-5 -56,-5 0,0 -55,5 -56,5 -1,0 -14,9 -14,9 0,0 0,5 0,6 2,1 6,0 29,-4 28,-4 57,-4 83,0 23,4 26,5 28,3l0 -6z"/>
  <path class="fil1" d="M480 779c-7,-11 -19,-19 -32,-22 -16,-5 -83,-5 -98,-1 -12,4 -26,13 -33,24 0,0 -2,-4 -2,-5 8,-13 22,-22 35,-30 18,-10 81,-10 98,-1 13,8 31,23 35,31 0,0 -3,4 -3,4z"/>
  <path class="fil3" d="M469 780c0,0 -5,0 -22,0 -14,0 -83,0 -95,0 -16,0 -22,0 -22,0l0 12 27 17 42 -1 0 0 -30 1 33 0 0 -1 52 -4 15 -12 0 -12z"/>
  <path class="fil1" d="M481 772c-8,10 -14,21 -27,25 -15,4 -90,5 -105,0 -13,-4 -25,-14 -32,-25 0,0 -3,4 -3,4 9,14 20,31 34,39 18,10 51,8 51,8 0,0 36,0 53,-9 14,-8 28,-32 31,-39 0,0 -2,-3 -2,-3z"/>
  <path class="fil0" d="M668 732c-8,-1 -45,-3 -53,3 -55,39 -64,43 -48,54 10,6 21,11 32,14 14,4 73,11 91,4 11,-4 47,-21 48,-27 2,-7 -49,-45 -70,-48z"/>
  <path class="fil3" d="M688 794c-14,-2 -63,-1 -72,0 -5,1 -19,3 -22,6l51 18 67 -17c-6,-4 -16,-7 -24,-7z"/>
  <path class="fil1" d="M742 779c-1,-5 -4,0 -4,0 1,6 -35,19 -52,23 -16,4 -53,5 -68,2 -16,-4 -59,-19 -58,-25 0,0 -3,-3 -4,0 -1,5 34,28 53,36 19,8 62,12 86,0 19,-10 48,-31 47,-36z"/>
  <path class="fil3" d="M724 763c0,0 -10,-13 -12,-13 -1,0 -61,-20 -61,-20 0,0 -62,20 -63,20 -2,0 -8,10 -8,10 0,0 -9,11 -7,13 2,2 7,1 32,-1 32,-2 61,-3 89,-1 25,2 31,4 33,2 2,-2 -3,-10 -3,-10z"/>
  <path class="fil5" d="M720 757c0,0 -6,-8 -8,-8 -1,0 -61,-21 -61,-21 0,0 -62,21 -63,21 -2,0 -7,7 -7,7 0,0 -10,7 -8,8 2,2 7,-3 32,-7 31,-5 66,-4 95,1 25,4 25,8 27,6 2,-1 -7,-7 -7,-7z"/>
  <path class="fil1" d="M739 783c-8,-12 -50,-38 -63,-43 -18,-5 -38,-3 -54,2 -14,4 -55,30 -63,42 0,0 -4,-5 -3,-5 9,-15 44,-44 59,-52 20,-11 51,-10 71,1 14,8 52,41 56,49 0,1 -3,6 -3,6z"/>
  <path class="fil0" d="M188 463c-17,-5 -89,-2 -89,-2 -7,-1 -49,27 -51,41 -1,3 38,39 54,43 24,5 48,5 72,-1 5,-1 39,-25 42,-30 4,-7 7,-7 11,-16 2,-5 -28,-32 -39,-35z"/>
  <path class="fil2" d="M92 518c11,8 21,10 46,10 19,0 35,-4 46,-12 -2,-7 -9,-40 -47,-36 -47,4 -42,31 -45,38z"/>
  <path class="fil3" d="M201 513c0,0 1,-1 -16,0 -14,0 -82,0 -94,0 -16,-1 -20,0 -20,0l-3 12 69 17 0 0 0 0 4 1 0 -1 67 -17 -7 -12z"/>
  <path class="fil1" d="M228 495c-8,11 -32,31 -46,35 -17,5 -75,5 -91,0 -14,-4 -36,-24 -44,-35 0,0 -4,4 -3,5 9,14 24,35 39,43 20,11 54,12 54,12 3,0 34,-2 53,-12 15,-8 37,-37 40,-45 0,0 -2,-3 -2,-3z"/>
  <path class="fil3" d="M211 480c0,0 -10,-11 -11,-12 -2,0 -63,-8 -63,-8 0,0 -60,8 -62,8 -1,1 -8,10 -8,10 0,0 -9,10 -6,12 2,2 7,1 32,-1 31,-2 60,-3 88,-1 25,2 31,4 33,2 2,-2 -3,-10 -3,-10z"/>
  <path class="fil5" d="M207 475c0,0 -6,-8 -7,-8 -2,0 -63,-8 -63,-8 0,0 -60,8 -62,8 -1,0 -6,7 -6,7 0,0 -11,7 -8,8 2,1 6,-4 31,-7 32,-5 66,-4 95,1 25,4 25,7 27,6 2,-1 -7,-7 -7,-7z"/>
  <path class="fil1" d="M227 502c-8,-11 -30,-32 -44,-36 -17,-5 -73,-5 -89,0 -14,4 -39,26 -47,37 0,0 -3,-4 -3,-5 10,-13 27,-31 41,-39 20,-11 85,-10 104,0 15,7 37,31 41,39 0,0 -3,4 -3,4z"/>
  <path class="fil0" d="M135 443c-5,-2 -9,-5 -9,-11 -2,2 -4,7 -4,7 -6,11 24,8 29,8 -3,-3 -11,-2 -16,-4z"/>
  <path class="fil1" d="M490 497c-1,4 -18,7 -45,10 -35,4 -72,2 -104,1 -26,0 -45,-7 -45,-11 -1,-5 194,-4 194,0z"/>
  <path class="fil1" d="M492 496c-1,-5 -21,-10 -46,-9 -36,1 -79,0 -111,0 -26,0 -41,4 -42,9 -1,4 200,4 199,0z"/>
  <path class="fil0" d="M292 495c0,-2 203,6 202,2 0,-4 -203,4 -202,-2z"/>
  <path class="fil0" d="M291 489c2,-5 -3,-4 -5,1 -1,4 -1,10 3,12 3,1 1,-1 1,-1 -2,-3 0,-10 1,-12z"/>
  <path class="fil0" d="M494 489c-3,-5 3,-4 5,0 2,4 3,10 -1,13 -3,1 -1,-1 -1,-1 2,-3 -2,-10 -3,-12z"/>
  <path class="fil0" d="M965 463c-2,-5 -4,-11 -10,-11 -5,1 1,7 2,9 2,2 4,5 4,8 0,5 0,5 -1,6 0,2 0,5 2,4 2,-1 3,-4 3,-6 0,-4 0,-7 0,-10z"/>
  <path class="fil0" d="M781 464c1,-5 3,-12 8,-12 6,-1 1,7 0,8 -2,3 -4,6 -4,9 0,5 1,5 2,7 1,2 0,4 -2,4 -2,-1 -3,-4 -3,-7 -1,-3 -1,-6 -1,-9z"/>
  <path class="fil0" d="M945 465c-6,-2 -12,0 -18,1 -9,1 -19,2 -28,2 -16,0 -32,0 -48,0 -8,0 -15,-1 -23,-2 -6,-2 -13,-3 -20,-2 -2,0 -12,1 -12,2l-1 0c-4,3 -3,9 0,12 3,6 5,11 8,16 11,19 30,35 52,38 12,2 25,1 36,-1 8,-2 18,-3 24,-7 2,-2 5,-4 7,-6 3,-4 8,-6 10,-10 3,-5 7,-10 10,-15 5,-8 15,-22 3,-28z"/>
  <path class="fil3" d="M944 470c0,0 -13,-4 -14,-4 -2,0 -58,2 -58,2 0,0 -57,-2 -59,-2 -1,0 -13,5 -13,5 0,0 -1,10 1,11 1,1 36,6 70,7 36,0 70,-5 71,-6 2,-2 2,-13 2,-13z"/>
  <path class="fil5" d="M945 465c0,0 -14,0 -15,0 -2,0 -58,5 -58,5 0,0 -57,-5 -59,-5 -1,0 -13,1 -13,1 0,0 -2,9 1,10 2,1 44,7 71,7 27,0 70,-6 72,-7 2,-1 1,-11 1,-11z"/>
  <path class="fil2" d="M840 512c9,6 17,8 38,8 15,0 28,-3 37,-10 -1,-6 -18,-12 -28,-9 -10,2 -23,-1 -29,0 -7,2 -16,5 -18,11z"/>
  <path class="fil3" d="M941 501c0,0 -13,6 -25,8 -12,1 -43,2 -43,2 0,0 -30,0 -40,-2 -12,-1 -25,-7 -25,-7l26 26 39 3 0 0 0 0 3 0 0 0 39 -3 26 -27z"/>
  <path class="fil1" d="M953 471c0,-8 -3,0 -3,0 0,9 -24,43 -38,48 -14,6 -64,6 -77,0 -15,-5 -41,-40 -40,-48 0,0 -3,-8 -4,0 0,8 20,48 36,59 17,12 45,12 45,12 0,0 31,0 47,-11 17,-11 35,-52 34,-60z"/>
  <path class="fil1" d="M940 461c-26,1 -32,4 -68,4 -35,0 -42,-4 -66,-4 -18,1 -17,9 -13,14 3,3 0,-7 7,-7 7,-1 46,7 72,6 27,0 66,-6 72,-6 7,1 5,10 8,7 4,-5 4,-15 -12,-14z"/>
  <path class="fil0" d="M118 309l-2 -8 0 0 -2 8 4 0zm-4 3l-1 4c0,1 -1,2 -2,2 -1,0 -2,-1 -2,-2 0,0 0,-1 0,-1l4 -16c0,-2 1,-3 3,-3 2,0 3,1 3,3l4 16c0,0 0,1 0,1 0,1 -1,2 -2,2 -1,0 -2,-1 -2,-3l-1 -3 -4 0z"/>
  <path class="fil0" d="M127 314c2,0 2,1 2,2 0,3 -2,5 -4,5 0,0 0,0 0,0 0,-1 0,-1 0,-1 1,0 2,-1 2,-2 0,0 0,0 0,0 -2,0 -2,-1 -2,-2 0,-1 1,-2 2,-2z"/>
  <path class="fil0" d="M136 314l6 0c1,0 2,1 2,2 0,1 -1,2 -2,2l-8 0c-1,0 -2,-1 -2,-3l0 -16c0,-2 1,-2 2,-2l8 0c1,0 2,1 2,2 0,1 -1,1 -2,1l-6 0 0 5 5 0c2,0 2,1 2,2 0,1 0,2 -2,2l-5 0 0 5z"/>
  <path class="fil0" d="M148 314c2,0 2,1 2,2 0,3 -2,5 -3,5 -1,0 -1,0 -1,0 0,-1 0,-1 1,-1 0,0 1,-1 2,-2 -1,0 -1,0 -1,0 -2,0 -2,-1 -2,-2 0,-1 1,-2 2,-2z"/>
  <path class="fil0" d="M153 298c0,-1 1,-2 2,-2 1,0 2,1 2,2l0 18c0,1 -1,2 -2,2 -1,0 -2,-1 -2,-2l0 -18z"/>
  <path class="fil0" d="M394 313c0,5 0,5 2,5 2,0 2,0 2,-5l0 -5c0,-4 0,-5 -2,-5 -2,0 -2,1 -2,5l0 5zm-4 -5c0,-7 3,-8 6,-8 3,0 6,1 6,8l0 5c0,7 -2,8 -6,8 -4,0 -6,-1 -6,-8l0 -5z"/>
  <path class="fil0" d="M597 271c0,-7 2,-9 7,-9 4,0 6,2 6,5 0,1 -1,2 -2,2 -2,0 -2,0 -2,-2 0,-1 -1,-2 -2,-2 -2,0 -3,1 -3,7l0 1c0,5 1,8 3,8 1,0 2,-1 2,-3 0,-2 0,-3 2,-3 1,0 2,1 2,3 0,4 -3,6 -6,6 -6,0 -7,-5 -7,-9l0 -4z"/>
  <path class="fil0" d="M614 279c2,0 2,2 2,3 0,3 -2,5 -3,5 -1,0 -1,0 -1,-1 0,0 0,0 1,0 0,-1 1,-2 2,-3 -1,0 -1,0 -1,0 -2,0 -2,-1 -2,-2 0,-1 1,-2 2,-2z"/>
  <path class="fil0" d="M623 280l2 0c2,0 3,-1 3,-7l0 -1c0,-5 -1,-7 -3,-7l-2 0 0 15zm-4 -15c0,-2 1,-3 2,-3l5 0c4,0 6,3 6,9l0 3c0,6 -2,9 -6,9l-5 0c-1,0 -2,-1 -2,-2l0 -16z"/>
  <path class="fil0" d="M635 279c2,0 3,2 3,3 0,3 -3,5 -4,5 -1,0 -1,0 -1,-1 0,0 0,0 1,0 0,-1 2,-2 2,-3 -1,0 -1,0 -1,0 -1,0 -2,-1 -2,-2 0,-1 1,-2 2,-2z"/>
  <path class="fil0" d="M640 264c0,-1 1,-2 2,-2 2,0 2,0 3,2l5 11 0 0 0 -11c0,-1 1,-2 2,-2 1,0 2,1 2,2l0 17c0,2 -1,2 -2,2 -2,0 -3,0 -3,-1l-5 -12 0 0 0 11c0,2 -1,2 -2,2 -1,0 -2,0 -2,-2l0 -17z"/>
  <path class="fil0" d="M658 279c1,0 2,2 2,3 0,3 -2,5 -4,5 0,0 -1,0 -1,-1 0,0 1,0 1,0 1,-1 2,-2 2,-3 0,0 0,0 0,0 -2,0 -3,-1 -3,-2 0,-1 1,-2 3,-2z"/>
  <path class="fil0" d="M665 272c-2,-1 -3,-3 -3,-5 0,-3 3,-5 6,-5 5,0 6,3 6,5 0,1 -1,2 -2,2 -1,0 -1,-1 -2,-2 0,-2 -1,-2 -2,-2 -1,0 -2,1 -2,2 0,1 0,2 2,3l3 2c2,1 3,3 3,6 0,3 -2,6 -6,6 -5,0 -6,-5 -6,-6 0,-1 1,-3 2,-3 1,0 2,1 2,3 0,1 1,3 2,3 2,0 3,-2 3,-3 0,-1 -1,-2 -2,-3l-4 -3z"/>
  <path class="fil0" d="M678 279c2,0 2,2 2,3 0,3 -2,5 -4,5 0,0 0,0 0,-1 0,0 0,0 0,0 1,-1 2,-2 2,-3 0,0 0,0 0,0 -2,0 -2,-1 -2,-2 0,-1 1,-2 2,-2z"/>
  <path class="fil0" d="M614 297c2,0 2,1 2,2 0,1 0,1 -2,1l-3 0 0 16c0,1 -1,2 -2,2 -1,0 -2,-1 -2,-2l0 -16 -3 0c-1,0 -2,0 -2,-1 0,-1 1,-2 2,-2l10 0z"/>
  <path class="fil0" d="M618 314c1,0 2,1 2,2 0,3 -2,5 -4,5 0,0 -1,0 -1,0 0,-1 1,-1 1,-1 1,0 2,-1 2,-2 0,0 0,0 -1,0 -1,0 -2,-1 -2,-2 0,-1 1,-2 3,-2z"/>
  <path class="fil0" d="M626 307l-4 -7c0,-1 0,-1 0,-2 0,-1 1,-2 2,-2 1,0 2,1 2,2l2 5 3 -5c0,-1 1,-2 1,-2 2,0 2,1 2,2 0,1 0,1 0,1l-4 8 4 8c1,0 1,1 1,1 0,1 -1,2 -2,2 -1,0 -2,-1 -2,-2l-3 -5 -3 6c0,0 0,1 -1,1 -1,0 -2,-1 -2,-2 0,0 0,-1 0,-2l4 -7z"/>
  <path class="fil0" d="M639 314c1,0 2,1 2,2 0,3 -2,5 -4,5 0,0 0,0 0,0 0,-1 0,-1 0,-1 1,0 2,-1 2,-2 0,0 0,0 0,0 -2,0 -2,-1 -2,-2 0,-1 1,-2 2,-2z"/>
  <path class="fil0" d="M647 309l-4 -9c0,-1 0,-1 0,-2 0,-1 1,-2 2,-2 1,0 1,1 2,2l2 7 3 -7c0,-1 1,-2 2,-2 1,0 2,1 2,2 0,0 0,1 -1,1l-4 10 0 7c0,1 -1,2 -2,2 -1,0 -2,-1 -2,-2l0 -7z"/>
  <path class="fil0" d="M656 314c2,0 3,1 3,2 0,3 -3,5 -4,5 -1,0 -1,0 -1,0 0,-1 0,-1 1,-1 0,0 2,-1 2,-2 0,0 -1,0 -1,0 -1,0 -2,-1 -2,-2 0,-1 1,-2 2,-2z"/>
  <path class="fil0" d="M663 300c-1,0 -2,0 -2,-1 0,-1 1,-2 2,-2l9 0c1,0 2,0 2,2 0,0 0,1 -1,2l-8 13 7 0c1,0 2,1 2,2 0,1 -1,2 -2,2l-10 0c-1,0 -2,-1 -2,-2 0,-1 1,-1 1,-2l8 -14 -6 0z"/>
  <path class="fil0" d="M870 316c0,1 -1,2 -2,2 -1,0 -1,-1 -1,-2l0 0 0 0c-1,1 -3,2 -4,2 -5,0 -6,-4 -6,-10l0 -2c0,-7 2,-10 7,-10 4,0 6,3 6,5 0,2 -1,3 -2,3 -2,0 -2,-1 -2,-3 0,-1 -1,-2 -2,-2 -2,0 -3,1 -3,6l0 3c0,5 1,7 3,7 1,0 2,-2 2,-4l0 -2 -2 0c-1,0 -1,0 -1,-1 0,-1 0,-2 1,-2l4 0c1,0 2,1 2,2l0 8z"/>
  <path class="fil0" d="M873 314c2,0 3,1 3,2 0,3 -3,5 -4,5 -1,0 -1,0 -1,0 0,-1 0,-1 1,-1 0,0 2,-1 2,-2 -1,0 -1,0 -1,0 -1,0 -2,-1 -2,-2 0,-1 1,-2 2,-2z"/>
  <path class="fil0" d="M878 298c0,-1 1,-2 2,-2 1,0 2,1 2,2l0 8 0 0 5 -8c0,-1 1,-2 2,-2 1,0 2,1 2,2 0,1 -1,1 -1,2l-4 6 5 9c0,0 0,1 0,1 0,1 -1,2 -2,2 -1,0 -1,-1 -2,-2l-3 -7 -2 3 0 4c0,1 -1,2 -2,2 -1,0 -2,-1 -2,-2l0 -18z"/>
  <path class="fil0" d="M140 588c2,0 2,1 2,2 0,1 0,2 -2,2l-7 0c-2,0 -2,-1 -2,-3l0 -16c0,-2 1,-2 2,-2 1,0 1,0 1,2l0 15 6 0z"/>
  <path class="fil0" d="M367 583l3 0c1,0 2,-1 2,-4 0,-1 -1,-3 -2,-3l-3 0 0 7zm0 -10l2 0c2,0 2,-1 2,-3 0,-1 0,-2 -2,-2l-2 0 0 5zm-4 -6c0,-1 1,-2 2,-2l6 0c3,0 4,2 4,5 0,2 -1,4 -2,5 2,0 3,2 3,4 0,4 -2,7 -6,7l-5 0c-1,0 -2,-1 -2,-2l0 -17z"/>
  <path class="fil0" d="M379 582c2,0 2,1 2,2 0,3 -2,6 -3,6 -1,0 -1,-1 -1,-1 0,-1 0,-1 1,-1 0,0 1,-1 2,-2 -1,0 -1,0 -1,0 -2,0 -2,-1 -2,-2 0,-1 1,-2 2,-2z"/>
  <path class="fil0" d="M384 567c0,-1 1,-2 3,-2 2,0 3,0 4,3l2 10 0 0 2 -10c0,-3 1,-3 3,-3 2,0 3,1 3,2l0 17c0,1 -1,2 -2,2 -1,0 -2,-1 -2,-2l0 -15 0 0 -3 16c0,0 0,1 -1,1 -1,0 -2,-1 -2,-1l-3 -16 0 0 0 15c0,1 -1,2 -2,2 -1,0 -2,-1 -2,-2l0 -17z"/>
  <path class="fil0" d="M406 582c2,0 2,1 2,2 0,3 -2,6 -3,6 -1,0 -1,-1 -1,-1 0,-1 0,-1 1,-1 0,0 1,-1 2,-2 -1,0 -1,0 -1,0 -2,0 -2,-1 -2,-2 0,-1 1,-2 2,-2z"/>
  <path class="fil0" d="M415 574l2 0c1,0 2,-1 2,-3 0,-2 -1,-3 -2,-3l-2 0 0 6zm-4 -7c0,-1 1,-2 2,-2l5 0c3,0 5,2 5,6 0,3 -1,6 -5,6l-3 0 0 7c0,1 -1,2 -2,2 -1,0 -2,-1 -2,-2l0 -17z"/>
  <path class="fil0" d="M641 586c0,1 -1,2 -2,2 -1,0 -2,-1 -2,-2l0 -17c0,-1 1,-2 2,-2l7 0c2,0 2,1 2,2 0,1 0,1 -2,1l-5 0 0 5 5 0c2,0 2,1 2,2 0,1 0,2 -2,2l-5 0 0 7z"/>
  <path class="fil0" d="M650 584c1,0 2,1 2,2 0,3 -2,6 -4,6 0,0 -1,-1 -1,-1 0,-1 1,-1 1,-1 1,0 2,-1 2,-2 0,0 0,0 0,0 -2,0 -3,-1 -3,-2 0,-1 1,-2 3,-2z"/>
  <path class="fil0" d="M654 570c0,-1 0,-1 0,-2 0,-1 0,-1 2,-1 1,0 1,0 2,1l3 16 0 0 2 -15c0,-2 1,-2 2,-2 1,0 2,0 2,1 0,1 0,1 0,2l-4 16c0,2 -1,2 -3,2 -2,0 -2,-1 -3,-2l-3 -16z"/>
  <path class="fil0" d="M881 588l6 0c1,0 2,0 2,1 0,1 -1,2 -2,2l-8 0c-1,0 -2,0 -2,-2l0 -16c0,-2 1,-2 2,-2l8 0c1,0 2,0 2,1 0,1 -1,2 -2,2l-6 0 0 5 5 0c2,0 2,0 2,1 0,1 0,2 -2,2l-5 0 0 6z"/>
  <path class="fil0" d="M898 581l0 -1c0,-1 -1,-2 -2,-2 -1,0 -1,1 -1,2l0 1 3 0zm-7 1c0,-4 1,-7 5,-7 4,0 5,2 5,6 0,2 0,3 -2,3l-4 0 0 1c0,2 0,4 1,4 1,0 2,-1 2,-2 0,-1 0,-2 1,-2 1,0 2,1 2,2 0,3 -2,5 -5,5 -4,0 -5,-3 -5,-7l0 -3z"/>
  <path class="fil0" d="M136 843c2,0 2,0 2,1 0,1 0,2 -2,2l-3 0 0 16c0,1 -1,2 -2,2 -1,0 -2,-1 -2,-2l0 -16 -3 0c-1,0 -2,-1 -2,-2 0,-1 1,-1 2,-1l10 0z"/>
  <path class="fil0" d="M144 854l0 8c0,1 -1,2 -2,2 -1,0 -2,-1 -2,-2l0 -18c0,-1 1,-2 2,-2 1,0 2,1 2,2l0 7 5 0 0 -7c0,-1 1,-2 2,-2 1,0 2,1 2,2l0 18c0,1 -1,2 -2,2 -1,0 -2,-1 -2,-2l0 -8 -5 0z"/>
  <path class="fil0" d="M354 852c0,-7 2,-9 6,-9 4,0 6,2 6,5 0,1 0,2 -2,2 -1,0 -2,0 -2,-2 0,-1 -1,-2 -2,-2 -1,0 -2,1 -2,7l0 1c0,5 0,7 2,7 1,0 2,0 2,-2 0,-2 1,-3 2,-3 2,0 2,1 2,2 0,5 -2,6 -6,6 -6,0 -6,-5 -6,-9l0 -3z"/>
  <path class="fil0" d="M372 855l0 7c0,2 0,2 -1,2 -2,0 -2,0 -2,-2l0 -17c0,-1 0,-2 2,-2 1,0 1,1 1,2l0 7 6 0 0 -7c0,-1 0,-2 1,-2 1,0 2,1 2,2l0 17c0,2 -1,2 -2,2 -1,0 -1,0 -1,-2l0 -7 -6 0z"/>
  <path class="fil0" d="M386 860c2,0 3,1 3,3 0,3 -3,5 -4,5 -1,0 -1,0 -1,-1 0,0 0,0 1,-1 1,0 2,-1 2,-2 0,0 -1,0 -1,0 -1,0 -2,-1 -2,-2 0,-1 1,-2 2,-2z"/>
  <path class="fil0" d="M397 845c0,-1 1,-2 2,-2 1,0 2,1 2,2l0 14c0,4 -2,5 -5,5 -4,0 -5,-2 -5,-5 0,-2 0,-2 1,-2 2,0 2,1 2,2 0,2 1,2 2,2 1,0 1,0 1,-2l0 -14z"/>
  <path class="fil0" d="M405 860c2,0 2,1 2,3 0,3 -2,5 -4,5 0,0 0,0 0,-1 0,0 0,0 0,-1 1,0 2,-1 2,-2 0,0 0,0 0,0 -2,0 -2,-1 -2,-2 0,-1 1,-2 2,-2z"/>
  <path class="fil0" d="M412 853c-2,-1 -2,-3 -2,-5 0,-3 2,-5 6,-5 4,0 5,3 5,5 0,1 0,2 -2,2 -1,0 -1,-1 -1,-2 -1,-2 -1,-2 -3,-2 -1,0 -2,1 -2,2 0,1 1,2 2,3l3 2c2,1 4,3 4,6 0,3 -2,5 -7,5 -5,0 -6,-4 -6,-5 0,-1 1,-3 2,-3 2,0 2,1 2,3 0,1 1,2 3,2 1,0 2,-1 2,-2 0,-1 -1,-2 -2,-3l-4 -3z"/>
  <path class="fil0" d="M428 855l0 7c0,2 -1,2 -2,2 -1,0 -2,0 -2,-2l0 -17c0,-1 1,-2 2,-2 1,0 2,1 2,2l0 7 5 0 0 -7c0,-1 1,-2 2,-2 1,0 2,1 2,2l0 17c0,2 -1,2 -2,2 -1,0 -2,0 -2,-2l0 -7 -5 0z"/>
  <path class="fil0" d="M649 848c0,-1 1,-2 2,-2 1,0 2,1 2,2l0 14c0,2 1,3 2,3 2,0 3,-1 3,-3l0 -14c0,-1 0,-2 2,-2 1,0 1,1 1,2l0 14c0,4 -2,6 -6,6 -4,0 -6,-2 -6,-6l0 -14z"/>
  <path class="fil0" d="M876 856c0,5 1,5 3,5 0,0 0,0 0,0l0 0c0,0 0,-1 0,-1 0,-1 0,-1 1,-1 0,0 0,0 1,0 0,-1 0,-2 0,-3l0 -5c0,-4 -1,-5 -2,-5 -2,0 -3,1 -3,5l0 5zm-4 -5c0,-7 3,-8 7,-8 3,0 6,1 6,8l0 5c0,3 0,5 -1,6l1 1c1,1 1,1 1,1 0,1 -1,2 -1,2 -1,0 -2,-1 -2,-1l-1 -1c-1,0 -2,0 -3,0 -4,0 -7,-1 -7,-8l0 -5z"/>
  <path class="fil0" d="M890 860c1,0 2,1 2,3 0,3 -2,5 -4,5 0,0 -1,0 -1,-1 0,0 0,0 1,-1 1,0 2,-1 2,-2 0,0 0,0 -1,0 -1,0 -2,-1 -2,-2 0,-1 1,-2 3,-2z"/>
  <path class="fil0" d="M902 863c0,1 -1,1 -3,1 -1,0 -2,0 -2,-1l-3 -17c0,-1 0,-1 0,-1 0,-1 0,-2 2,-2 1,0 1,1 1,2l3 14 0 0 2 -14c0,-2 1,-2 2,-2 1,0 1,0 2,2l2 14 0 0 2 -14c1,-2 1,-2 2,-2 2,0 2,1 2,2 0,0 0,1 0,1l-3 16c0,2 -1,2 -3,2 -2,0 -2,0 -2,-2l-2 -11 0 0 -2 12z"/>
 </g>
</svg>
