<?xml version="1.0" encoding="UTF-8"?>
<!DOCTYPE svg PUBLIC "-//W3C//DTD SVG 1.1//EN" "http://www.w3.org/Graphics/SVG/1.1/DTD/svg11.dtd">
<!-- Creator: CorelDRAW X8 -->
<svg xmlns="http://www.w3.org/2000/svg" xml:space="preserve" width="1000px" height="1000px" version="1.1" style="shape-rendering:geometricPrecision; text-rendering:geometricPrecision; image-rendering:optimizeQuality; fill-rule:evenodd; clip-rule:evenodd"
viewBox="0 0 1000 1000"
 xmlns:xlink="http://www.w3.org/1999/xlink">
 <defs>
  <style type="text/css">
   <![CDATA[
    .fil12 {fill:black;fill-rule:nonzero}
    .fil15 {fill:#0E6A41;fill-rule:nonzero}
    .fil8 {fill:#201D40;fill-rule:nonzero}
    .fil9 {fill:#2C2858;fill-rule:nonzero}
    .fil14 {fill:#3F964F;fill-rule:nonzero}
    .fil3 {fill:#4364CC;fill-rule:nonzero}
    .fil10 {fill:#494C7F;fill-rule:nonzero}
    .fil4 {fill:#768FDB;fill-rule:nonzero}
    .fil17 {fill:#809DF2;fill-rule:nonzero}
    .fil7 {fill:#8A284C;fill-rule:nonzero}
    .fil2 {fill:#95A6DB;fill-rule:nonzero}
    .fil5 {fill:#95ADF5;fill-rule:nonzero}
    .fil19 {fill:#9EB7FF;fill-rule:nonzero}
    .fil18 {fill:#B4C2F0;fill-rule:nonzero}
    .fil16 {fill:#C4204A;fill-rule:nonzero}
    .fil13 {fill:#DE623C;fill-rule:nonzero}
    .fil1 {fill:#E3EAFF;fill-rule:nonzero}
    .fil11 {fill:#E62552;fill-rule:nonzero}
    .fil6 {fill:#F37A50;fill-rule:nonzero}
    .fil0 {fill:white;fill-rule:nonzero}
   ]]>
  </style>
 </defs>
 <g id="Слой_x0020_1">
  <metadata id="CorelCorpID_0Corel-Layer"/>
  <polygon class="fil0" points="54,781 985,781 985,243 54,243 "/>
  <path class="fil1" d="M102 738c-74,-95 -32,-190 53,-245 87,-55 -11,-169 161,-215 90,-24 168,41 255,44 79,3 160,-55 239,-28 53,15 107,58 103,110 -2,27 -21,58 -2,78 79,86 71,161 40,255 0,0 -849,1 -849,1z"/>
  <path class="fil2" d="M958 742l-865 0c-2,0 -4,-2 -4,-4l0 0c0,-1 2,-3 4,-3l865 0c2,0 3,2 3,3l0 0c0,2 -1,4 -3,4z"/>
  <path class="fil2" d="M934 627c0,0 6,6 2,21 -3,15 1,24 1,24l-5 7c0,0 -5,-14 -2,-26 5,-15 4,-26 4,-26z"/>
  <path class="fil2" d="M953 627c0,0 2,6 -3,16 -5,10 -5,18 -5,18l-4 5c0,0 -1,-12 4,-21 6,-10 8,-18 8,-18z"/>
  <path class="fil2" d="M924 644c0,0 -4,5 -4,22 0,13 4,19 5,27l5 -10c-1,-6 -5,-9 -6,-21 0,-11 0,-18 0,-18z"/>
  <path class="fil2" d="M886 703c0,0 -1,6 8,20 8,11 15,11 17,13l1 -6c-5,-4 -8,-3 -16,-12 -7,-9 -10,-15 -10,-15z"/>
  <path class="fil2" d="M914 657c0,0 -1,12 -1,19 1,10 7,14 9,25l-4 8c0,0 -8,-10 -9,-23 -1,-21 5,-29 5,-29z"/>
  <path class="fil2" d="M896 667c3,6 4,12 5,19 2,20 15,31 15,31l-2 6c0,0 -15,-7 -17,-24 -1,-18 -1,-32 -1,-32z"/>
  <path class="fil2" d="M930 684c0,0 4,-3 24,-5 13,-1 8,-5 20,-4 -8,3 -10,10 -21,12 -10,1 -19,4 -28,7l5 -10z"/>
  <path class="fil2" d="M970 688c0,0 -5,11 -22,14 -11,2 -21,5 -31,10l3 -10c0,0 6,-6 24,-8 13,0 26,-6 26,-6z"/>
  <path class="fil2" d="M964 706c0,0 -5,12 -23,14 -10,2 -20,6 -30,11l3 -10c0,0 6,-7 24,-8 13,-1 26,-7 26,-7z"/>
  <path class="fil2" d="M975 654c0,0 -4,6 -15,7 -12,2 -19,6 -19,6l2 -4c0,0 4,-4 16,-5 7,0 16,-4 16,-4z"/>
  <path class="fil2" d="M938 673c0,0 8,-2 20,-4 8,-1 17,-9 17,-9 0,0 -5,13 -17,14 -14,2 -26,7 -26,7l6 -8z"/>
  <path class="fil2" d="M943 665c0,0 4,-13 15,-18 7,-3 13,-7 18,-12 0,0 -4,13 -14,16 -10,4 -16,12 -16,12l-3 2z"/>
  <path class="fil2" d="M912 736l-2 0c2,-12 14,-52 35,-75l1 1c-21,23 -33,63 -34,74z"/>
  <path class="fil2" d="M107 561c0,0 -7,7 -4,23 3,17 -1,27 -1,27l5 7c0,0 5,-15 2,-28 -4,-17 -2,-29 -2,-29z"/>
  <path class="fil2" d="M86 560c0,0 -3,6 2,18 6,12 5,20 5,20l4 6c0,0 1,-14 -3,-23 -6,-12 -8,-21 -8,-21z"/>
  <path class="fil2" d="M117 581c0,0 4,5 3,23 0,15 -6,21 -6,30l-6 -11c1,-7 6,-9 8,-23 1,-12 1,-19 1,-19z"/>
  <path class="fil2" d="M156 647c0,0 0,7 -10,22 -9,11 -17,11 -19,14l-1 -8c5,-4 9,-2 18,-12 8,-10 12,-16 12,-16z"/>
  <path class="fil2" d="M128 595c0,0 0,13 -1,21 -2,11 -8,16 -10,27l4 9c0,0 8,-10 10,-24 2,-23 -3,-33 -3,-33z"/>
  <path class="fil2" d="M147 606c-4,7 -6,14 -7,21 -3,22 -19,35 -19,35l3 6c0,0 17,-8 19,-26 3,-20 4,-36 4,-36z"/>
  <path class="fil2" d="M108 624c0,0 -4,-3 -26,-6 -14,-2 -8,-6 -22,-6 9,4 11,11 23,14 10,2 20,5 30,9l-5 -11z"/>
  <path class="fil2" d="M64 626c0,0 5,13 24,17 12,2 23,7 33,13l-3 -11c0,0 -6,-8 -26,-10 -14,-2 -28,-9 -28,-9z"/>
  <path class="fil2" d="M70 647c0,0 5,13 24,16 12,3 23,7 33,13l-3 -11c0,0 -6,-7 -26,-10 -14,-1 -28,-8 -28,-8z"/>
  <path class="fil2" d="M60 589c0,0 5,7 17,9 12,2 20,7 20,7l-2 -4c0,0 -4,-5 -17,-7 -9,-1 -18,-5 -18,-5z"/>
  <path class="fil2" d="M100 612c0,0 -8,-3 -22,-6 -9,-2 -19,-10 -19,-10 0,0 6,15 19,16 15,2 29,8 29,8l-7 -8z"/>
  <path class="fil2" d="M95 602c0,0 -4,-14 -16,-20 -7,-3 -14,-8 -19,-14 0,0 3,14 15,19 11,4 16,13 16,13l4 2z"/>
  <path class="fil2" d="M126 683l2 -1c-1,-13 -13,-57 -35,-84l-2 1c22,27 34,71 35,84z"/>
  <path class="fil3" d="M419 739l0 0c2,0 4,-2 4,-4l0 -66 -8 0 0 66c0,2 2,4 4,4z"/>
  <path class="fil3" d="M393 739l0 0c2,0 4,-2 4,-4l0 -66 -8 0 0 66c0,2 2,4 4,4z"/>
  <path class="fil3" d="M359 739l0 0c2,0 3,-2 3,-4l0 -66 -7 0 0 66c0,2 2,4 4,4z"/>
  <path class="fil3" d="M333 739l0 0c2,0 3,-2 3,-4l0 -66 -7 0 0 66c0,2 2,4 4,4z"/>
  <polygon class="fil4" points="326,653 365,653 365,561 326,561 "/>
  <path class="fil5" d="M447 662l-112 0 0 -27 96 0c9,0 16,7 16,16l0 11z"/>
  <path class="fil3" d="M335 570l0 80c0,1 1,2 2,2l101 0c5,0 9,4 9,9l0 0c0,4 -4,8 -9,8l-112 0c-4,0 -8,-4 -8,-8l0 -91c0,-5 4,-9 8,-9l0 0c5,0 9,4 9,9z"/>
  <polygon class="fil6" points="371,543 387,543 387,533 371,533 "/>
  <path class="fil6" d="M302 534c3,-2 6,-4 6,-4 4,6 6,27 10,33 15,-20 28,-25 33,-26 0,0 9,-3 12,6 2,8 -7,13 -7,13 0,0 -38,27 -43,24 -9,-3 -17,-23 -11,-46z"/>
  <path class="fil6" d="M294 536c3,0 7,-1 8,2l6 -3 1 -4c-6,-9 -19,-11 -20,-11 -3,0 -5,-1 -5,0 0,0 -1,3 4,4 6,1 2,5 -10,1 -3,-1 -9,0 -7,2 2,3 9,8 23,9z"/>
  <path class="fil7" d="M300 536c3,-2 8,-6 8,-6 6,8 8,24 10,33 15,-20 28,-25 33,-26 0,0 9,-3 12,6 2,8 -7,16 -7,16 0,0 -38,28 -43,26 -9,-4 -19,-26 -13,-49z"/>
  <path class="fil6" d="M453 534c-3,-2 -6,-4 -6,-4 -4,6 -6,27 -9,33 -15,-20 -29,-25 -34,-26 0,0 -9,-3 -12,6 -2,8 7,13 7,13 0,0 38,27 44,24 8,-3 17,-23 10,-46z"/>
  <path class="fil6" d="M461 536c-3,0 -7,-1 -8,2l-6 -3 0 -4c5,-9 18,-11 19,-11 3,0 5,-1 5,0 0,0 1,3 -4,4 -6,1 -2,5 11,1 3,-1 8,0 6,2 -2,3 -9,8 -23,9z"/>
  <path class="fil7" d="M456 536c-3,-2 -9,-6 -9,-6 -4,6 -7,25 -11,31 -15,-20 -27,-23 -32,-24 0,0 -9,-3 -12,6 -2,8 7,16 7,16 0,0 34,32 42,29 12,-5 21,-29 15,-52z"/>
  <path class="fil6" d="M455 718l3 11 11 -8c0,0 1,-8 1,-12l-14 -1c-1,5 -1,10 -1,10z"/>
  <path class="fil8" d="M473 730c0,0 3,-5 7,-5 0,0 8,1 11,4 1,1 0,4 0,5 -1,1 -1,2 -4,2 -3,1 -8,2 -16,-1 -11,-4 -12,-3 -16,-4 -4,-2 -2,-6 -1,-11 0,0 3,6 19,10z"/>
  <path class="fil9" d="M470 718c0,0 5,3 11,5 3,1 12,3 10,9 0,1 -1,2 -4,2 -3,1 -8,2 -16,-1 -10,-4 -12,-3 -16,-4 -4,-2 -2,-7 0,-12l0 0c0,2 0,5 7,8 2,1 1,-8 8,-7z"/>
  <path class="fil10" d="M468 725c1,0 1,0 1,0 1,-3 4,-3 4,-3 1,0 1,-1 1,-1 0,-1 0,-1 -1,-1 -1,0 -4,1 -5,4 -1,0 0,1 0,1 0,0 0,0 0,0z"/>
  <path class="fil10" d="M472 727c0,0 1,0 1,-1 1,-3 4,-3 4,-3 0,0 1,0 1,0 0,-1 -1,-1 -1,-1 -2,0 -5,1 -6,4 0,0 0,1 1,1 0,0 0,0 0,0z"/>
  <path class="fil8" d="M411 619c21,6 52,23 55,26 5,7 3,27 5,71l-17 -1c-4,-34 -13,-47 -12,-59 0,0 -17,-1 -41,-13 -11,-5 -24,-12 -19,-23 4,-8 9,-7 29,-1z"/>
  <path class="fil6" d="M417 725l10 6 5 -8c0,0 -1,-8 -1,-13l-14 1c1,5 -1,10 0,14z"/>
  <path class="fil9" d="M388 620c25,3 43,27 45,31 4,8 -2,24 0,64l-18 -1c-3,-21 -7,-37 -7,-52 0,0 -13,-10 -38,-16 -15,-3 -19,-5 -21,-15 -1,-3 -2,-10 -1,-12 6,-7 24,-2 40,1z"/>
  <path class="fil8" d="M432 735c0,0 5,-5 9,-4 0,0 7,3 9,7 1,1 0,3 -1,4 -1,1 -2,2 -4,2 -4,0 -8,-1 -16,-5 -9,-6 -11,-5 -14,-7 -4,-3 -1,-7 1,-11 0,0 1,6 16,14z"/>
  <path class="fil10" d="M427 729c1,0 1,0 1,-1 1,-2 4,-2 5,-2 0,0 0,0 0,-1 1,0 0,-1 0,-1 -2,0 -5,1 -6,4 -1,0 0,0 0,1 0,0 0,0 0,0z"/>
  <path class="fil10" d="M431 731c0,0 0,0 0,0 2,-3 5,-3 5,-3 0,0 1,0 1,0 0,-1 0,-1 -1,-1 -1,-1 -5,0 -6,3 0,0 0,1 0,1 0,0 1,0 1,0z"/>
  <path class="fil11" d="M351 537c0,0 13,-2 18,-1 10,8 20,0 20,0 6,-1 15,1 15,1 0,16 9,83 9,83 0,0 -8,10 -34,10 -16,0 -32,-4 -32,-4 0,0 4,-73 4,-89z"/>
  <path class="fil9" d="M365 529c-8,1 -13,-10 -13,-10 -5,-1 -4,-6 -4,-6 -3,-1 -6,-4 -5,-9 1,-4 5,-3 5,-8 1,-4 -2,-13 10,-14 0,0 0,-7 8,-9 9,-2 11,3 15,4 4,2 14,-3 15,8 0,0 6,0 9,4 3,5 1,10 -1,12 0,0 5,2 7,7 0,3 -1,7 -4,9 -2,1 -4,1 -4,1 -2,1 -2,6 -4,7 -3,2 -6,3 -9,4l-25 0z"/>
  <path class="fil6" d="M398 508c1,15 -7,27 -18,28 -11,1 -21,-11 -22,-26 -1,-14 8,-24 19,-25 11,-1 20,8 21,23z"/>
  <path class="fil12" d="M370 515c-1,1 -2,0 -2,-2 0,-1 1,-2 2,-2 1,0 2,1 2,2 0,1 -1,2 -2,2z"/>
  <path class="fil12" d="M387 514c-1,0 -2,-1 -2,-2 0,-1 1,-2 2,-2 1,0 2,1 2,2 0,1 -1,2 -2,2z"/>
  <path class="fil13" d="M381 515c3,2 4,3 5,4 -1,2 -5,4 -6,3 3,-1 3,-3 3,-3l-2 -4z"/>
  <path class="fil6" d="M362 513c2,3 2,7 -1,8 -2,2 -5,1 -7,-3 -3,-3 -2,-6 0,-8 2,-1 6,0 8,3z"/>
  <path class="fil13" d="M360 519c0,0 0,0 0,0 -1,0 -1,-1 -1,-1 1,-1 0,-2 0,-3 -1,-1 -3,-1 -4,-1 0,0 -1,0 -1,-1 0,0 1,0 1,0 2,-1 4,0 5,1 1,1 1,2 0,4 0,1 0,1 0,1z"/>
  <path class="fil9" d="M351 500l24 -20 27 13 -3 19c-1,-9 -6,-6 -9,-8 -3,-3 -4,-7 -11,-3 0,0 -6,-4 -8,2 -2,4 -5,3 -8,3 -4,1 -3,4 -5,4l-7 -10z"/>
  <path class="fil9" d="M390 509c-3,0 -5,-2 -5,-2 0,0 0,-1 0,-1 1,0 1,0 2,0 0,0 1,2 4,1 1,0 1,0 1,1 0,0 0,1 -1,1 0,0 -1,0 -1,0z"/>
  <path class="fil9" d="M367 509c3,0 5,-2 5,-2 0,0 0,-1 0,-1 0,0 -1,0 -1,0 0,0 -2,2 -5,1 0,0 -1,0 -1,1 0,0 0,1 1,1 0,0 1,0 1,0z"/>
  <path class="fil0" d="M385 528c0,1 -2,3 -4,3 -2,0 -4,-2 -4,-3 0,-2 2,-3 4,-3 2,0 4,1 4,3z"/>
  <path class="fil3" d="M285 699l11 36c0,1 1,1 1,1l0 0c1,0 2,-2 2,-4l-2 -33 -12 0z"/>
  <path class="fil3" d="M180 699l-11 36c-1,1 -1,1 -2,1l0 0c-1,0 -1,-2 -1,-4l2 -33 12 0z"/>
  <path class="fil3" d="M126 699l-11 36c-1,1 -1,1 -2,1l0 0c-1,0 -1,-2 -1,-4l2 -33 12 0z"/>
  <path class="fil4" d="M191 700l102 0c7,0 13,-6 13,-13l0 -64c0,-6 -5,-10 -10,-10l-105 0 0 87z"/>
  <path class="fil3" d="M166 700l102 0c7,0 12,-6 12,-13l0 -64c0,-6 -4,-10 -10,-10l-104 0 0 87z"/>
  <path class="fil4" d="M144 635l95 0 0 -45c0,-6 -4,-10 -9,-10l-86 0 0 55z"/>
  <path class="fil5" d="M134 633l135 0c6,0 12,5 12,12l0 13 -147 0 0 -25z"/>
  <polygon class="fil4" points="134,700 281,700 281,655 134,655 "/>
  <path class="fil3" d="M114 635l30 0 0 -55 -20 0c-6,0 -10,4 -10,9l0 46z"/>
  <path class="fil6" d="M306 688l6 7c0,0 5,7 11,4 6,-3 3,-13 3,-13l-7 -9 -13 11z"/>
  <path class="fil9" d="M326 685c0,0 6,0 12,-2 4,-1 13,-5 15,2 1,1 1,2 -1,4 -3,3 -7,6 -16,9 -12,4 -13,6 -17,7 -4,1 -6,-5 -8,-10l0 0c1,1 4,3 12,2 3,-1 -5,-8 3,-12z"/>
  <path class="fil6" d="M259 714l0 6c0,0 0,8 7,9 6,1 10,-8 10,-8l-1 -9 -16 2z"/>
  <path class="fil8" d="M240 589c-4,-1 -13,9 -12,10 8,11 35,17 35,17l4 -2c0,0 -15,-12 -27,-25z"/>
  <path class="fil8" d="M216 557c1,9 9,40 12,42l12 -10c0,0 -8,-33 -10,-38 -2,-9 -15,-9 -14,6z"/>
  <path class="fil9" d="M246 505c1,-11 -2,-21 -12,-27 -9,-5 -21,0 -21,0l0 0c0,0 -10,-3 -19,7 -9,10 -2,18 -6,26 -2,4 -13,5 -10,19 1,4 6,7 10,7 7,0 14,-2 17,0 9,10 31,6 34,-2 1,-3 20,2 18,-16 -1,-9 -12,-3 -11,-14z"/>
  <path class="fil6" d="M223 529c0,0 -1,11 -1,15l-16 1c5,-8 3,-28 3,-28l14 12z"/>
  <path class="fil6" d="M201 514c3,13 14,22 25,20 10,-3 16,-16 13,-29 -3,-14 -14,-22 -25,-20 -10,3 -16,16 -13,29z"/>
  <path class="fil12" d="M234 508c0,1 2,2 3,1 0,0 1,-1 0,-2 0,-1 -1,-2 -2,-1 -1,0 -1,1 -1,2z"/>
  <path class="fil12" d="M219 512c1,1 2,1 3,1 1,-1 1,-2 1,-3 -1,-1 -2,-1 -3,-1 -1,1 -1,2 -1,3z"/>
  <path class="fil9" d="M217 510c0,0 0,0 0,0 1,-2 4,-3 4,-3 0,0 1,0 1,0 0,-1 -1,-1 -1,-1 0,0 -4,0 -5,3 0,1 0,1 0,1 1,0 1,0 1,0z"/>
  <path class="fil9" d="M238 506c0,0 0,0 0,0 1,-1 1,-1 0,-1 -2,-3 -5,-2 -5,-2 0,0 0,1 0,1 0,1 0,1 1,1 0,0 2,-1 3,1 0,0 1,0 1,0z"/>
  <path class="fil13" d="M233 512c1,2 2,3 3,3 0,0 0,1 0,1 -1,2 -3,3 -5,3 0,1 0,0 0,0 2,-1 2,-2 3,-3 0,0 0,0 0,0 -1,-1 -1,-2 -2,-3 0,-1 1,-1 1,-1z"/>
  <path class="fil6" d="M206 514c2,2 3,5 2,7 -2,3 -5,3 -8,1 -3,-2 -3,-6 -2,-8 2,-2 5,-2 8,0z"/>
  <path class="fil13" d="M204 521c1,0 1,0 1,0 1,-2 1,-3 0,-4 -1,-1 -3,-2 -4,-2 0,1 0,1 0,1 0,1 0,1 1,1 0,0 1,0 2,1 0,0 0,1 0,2 -1,0 -1,1 0,1 0,0 0,0 0,0z"/>
  <path class="fil13" d="M228 527c-5,0 -8,-3 -8,-4 0,0 0,0 1,-1 0,0 0,0 1,1 0,0 3,4 10,2 0,-1 1,0 1,0 0,1 0,1 -1,1 -1,1 -3,1 -4,1z"/>
  <path class="fil9" d="M201 513c12,-2 30,-15 31,-21 -2,-8 -15,-12 -23,-8 -7,3 -14,19 -8,29z"/>
  <path class="fil14" d="M211 638l64 -2c0,0 3,-16 1,-23 -2,-6 -61,-5 -61,-5l-4 30z"/>
  <path class="fil15" d="M193 597c-2,4 -9,16 -8,26 1,10 8,19 19,18 0,0 23,-12 18,-38 0,0 -12,-5 -29,-6z"/>
  <path class="fil15" d="M203 644l56 5c0,0 19,-8 19,-15 0,-7 -57,-26 -57,-26 -33,-10 -44,32 -18,36z"/>
  <path class="fil15" d="M278 634l-1 79c0,0 -14,6 -19,0 -2,-27 -14,-51 -1,-67 16,-22 21,-12 21,-12z"/>
  <path class="fil14" d="M276 613l46 64c0,0 -10,14 -17,13 -13,-16 -38,-35 -38,-55 -1,-27 9,-22 9,-22z"/>
  <path class="fil6" d="M229 628c-4,-1 -9,-1 -9,-3 1,-2 3,-3 4,-5 0,-2 -7,-3 -13,3l-1 -1 -4 6 1 1c3,6 14,11 22,9 9,-2 3,-9 0,-10z"/>
  <path class="fil9" d="M208 539l14 3c5,10 11,19 11,25 0,8 -11,40 -11,40 -14,2 -25,0 -34,-5 7,-20 -4,-43 8,-56 3,-3 8,-5 12,-7z"/>
  <path class="fil6" d="M270 614c0,0 0,0 0,-1 0,0 0,1 0,1 -2,1 -4,1 -5,0 0,0 0,0 -1,0 -1,0 -2,0 -3,-1 0,0 0,0 0,-1 -2,1 -3,1 -4,0 -1,-1 -1,-3 0,-4 2,-2 4,-2 5,-1 0,1 0,1 0,1 2,-1 4,-1 5,0 0,0 0,0 0,1 1,-1 3,-1 3,0 1,0 1,0 1,1 1,-1 2,-1 3,0 1,1 1,3 0,4 -1,1 -3,1 -4,0z"/>
  <path class="fil8" d="M192 551c-7,10 -29,33 -27,47 2,10 40,32 40,32l6 -8 -25 -29c0,0 22,-30 24,-36 5,-11 -8,-22 -18,-6z"/>
  <path class="fil9" d="M276 720c0,0 5,3 12,5 3,1 13,4 11,10 0,1 -1,2 -4,3 -4,1 -9,1 -18,-2 -12,-4 -13,-2 -18,-4 -4,-2 -2,-8 0,-13l0 0c0,1 0,5 8,9 3,1 1,-10 9,-8z"/>
  <path class="fil4" d="M140 700l60 0c7,0 13,-6 13,-13l0 -64c0,-6 -4,-10 -10,-10l-63 0 0 87z"/>
  <path class="fil3" d="M114 700l61 0c7,0 13,-6 13,-13l0 -64c0,-6 -5,-10 -10,-10l-64 0 0 87z"/>
  <path class="fil5" d="M230 358l101 0c12,0 23,10 23,22l0 47c0,13 -11,23 -23,23l-1 0 8 27c1,1 -1,2 -2,1l-37 -28 -69 0c-12,0 -22,-10 -22,-23l0 -47c0,-12 10,-22 22,-22z"/>
  <path class="fil0" d="M231 397l102 0c5,0 9,-4 9,-9l0 -2c0,-5 -4,-9 -9,-9l-102 0c-5,0 -9,4 -9,9l0 2c0,5 4,9 9,9z"/>
  <path class="fil0" d="M281 428l47 0c6,0 10,-4 10,-10l0 0c0,-6 -4,-10 -10,-10l-47 0c-6,0 -11,4 -11,10l0 0c0,6 5,10 11,10z"/>
  <path class="fil0" d="M414 478c-3,0 -6,-3 -6,-6 0,-2 3,-5 6,-5 3,0 5,3 5,5 0,3 -2,6 -5,6zm-8 -37c3,-2 6,-3 9,-3 8,0 12,4 12,10 0,3 -2,7 -5,10 -4,4 -7,7 -9,7 -2,0 -3,-2 -3,-4 0,-1 1,-3 4,-5 0,0 0,0 0,0 3,-3 4,-4 4,-6 0,-2 -2,-3 -4,-3 -1,0 -2,0 -3,0 -2,1 -3,1 -3,1 -2,0 -4,-1 -4,-4 0,-1 1,-2 2,-3z"/>
  <path class="fil0" d="M716 366c-7,0 -13,6 -13,14 0,7 6,13 13,13 7,0 13,-6 13,-13 0,-8 -6,-14 -13,-14zm0 32c-10,0 -18,-8 -18,-18 0,-10 8,-19 18,-19 10,0 18,9 18,19 0,10 -8,18 -18,18z"/>
  <path class="fil0" d="M350 356c-5,0 -9,4 -9,9 0,4 4,8 9,8 4,0 8,-4 8,-8 0,-5 -4,-9 -8,-9zm0 21c-7,0 -12,-6 -12,-12 0,-7 5,-12 12,-12 6,0 12,5 12,12 0,6 -6,12 -12,12z"/>
  <path class="fil0" d="M301 285c-4,0 -7,3 -7,7 0,4 3,7 7,7 4,0 7,-3 7,-7 0,-4 -3,-7 -7,-7zm0 16c-5,0 -9,-4 -9,-9 0,-5 4,-9 9,-9 5,0 9,4 9,9 0,5 -4,9 -9,9z"/>
  <path class="fil1" d="M571 292c0,7 -5,13 -12,13 -7,0 -13,-6 -13,-13 0,-7 6,-13 13,-13 7,0 12,6 12,13z"/>
  <path class="fil0" d="M747 339c0,7 -6,13 -13,13 -7,0 -13,-6 -13,-13 0,-7 6,-13 13,-13 7,0 13,6 13,13z"/>
  <path class="fil0" d="M290 312c0,7 -6,13 -13,13 -7,0 -13,-6 -13,-13 0,-7 6,-13 13,-13 7,0 13,6 13,13z"/>
  <path class="fil0" d="M215 435c-4,4 -11,4 -15,0 -4,-4 -4,-11 0,-15 4,-5 11,-5 15,0 4,4 4,11 0,15z"/>
  <path class="fil1" d="M129 486c0,6 -4,11 -10,11 -6,0 -10,-5 -10,-11 0,-5 4,-10 10,-10 6,0 10,5 10,10z"/>
  <path class="fil6" d="M665 459c-5,-5 -2,-10 -2,-10 -2,-1 -17,21 -23,35 -11,-11 -30,-26 -36,-27 0,0 -7,-2 -9,7 -2,7 6,13 6,13 0,0 38,26 44,24 8,-4 16,-35 20,-42z"/>
  <path class="fil6" d="M673 458c-3,0 -7,-1 -8,2l-6 -3 0 -4c5,-8 17,-11 19,-11 3,0 4,0 5,0 0,0 1,3 -4,4 -6,1 -2,5 10,1 3,-1 9,0 7,2 -3,3 -9,8 -23,9z"/>
  <path class="fil8" d="M581 389c-8,-8 -25,-10 -28,3 -3,12 -2,20 -18,17 -12,-2 -25,8 -26,25 -1,22 15,15 10,25 -4,11 -7,22 9,23 16,1 29,-11 28,-29 -1,-18 10,-11 14,-19 6,-13 11,-45 11,-45z"/>
  <path class="fil6" d="M619 722l7 -28 -17 -2c-1,13 -2,26 -2,30l12 0z"/>
  <path class="fil6" d="M577 692l-18 0c1,4 3,28 3,28 2,3 15,3 15,1 -1,-5 0,-29 0,-29z"/>
  <path class="fil16" d="M607 703l18 2 13 -75c-3,-28 -28,-89 -28,-89l-28 10 -1 27 34 57c-4,12 -7,48 -8,68z"/>
  <path class="fil11" d="M593 543c0,-2 0,-2 -1,-3l-28 -8 -6 7c-6,22 -2,53 2,77 -7,21 -4,65 -1,86l19 0c1,-14 1,-39 1,-52l0 0c3,-10 5,-20 7,-31 3,-15 6,-28 7,-41 1,-12 1,-25 0,-35z"/>
  <path class="fil6" d="M566 421c-1,14 9,26 20,27 12,0 21,-12 21,-27 1,-15 -9,-27 -20,-27 -12,0 -21,12 -21,27z"/>
  <path class="fil6" d="M573 435l16 10c0,0 2,7 3,9 1,5 -5,7 -10,4 -5,-3 -8,-7 -8,-7l-1 -16z"/>
  <path class="fil9" d="M608 418c-4,0 -26,-6 -29,-10 0,9 -14,20 -16,18 -7,-18 -2,-33 18,-37 27,-6 27,29 27,29z"/>
  <path class="fil12" d="M583 426c0,1 2,1 3,0 1,0 1,-2 1,-3 -1,-1 -3,-1 -4,-1 -1,1 -1,2 0,4z"/>
  <path class="fil12" d="M599 425c1,1 2,2 3,1 1,-1 1,-2 1,-3 -1,-1 -2,-1 -3,-1 -1,1 -2,2 -1,3z"/>
  <path class="fil9" d="M605 421c0,0 0,0 0,0 0,-1 0,-1 0,-2 -3,-3 -6,-2 -6,-2 0,0 -1,1 0,1 0,1 0,1 1,1 0,0 2,-1 4,2 0,0 1,0 1,0z"/>
  <path class="fil9" d="M580 421c0,0 0,0 0,0 0,0 0,-1 0,-1 3,-3 6,-2 6,-2 1,0 1,0 1,1 0,0 -1,1 -1,0 -1,0 -3,0 -5,2 0,0 0,0 -1,0z"/>
  <path class="fil13" d="M597 427c1,1 1,3 2,4 1,0 0,1 0,1 -1,1 -4,1 -6,2 0,0 0,-1 0,-1 2,-1 3,-1 4,-2 0,0 0,0 0,-1 0,0 0,-2 0,-3 0,0 0,0 0,0z"/>
  <path class="fil6" d="M571 427c2,2 3,6 1,8 -2,2 -6,1 -8,-1 -3,-3 -3,-6 -1,-8 2,-2 6,-2 8,1z"/>
  <path class="fil13" d="M569 433c0,0 1,-1 1,-1 0,-1 0,-3 -1,-4 -1,-1 -2,-1 -4,-1 0,0 0,1 0,1 0,1 1,1 1,1 1,-1 2,-1 2,0 1,1 1,2 0,3 0,0 0,0 1,1 0,0 0,0 0,0z"/>
  <path class="fil14" d="M611 543c-29,11 -55,3 -55,3 0,-4 0,-16 6,-30 -2,-11 -1,-28 -2,-35 4,-18 2,-19 -1,-27l11 -4 20 7 1 -4c0,0 13,3 15,5l5 19 -1 41c0,0 0,23 1,25z"/>
  <path class="fil13" d="M592 441c-1,0 -1,0 -2,0 -3,0 -5,-3 -6,-3 0,0 0,-1 1,-1 0,0 1,0 1,0l0 0c0,0 2,2 5,3 2,0 3,-1 5,-3 1,0 1,0 2,0 0,1 0,1 -1,2 -1,1 -3,2 -5,2z"/>
  <path class="fil9" d="M615 722c2,-5 6,-6 6,-6 7,11 27,6 26,20 -29,0 -41,0 -41,0 0,-3 1,-13 1,-16l2 1 6 1z"/>
  <path class="fil9" d="M581 736c0,0 -3,-10 -3,-11 0,-2 -1,-5 -1,-6 0,0 -4,-3 -7,-3 -4,0 -8,2 -8,3 0,3 0,6 -1,9 -1,2 -2,8 -2,8l22 0z"/>
  <path class="fil8" d="M569 451c4,7 13,25 12,50 -1,25 -7,55 -4,82 -15,2 -28,0 -28,0 1,-17 10,-129 10,-129 5,-2 10,-3 10,-3z"/>
  <path class="fil6" d="M559 454c0,0 -26,11 -40,41 8,12 17,5 17,5l24 -19c0,0 6,-8 5,-17 -1,-9 -6,-10 -6,-10z"/>
  <path class="fil6" d="M550 526l-15 -26c0,0 -2,-10 -16,-5 -1,8 3,21 23,36 4,-2 8,-5 8,-5z"/>
  <path class="fil6" d="M542 531c4,7 10,6 12,6 2,-1 4,-1 5,1 1,1 2,3 3,2 2,-1 0,-6 -4,-6 0,0 3,0 4,2 2,2 2,3 4,3 0,0 1,-1 1,-2 0,1 2,1 2,0 1,-4 -2,-8 -7,-10 6,-1 6,5 8,5 2,0 2,-1 2,-2 -1,-3 -4,-5 -7,-6 -3,-1 -8,0 -9,3 0,0 -4,1 -6,-1l-8 5z"/>
  <path class="fil15" d="M574 448l-8 3c1,10 22,15 22,15l2 -9 -16 -9z"/>
  <path class="fil8" d="M598 454c4,12 9,29 8,47 -2,19 -4,48 5,79 7,2 17,1 17,1 0,0 -14,-46 -13,-66 0,-23 -1,-43 -6,-56 -4,-2 -11,-5 -11,-5z"/>
  <path class="fil15" d="M590 457l6 7c0,0 5,-5 4,-9 -2,-3 -9,-5 -9,-5l-1 7z"/>
  <path class="fil17" d="M843 555l55 0c11,0 20,-9 20,-20l0 -88c0,-11 -9,-21 -20,-21l-55 0c-11,0 -20,10 -20,21l0 88c0,11 9,20 20,20z"/>
  <path class="fil4" d="M823 454l95 0c1,0 3,-1 3,-3l0 0c0,-2 -2,-3 -3,-3l-95 0c-2,0 -3,1 -3,3l0 0c0,2 1,3 3,3z"/>
  <path class="fil4" d="M823 534l95 0c1,0 3,-2 3,-3l0 0c0,-2 -2,-4 -3,-4l-95 0c-2,0 -3,2 -3,4l0 0c0,1 1,3 3,3z"/>
  <polygon class="fil17" points="857,559 883,559 883,555 857,555 "/>
  <path class="fil18" d="M831 736l78 0c4,0 8,-4 8,-8l0 -161c0,-4 -4,-8 -8,-8l-78 0c-5,0 -8,4 -8,8l0 161c0,4 3,8 8,8z"/>
  <path class="fil4" d="M838 643l63 0c3,0 5,-2 5,-5l0 -55c0,-3 -2,-5 -5,-5l-63 0c-3,0 -5,2 -5,5l0 55c0,3 2,5 5,5z"/>
  <path class="fil18" d="M838 587l0 47c0,2 2,4 5,4l53 0c2,0 4,-2 4,-4l0 -47c0,-2 -2,-4 -4,-4l-53 0c-3,0 -5,2 -5,4z"/>
  <path class="fil9" d="M878 600c0,4 3,6 6,6 3,0 6,-2 6,-6 0,-3 -3,-6 -6,-6 -3,0 -6,3 -6,6z"/>
  <path class="fil9" d="M884 611l0 0c1,0 2,-1 2,-2l0 -5c0,-1 -1,-2 -2,-2l0 0c-1,0 -2,1 -2,2l0 5c0,1 1,2 2,2z"/>
  <path class="fil0" d="M881 588l0 7c0,2 1,3 3,3l1 0c1,0 2,-1 2,-3l0 -7c0,-1 -1,-2 -2,-2l-1 0c-2,0 -3,1 -3,2z"/>
  <path class="fil11" d="M881 588l0 3 6 0 0 -3c0,-1 -1,-2 -2,-2l-1 0c-2,0 -3,1 -3,2z"/>
  <path class="fil9" d="M853 600c0,4 2,6 5,6 4,0 6,-2 6,-6 0,-3 -2,-6 -6,-6 -3,0 -5,3 -5,6z"/>
  <path class="fil9" d="M858 611l0 0c2,0 3,-1 3,-2l0 -5c0,-1 -1,-2 -3,-2l0 0c-1,0 -2,1 -2,2l0 5c0,1 1,2 2,2z"/>
  <path class="fil0" d="M856 588l0 7c0,2 1,3 2,3l1 0c1,0 2,-1 2,-3l0 -7c0,-1 -1,-2 -2,-2l-1 0c-1,0 -2,1 -2,2z"/>
  <path class="fil17" d="M856 588l0 3 5 0 0 -3c0,-1 -1,-2 -2,-2l-1 0c-1,0 -2,1 -2,2z"/>
  <path class="fil9" d="M838 634c0,2 2,4 5,4l53 0c2,0 4,-2 4,-4l-62 0z"/>
  <path class="fil4" d="M836 662l67 0c2,0 3,-1 3,-3l0 0c0,-1 -1,-3 -3,-3l-67 0c-2,0 -3,2 -3,3l0 0c0,2 1,3 3,3z"/>
  <path class="fil19" d="M884 513c-2,2 -2,4 0,5 1,2 3,2 5,0 1,-1 1,-3 0,-5 -2,-1 -4,-1 -5,0z"/>
  <path class="fil19" d="M892 501c-1,0 -1,1 -2,1 -1,1 -1,3 0,4 1,1 1,1 2,1 1,0 1,0 2,-1 1,-1 1,-3 0,-4 -1,0 -1,-1 -2,-1l0 0zm0 2c0,0 1,0 1,0 1,1 1,2 0,2 0,1 -1,1 -1,1 -1,0 -1,0 -1,-1 -1,0 -1,-1 0,-2 0,0 0,0 1,0l0 0z"/>
  <path class="fil19" d="M863 497c-1,2 -1,4 0,5 1,1 3,1 5,0 1,-1 1,-3 0,-5 -2,-1 -4,-1 -5,0z"/>
  <path class="fil19" d="M851 472c-1,2 -1,4 0,5 2,2 4,2 5,0 1,-1 1,-3 0,-5 -1,-1 -3,-1 -5,0z"/>
  <path class="fil19" d="M860 546c-1,1 -1,2 0,3 1,1 3,1 4,0 0,-1 0,-2 0,-3 -1,-1 -3,-1 -4,0z"/>
  <path class="fil19" d="M855 537c-1,1 -1,3 0,3 1,1 3,1 4,0 1,0 1,-2 0,-3 -1,-1 -3,-1 -4,0z"/>
  <path class="fil19" d="M881 440c-1,1 -1,3 0,4 1,1 2,1 3,0 1,-1 1,-3 0,-4 -1,-1 -2,-1 -3,0z"/>
  <path class="fil15" d="M735 712c-5,23 -25,11 -20,25 0,1 1,2 2,2l11 0c2,0 3,0 4,-1 6,-4 10,-10 23,-10 0,-6 0,-14 -2,-17l-18 1z"/>
  <path class="fil8" d="M766 551c0,0 -34,51 -38,67 -5,16 5,43 3,97 10,2 24,0 24,0 0,0 9,-68 -1,-84 15,-22 52,-71 52,-71l-40 -9z"/>
  <path class="fil15" d="M784 720c-8,11 -30,4 -29,20 32,-1 46,-1 46,-1 0,-3 -1,-12 -2,-15l-15 -4z"/>
  <path class="fil9" d="M774 541c0,0 -10,83 -8,99 2,16 10,29 10,83 11,3 27,5 27,5 0,0 7,-65 -7,-83 4,-27 23,-94 23,-94l-45 -10z"/>
  <path class="fil16" d="M720 504l-13 -14c-1,-1 -1,-1 -1,-1l-11 0c0,0 -1,2 -1,2l9 8c0,0 0,0 0,0l16 6c0,0 1,0 1,-1z"/>
  <path class="fil11" d="M719 505l-13 -13c0,-1 0,-1 -1,-1l-11 0c0,0 0,0 0,0l9 10c0,0 0,0 0,0l15 5c1,0 1,0 1,-1z"/>
  <path class="fil6" d="M743 518l-9 -5c0,0 -9,-8 -10,-10 -2,-1 -6,-4 -6,-4 -1,0 -3,0 -3,0l4 5c0,0 -2,0 -4,-1 -3,-2 -7,-6 -9,-5 -1,0 -1,0 -1,0 0,0 -2,-1 -3,-1 -1,1 1,7 9,14 0,2 3,5 3,5l14 5 15 -3z"/>
  <path class="fil16" d="M704 494c1,0 2,0 2,0 0,-1 0,-1 0,-2 -1,0 -1,0 -2,0 0,0 0,1 0,2z"/>
  <path class="fil6" d="M785 452c-3,4 18,7 21,0 2,-7 -2,-27 -2,-27l-19 4c0,0 3,19 0,23z"/>
  <path class="fil6" d="M808 409c1,16 -7,29 -19,30 -12,1 -23,-10 -24,-25 -2,-15 6,-29 18,-30 12,-1 23,10 25,25z"/>
  <path class="fil12" d="M772 418c-1,2 -2,2 -3,2 -1,-1 -2,-2 -2,-3 1,-1 2,-2 3,-2 1,1 2,2 2,3z"/>
  <path class="fil12" d="M786 415c0,1 -1,2 -3,2 -1,-1 -2,-2 -1,-4 0,-1 2,-2 3,-1 1,0 2,2 1,3z"/>
  <path class="fil13" d="M776 418c-1,3 -1,8 -1,8 0,0 2,2 6,1 -2,0 -4,-1 -4,-3 -1,-3 -1,-6 -1,-6z"/>
  <path class="fil8" d="M771 413c0,0 -1,0 -1,0 0,0 -1,0 -2,0 0,0 -1,1 -1,2 0,0 -1,1 -1,0 -1,0 -1,0 -1,-1 1,-1 2,-2 3,-3 1,0 3,1 3,1 0,0 0,0 0,1 0,0 0,0 0,0z"/>
  <path class="fil8" d="M782 411c1,0 1,0 1,-1 0,0 1,0 2,0 0,0 1,0 2,1 0,0 1,0 1,0 0,0 0,-1 0,-1 -1,-1 -2,-2 -3,-2 -2,0 -3,1 -3,1 -1,1 -1,1 0,1 0,1 0,1 0,1z"/>
  <path class="fil8" d="M803 419c-8,-7 -5,-17 -5,-17 -4,1 -5,2 -5,2 -3,-3 -3,-7 -3,-7 -8,-1 -10,5 -17,9 -8,4 -21,4 -25,-7 0,-2 1,-3 3,-3 1,1 3,1 5,0 0,0 -2,-1 -3,-4 -1,-2 1,-3 3,-3 2,1 6,2 12,-1 4,-2 12,-11 18,-11 5,-1 10,2 14,8 0,0 12,-2 17,11 5,13 -13,32 -13,32 0,0 1,-7 -1,-9z"/>
  <path class="fil0" d="M777 432c-1,0 0,-1 0,-1 2,0 4,-1 6,-2 2,0 4,-2 6,-2 0,-1 1,0 1,1 -1,1 -2,4 -5,5 -4,2 -7,0 -8,-1z"/>
  <path class="fil6" d="M798 410c-3,3 -3,6 -1,8 2,2 6,2 8,0 3,-3 3,-7 1,-9 -2,-2 -6,-2 -8,1z"/>
  <path class="fil13" d="M800 417c0,0 0,0 0,0 -1,-1 -2,-3 -1,-4 1,-2 3,-2 4,-2 1,0 1,0 1,1 0,0 -1,1 -1,0 -1,0 -2,1 -2,2 -1,0 -1,1 0,2 0,0 0,1 0,1 0,0 0,0 -1,0z"/>
  <path class="fil14" d="M762 557c14,3 41,9 55,3 6,-8 7,-51 7,-51 1,-44 -4,-51 -16,-66 -5,2 -18,4 -23,4 0,0 -13,18 -15,31 -3,12 -3,35 -3,48 -1,15 -3,22 -5,31z"/>
  <path class="fil15" d="M810 457c8,16 6,35 -19,72 -17,-2 -21,-16 -21,-16 0,0 5,-19 11,-42 7,-23 25,-22 29,-14z"/>
  <path class="fil15" d="M733 509l38 3c0,0 16,-3 20,17 -8,6 -29,9 -63,-4 4,-5 5,-16 5,-16z"/>
  <polygon class="fil0" points="785,446 784,456 810,446 807,437 "/>
 </g>
</svg>
