<?xml version="1.0" encoding="UTF-8"?>
<!DOCTYPE svg PUBLIC "-//W3C//DTD SVG 1.1//EN" "http://www.w3.org/Graphics/SVG/1.1/DTD/svg11.dtd">
<!-- Creator: CorelDRAW X8 -->
<svg xmlns="http://www.w3.org/2000/svg" xml:space="preserve" width="1000px" height="1000px" version="1.1" style="shape-rendering:geometricPrecision; text-rendering:geometricPrecision; image-rendering:optimizeQuality; fill-rule:evenodd; clip-rule:evenodd"
viewBox="0 0 1000 1000"
 xmlns:xlink="http://www.w3.org/1999/xlink">
 <defs>
  <style type="text/css">
   <![CDATA[
    .fil4 {fill:#FEFEFE;fill-rule:nonzero}
    .fil41 {fill:#FCC000;fill-rule:nonzero}
    .fil24 {fill:#FDDC00;fill-rule:nonzero}
    .fil45 {fill:#FCD162;fill-rule:nonzero}
    .fil29 {fill:#FDE31E;fill-rule:nonzero}
    .fil38 {fill:#FCDC7F;fill-rule:nonzero}
    .fil36 {fill:#FBD03B;fill-rule:nonzero}
    .fil8 {fill:#DF2025;fill-rule:nonzero}
    .fil13 {fill:#E25055;fill-rule:nonzero}
    .fil34 {fill:#F2F2F1;fill-rule:nonzero}
    .fil10 {fill:#F1DAA5;fill-rule:nonzero}
    .fil6 {fill:#EEEDEC;fill-rule:nonzero}
    .fil27 {fill:#E06A6B;fill-rule:nonzero}
    .fil1 {fill:#EBEAE9;fill-rule:nonzero}
    .fil14 {fill:#E9DDC3;fill-rule:nonzero}
    .fil44 {fill:#DA5C5F;fill-rule:nonzero}
    .fil18 {fill:#E5E4E3;fill-rule:nonzero}
    .fil35 {fill:#DB7D7C;fill-rule:nonzero}
    .fil22 {fill:#D22529;fill-rule:nonzero}
    .fil31 {fill:#CB2B39;fill-rule:nonzero}
    .fil40 {fill:#C92728;fill-rule:nonzero}
    .fil9 {fill:#DCC58E;fill-rule:nonzero}
    .fil28 {fill:#D6ECFB;fill-rule:nonzero}
    .fil11 {fill:#D7D5D3;fill-rule:nonzero}
    .fil32 {fill:#D2D0CE;fill-rule:nonzero}
    .fil46 {fill:#B84A4F;fill-rule:nonzero}
    .fil23 {fill:#C6E4F9;fill-rule:nonzero}
    .fil39 {fill:#BE6A69;fill-rule:nonzero}
    .fil37 {fill:#A22930;fill-rule:nonzero}
    .fil30 {fill:#BFBDBB;fill-rule:nonzero}
    .fil3 {fill:#C0CB67;fill-rule:nonzero}
    .fil12 {fill:#BAB9B6;fill-rule:nonzero}
    .fil47 {fill:#9C4C4D;fill-rule:nonzero}
    .fil42 {fill:#932933;fill-rule:nonzero}
    .fil15 {fill:#B9B5B1;fill-rule:nonzero}
    .fil26 {fill:#A7CEE9;fill-rule:nonzero}
    .fil43 {fill:#693538;fill-rule:nonzero}
    .fil7 {fill:#A09B97;fill-rule:nonzero}
    .fil25 {fill:#8C8783;fill-rule:nonzero}
    .fil21 {fill:#75B6DC;fill-rule:nonzero}
    .fil16 {fill:#67625E;fill-rule:nonzero}
    .fil20 {fill:#625D5A;fill-rule:nonzero}
    .fil19 {fill:#4C4846;fill-rule:nonzero}
    .fil33 {fill:#6194B2;fill-rule:nonzero}
    .fil17 {fill:#007AAD;fill-rule:nonzero}
    .fil2 {fill:#00628F;fill-rule:nonzero}
    .fil5 {fill:#0D567E;fill-rule:nonzero}
    .fil0 {fill:#184C6E;fill-rule:nonzero}
   ]]>
  </style>
 </defs>
 <g id="Слой_x0020_1">
  <metadata id="CorelCorpID_0Corel-Layer"/>
  <path class="fil0" d="M421 908l-270 0c-9,0 -16,-7 -16,-15l0 -372 286 0 0 387z"/>
  <path class="fil1" d="M421 903l-264 0c-8,0 -15,-7 -15,-15l0 -372 279 0 0 387z"/>
  <path class="fil2" d="M421 892l-286 0 0 -368c0,-11 9,-20 21,-20l265 0 0 388z"/>
  <polygon class="fil3" points="135,772 421,772 421,759 135,759 "/>
  <polygon class="fil3" points="135,578 421,578 421,566 135,566 "/>
  <polygon class="fil4" points="229,529 327,529 327,521 229,521 "/>
  <polygon class="fil4" points="342,796 402,796 402,787 342,787 "/>
  <polygon class="fil4" points="342,815 402,815 402,807 342,807 "/>
  <path class="fil5" d="M156 504l0 0c-12,0 -21,9 -21,20l0 368 21 0 0 -388z"/>
  <path class="fil4" d="M227 643c11,0 16,-8 16,-17 0,-8 -5,-17 -16,-17l-11 0 0 34 11 0zm0 -40c15,0 23,11 23,23 0,12 -8,24 -23,24l-18 0 0 -47 18 0z"/>
  <polygon class="fil4" points="281,609 272,609 272,644 281,644 281,650 256,650 256,644 265,644 265,609 256,609 256,603 281,603 "/>
  <path class="fil4" d="M293 609c4,-4 10,-7 17,-7 11,0 19,7 22,18l-7 0c-2,-7 -8,-11 -15,-11 -5,0 -9,2 -12,5 -3,3 -5,8 -5,13 0,4 2,9 5,12 3,3 7,5 12,5 7,0 13,-4 16,-12l6 0c-2,11 -11,19 -22,19 -7,0 -13,-3 -17,-7 -4,-5 -7,-11 -7,-17 0,-7 3,-13 7,-18z"/>
  <polygon class="fil4" points="352,650 352,609 337,609 337,602 373,602 373,609 359,609 359,650 "/>
  <path class="fil4" d="M228 715l21 0 -11 -26 -10 26zm24 9l-27 0 -7 17 -10 0 27 -68 7 0 27 68 -11 0 -6 -17z"/>
  <polygon class="fil4" points="280,715 305,715 305,707 280,707 "/>
  <polygon class="fil4" points="367,682 330,732 368,732 368,741 319,741 319,733 356,683 319,683 319,674 367,674 "/>
  <path class="fil6" d="M851 875l-211 0c-8,0 -15,-7 -15,-16l0 -297c0,-9 7,-15 15,-15l211 0c9,0 16,6 16,15l0 297c0,9 -7,16 -16,16z"/>
  <polygon class="fil7" points="638,580 854,580 854,576 638,576 "/>
  <polygon class="fil7" points="638,606 854,606 854,602 638,602 "/>
  <polygon class="fil7" points="638,633 854,633 854,629 638,629 "/>
  <polygon class="fil7" points="638,659 854,659 854,656 638,656 "/>
  <polygon class="fil7" points="638,686 854,686 854,682 638,682 "/>
  <polygon class="fil7" points="638,712 854,712 854,709 638,709 "/>
  <polygon class="fil7" points="638,739 854,739 854,735 638,735 "/>
  <polygon class="fil7" points="638,765 854,765 854,762 638,762 "/>
  <polygon class="fil7" points="638,792 854,792 854,788 638,788 "/>
  <polygon class="fil7" points="638,818 854,818 854,815 638,815 "/>
  <polygon class="fil7" points="638,845 854,845 854,841 638,841 "/>
  <polygon class="fil8" points="825,861 829,861 829,559 825,559 "/>
  <path class="fil7" d="M901 561l8 0 -3 -14c0,-2 -2,-2 -2,0l-3 14z"/>
  <path class="fil9" d="M914 825l0 -246c0,-1 -1,-3 -3,-3l-12 0c-2,0 -3,2 -3,3l0 246 18 0z"/>
  <path class="fil10" d="M905 576l-6 0c-2,0 -3,2 -3,3l0 246 9 0 0 -249z"/>
  <polygon class="fil11" points="896,858 914,858 914,803 896,803 "/>
  <polygon class="fil12" points="896,858 914,858 914,840 896,840 "/>
  <path class="fil13" d="M896 847l0 18c0,5 4,10 9,10 5,0 9,-5 9,-10l0 -18 -18 0z"/>
  <path class="fil14" d="M896 579l18 0 -6 -25c-1,-2 -5,-2 -5,0l-7 25z"/>
  <path class="fil15" d="M360 281l0 101c0,10 -10,20 -20,20l-97 0 0 -54 -4 0 0 54 -61 0c-10,0 -18,-10 -18,-20l0 -101 -4 0 0 101c0,14 8,29 22,29l162 0c14,0 24,-15 24,-29l0 -101 -4 0z"/>
  <polygon class="fil16" points="248,368 235,368 235,353 248,353 "/>
  <polygon class="fil16" points="358,305 365,305 365,280 358,280 "/>
  <polygon class="fil16" points="154,305 161,305 161,280 154,280 "/>
  <path class="fil2" d="M178 195c-3,-1 -5,-1 -7,-1 -28,0 -51,23 -51,51 0,28 23,51 51,51 2,0 4,-1 7,-1l0 -100z"/>
  <path class="fil17" d="M178 244l0 -49c-3,-1 -5,-1 -7,-1 -28,0 -50,22 -51,50l58 0z"/>
  <path class="fil18" d="M136 232c0,-8 -11,-10 -13,-2 -2,4 -3,10 -3,15 0,5 1,10 3,15 2,7 13,6 13,-2l0 -26z"/>
  <path class="fil18" d="M170 194l0 0 0 102 0 0c2,0 4,0 5,-1 5,0 8,-4 8,-8l0 -84c0,-5 -3,-8 -8,-9 -1,0 -3,0 -5,0z"/>
  <path class="fil2" d="M342 195c2,-1 4,-1 6,-1 28,0 51,23 51,51 0,28 -23,51 -51,51 -2,0 -4,-1 -6,-1l0 -100z"/>
  <path class="fil17" d="M342 244l0 -49c2,-1 4,-1 6,-1 28,0 50,22 51,50l-57 0z"/>
  <path class="fil18" d="M384 232c0,-8 10,-10 13,-2 1,4 2,10 2,15 0,5 -1,10 -2,15 -3,7 -13,6 -13,-2l0 -26z"/>
  <path class="fil18" d="M350 194l0 0 0 102 0 0c-2,0 -4,0 -6,-1 -4,0 -8,-4 -8,-8l0 -84c0,-5 4,-8 8,-9 2,0 4,0 6,0z"/>
  <path class="fil15" d="M410 239c-4,0 -7,-3 -8,-7 -1,-119 -48,-164 -142,-164 -95,0 -141,45 -143,164 0,4 -3,7 -7,7 -4,0 -8,-3 -8,-7 2,-127 55,-191 158,-191 102,0 155,64 157,191 0,4 -3,7 -7,7z"/>
  <path class="fil2" d="M178 84c2,0 4,0 5,-1 21,-11 46,-15 77,-15 30,0 56,4 76,15 2,1 4,1 5,1l0 0c12,0 16,-15 6,-21 -23,-15 -52,-22 -87,-22 -35,0 -65,7 -88,22 -9,6 -5,21 6,21z"/>
  <path class="fil17" d="M172 76c23,-15 53,-22 88,-22 35,0 64,7 87,22 2,1 3,2 3,3 4,-5 3,-12 -3,-16 -23,-15 -52,-22 -87,-22 -35,0 -65,7 -88,22 -6,4 -6,11 -3,16 1,-1 2,-2 3,-3z"/>
  <path class="fil16" d="M422 242c0,7 -5,12 -12,12 -6,0 -12,-5 -12,-12 0,-6 6,-11 12,-11 7,0 12,5 12,11z"/>
  <path class="fil15" d="M416 242c0,3 -3,6 -6,6 -3,0 -5,-3 -5,-6 0,-3 2,-5 5,-5 3,0 6,2 6,5z"/>
  <path class="fil16" d="M120 242c0,7 -5,12 -11,12 -7,0 -12,-5 -12,-12 0,-6 5,-11 12,-11 6,0 11,5 11,11z"/>
  <path class="fil15" d="M114 242c0,3 -2,6 -5,6 -3,0 -6,-3 -6,-6 0,-3 3,-5 6,-5 3,0 5,2 5,5z"/>
  <path class="fil19" d="M308 354l-97 0c-5,0 -10,-4 -10,-10l0 -172c0,-5 5,-9 10,-9l97 0c6,0 10,4 10,9l0 172c0,6 -4,10 -10,10z"/>
  <path class="fil20" d="M318 243l0 -72c0,-5 -4,-8 -9,-8l-99 0c-5,0 -9,3 -9,8l0 72 117 0z"/>
  <polygon class="fil21" points="211,330 309,330 309,170 211,170 "/>
  <polygon class="fil22" points="219,211 267,211 267,179 219,179 "/>
  <polygon class="fil23" points="219,229 300,229 300,221 219,221 "/>
  <polygon class="fil23" points="219,247 300,247 300,239 219,239 "/>
  <polygon class="fil23" points="219,265 300,265 300,257 219,257 "/>
  <polygon class="fil23" points="248,283 300,283 300,275 248,275 "/>
  <polygon class="fil23" points="248,302 300,302 300,294 248,294 "/>
  <polygon class="fil24" points="231,187 233,194 239,194 234,197 236,204 231,199 226,203 228,197 223,194 229,194 "/>
  <polygon class="fil24" points="246,202 247,204 249,204 247,205 248,207 246,206 244,208 245,205 243,204 245,204 "/>
  <polygon class="fil24" points="246,180 247,182 249,182 247,184 248,186 246,185 244,186 245,184 243,182 245,182 "/>
  <polygon class="fil24" points="252,186 252,187 255,187 253,189 254,191 252,190 250,191 250,189 248,187 251,187 "/>
  <polygon class="fil24" points="252,196 252,198 255,198 253,200 254,202 252,201 250,202 250,200 248,198 251,198 "/>
  <polygon class="fil25" points="211,170 303,170 303,170 "/>
  <path class="fil26" d="M211 262l0 -92 92 0c-12,12 -24,24 -36,35l0 -26 -48 0 0 32 42 0c-3,4 -6,7 -9,10l-33 0 0 8 25 0c-4,3 -7,7 -10,10l-15 0 0 8 7 0c-5,5 -10,10 -15,15z"/>
  <path class="fil27" d="M261 211l-42 0 0 -32 48 0 0 26c-2,2 -4,4 -6,6zm-18 -7l2 1 -1 3 2 -2 2 1 -1 -2 2 -1 -2 0 -1 -2 -1 2 -2 0zm-12 -5l5 5 -2 -7 5 -3 -6 0 -2 -7 -2 7 -6 0 5 3 -2 6 5 -4zm17 -1l2 2 0 2 2 -1 2 1 -1 -2 2 -2 -3 0 0 -2 -1 2 -3 0zm0 -11l2 2 0 2 2 -1 2 1 -1 -2 2 -2 -3 0 0 -1 -1 1 -3 0zm-5 -5l2 2 -1 2 2 -1 2 1 -1 -2 2 -2 -2 0 -1 -2 -1 2 -2 0z"/>
  <path class="fil28" d="M244 229l-25 0 0 -8 33 0c-3,2 -6,5 -8,8z"/>
  <path class="fil28" d="M226 247l-7 0 0 -8 15 0c-3,3 -6,5 -8,8z"/>
  <polygon class="fil29" points="236,204 231,199 226,203 228,197 223,194 229,194 231,187 233,194 239,194 234,197 "/>
  <polygon class="fil29" points="244,208 245,205 243,204 245,204 246,202 247,204 249,204 247,205 248,207 246,206 "/>
  <polygon class="fil29" points="244,186 245,184 243,182 245,182 246,180 247,182 249,182 247,184 248,186 246,185 "/>
  <polygon class="fil29" points="250,191 250,189 248,187 251,187 252,186 252,187 255,187 253,189 254,191 252,190 "/>
  <polygon class="fil29" points="250,202 250,200 248,198 251,198 252,196 252,198 255,198 253,200 254,202 252,201 "/>
  <path class="fil18" d="M271 341c0,4 -6,6 -12,6 -6,0 -11,-2 -11,-6 0,-3 5,-5 11,-5 6,0 12,2 12,5z"/>
  <path class="fil18" d="M294 341c0,2 -2,3 -6,3 -3,0 -5,-1 -5,-3 0,-1 2,-2 5,-2 4,0 6,1 6,2z"/>
  <path class="fil18" d="M236 341c0,2 -3,3 -6,3 -3,0 -6,-1 -6,-3 0,-1 3,-2 6,-2 3,0 6,1 6,2z"/>
  <path class="fil30" d="M676 364l-40 0c-10,0 -19,-8 -19,-18l0 -271c0,-11 9,-19 19,-19l40 0c11,0 19,8 19,19l0 271c0,10 -8,18 -19,18z"/>
  <path class="fil2" d="M617 342l0 8c0,8 7,14 15,14l48 0c8,0 15,-6 15,-14l0 -8 -78 0z"/>
  <polygon class="fil2" points="627,114 685,114 685,93 627,93 "/>
  <polygon class="fil6" points="627,96 685,96 685,83 627,83 "/>
  <polygon class="fil31" points="627,126 685,126 685,112 627,112 "/>
  <path class="fil6" d="M646 325l9 0 0 -3c0,-1 0,-2 0,-2 0,-1 0,-2 0,-2 -1,-1 -1,-2 -2,-3 -1,0 -2,-1 -3,-1 -1,0 -2,1 -2,1 -1,1 -2,2 -2,3 0,0 0,1 0,1 0,1 0,2 0,3l0 3zm12 0l11 0 0 3 -26 0 0 -6c0,-1 0,-2 0,-3 0,-1 0,-2 0,-2 1,-2 2,-3 3,-4 1,-1 2,-2 4,-2 1,0 2,0 3,1 1,0 2,0 2,1 1,1 1,1 2,2 0,1 0,2 0,3l1 0 11 -8 0 4 -11 7 0 4z"/>
  <path class="fil6" d="M666 295c0,-1 0,-2 0,-2 0,-1 -1,-2 -1,-2 0,-1 -1,-1 -1,-2 -1,0 -2,0 -2,0 -1,-1 -1,-1 -2,-1 0,0 -1,0 -1,0l-16 0 0 -3 16 0c0,0 1,0 2,0 0,0 1,0 1,1 1,0 2,0 3,1 1,0 2,1 2,2 1,0 1,1 2,2 0,1 0,3 0,4 0,2 0,3 0,4 -1,1 -1,2 -2,3 0,0 -1,1 -2,1 0,1 -1,1 -2,2 -1,0 -1,0 -2,0 -1,0 -2,0 -2,0l-16 0 0 -3 16 0c0,0 1,0 2,0 0,0 1,0 1,0 1,-1 2,-2 3,-3 1,-1 1,-2 1,-4z"/>
  <path class="fil6" d="M650 276c0,0 1,0 2,0 0,-1 0,-1 1,-2 0,0 0,-1 1,-1 0,-1 0,-2 0,-2 0,-1 1,-2 1,-3 0,-1 1,-2 1,-3 1,-1 1,-1 2,-2 1,0 2,-1 3,-1 2,0 3,1 4,1 1,1 2,1 2,2 1,1 1,2 2,3 0,2 0,3 0,4 0,1 0,2 0,3 0,0 0,1 0,2 -1,0 -1,1 -1,1 0,1 0,1 0,1l-3 0c0,0 0,-1 0,-1 1,-1 1,-1 1,-2 0,0 0,-1 0,-2 0,0 0,-1 0,-2 0,0 0,-1 0,-2 0,-1 0,-2 -1,-2 0,-1 -1,-1 -1,-2 -1,0 -2,0 -3,0 0,0 -1,0 -1,0 -1,1 -1,1 -2,2 0,0 0,1 0,1 -1,1 -1,2 -1,2 0,1 -1,2 -1,3 0,1 -1,2 -1,3 -1,1 -1,1 -2,2 -1,0 -2,0 -3,0 -1,0 -3,0 -3,0 -1,-1 -2,-1 -3,-2 0,-1 -1,-2 -1,-3 0,-1 -1,-2 -1,-3 0,-2 0,-3 1,-4 0,-1 0,-3 1,-4l3 0c-1,2 -1,3 -1,4 -1,1 -1,2 -1,3 0,1 0,2 0,3 1,1 1,1 1,2 1,0 1,1 2,1 0,0 1,0 2,0z"/>
  <path class="fil6" d="M650 254c0,0 1,0 2,0 0,0 0,-1 1,-1 0,-1 0,-1 1,-2 0,-1 0,-1 0,-2 0,-1 1,-2 1,-3 0,-1 1,-2 1,-3 1,0 1,-1 2,-2 1,0 2,0 3,0 2,0 3,0 4,0 1,1 2,2 2,3 1,0 1,2 2,3 0,1 0,2 0,4 0,0 0,1 0,2 0,0 0,1 0,2 -1,0 -1,1 -1,2 0,0 0,0 0,1l-3 0c0,-1 0,-1 0,-2 1,0 1,-1 1,-2 0,0 0,-1 0,-1 0,-1 0,-2 0,-2 0,-1 0,-2 0,-3 0,-1 0,-1 -1,-2 0,-1 -1,-1 -1,-1 -1,-1 -2,-1 -3,-1 0,0 -1,0 -1,1 -1,0 -1,0 -2,1 0,0 0,1 0,2 -1,0 -1,1 -1,2 0,1 -1,2 -1,3 0,1 -1,1 -1,2 -1,1 -1,2 -2,2 -1,1 -2,1 -3,1 -1,0 -3,-1 -3,-1 -1,0 -2,-1 -3,-2 0,-1 -1,-2 -1,-3 0,-1 -1,-2 -1,-3 0,-2 0,-3 1,-4 0,-1 0,-2 1,-3l3 0c-1,1 -1,2 -1,3 -1,1 -1,2 -1,4 0,1 0,2 0,2 1,1 1,2 1,2 1,0 1,1 2,1 0,0 1,0 2,0z"/>
  <polygon class="fil6" points="643,235 669,235 669,232 643,232 "/>
  <path class="fil6" d="M647 216c3,1 6,3 9,4l2 1 0 -9 -2 1c-3,1 -6,2 -9,3l0 0zm22 12l-26 -10 0 -3 26 -11 0 4 -8 3 0 11 8 3 0 3z"/>
  <path class="fil6" d="M657 187c2,-1 5,-3 7,-4l0 0c-2,0 -5,0 -7,0l-14 0 0 -3 26 0 0 3 -15 10c-2,2 -5,3 -7,5l0 0c3,-1 5,-1 8,-1l14 0 0 4 -26 0 0 -4 14 -10z"/>
  <path class="fil4" d="M617 75l0 -4c0,-8 7,-15 15,-15l4 0c-10,0 -19,8 -19,19z"/>
  <path class="fil32" d="M656 342l-39 0 0 -267c0,-11 9,-19 19,-19l20 0 0 27 -29 0 0 43 29 0 0 54 -13 0 0 3 13 0 0 5 -13 9 0 4 13 0 0 8 -13 6 0 3 13 5 0 9 -13 0 0 3 13 0 0 8c0,0 0,0 0,0 0,1 -1,2 -1,3 0,1 -1,2 -1,3 0,1 0,1 0,2 -1,1 -1,1 -1,2 -1,0 -1,1 -1,1 -1,0 -2,0 -2,0 -1,0 -2,0 -2,0 -1,0 -1,-1 -2,-1 0,0 0,-1 -1,-2 0,0 0,-1 0,-2 0,-2 0,-3 1,-4 0,-1 0,-2 1,-3l-3 0c-1,1 -1,2 -1,3 -1,1 -1,2 -1,4 0,1 1,2 1,3 0,1 1,2 1,3 1,1 2,2 3,2 0,0 2,1 3,1 1,0 2,0 3,-1 1,0 1,-1 2,-2 0,-1 1,-1 1,-2 0,0 0,0 0,-1l0 13c0,0 0,0 0,0 0,1 -1,2 -1,3 0,1 -1,2 -1,3 0,0 0,1 0,2 -1,0 -1,1 -1,1 -1,1 -1,1 -1,2 -1,0 -2,0 -2,0 -1,0 -2,0 -2,0 -1,0 -1,-1 -2,-1 0,-1 0,-1 -1,-2 0,-1 0,-2 0,-3 0,-1 0,-2 1,-3 0,-1 0,-2 1,-4l-3 0c-1,1 -1,3 -1,4 -1,1 -1,2 -1,4 0,1 1,2 1,3 0,1 1,2 1,3 1,1 2,1 3,2 0,0 2,0 3,0 1,0 2,0 3,0 1,-1 1,-1 2,-2 0,-1 1,-2 1,-3 0,0 0,0 0,0l0 11 -13 0 0 3 13 0 0 14 -13 0 0 3 13 0 0 9c0,0 0,-1 -1,-1 0,-1 -1,-1 -2,-1 -1,-1 -2,-1 -3,-1 -2,0 -3,1 -4,2 -1,1 -2,2 -3,4 0,0 0,1 0,2 0,1 0,2 0,3l0 6 13 0 0 14z"/>
  <path class="fil33" d="M656 364l-24 0c-8,0 -15,-6 -15,-14l0 -8 39 0 0 22z"/>
  <path class="fil32" d="M655 325l-9 0 0 -3c0,-1 0,-2 0,-3 0,0 0,-1 0,-1 0,-1 1,-2 2,-3 0,0 1,-1 2,-1 1,0 2,1 3,1 1,1 1,2 2,3 0,0 0,1 0,2 0,0 0,1 0,2l0 3zm1 -105l0 0c-3,-1 -6,-3 -9,-4l0 0c3,-1 6,-2 9,-3l0 0 0 7z"/>
  <polygon class="fil33" points="627,114 627,93 627,96 656,96 656,112 627,112 "/>
  <polygon class="fil34" points="656,96 627,96 627,83 656,83 "/>
  <polygon class="fil35" points="656,126 627,126 627,112 656,112 "/>
  <path class="fil34" d="M656 328l-13 0 0 -6c0,-1 0,-2 0,-3 0,-1 0,-2 0,-2 1,-2 2,-3 3,-4 1,-1 2,-2 4,-2 1,0 2,0 3,1 1,0 2,0 2,1 1,0 1,1 1,1l0 14zm-6 -14c-1,0 -2,1 -2,1 -1,1 -2,2 -2,3 0,0 0,1 0,1 0,1 0,2 0,3l0 3 9 0 0 -3c0,-1 0,-2 0,-2 0,-1 0,-2 0,-2 -1,-1 -1,-2 -2,-3 -1,0 -2,-1 -3,-1z"/>
  <path class="fil34" d="M656 305l-13 0 0 -3 13 0 0 3zm0 -17l-13 0 0 -3 13 0 0 3z"/>
  <path class="fil34" d="M650 279c-1,0 -3,0 -3,0 -1,-1 -2,-1 -3,-2 0,-1 -1,-2 -1,-3 0,-1 -1,-2 -1,-3 0,-2 0,-3 1,-4 0,-1 0,-3 1,-4l3 0c-1,2 -1,3 -1,4 -1,1 -1,2 -1,3 0,1 0,2 0,3 1,1 1,1 1,2 1,0 1,1 2,1 0,0 1,0 2,0 0,0 1,0 2,0 0,-1 0,-1 1,-2 0,0 0,-1 1,-1 0,-1 0,-2 0,-2 0,-1 1,-2 1,-3 0,-1 1,-2 1,-3 0,0 0,0 0,0l0 9c0,0 0,0 0,0 0,1 -1,2 -1,3 -1,1 -1,1 -2,2 -1,0 -2,0 -3,0z"/>
  <path class="fil34" d="M650 258c-1,0 -3,-1 -3,-1 -1,0 -2,-1 -3,-2 0,-1 -1,-2 -1,-3 0,-1 -1,-2 -1,-3 0,-2 0,-3 1,-4 0,-1 0,-2 1,-3l3 0c-1,1 -1,2 -1,3 -1,1 -1,2 -1,4 0,1 0,2 0,2 1,1 1,2 1,2 1,0 1,1 2,1 0,0 1,0 2,0 0,0 1,0 2,0 0,0 0,-1 1,-1 0,-1 0,-1 1,-2 0,-1 0,-1 0,-2 0,-1 1,-2 1,-3 0,-1 1,-2 1,-3 0,0 0,0 0,0l0 9c0,1 0,1 0,1 0,1 -1,1 -1,2 -1,1 -1,2 -2,2 -1,1 -2,1 -3,1z"/>
  <polygon class="fil34" points="643,235 656,235 656,232 643,232 "/>
  <path class="fil34" d="M656 223l-13 -5 0 -3 13 -6 0 4 0 0c-3,1 -6,2 -9,3l0 0c3,1 6,3 9,4l0 0 0 3z"/>
  <path class="fil32" d="M647 198l0 0c2,-2 5,-3 7,-5l2 -2 0 6 -1 0c-3,0 -5,0 -8,1z"/>
  <path class="fil34" d="M656 201l-13 0 0 -4 13 -9 0 3 -2 2c-2,2 -5,3 -7,5l0 0c3,-1 5,-1 8,-1l1 0 0 4zm0 -18l-13 0 0 -3 13 0 0 3z"/>
  <path class="fil31" d="M774 364l-40 0c-10,0 -19,-8 -19,-18l0 -271c0,-11 9,-19 19,-19l40 0c11,0 19,8 19,19l0 271c0,10 -8,18 -19,18z"/>
  <polygon class="fil36" points="754,133 758,144 770,144 760,153 764,166 754,159 744,167 748,153 738,144 750,144 "/>
  <polygon class="fil36" points="715,125 793,125 793,119 715,119 "/>
  <path class="fil36" d="M738 303l0 16c0,4 4,8 8,8l16 0c5,0 8,-4 8,-8l0 -16c0,-5 -3,-9 -8,-9l-16 0c-4,0 -8,4 -8,9z"/>
  <path class="fil36" d="M793 96l0 -25c0,-8 -7,-15 -15,-15l-48 0c-8,0 -15,7 -15,15l0 25 78 0z"/>
  <path class="fil37" d="M715 342l0 8c0,8 7,14 15,14l48 0c8,0 15,-6 15,-14l0 -8 -78 0z"/>
  <path class="fil35" d="M754 342l-39 0 0 -217 39 0 0 8 -4 11 -12 0 10 9 -4 14 10 -8 0 135 -8 0c-4,0 -8,4 -8,9l0 16c0,4 4,8 8,8l8 0 0 15z"/>
  <polygon class="fil38" points="744,167 748,153 738,144 750,144 754,133 754,159 "/>
  <polygon class="fil35" points="715,119 754,119 754,96 715,96 "/>
  <polygon class="fil38" points="715,125 754,125 754,119 715,119 "/>
  <path class="fil38" d="M754 327l-8 0c-4,0 -8,-4 -8,-8l0 -16c0,-5 4,-9 8,-9l8 0 0 33z"/>
  <path class="fil38" d="M754 96l-39 0 0 -25c0,-8 7,-15 15,-15l24 0 0 40z"/>
  <path class="fil39" d="M754 364l-24 0c-8,0 -15,-6 -15,-14l0 -8 39 0 0 22z"/>
  <path class="fil40" d="M876 364l-40 0c-11,0 -19,-8 -19,-18l0 -271c0,-11 8,-19 19,-19l40 0c10,0 19,8 19,19l0 271c0,10 -9,18 -19,18z"/>
  <path class="fil41" d="M857 364l-3 0c-10,0 -18,-8 -18,-18l0 -271c0,-11 8,-19 18,-19l3 0c11,0 19,8 19,19l0 271c0,10 -8,18 -19,18z"/>
  <path class="fil40" d="M895 78l0 -7c0,-8 -7,-15 -15,-15l-48 0c-8,0 -15,7 -15,15l0 7 78 0z"/>
  <path class="fil40" d="M817 342l0 8c0,8 7,14 15,14l48 0c8,0 15,-6 15,-14l0 -8 -78 0z"/>
  <path class="fil42" d="M818 355c2,5 7,9 14,9l48 0c6,0 12,-4 14,-9l-76 0z"/>
  <path class="fil43" d="M850 327c1,0 2,0 2,-1 1,0 1,0 1,-1 1,0 1,-1 1,-2 0,0 1,-1 1,-2 0,-1 0,-2 1,-3 0,-1 0,-2 1,-2 0,-1 1,-2 2,-2 1,-1 2,-1 3,-1 1,0 3,0 4,1 1,0 1,1 2,2 1,1 1,2 1,3 1,1 1,3 1,4 0,1 0,2 0,2 0,1 -1,2 -1,2 0,1 0,1 0,2 0,1 -1,1 -1,1l-3 0c1,0 1,-1 1,-1 0,-1 0,-2 1,-2 0,-1 0,-1 0,-2 0,-1 0,-1 0,-2 0,-1 0,-2 0,-2 0,-1 -1,-2 -1,-2 0,-1 -1,-2 -1,-2 -1,0 -2,0 -3,0 -1,0 -1,0 -2,0 0,0 -1,1 -1,1 0,1 -1,1 -1,2 0,1 0,1 0,2 -1,1 -1,2 -1,3 0,1 -1,2 -1,3 -1,0 -2,1 -2,2 -1,0 -2,0 -3,0 -2,0 -3,0 -4,-1 -1,0 -2,-1 -2,-1 -1,-1 -1,-2 -1,-3 -1,-1 -1,-2 -1,-4 0,-1 0,-2 0,-4 1,-1 1,-2 2,-3l2 0c0,1 0,2 -1,4 0,1 0,2 0,3 0,1 0,2 0,3 0,0 1,1 1,1 0,1 1,1 2,2 0,0 1,0 1,0z"/>
  <path class="fil43" d="M856 305c0,-1 0,-1 0,-2 0,0 0,-1 0,-1 0,-2 0,-3 0,-4 -1,-1 -1,-2 -1,-2 -1,-1 -1,-2 -2,-2 -1,0 -1,0 -2,0 -1,0 -2,0 -3,0 0,1 -1,2 -1,2 0,1 0,2 0,2 -1,1 -1,2 -1,3l0 4 10 0zm13 0l0 3 -25 0 0 -7c0,-2 0,-3 0,-3 0,-1 0,-2 0,-3 1,-1 2,-3 3,-3 1,-1 2,-2 4,-2 1,0 2,1 3,1 1,1 2,1 3,2 0,1 1,3 1,4 1,1 1,3 1,5 0,1 0,2 0,3l10 0z"/>
  <path class="fil43" d="M848 279c3,1 6,2 8,3l3 1 0 -8 -3 1c-2,1 -5,2 -8,3l0 0zm21 12l-25 -11 0 -2 25 -11 0 4 -7 3 0 10 7 4 0 3z"/>
  <path class="fil43" d="M858 250c2,-2 5,-3 7,-5l0 0c-3,0 -5,1 -8,1l-13 0 0 -4 25 0 0 4 -14 10c-3,1 -5,3 -7,4l0 0c2,0 5,0 8,0l13 0 0 3 -25 0 0 -3 14 -10z"/>
  <polygon class="fil43" points="844,236 869,236 869,233 844,233 "/>
  <path class="fil43" d="M850 224c1,0 2,0 2,-1 1,0 1,0 1,-1 1,-1 1,-1 1,-2 0,0 1,-1 1,-2 0,-1 0,-2 1,-3 0,-1 0,-2 1,-2 0,-1 1,-2 2,-2 1,-1 2,-1 3,-1 1,0 3,0 4,1 1,0 1,1 2,2 1,1 1,2 1,3 1,1 1,3 1,4 0,1 0,1 0,2 0,1 -1,1 -1,2 0,1 0,1 0,2 0,0 -1,1 -1,1l-3 0c1,0 1,-1 1,-2 0,0 0,-1 1,-1 0,-1 0,-2 0,-2 0,-1 0,-1 0,-2 0,-1 0,-2 0,-3 0,0 -1,-1 -1,-2 0,0 -1,-1 -1,-1 -1,-1 -2,-1 -3,-1 -1,0 -1,0 -2,1 0,0 -1,1 -1,1 0,1 -1,1 -1,2 0,1 0,1 0,2 -1,1 -1,2 -1,3 0,1 -1,2 -1,3 -1,0 -2,1 -2,1 -1,1 -2,1 -3,1 -2,0 -3,0 -4,-1 -1,0 -2,-1 -2,-2 -1,0 -1,-1 -1,-2 -1,-2 -1,-3 -1,-4 0,-1 0,-3 0,-4 1,-1 1,-2 2,-3l2 0c0,1 0,2 -1,3 0,1 0,3 0,4 0,1 0,2 0,2 0,1 1,2 1,2 0,1 1,1 2,1 0,1 1,1 1,1z"/>
  <polygon class="fil43" points="855,201 855,188 844,188 844,185 869,185 869,188 858,188 858,201 869,201 869,204 844,204 844,201 "/>
  <path class="fil4" d="M856 364l-24 0c0,0 0,0 0,0l0 0c0,0 0,0 0,0l24 0zm-24 0c0,0 0,0 0,0l0 0c0,0 0,0 0,0l0 0zm0 0c-8,0 -15,-6 -15,-14l0 -4c0,0 0,0 0,0l0 4c0,8 6,14 15,14 0,0 0,0 0,0 0,0 0,0 0,0l0 0zm-15 -289l0 -4c0,-8 7,-15 15,-15l0 0c-8,0 -15,7 -15,15l0 3c0,1 0,1 0,1z"/>
  <path class="fil44" d="M817 346c0,0 0,0 0,0l0 -271c0,0 0,0 0,-1l0 4 19 0 0 264 -19 0 0 4z"/>
  <path class="fil45" d="M856 342l-20 0 0 -264 20 0 0 107 -12 0 0 3 11 0 0 13 -11 0 0 3 12 0 0 10c0,1 0,1 0,1 -1,1 -1,2 -1,3 0,1 -1,2 -1,2 0,1 0,1 -1,2 0,1 0,1 -1,1 0,1 -1,1 -2,1 0,0 -1,0 -1,-1 -1,0 -2,0 -2,-1 0,0 -1,-1 -1,-2 0,0 0,-1 0,-2 0,-1 0,-3 0,-4 1,-1 1,-2 1,-3l-2 0c-1,1 -1,2 -2,3 0,1 0,3 0,4 0,1 0,2 1,4 0,1 0,2 1,2 0,1 1,2 2,2 1,1 2,1 4,1 1,0 2,0 3,-1 0,0 1,-1 2,-1 0,-1 0,-1 0,-1l0 9 -12 0 0 3 12 0 0 6 -12 0 0 4 12 0 0 6 -12 8 0 3 12 0 0 10 -12 5 0 2 12 5 0 7c-1,0 -1,-1 -2,-1 -1,0 -2,-1 -3,-1 -2,0 -3,1 -4,2 -1,0 -2,2 -3,3 0,1 0,2 0,3 0,0 0,1 0,3l0 7 12 0 0 10c0,0 0,0 0,0 -1,1 -1,2 -1,3 0,1 -1,2 -1,2 0,1 0,2 -1,2 0,1 0,1 -1,1 0,1 -1,1 -2,1 0,0 -1,0 -1,0 -1,-1 -2,-1 -2,-2 0,0 -1,-1 -1,-1 0,-1 0,-2 0,-3 0,-1 0,-2 0,-3 1,-2 1,-3 1,-4l-2 0c-1,1 -1,2 -2,3 0,2 0,3 0,4 0,2 0,3 1,4 0,1 0,2 1,3 0,0 1,1 2,1 1,1 2,1 4,1 1,0 2,0 3,0 0,-1 1,-2 2,-2 0,0 0,0 0,-1l0 15z"/>
  <path class="fil44" d="M856 78l-39 0 0 -7c0,-8 7,-15 15,-15l24 0 0 22z"/>
  <path class="fil45" d="M856 305l-10 0 0 -4c0,-1 0,-2 1,-3 0,0 0,-1 0,-2 0,0 1,-1 1,-2 1,0 2,0 3,0 1,0 1,0 2,0 1,0 1,1 2,2 0,0 0,1 1,2 0,1 0,1 0,1l0 5c0,0 0,0 0,1zm0 -23c-3,-1 -5,-2 -8,-3l0 0c3,-1 5,-2 8,-3l0 6z"/>
  <path class="fil44" d="M832 364c0,0 0,0 0,0 0,0 0,0 0,0zm0 0c0,0 0,0 0,0 0,0 0,0 0,0zm0 0c0,0 0,0 0,0 0,0 0,0 0,0zm0 0c-9,0 -15,-6 -15,-14l0 -8 39 0 0 13 -38 0c2,5 7,9 14,9z"/>
  <path class="fil46" d="M856 364l-24 0 0 0c0,0 0,0 0,0l0 0c0,0 0,0 0,0l0 0c0,0 0,0 0,0l0 0 0 0 0 0c0,0 0,0 0,0 0,0 0,0 0,0 -7,0 -12,-4 -14,-9l38 0 0 9z"/>
  <path class="fil47" d="M851 330c-2,0 -3,0 -4,-1 -1,0 -2,-1 -2,-1 -1,-1 -1,-2 -1,-3 -1,-1 -1,-2 -1,-4 0,-1 0,-2 0,-4 1,-1 1,-2 2,-3l2 0c0,1 0,2 -1,4 0,1 0,2 0,3 0,1 0,2 0,3 0,0 1,1 1,1 0,1 1,1 2,2 0,0 1,0 1,0 1,0 2,0 2,-1 1,0 1,0 1,-1 1,0 1,-1 1,-2 0,0 1,-1 1,-2 0,-1 0,-2 1,-3 0,0 0,0 0,0l0 9c0,1 0,1 0,1 -1,0 -2,1 -2,2 -1,0 -2,0 -3,0z"/>
  <path class="fil47" d="M856 308l-12 0 0 -7c0,-2 0,-3 0,-3 0,-1 0,-2 0,-3 1,-1 2,-3 3,-3 1,-1 2,-2 4,-2 1,0 2,1 3,1 1,0 1,1 2,1l0 7c0,0 0,0 0,-1 -1,-1 -1,-2 -1,-2 -1,-1 -1,-2 -2,-2 -1,0 -1,0 -2,0 -1,0 -2,0 -3,0 0,1 -1,2 -1,2 0,1 0,2 0,2 -1,1 -1,2 -1,3l0 4 10 0c0,-1 0,-1 0,-1l0 4z"/>
  <path class="fil47" d="M856 285l-12 -5 0 -2 12 -5 0 3c-3,1 -5,2 -8,3l0 0c3,1 5,2 8,3l0 3z"/>
  <path class="fil45" d="M848 260l0 0c2,-1 4,-3 7,-4l1 -1 0 5c-3,0 -6,0 -8,0z"/>
  <path class="fil47" d="M856 263l-12 0 0 -3 12 -8 0 3 -1 1c-3,1 -5,3 -7,4l0 0c2,0 5,0 8,0l0 3zm0 -17l-12 0 0 -4 12 0 0 4z"/>
  <polygon class="fil47" points="844,236 856,236 856,233 844,233 "/>
  <path class="fil47" d="M851 227c-2,0 -3,0 -4,-1 -1,0 -2,-1 -2,-2 -1,0 -1,-1 -1,-2 -1,-2 -1,-3 -1,-4 0,-1 0,-3 0,-4 1,-1 1,-2 2,-3l2 0c0,1 0,2 -1,3 0,1 0,3 0,4 0,1 0,2 0,2 0,1 1,2 1,2 0,1 1,1 2,1 0,1 1,1 1,1 1,0 2,0 2,-1 1,0 1,0 1,-1 1,-1 1,-1 1,-2 0,0 1,-1 1,-2 0,-1 0,-2 1,-3 0,0 0,0 0,-1l0 10c0,0 0,0 0,1 -1,0 -2,1 -2,1 -1,1 -2,1 -3,1z"/>
  <polygon class="fil47" points="856,204 844,204 844,201 855,201 855,188 844,188 844,185 856,185 "/>
 </g>
</svg>
