<?xml version="1.0" encoding="UTF-8"?>
<!DOCTYPE svg PUBLIC "-//W3C//DTD SVG 1.1//EN" "http://www.w3.org/Graphics/SVG/1.1/DTD/svg11.dtd">
<!-- Creator: CorelDRAW X8 -->
<svg xmlns="http://www.w3.org/2000/svg" xml:space="preserve" width="1000px" height="1000px" version="1.1" style="shape-rendering:geometricPrecision; text-rendering:geometricPrecision; image-rendering:optimizeQuality; fill-rule:evenodd; clip-rule:evenodd"
viewBox="0 0 1000 1000"
 xmlns:xlink="http://www.w3.org/1999/xlink">
 <defs>
  <style type="text/css">
   <![CDATA[
    .fil5 {fill:#FEFEFE;fill-rule:nonzero}
    .fil8 {fill:#ED7C1C;fill-rule:nonzero}
    .fil11 {fill:#E43354;fill-rule:nonzero}
    .fil10 {fill:#F8CE69;fill-rule:nonzero}
    .fil0 {fill:#F3F1F2;fill-rule:nonzero}
    .fil9 {fill:#F0B60B;fill-rule:nonzero}
    .fil13 {fill:#EAC72C;fill-rule:nonzero}
    .fil6 {fill:#E5F3F8;fill-rule:nonzero}
    .fil7 {fill:#D5ECF0;fill-rule:nonzero}
    .fil12 {fill:#BE3745;fill-rule:nonzero}
    .fil14 {fill:#D3B220;fill-rule:nonzero}
    .fil1 {fill:#C9C6C5;fill-rule:nonzero}
    .fil16 {fill:#B7DFE6;fill-rule:nonzero}
    .fil15 {fill:#91D0D3;fill-rule:nonzero}
    .fil2 {fill:#8AC3CD;fill-rule:nonzero}
    .fil3 {fill:#28587C;fill-rule:nonzero}
    .fil4 {fill:#263E57;fill-rule:nonzero}
   ]]>
  </style>
 </defs>
 <g id="Слой_x0020_1">
  <metadata id="CorelCorpID_0Corel-Layer"/>
  <polygon class="fil0" points="269,776 276,786 278,784 278,770 "/>
  <polygon class="fil0" points="780,696 774,686 771,688 771,702 "/>
  <path class="fil1" d="M534 585c0,5 -4,9 -9,9 -5,0 -9,-4 -9,-9 0,-5 4,-9 9,-9 5,0 9,4 9,9z"/>
  <polygon class="fil2" points="767,597 278,597 278,886 771,886 771,597 "/>
  <path class="fil3" d="M445 944c-5,0 -9,-4 -9,-9 0,-4 4,-8 9,-8l80 0 0 -10 -304 0c0,0 0,0 0,0 0,21 11,37 24,37l280 0 0 -10 -80 0z"/>
  <path class="fil4" d="M525 917l0 10 80 0c5,0 9,4 9,8 0,5 -4,9 -9,9l-80 0 0 10 280 0c13,0 24,-16 24,-37 0,0 0,0 0,0l-304 0z"/>
  <path class="fil5" d="M436 935c0,5 4,9 9,9l80 0 0 -17 -80 0c-5,0 -9,4 -9,8z"/>
  <path class="fil6" d="M605 944c5,0 9,-4 9,-9 0,-4 -4,-8 -9,-8l-80 0 0 17 80 0z"/>
  <path class="fil4" d="M798 874l0 -266c0,-19 -14,-35 -31,-35l-242 0 0 24 247 0 0 289 -247 0 0 23 242 0c17,0 31,-15 31,-35z"/>
  <path class="fil3" d="M278 886l0 -289 247 0 0 -24 -242 0c-17,0 -31,16 -31,35l0 266c0,20 14,35 31,35l242 0 0 -23 -247 0z"/>
  <path class="fil7" d="M556 487l-59 0c0,0 33,78 -28,395l46 2 19 0 47 3c-61,-318 -25,-400 -25,-400z"/>
  <path class="fil5" d="M534 473l-11 1 0 -2 -10 -2c0,0 17,348 -25,401l2 11 30 3 6 -1 29 0 7 -1c-42,-53 -28,-410 -28,-410z"/>
  <path class="fil8" d="M573 432c0,33 -48,105 -48,105 0,0 -48,-72 -48,-105 0,-34 22,-43 48,-43 27,0 48,9 48,43z"/>
  <path class="fil9" d="M558 425c0,23 -33,81 -33,81 0,0 -33,-58 -33,-81 0,-23 15,-30 33,-30 18,0 33,7 33,30z"/>
  <path class="fil10" d="M544 414c0,13 -19,58 -19,58 0,0 -19,-45 -19,-58 0,-14 9,-17 19,-17 11,0 19,3 19,17z"/>
  <path class="fil11" d="M486 311c0,0 -66,34 -66,109 0,0 4,9 11,-1 6,-10 12,-37 54,-37l1 -71z"/>
  <path class="fil12" d="M564 311c0,0 66,34 66,109 0,0 -4,9 -11,-1 -7,-10 -12,-37 -54,-37l-1 -71z"/>
  <path class="fil4" d="M598 238c0,-31 -5,-60 -13,-85l-60 0 0 25c22,0 40,19 40,41 0,22 -18,40 -40,40l0 130 39 0c21,-32 34,-88 34,-151z"/>
  <path class="fil3" d="M485 219c0,-22 18,-41 40,-41l0 -25 -60 0c-8,25 -13,54 -13,85 0,63 13,119 33,151l40 0 0 -130c-22,0 -40,-18 -40,-40z"/>
  <path class="fil13" d="M486 389c-1,0 -2,1 -2,2l0 9c0,1 1,2 2,2l39 0 0 -13 -39 0z"/>
  <path class="fil14" d="M564 389l-39 0 0 13 39 0c1,0 2,-1 2,-2l0 -9c0,-1 -1,-2 -2,-2z"/>
  <path class="fil14" d="M553 219c0,15 -13,28 -28,28l0 12c22,0 40,-18 40,-40 0,-22 -18,-41 -40,-41l0 13c15,0 28,13 28,28z"/>
  <path class="fil13" d="M485 219c0,22 18,40 40,40l0 -12c-15,0 -28,-13 -28,-28 0,-15 13,-28 28,-28l0 -13c-22,0 -40,19 -40,41z"/>
  <path class="fil15" d="M553 219c0,-15 -13,-28 -28,-28l0 56c15,0 28,-13 28,-28z"/>
  <path class="fil16" d="M497 219c0,15 13,28 28,28l0 -56c-15,0 -28,13 -28,28z"/>
  <path class="fil12" d="M525 58l0 95 60 0c-17,-57 -47,-95 -60,-95z"/>
  <path class="fil11" d="M525 58c-13,0 -43,38 -60,95l60 0 0 -95z"/>
  <path class="fil12" d="M527 331c0,0 0,0 0,0l-2 0 0 93 2 0c1,0 2,-1 2,-2l0 -3 0 -4 6 -75c0,-7 -6,-9 -8,-9z"/>
  <path class="fil11" d="M523 331l0 0c0,0 -1,0 -1,0 0,0 -1,0 -1,1 -2,0 -6,2 -6,8l6 75 0 4 0 2c0,1 0,2 1,2 0,1 1,1 1,1l2 0 0 -93 -2 0z"/>
  <path class="fil7" d="M711 759c-7,-3 -16,-3 -25,0 -28,7 -47,38 -42,68 1,1 1,2 1,2l0 1c-13,3 -24,13 -30,25 -5,9 -7,19 -6,30l53 -15 110 -30 0 -140c-1,0 -3,1 -5,1 -27,8 -47,30 -56,58z"/>
  <path class="fil5" d="M684 820c-8,-4 -16,-7 -25,-7 -29,0 -52,25 -52,56 0,0 0,0 0,0 6,5 11,11 15,17l150 0 0 -103c-8,-3 -16,-4 -24,-4 -28,0 -52,16 -64,41z"/>
  <path class="fil7" d="M607 869c-7,-6 -16,-11 -25,-14 -27,-9 -54,0 -70,20 -7,-7 -14,-12 -23,-15 -5,-2 -9,-2 -14,-2 7,7 11,17 11,28l136 0c-4,-6 -9,-12 -15,-17z"/>
  <path class="fil5" d="M475 858c-8,-11 -20,-17 -33,-17l0 0c0,-1 0,-2 0,-2 0,-31 -23,-56 -52,-56 -9,0 -17,2 -25,7 -12,-25 -36,-42 -64,-42 -8,0 -16,2 -23,4l0 134 208 0c0,-11 -4,-21 -11,-28z"/>
  <path class="fil7" d="M425 871c-10,-8 -23,-11 -36,-7l0 0c0,-1 0,-2 0,-2 -5,-31 -32,-49 -60,-41 -9,3 -17,8 -23,14 -8,-10 -17,-17 -28,-21l0 72 159 0c-3,-6 -7,-11 -12,-15z"/>
  <path class="fil3" d="M578 850c0,-6 -5,-10 -11,-10l-83 0c-6,0 -11,4 -11,10l0 11 105 0 0 -11z"/>
  <path class="fil4" d="M473 861l0 11c0,6 5,11 11,11l83 0c6,0 11,-5 11,-11l0 -11 -105 0z"/>
  <path class="fil5" d="M486 866c2,1 3,2 5,2 2,0 3,-1 3,-2 0,-2 0,-2 -3,-3 -3,-1 -5,-3 -5,-6 0,-3 3,-6 7,-6 2,0 4,0 5,1l-1 4c-1,-1 -2,-1 -4,-1 -2,0 -3,0 -3,2 0,1 1,1 4,2 3,2 5,3 5,6 0,4 -3,6 -8,6 -2,0 -4,0 -6,-1l1 -4z"/>
  <polygon class="fil5" points="506,855 501,855 501,851 516,851 516,855 510,855 510,871 506,871 "/>
  <path class="fil5" d="M526 863l-2 -5c0,-1 0,-2 -1,-3l0 0c0,1 0,2 -1,3l-1 5 5 0zm-5 3l-2 5 -4 0 6 -20 6 0 6 20 -5 0 -2 -5 -5 0z"/>
  <path class="fil5" d="M540 860l1 0c3,0 4,-1 4,-3 0,-2 -1,-3 -3,-3 -1,0 -2,1 -2,1l0 5zm-5 -8c2,-1 4,-1 6,-1 3,0 5,1 7,2 1,1 1,2 1,4 0,2 -1,4 -3,5l0 0c1,0 2,2 3,3 0,3 1,5 1,6l-4 0c-1,-1 -1,-2 -2,-5 0,-2 -1,-3 -3,-3l-1 0 0 8 -5 0 0 -19z"/>
  <polygon class="fil5" points="557,855 551,855 551,851 566,851 566,855 561,855 561,871 557,871 "/>
 </g>
</svg>
