<?xml version="1.0" encoding="UTF-8"?>
<!DOCTYPE svg PUBLIC "-//W3C//DTD SVG 1.1//EN" "http://www.w3.org/Graphics/SVG/1.1/DTD/svg11.dtd">
<!-- Creator: CorelDRAW X8 -->
<svg xmlns="http://www.w3.org/2000/svg" xml:space="preserve" width="1000px" height="1000px" version="1.1" style="shape-rendering:geometricPrecision; text-rendering:geometricPrecision; image-rendering:optimizeQuality; fill-rule:evenodd; clip-rule:evenodd"
viewBox="0 0 1000 1000"
 xmlns:xlink="http://www.w3.org/1999/xlink">
 <defs>
  <style type="text/css">
   <![CDATA[
    .fil2 {fill:#1EB1FA;fill-rule:nonzero}
    .fil0 {fill:#FF2B55;fill-rule:nonzero}
    .fil3 {fill:#FFCC33;fill-rule:nonzero}
    .fil1 {fill:white;fill-rule:nonzero}
   ]]>
  </style>
 </defs>
 <g id="Слой_x0020_1">
  <metadata id="CorelCorpID_0Corel-Layer"/>
  <path class="fil0" d="M816 537c0,-17 -7,-32 -18,-43 7,-9 11,-21 11,-34 0,-22 -12,-41 -30,-52l0 -2c0,-25 -16,-47 -38,-56 -10,-23 -33,-39 -60,-39 -1,0 -3,0 -4,0 -5,-23 -26,-41 -52,-41 -29,0 -53,22 -53,50l0 0 0 356 0 0c1,38 35,69 79,69 24,0 46,-10 61,-26 4,1 9,2 13,2 36,0 65,-28 65,-62 0,-3 -1,-7 -1,-11 16,-11 27,-29 27,-50 0,-11 -3,-22 -9,-31 6,-9 9,-19 9,-30z"/>
  <path class="fil1" d="M615 673c-3,-9 -2,-18 2,-28 3,1 5,3 8,3 1,0 2,0 2,0 16,0 35,-18 37,-20l-6 -7c-5,6 -22,19 -32,18 -2,0 -3,-1 -4,-2 0,-1 1,-2 1,-3 34,-51 33,-59 8,-83l-2 -3 -7 6 3 3c20,21 23,23 -9,72 -10,15 -13,29 -10,43 -2,-1 -4,-1 -6,-1 -10,1 -16,8 -16,9l7 5c0,0 4,-5 9,-5 4,0 7,2 11,5 12,19 36,27 37,28l3 -9c-1,0 -29,-10 -36,-31z"/>
  <path class="fil1" d="M702 475c-5,22 2,35 11,45 -7,7 -16,10 -22,8 -6,-3 -8,-11 -7,-23 0,-11 -3,-20 -9,-27 -13,-14 -35,-15 -36,-15l-1 9c1,0 20,0 30,12 5,5 7,12 7,20 -2,23 7,30 13,32 2,1 5,2 7,2 8,0 17,-5 25,-13 4,3 7,5 10,7 3,2 6,4 9,6 6,6 14,14 12,22 -1,8 -9,15 -24,22 -2,1 -4,2 -5,3 -7,-12 -14,-19 -23,-21 -13,-2 -23,8 -23,9l7 6c0,0 6,-7 14,-6 6,1 12,7 17,18 -4,4 -7,9 -8,15 -2,18 19,35 20,35l6 -7c-5,-4 -18,-16 -17,-27 1,-7 6,-12 16,-17 18,-8 28,-18 29,-29 2,-10 -4,-20 -15,-30 -3,-2 -7,-4 -10,-6 -14,-9 -31,-20 -24,-48l-9 -2z"/>
  <path class="fil1" d="M754 472c-4,-7 -2,-19 6,-35 7,-14 8,-26 3,-36 -8,-17 -31,-21 -32,-21l-1 9c0,0 19,3 25,16 3,6 3,12 0,20 -7,-6 -15,-9 -22,-7 -15,2 -21,20 -22,21l9 3c0,0 5,-14 15,-16 5,-1 10,2 17,8 -10,18 -12,33 -6,43 7,10 20,12 25,12l0 -9c-3,0 -13,-1 -17,-8z"/>
  <path class="fil1" d="M780 530l-6 7c0,0 13,11 13,25 0,8 -5,16 -13,24l6 7c10,-10 16,-20 16,-31 0,-18 -16,-32 -16,-32z"/>
  <path class="fil1" d="M597 384l5 -7c-4,-3 -10,-8 -10,-13 1,-3 4,-10 26,-20 16,-6 24,-15 24,-24 1,-14 -16,-23 -17,-24l-5 8c4,2 13,9 13,16 0,5 -7,11 -19,16 -19,9 -30,18 -31,27 -1,10 9,17 14,21z"/>
  <path class="fil1" d="M681 390c-1,4 -9,11 -42,9 -25,-1 -39,3 -45,12 -7,11 1,27 9,42 10,20 16,33 4,40l4 8c21,-11 9,-34 0,-52 -7,-13 -14,-26 -10,-33 3,-4 11,-8 34,-8 -3,11 -2,19 2,23 3,2 6,3 9,3 9,0 18,-5 20,-6l-4 -8c-6,3 -16,7 -19,4 -1,-1 -2,-6 1,-16 27,1 42,-4 46,-15 2,-5 1,-11 -2,-17 5,0 8,-2 11,-5 8,-9 5,-25 5,-26l-9 2c0,0 3,12 -2,18 -2,2 -6,3 -10,3 -7,-10 -17,-19 -19,-21l-6 7c11,9 27,26 23,36z"/>
  <path class="fil1" d="M612 581l1 -9c-1,0 -15,-1 -22,9 -5,8 -3,19 5,34l8 -5c-6,-11 -8,-20 -5,-24 3,-5 10,-5 13,-5z"/>
  <path class="fil1" d="M631 367c-7,5 -7,16 -6,18l8 -1c0,-3 1,-8 3,-10 2,-1 7,0 13,3l4 -8c-9,-5 -16,-6 -22,-2z"/>
  <path class="fil1" d="M628 531c17,2 28,-1 32,-8 5,-11 -4,-25 -7,-29l-7 6c3,3 9,13 6,18 -2,4 -10,6 -23,4 -16,-2 -28,1 -34,9 -8,9 -4,21 -4,22l9 -3c0,0 -3,-8 2,-14 4,-5 13,-7 26,-5z"/>
  <path class="fil1" d="M724 677c-4,1 -8,1 -12,0 3,-5 5,-11 4,-17 -3,-17 -27,-30 -28,-30l-4 8c6,3 21,13 23,24 1,4 -1,9 -5,13 -7,-3 -12,-7 -12,-7l-2 -2 -3 1c-22,11 -32,-2 -32,-2l-7 5c0,0 13,18 41,6 5,4 16,11 31,11 2,0 5,0 8,-1 14,-3 27,-14 37,-32l-8 -4c-9,16 -19,25 -31,27z"/>
  <path class="fil2" d="M173 537c0,-17 7,-32 18,-43 -7,-9 -11,-21 -11,-34 0,-22 12,-41 30,-52l0 -2c0,-25 16,-47 39,-56 9,-23 32,-39 60,-39 1,0 2,0 3,0 5,-23 27,-41 53,-41 29,0 52,22 53,50l0 0 0 356 0 0c-1,38 -36,69 -79,69 -25,0 -47,-10 -61,-26 -5,1 -9,2 -14,2 -35,0 -64,-28 -64,-62 0,-3 0,-7 1,-11 -17,-11 -28,-29 -28,-50 0,-11 4,-22 9,-31 -5,-9 -9,-19 -9,-30z"/>
  <path class="fil1" d="M375 673c3,-9 2,-18 -3,-28 -2,1 -5,3 -8,3 0,0 -1,0 -2,0 -16,0 -35,-18 -37,-20l7 -7c5,6 21,19 31,18 2,0 4,-1 5,-2 -1,-1 -1,-2 -2,-3 -34,-51 -32,-59 -8,-83l3 -3 6 6 -2 3c-21,21 -24,23 9,72 10,15 13,29 10,43 2,-1 4,-1 6,-1 9,1 15,8 15,9l-7 5c0,0 -3,-5 -9,-5 -3,0 -7,2 -11,5 -12,19 -35,27 -36,28l-3 -9c0,0 28,-10 36,-31z"/>
  <path class="fil1" d="M287 475c5,22 -2,35 -11,45 8,7 17,10 22,8 6,-3 9,-11 8,-23 -1,-11 2,-20 9,-27 13,-14 35,-15 36,-15l0 9c0,0 -19,0 -30,12 -4,5 -7,12 -6,20 1,23 -8,30 -13,32 -3,1 -5,2 -8,2 -8,0 -17,-5 -25,-13 -3,3 -6,5 -9,7 -4,2 -7,4 -9,6 -7,6 -14,14 -13,22 1,8 9,15 24,22 2,1 4,2 6,3 6,-12 14,-19 23,-21 13,-2 22,8 22,9l-6 6c0,0 -7,-7 -15,-6 -6,1 -12,7 -17,18 5,4 8,9 8,15 2,18 -19,35 -20,35l-5 -7c5,-4 18,-16 17,-27 -1,-7 -7,-12 -16,-17 -18,-8 -28,-18 -30,-29 -1,-10 4,-20 16,-30 3,-2 6,-4 10,-6 14,-9 30,-20 24,-48l8 -2z"/>
  <path class="fil1" d="M236 472c4,-7 2,-19 -6,-35 -8,-14 -9,-26 -4,-36 9,-17 31,-21 32,-21l2 9c0,0 -19,3 -26,16 -2,6 -2,12 0,20 8,-6 15,-9 23,-7 14,2 21,20 21,21l-8 3c0,0 -6,-14 -15,-16 -5,-1 -11,2 -17,8 9,18 11,33 5,43 -6,10 -20,12 -25,12l0 -9c4,0 13,-1 18,-8z"/>
  <path class="fil1" d="M210 530l6 7c0,0 -13,11 -13,25 0,8 4,16 13,24l-6 7c-11,-10 -16,-20 -16,-31 0,-18 15,-32 16,-32z"/>
  <path class="fil1" d="M393 384l-5 -7c3,-3 10,-8 9,-13 0,-3 -4,-10 -25,-20 -16,-6 -24,-15 -25,-24 0,-14 16,-23 18,-24l4 8c-3,2 -13,9 -13,16 1,5 7,11 19,16 20,9 30,18 31,27 1,10 -8,17 -13,21z"/>
  <path class="fil1" d="M308 390c2,4 9,11 43,9 25,-1 39,3 45,12 7,11 -1,27 -9,42 -11,20 -17,33 -4,40l-4 8c-21,-11 -10,-34 0,-52 7,-13 14,-26 9,-33 -2,-4 -10,-8 -33,-8 3,11 2,19 -3,23 -2,2 -6,3 -9,3 -8,0 -17,-5 -20,-6l5 -8c5,3 15,7 18,4 2,-1 2,-6 -1,-16 -26,1 -41,-4 -45,-15 -2,-5 -1,-11 1,-17 -4,0 -8,-2 -11,-5 -8,-9 -5,-25 -4,-26l8 2c0,0 -2,12 3,18 2,2 5,3 9,3 7,-10 18,-19 20,-21l5 7c-11,9 -26,26 -23,36z"/>
  <path class="fil1" d="M377 581l-1 -9c1,0 16,-1 22,9 5,8 4,19 -5,34l-7 -5c6,-11 8,-20 5,-24 -3,-5 -11,-5 -14,-5z"/>
  <path class="fil1" d="M358 367c8,5 7,16 7,18l-9 -1c0,-3 0,-8 -3,-10 -2,-1 -6,0 -12,3l-4 -8c9,-5 16,-6 21,-2z"/>
  <path class="fil1" d="M361 531c-17,2 -27,-1 -31,-8 -6,-11 3,-25 7,-29l7 6c-3,3 -9,13 -6,18 2,4 10,6 22,4 17,-2 29,1 35,9 7,9 3,21 3,22l-8 -3c0,0 2,-8 -2,-14 -4,-5 -13,-7 -27,-5z"/>
  <path class="fil1" d="M265 677c5,1 9,1 13,0 -4,-5 -5,-11 -4,-17 3,-17 26,-30 27,-30l4 8c-5,3 -21,13 -22,24 -1,4 0,9 4,13 7,-3 12,-7 12,-7l3 -2 2 1c22,11 32,-2 33,-2l7 5c0,0 -14,18 -41,6 -5,4 -17,11 -31,11 -3,0 -5,0 -8,-1 -15,-3 -27,-14 -37,-32l8 -4c8,16 18,25 30,27z"/>
  <path class="fil3" d="M715 257c-2,3 -7,4 -11,2 -4,-3 -5,-7 -3,-11l27 -45c2,-3 7,-4 11,-2 4,2 5,7 3,10l-27 46z"/>
  <path class="fil3" d="M385 215c0,4 -4,7 -9,7 -4,0 -8,-3 -8,-7l0 -53c0,-4 4,-7 8,-7 5,0 9,3 9,7l0 53z"/>
  <path class="fil3" d="M385 881c0,4 -4,8 -9,8 -4,0 -8,-4 -8,-8l0 -53c0,-4 4,-7 8,-7 5,0 9,3 9,7l0 53z"/>
  <path class="fil3" d="M609 215c0,4 -4,7 -8,7 -5,0 -8,-3 -8,-7l0 -53c0,-4 3,-7 8,-7 4,0 8,3 8,7l0 53z"/>
  <path class="fil3" d="M609 881c0,4 -4,8 -8,8 -5,0 -8,-4 -8,-8l0 -53c0,-4 3,-7 8,-7 4,0 8,3 8,7l0 53z"/>
  <path class="fil3" d="M813 351c-4,2 -8,1 -11,-2 -3,-4 -2,-9 1,-11l42 -32c4,-2 8,-1 11,2 3,4 2,9 -1,11l-42 32z"/>
  <path class="fil3" d="M868 470c-4,1 -8,-2 -10,-6 -1,-4 1,-9 5,-10l52 -13c4,-1 8,1 9,6 1,4 -1,8 -5,10l-51 13z"/>
  <path class="fil3" d="M715 778c-2,-3 -7,-4 -11,-2 -4,3 -5,7 -3,11l27 45c2,4 7,5 11,2 4,-2 5,-7 3,-10l-27 -46z"/>
  <path class="fil3" d="M813 685c-4,-3 -8,-2 -11,2 -3,3 -2,8 1,11l42 31c4,3 8,2 11,-2 3,-4 2,-8 -1,-11l-42 -31z"/>
  <path class="fil3" d="M868 565c-4,-1 -8,2 -10,6 -1,5 1,9 5,10l52 14c4,1 8,-2 9,-6 1,-5 -1,-9 -5,-10l-51 -14z"/>
  <path class="fil3" d="M271 257c2,3 7,4 10,2 4,-3 6,-7 4,-11l-28 -45c-2,-3 -7,-4 -11,-2 -3,2 -5,7 -3,10l28 46z"/>
  <path class="fil3" d="M173 351c3,2 8,1 11,-2 2,-4 2,-9 -1,-11l-43 -32c-3,-2 -8,-1 -11,2 -2,4 -2,9 1,11l43 32z"/>
  <path class="fil3" d="M118 470c4,1 8,-2 9,-6 1,-4 -1,-9 -5,-10l-51 -13c-4,-1 -8,1 -9,6 -1,4 1,8 5,10l51 13z"/>
  <path class="fil3" d="M271 778c2,-3 7,-4 10,-2 4,3 6,7 4,11l-28 45c-2,4 -7,5 -11,2 -3,-2 -5,-7 -3,-10l28 -46z"/>
  <path class="fil3" d="M173 685c3,-3 8,-2 11,2 2,3 2,8 -1,11l-43 31c-3,3 -8,2 -11,-2 -2,-4 -2,-8 1,-11l43 -31z"/>
  <path class="fil3" d="M118 565c4,-1 8,2 9,6 1,5 -1,9 -5,10l-51 14c-4,1 -8,-2 -9,-6 -1,-5 1,-9 5,-10l51 -14z"/>
  <path class="fil0" d="M462 368l65 0 -6 15c9,-8 25,-14 38,-18 -13,-4 -29,-11 -38,-19l6 15 -65 0 6 -15c-10,8 -26,15 -38,19 12,4 28,10 38,18l-6 -15z"/>
  <path class="fil0" d="M527 437l-65 0 6 -15c-10,8 -26,15 -38,19 12,3 28,10 38,18l-6 -15 65 0 -6 15c9,-8 25,-15 38,-18 -13,-4 -29,-11 -38,-19l6 15z"/>
  <path class="fil0" d="M527 513l-65 0 6 -15c-10,8 -26,14 -38,18 12,4 28,11 38,18l-6 -14 65 0 -6 14c9,-7 25,-14 38,-18 -13,-4 -29,-10 -38,-18l6 15z"/>
  <path class="fil0" d="M527 589l-65 0 6 -15c-10,8 -26,14 -38,18 12,4 28,11 38,18l-6 -14 65 0 -6 14c9,-7 25,-14 38,-18 -13,-4 -29,-10 -38,-18l6 15z"/>
  <path class="fil0" d="M527 665l-65 0 6 -15c-10,8 -26,14 -38,18 12,4 28,11 38,18l-6 -14 65 0 -6 14c9,-7 25,-14 38,-18 -13,-4 -29,-10 -38,-18l6 15z"/>
  <path class="fil2" d="M494 368l0 -7 -32 0 6 -15c-10,8 -26,15 -38,19 12,4 28,10 38,18l-6 -15 32 0z"/>
  <path class="fil2" d="M494 444l0 -7 -32 0 6 -15c-10,8 -26,15 -38,19 12,3 28,10 38,18l-6 -15 32 0z"/>
  <path class="fil2" d="M494 520l0 -7 -32 0 6 -15c-10,8 -26,14 -38,18 12,4 28,11 38,18l-6 -14 32 0z"/>
  <path class="fil2" d="M494 596l0 -7 -32 0 6 -15c-10,8 -26,14 -38,18 12,4 28,11 38,18l-6 -14 32 0z"/>
  <path class="fil2" d="M494 672l0 -7 -32 0 6 -15c-10,8 -26,14 -38,18 12,4 28,11 38,18l-6 -14 32 0z"/>
 </g>
</svg>
