<svg width="25" height="25" viewBox="0 0 25 25" fill="none" xmlns="http://www.w3.org/2000/svg">
<path d="M23.9033 16.8303L21.1924 14.8939C20.146 14.1466 18.7268 14.2641 17.8176 15.1732L16.229 16.7617C14.1933 15.3191 9.68185 10.8083 8.23805 8.77089L9.82658 7.18241C10.7359 6.27314 10.8533 4.85385 10.1059 3.80761L8.16959 1.09677C7.22965 -0.219046 5.33096 -0.37803 4.18569 0.767087L1.68451 3.26826C-0.563245 5.51596 -0.561439 8.55785 1.68954 11.6141C5.25948 16.461 8.53883 19.7403 13.3859 23.3102C16.2128 25.3923 19.3208 25.7262 21.7317 23.3153L24.233 20.8141C25.3764 19.6706 25.221 17.7714 23.9033 16.8303ZM22.8522 19.4331L20.3509 21.9343C18.6164 23.6688 16.5119 23.187 14.544 21.7377C9.86867 18.2943 6.70548 15.1311 3.26201 10.4559C1.81323 8.48886 1.33041 6.38412 3.06543 4.64916L5.5667 2.14795C5.85899 1.85566 6.34136 1.89707 6.58048 2.23188L8.51686 4.94272C8.70704 5.20898 8.67711 5.57011 8.44576 5.80146L6.33179 7.91532C6.06548 8.18168 5.97608 8.57738 6.10201 8.93236C6.7754 10.8299 14.172 18.2251 16.0677 18.8978C16.4226 19.0239 16.8183 18.9344 17.0847 18.668L19.1986 16.5541C19.43 16.3228 19.7912 16.2929 20.0574 16.483L22.7683 18.4194C23.1038 18.659 23.1436 19.1417 22.8522 19.4331Z" fill="white"/>
</svg>
